<?xml version="1.0" standalone="no"?>
<!DOCTYPE svg PUBLIC "-//W3C//DTD SVG 20010904//EN"
 "http://www.w3.org/TR/2001/REC-SVG-20010904/DTD/svg10.dtd">
<svg version="1.0" xmlns="http://www.w3.org/2000/svg"
 width="1024.000000pt" height="1536.000000pt" viewBox="0 0 1024.000000 1536.000000"
 preserveAspectRatio="xMidYMid meet">
<metadata>
Created by potrace 1.16, written by Peter Selinger 2001-2019
</metadata>
<g transform="translate(0.000000,1536.000000) scale(0.100000,-0.100000)"
fill="#000000" stroke="none">
<path d="M0 11101 c0 -3768 2 -4260 15 -4265 8 -3 15 -12 15 -21 0 -8 7 -15
15 -15 18 0 19 11 2 30 -9 11 -8 11 8 0 11 -8 23 -19 27 -25 4 -5 10 -2 14 8
3 9 10 17 15 17 4 0 6 -7 3 -15 -4 -9 0 -15 10 -15 11 0 16 9 16 26 0 16 4 23
11 18 7 -4 7 1 -1 16 -9 17 -14 19 -20 10 -4 -7 -13 -11 -18 -9 -6 2 0 15 14
28 14 13 24 20 23 15 -4 -16 13 -44 22 -38 5 3 9 -6 9 -20 0 -34 13 -39 43
-16 21 17 24 26 20 60 -6 40 0 47 26 31 11 -7 10 -11 -5 -19 -17 -9 -17 -11 0
-37 15 -23 16 -27 3 -22 -9 3 -18 -1 -21 -10 -10 -24 1 -27 28 -9 20 13 24 13
20 2 -3 -8 -20 -21 -37 -30 -27 -12 -29 -16 -14 -22 11 -4 25 0 36 10 20 19
31 20 31 5 0 -5 -4 -7 -10 -4 -5 3 -12 -6 -16 -20 -3 -14 -13 -25 -20 -25 -8
0 -18 -8 -21 -17 -4 -10 -11 -21 -16 -24 -5 -4 0 -12 12 -18 11 -7 21 -16 21
-22 0 -6 -4 -8 -9 -5 -12 8 -19 -12 -13 -40 4 -21 42 -42 42 -24 0 5 9 8 20 7
14 -1 20 -8 20 -24 0 -15 5 -21 18 -18 12 2 17 -4 18 -21 2 -31 -9 -30 -34 1
-15 19 -30 25 -63 27 -24 0 -54 5 -67 9 -14 6 -30 4 -42 -3 -16 -10 -25 -9
-49 5 -36 21 -47 22 -31 2 7 -8 10 -24 7 -35 -3 -11 -4 -20 -3 -20 0 0 16 4
33 9 20 6 35 6 38 0 4 -5 -3 -9 -14 -9 -13 0 -21 -7 -21 -16 0 -14 -2 -15 -16
-3 -15 12 -16 11 -10 -9 7 -21 6 -22 -11 -12 -14 9 -18 21 -15 45 3 24 -2 39
-18 55 -12 12 -25 19 -28 15 -4 -3 0 -10 8 -15 12 -7 12 -12 -3 -28 -19 -21
-24 -43 -5 -24 23 23 32 12 10 -11 -18 -19 -22 -34 -21 -83 1 -57 3 -61 31
-73 22 -10 27 -16 18 -25 -8 -8 -14 -7 -21 7 -12 21 -29 22 -29 1 0 -20 22
-42 38 -36 6 2 12 -1 12 -8 0 -6 -10 -10 -23 -8 -22 3 -22 1 -25 -110 l-3
-113 24 18 c25 18 26 43 1 43 -7 0 -11 6 -8 14 3 8 13 12 24 9 14 -4 18 -12
15 -36 -2 -16 -9 -33 -16 -37 -6 -4 -9 -13 -5 -19 4 -5 -2 -16 -14 -23 -24
-15 -29 -74 -6 -65 10 4 13 1 9 -8 -3 -8 -9 -12 -14 -9 -5 3 -9 -1224 -9
-2975 l0 -2981 938 2 937 3 -5 180 c-8 300 -2 1093 10 1205 21 203 33 335 34
377 1 22 4 39 9 36 4 -2 7 5 7 16 0 12 -4 21 -9 21 -14 0 -21 44 -8 52 9 6 9
10 1 16 -7 4 -8 15 -3 27 6 17 8 17 8 3 1 -10 6 -18 11 -18 6 0 8 12 4 28 -4
21 -3 24 5 12 9 -12 11 -9 10 15 0 17 -4 49 -8 73 -7 33 -5 42 6 42 8 0 12 4
9 9 -4 5 -1 11 5 13 8 3 26 70 44 168 1 8 5 22 8 30 14 35 47 125 47 129 0 2
-6 -2 -14 -8 -12 -10 -13 -8 -9 9 3 13 11 19 19 16 8 -3 14 -2 14 2 0 21 40
49 62 45 21 -5 127 -117 191 -205 16 -21 33 -36 38 -33 5 4 6 -1 3 -9 -4 -11
0 -13 16 -9 16 4 18 8 8 14 -10 7 -9 9 5 9 9 0 17 -4 17 -10 0 -5 6 -10 13
-10 14 0 47 -35 47 -50 0 -13 -27 -13 -35 0 -3 6 -11 10 -16 10 -6 0 -4 -7 5
-15 8 -8 22 -15 32 -15 14 0 14 -3 4 -15 -10 -12 -10 -19 -2 -27 9 -9 12 -8
12 2 1 10 7 7 20 -8 11 -13 24 -21 29 -18 5 4 12 -3 16 -14 4 -12 16 -20 28
-21 12 0 16 -3 10 -6 -7 -2 -13 -13 -13 -23 0 -10 -8 -21 -17 -23 -16 -4 -16
-5 -1 -6 9 0 23 6 32 14 8 8 19 15 25 15 6 0 11 5 11 10 0 6 -4 10 -10 10 -5
0 -10 7 -10 16 0 8 -4 13 -9 9 -5 -3 -13 0 -17 6 -4 7 -3 9 4 5 6 -3 13 -2 17
4 3 5 1 10 -5 10 -7 0 -10 7 -6 15 3 8 1 15 -3 15 -5 0 -12 -8 -15 -17 -6 -15
-9 -15 -16 -3 -12 19 -4 30 23 31 17 1 18 2 5 6 -10 2 -18 9 -18 15 0 7 -5 6
-14 -1 -12 -10 -13 -8 -9 8 3 12 12 21 20 21 9 0 13 6 10 14 -4 11 -1 13 10 9
13 -5 15 -2 10 11 -4 10 -7 20 -7 22 0 3 -4 3 -9 0 -5 -3 -11 1 -15 9 -4 11 1
15 17 15 17 0 19 2 8 9 -8 5 -21 7 -30 4 -13 -4 -13 -3 -2 5 8 6 21 7 30 4 14
-5 14 -3 2 11 -7 10 -14 39 -14 66 -1 27 -6 49 -11 48 -5 -1 -12 6 -14 17 -3
13 0 16 9 11 8 -5 10 -4 5 4 -4 6 -11 9 -16 6 -5 -3 -12 10 -16 30 -3 19 -10
35 -15 35 -5 0 -9 5 -9 10 0 6 3 9 8 8 14 -4 52 27 52 42 0 10 -7 7 -20 -10
-11 -14 -19 -18 -18 -10 2 9 -3 14 -12 12 -12 -3 -13 -1 -2 9 17 18 15 32 -3
25 -8 -3 -15 -1 -15 5 0 6 10 13 22 17 21 5 21 6 2 12 -10 4 -27 3 -38 -2 -14
-8 -17 -7 -14 4 3 7 14 14 26 16 27 4 27 7 2 34 -11 12 -20 26 -20 32 0 5 7 1
16 -10 15 -19 15 -18 11 3 -4 18 -1 23 16 24 l22 0 -22 9 c-15 6 -21 15 -17
25 3 8 1 15 -5 15 -6 0 -11 7 -11 15 0 7 -8 19 -18 25 -15 9 -14 10 5 5 22 -6
34 10 12 17 -7 2 -7 12 0 30 7 19 7 28 -2 32 -9 3 -8 7 3 15 12 9 10 11 -10
11 -20 0 -22 2 -10 10 13 9 13 12 -1 23 -9 6 -14 18 -12 25 3 6 -3 12 -14 12
-14 0 -15 2 -4 9 7 5 10 14 7 20 -4 6 -2 11 3 11 6 0 11 -6 11 -14 0 -8 5 -18
11 -22 9 -5 10 6 7 40 -4 32 -1 51 8 60 11 12 11 15 -1 19 -7 3 -19 -1 -25 -9
-7 -8 -17 -14 -23 -14 -6 0 -1 7 11 16 13 9 22 26 22 40 0 15 4 23 11 19 6 -4
8 -13 5 -21 -3 -7 0 -16 5 -20 7 -4 10 3 8 17 -1 13 1 63 5 110 8 80 10 87 36
102 31 19 44 22 36 8 -3 -5 1 -14 8 -20 17 -14 118 -32 110 -19 -3 4 -21 8
-40 8 -19 0 -34 5 -34 11 0 5 -5 7 -10 4 -6 -3 -10 -2 -10 3 0 6 7 12 15 16 8
3 15 1 15 -4 0 -5 9 -8 20 -7 11 1 20 7 20 14 0 17 -17 25 -23 11 -4 -8 -6 -7
-6 4 -1 9 -51 53 -111 98 -61 44 -110 83 -110 86 0 2 24 -13 54 -35 100 -74
221 -157 286 -195 85 -51 160 -108 155 -117 -3 -4 1 -6 8 -5 6 0 68 -27 137
-60 144 -71 299 -135 385 -159 33 -10 92 -28 132 -41 39 -13 116 -33 170 -44
54 -11 130 -32 168 -46 l71 -25 27 -101 c27 -100 102 -290 157 -398 15 -30 31
-66 35 -80 4 -14 43 -105 86 -204 44 -98 79 -190 78 -205 0 -24 -1 -24 -10 -6
-6 14 -7 6 -3 -25 l6 -45 -28 25 c-16 14 -33 28 -39 33 -5 4 -1 5 10 1 11 -4
23 -12 27 -18 4 -6 8 1 8 15 0 23 -5 27 -57 38 -32 7 -80 27 -108 45 -207 134
-274 180 -375 260 -63 50 -129 104 -146 121 -17 16 -68 61 -112 99 -45 39 -79
72 -77 75 3 2 15 -4 27 -15 l23 -19 -19 23 c-11 13 -26 20 -36 17 -18 -6 -163
121 -155 136 4 5 0 6 -7 4 -8 -3 -58 39 -120 102 -124 126 -206 225 -190 231
12 4 5 32 -9 32 -4 0 -6 -7 -3 -15 11 -28 -3 -15 -46 40 -45 59 -77 77 -38 23
69 -99 205 -257 307 -357 64 -63 115 -117 114 -121 -3 -11 46 -55 61 -55 12 0
184 -135 314 -247 95 -82 245 -194 393 -292 172 -114 199 -135 192 -151 -2 -7
3 -15 13 -19 14 -5 15 -4 4 9 -19 23 1 17 34 -10 l30 -24 -22 -73 c-52 -184
-68 -353 -77 -818 -3 -146 -9 -366 -15 -490 -12 -271 -13 -420 -2 -420 4 0 8
46 9 103 2 56 5 154 8 217 3 63 10 305 16 538 14 618 17 642 109 977 12 44 44
170 70 280 26 110 54 216 63 236 25 61 68 112 192 230 247 233 303 300 364
435 23 51 41 95 41 99 0 27 95 198 124 223 91 80 240 135 518 193 104 21 176
44 305 98 207 85 325 147 508 267 138 90 201 147 338 304 26 30 43 46 38 35
-8 -17 -6 -21 10 -22 10 -1 21 2 24 8 4 5 14 5 26 -2 16 -8 18 -13 8 -25 -16
-20 -30 -18 -22 4 4 11 -3 7 -20 -10 -21 -23 -24 -32 -17 -55 7 -25 8 -25 9
-5 1 12 6 22 12 22 6 0 9 -6 6 -13 -3 -8 -2 -29 2 -48 5 -25 12 -33 25 -31 14
3 16 -1 11 -20 -4 -13 -13 -27 -19 -31 -7 -6 -6 -7 3 -5 21 6 56 -31 43 -44
-6 -6 -8 -17 -5 -24 3 -8 0 -14 -7 -14 -6 0 -8 -4 -5 -10 3 -5 1 -10 -6 -10
-7 0 -9 -3 -5 -7 4 -5 14 0 21 11 8 10 19 15 25 11 8 -5 5 -14 -10 -27 -16
-15 -19 -23 -11 -31 15 -15 14 -27 -4 -27 -8 0 -15 6 -15 13 0 8 -3 7 -10 -3
-6 -10 -3 -21 10 -35 21 -23 12 -54 -11 -39 -12 6 -12 5 0 -9 17 -21 31 -22
31 -1 0 8 4 13 10 9 16 -10 -1 -36 -23 -33 -11 2 -22 -3 -24 -9 -3 -7 2 -13
11 -13 14 0 21 -19 17 -44 -2 -10 18 -26 32 -26 5 0 5 5 1 12 -5 7 -3 8 5 3
15 -9 83 53 74 68 -3 6 -1 7 5 3 6 -3 20 11 33 31 12 21 33 49 47 63 43 45 54
86 48 182 -3 48 -15 125 -27 170 -19 74 -52 243 -63 323 -8 61 -65 351 -72
370 -5 15 -4 17 5 9 11 -10 44 -173 91 -454 12 -69 32 -169 46 -224 14 -54 28
-143 31 -196 6 -93 5 -101 -20 -143 -49 -83 -156 -201 -228 -252 -39 -27 -89
-66 -112 -86 -91 -78 -350 -262 -468 -332 -68 -40 -167 -90 -219 -110 -229
-88 -654 -214 -852 -253 -49 -9 -88 -21 -88 -26 0 -4 10 -6 23 -4 12 3 60 13
106 22 47 9 91 18 98 21 7 3 -10 -32 -39 -78 -86 -140 -224 -476 -283 -694 -9
-33 -22 -77 -30 -98 -8 -20 -15 -51 -15 -67 0 -16 -5 -32 -11 -35 -6 -4 -8
-12 -6 -19 3 -6 -2 -40 -9 -76 -18 -85 -32 -348 -39 -745 -3 -176 -10 -419
-16 -540 -13 -288 -16 -485 -6 -485 4 0 7 1 7 3 4 21 22 574 30 902 14 635 19
740 38 849 l17 98 135 66 c172 84 282 143 277 149 -3 2 -85 -36 -183 -85 -99
-49 -189 -92 -201 -96 l-21 -7 24 93 c52 196 75 270 128 401 74 183 138 317
191 402 l44 71 153 43 c177 50 488 150 503 161 6 4 28 13 50 20 123 39 290
144 620 393 132 99 184 128 205 117 29 -15 25 -20 -10 -13 -17 3 -30 1 -30 -5
0 -5 -10 -13 -22 -16 -23 -6 -23 -7 5 -22 16 -9 26 -18 23 -21 -3 -3 -12 0
-21 7 -9 7 -19 10 -23 6 -4 -4 1 -13 10 -20 16 -12 16 -14 0 -31 -9 -10 -11
-15 -4 -11 6 4 19 1 27 -8 19 -19 19 -26 0 -26 -8 0 -15 -4 -15 -9 0 -15 34
-7 42 9 5 11 7 8 7 -9 1 -16 -3 -22 -14 -18 -8 4 -17 2 -20 -4 -4 -5 -11 -7
-16 -4 -5 4 -9 1 -9 -5 0 -6 -14 -16 -30 -21 -38 -14 -38 -26 0 -34 30 -7 38
-19 21 -30 -5 -3 -12 -1 -16 5 -14 23 -31 4 -41 -46 -3 -17 1 -20 31 -20 21 0
35 5 35 12 0 19 -21 28 -31 13 -11 -18 -21 -6 -13 15 4 11 13 15 25 11 11 -4
19 -2 19 5 0 7 7 10 15 6 20 -7 50 35 32 46 -9 5 -7 8 4 8 27 0 45 -28 31 -50
-9 -15 -7 -19 9 -23 31 -8 34 -7 31 11 -2 13 -1 14 6 3 7 -10 11 -10 14 -1 3
9 8 7 18 -4 10 -13 10 -16 0 -14 -7 2 -15 -3 -17 -9 -3 -7 0 -13 6 -13 6 0 11
-7 11 -16 0 -8 5 -12 10 -9 6 4 8 9 6 13 -2 4 7 8 20 8 13 1 24 -2 24 -7 0 -5
-5 -9 -12 -9 -6 0 -22 -10 -35 -22 -20 -19 -23 -19 -23 -4 0 10 -8 25 -17 34
-16 16 -16 16 -10 -1 4 -11 10 -29 13 -42 5 -20 9 -22 35 -15 30 9 37 2 18
-17 -6 -6 -18 -9 -25 -6 -16 6 -17 -18 -4 -87 8 -41 9 -39 5 19 -4 54 -3 62 9
51 8 -6 12 -18 9 -26 -3 -8 1 -14 11 -14 13 0 14 4 4 26 -10 21 -9 27 3 35 8
5 19 8 24 8 6 0 4 -3 -2 -6 -7 -2 -13 -13 -13 -24 0 -17 3 -18 20 -9 14 8 20
8 20 0 0 -6 -6 -13 -13 -16 -20 -7 -17 -36 5 -42 24 -6 23 -14 -4 -31 -21 -13
-22 -13 -9 2 10 13 10 17 1 17 -7 0 -21 -11 -32 -25 -11 -14 -24 -23 -29 -20
-5 4 -9 -8 -9 -25 0 -17 4 -29 9 -26 5 4 12 0 14 -6 4 -8 6 -7 6 4 1 9 -5 18
-12 21 -9 3 -8 9 5 22 9 10 20 15 26 11 12 -7 -1 -80 -18 -101 -13 -16 -7 -45
10 -45 7 0 8 6 1 19 -8 15 -7 20 5 25 24 9 27 7 20 -10 -9 -23 13 -47 30 -33
9 8 16 5 25 -13 11 -21 11 -22 -4 -9 -14 11 -20 11 -32 1 -10 -9 -15 -9 -15
-1 0 6 -7 11 -15 11 -8 0 -15 -5 -15 -11 0 -5 -4 -7 -10 -4 -7 4 -7 -3 0 -20
6 -15 7 -37 4 -51 -4 -15 -2 -24 6 -24 6 0 8 -5 4 -12 -5 -7 -11 -5 -21 7 -7
11 -13 17 -14 14 0 -2 -2 -12 -4 -22 -2 -9 5 -34 15 -54 18 -38 17 -63 -4 -63
-6 0 -12 -9 -13 -20 -1 -11 3 -20 9 -20 6 0 8 -3 5 -6 -4 -4 -13 -1 -21 5 -12
10 -16 9 -24 -6 -15 -28 -4 -44 25 -37 16 4 28 2 34 -7 12 -19 11 -32 -1 -24
-24 15 -60 15 -60 1 0 -10 6 -13 16 -9 10 4 17 -1 21 -16 3 -11 10 -21 15 -21
5 0 6 5 3 10 -3 6 -2 10 4 10 5 0 13 -4 16 -10 3 -5 2 -10 -2 -10 -15 0 -70
-56 -77 -78 -6 -17 -4 -21 8 -16 9 3 16 11 16 18 0 6 9 17 19 23 18 11 18 10
5 -16 -10 -20 -11 -36 -5 -52 9 -22 16 -12 12 18 -1 6 4 15 10 19 8 5 10 -1 7
-20 -4 -19 -2 -26 7 -23 6 3 18 1 26 -3 8 -5 19 -4 26 2 10 8 13 7 13 -5 0
-18 -55 -28 -71 -13 -8 8 -10 5 -7 -9 1 -11 16 -26 33 -33 24 -10 27 -15 15
-22 -11 -7 -17 -4 -22 8 -6 16 -7 16 -7 0 -1 -21 35 -43 44 -28 4 6 11 8 16 4
5 -3 7 -10 3 -15 -3 -5 -9 -7 -14 -4 -4 3 -13 -2 -20 -10 -11 -13 -10 -14 2
-10 9 4 15 0 15 -9 0 -8 -4 -13 -9 -10 -4 3 -8 0 -8 -5 0 -6 6 -11 14 -11 16
0 28 -38 14 -42 -6 -2 -8 -14 -3 -27 5 -15 10 -19 14 -12 9 13 41 4 41 -12 0
-6 15 -24 33 -39 17 -16 26 -27 20 -23 -7 3 -13 3 -14 -2 0 -4 -2 -18 -5 -31
-4 -20 -2 -22 17 -12 11 7 23 9 27 6 3 -3 0 -6 -7 -6 -9 0 -11 -8 -6 -27 6
-26 5 -27 -12 -12 -35 31 -42 31 -37 2 3 -16 10 -32 16 -38 7 -7 8 -2 4 15 -7
24 -6 24 8 6 9 -10 13 -22 11 -27 -3 -4 -1 -10 5 -14 5 -3 10 -11 10 -17 0 -7
-5 -6 -14 1 -9 8 -16 8 -20 2 -4 -5 3 -12 14 -16 11 -3 20 -11 20 -16 0 -13
-18 -11 -22 2 -2 7 -10 4 -18 -7 -8 -10 -10 -15 -4 -11 9 5 44 -25 44 -38 0
-8 -24 -1 -33 10 -4 6 -6 -16 -4 -47 4 -64 -9 -81 -16 -20 -2 20 -4 1 -4 -43
0 -44 2 -70 4 -57 5 24 23 31 23 8 0 -8 8 -17 18 -21 16 -6 16 -7 0 -16 -10
-6 -18 -15 -18 -21 0 -7 4 -7 14 1 10 9 16 8 26 -4 11 -13 10 -14 -2 -10 -8 3
-21 -1 -28 -10 -11 -13 -10 -22 6 -54 17 -36 20 -38 61 -35 28 2 41 0 37 -7
-3 -5 -13 -9 -22 -8 -10 1 -29 -1 -44 -5 -24 -7 -25 -10 -13 -22 19 -19 36
-18 28 3 -4 11 -3 14 5 9 16 -10 15 -22 -4 -41 -14 -13 -14 -18 -2 -32 11 -14
11 -16 0 -9 -11 7 -12 4 -3 -12 16 -29 14 -34 -9 -27 -25 8 -46 -35 -24 -48
19 -11 18 -27 -1 -27 -14 0 -14 -3 0 -24 11 -17 13 -26 5 -31 -6 -4 -10 -14
-9 -23 4 -40 -1 -54 -16 -48 -19 7 -19 -1 1 -21 13 -13 13 -17 2 -24 -9 -6 -7
-9 9 -9 21 0 21 0 5 -39 -18 -42 -33 -41 -35 2 -1 14 -4 24 -7 22 -3 -2 -7
-63 -8 -136 -2 -73 -1 -131 2 -128 3 2 6 35 7 72 2 70 4 73 29 57 11 -7 12
-10 2 -10 -8 0 -13 -10 -12 -27 5 -77 0 -115 -15 -109 -19 7 -19 -1 0 -20 11
-12 19 -13 36 -4 11 7 23 9 27 6 3 -3 0 -6 -6 -6 -7 0 -12 -7 -12 -16 0 -11
-6 -14 -22 -9 -17 6 -20 4 -14 -10 3 -10 1 -24 -5 -31 -9 -11 -8 -14 5 -14 10
0 14 -5 11 -10 -11 -17 -23 -11 -33 18 -8 23 -10 18 -9 -33 0 -43 2 -51 6 -30
7 29 7 30 19 8 8 -15 9 -24 2 -28 -7 -4 -7 -11 -2 -18 13 -17 25 -70 14 -63
-6 3 -15 -1 -22 -9 -10 -12 -10 -18 1 -31 10 -12 10 -17 1 -23 -14 -8 -6 -41
9 -41 5 0 9 -7 9 -16 0 -24 -33 -13 -47 16 l-13 25 2 -28 c1 -15 6 -27 10 -27
4 0 8 -11 8 -25 0 -16 -6 -25 -15 -25 -8 0 -15 -6 -15 -14 0 -17 41 -18 53 -1
4 6 10 5 17 -5 7 -11 5 -16 -10 -18 -24 -4 -49 -32 -29 -32 11 0 11 -2 -1 -10
-13 -9 -13 -11 0 -20 12 -8 10 -10 -9 -10 -16 0 -22 4 -17 15 3 8 1 15 -4 15
-6 0 -10 -13 -10 -30 0 -23 4 -28 16 -23 14 5 14 3 3 -15 -10 -15 -16 -18 -21
-9 -5 8 -8 4 -8 -10 0 -13 3 -22 8 -22 4 1 14 1 22 0 13 -1 13 -3 0 -10 -8 -6
-17 -8 -21 -5 -10 6 -22 -72 -14 -86 4 -7 477 -10 1491 -10 l1484 0 0 3188
c-1 2170 -4 3181 -11 3170 -5 -10 -17 -18 -26 -18 -13 0 -13 3 -3 16 8 8 9 14
4 13 -22 -4 -27 2 -11 14 15 10 11 12 -28 13 -25 0 -45 -3 -45 -9 0 -5 7 -7
15 -3 8 3 14 0 12 -6 -1 -7 7 -12 18 -13 13 0 20 -7 20 -20 -1 -11 4 -24 10
-28 5 -5 -9 -5 -32 -2 -31 5 -41 3 -40 -7 1 -7 0 -13 -3 -14 -3 0 -15 -6 -28
-13 -18 -10 -26 -10 -38 0 -12 10 -13 9 -9 -4 10 -23 -12 -30 -45 -13 -17 8
-30 11 -30 6 0 -5 12 -13 27 -18 16 -6 22 -11 16 -11 -7 -1 -13 -8 -13 -17 0
-8 -5 -12 -10 -9 -6 4 -8 11 -5 16 4 5 4 9 0 9 -3 0 -10 -12 -16 -27 -7 -16
-13 -23 -16 -15 -3 6 -9 10 -14 7 -4 -3 -21 0 -36 8 -43 21 -66 12 -58 -23 7
-30 -4 -42 -40 -47 -15 -2 -21 3 -22 17 -1 11 4 20 12 20 9 0 12 -6 9 -15 -5
-11 -2 -13 10 -9 16 6 16 8 0 25 -15 17 -19 18 -34 4 -9 -8 -23 -15 -31 -15
-8 0 -10 -3 -4 -8 32 -23 35 -39 13 -58 -13 -10 -17 -12 -11 -4 9 13 6 15 -18
15 -16 0 -29 -3 -29 -7 0 -5 5 -8 10 -8 7 0 7 -6 0 -19 -8 -16 -15 -18 -39
-11 -25 7 -29 6 -24 -8 5 -11 3 -13 -8 -6 -23 14 -37 13 -43 -3 -3 -7 -2 -12
2 -9 15 9 31 -9 22 -24 -8 -13 -10 -12 -10 2 0 10 -3 17 -7 16 -5 0 -16 2 -26
7 -13 5 -15 11 -7 20 8 9 6 14 -5 19 -8 3 -15 1 -15 -3 0 -5 -3 -16 -6 -25 -4
-11 -1 -16 10 -16 9 0 16 -8 16 -17 0 -10 -4 -14 -8 -8 -11 15 -39 14 -39 -1
0 -8 6 -14 14 -14 7 0 13 -4 13 -8 0 -5 -16 -8 -35 -8 -32 1 -34 2 -18 15 16
12 16 13 -7 7 -14 -3 -28 -6 -31 -6 -4 0 -9 -13 -13 -30 -3 -16 -11 -30 -17
-30 -7 0 -9 11 -5 30 8 43 -10 37 -22 -7 -5 -21 -10 -30 -11 -20 -1 9 -8 17
-16 17 -8 0 -15 5 -15 10 0 6 -7 10 -15 10 -9 0 -12 -6 -9 -15 4 -8 12 -15 19
-15 27 0 25 -19 -2 -32 -16 -7 -32 -23 -38 -36 -10 -22 -35 -31 -35 -11 0 5 5
7 10 4 11 -7 14 8 3 19 -4 4 -14 -8 -23 -26 -12 -25 -21 -32 -38 -30 -12 2
-22 -2 -22 -7 0 -6 -15 -10 -34 -8 -31 2 -32 3 -19 23 12 19 12 22 -7 27 -15
4 -20 0 -20 -16 0 -18 -2 -19 -10 -7 -9 13 -11 13 -20 0 -9 -13 -11 -13 -20 0
-8 13 -13 11 -35 -12 -14 -16 -32 -28 -40 -28 -8 0 -15 -4 -15 -10 0 -12 35
-31 44 -23 3 3 6 -5 6 -18 -1 -21 -2 -22 -11 -6 -13 22 -29 22 -29 1 0 -9 -8
-23 -18 -30 -16 -13 -16 -13 1 -14 21 0 23 -20 2 -20 -8 0 -15 -4 -15 -10 0
-11 -32 -1 -42 14 -11 16 -9 36 3 36 6 0 9 -7 5 -15 -3 -8 -1 -15 4 -15 12 0
13 20 2 37 -6 10 -13 9 -30 -3 -24 -17 -29 -40 -9 -47 7 -3 5 -6 -5 -6 -10 -1
-18 4 -18 9 0 6 -4 10 -10 10 -5 0 -10 -11 -10 -25 0 -14 -4 -26 -10 -26 -5
-1 -14 -3 -20 -4 -5 -1 -13 -3 -16 -4 -4 0 -1 -7 5 -14 15 -19 1 -30 -17 -14
-13 10 -14 8 -8 -11 6 -19 4 -22 -18 -22 -14 0 -29 -8 -35 -17 -8 -14 -13 -15
-35 -5 -28 13 -31 10 -16 -18 8 -14 5 -19 -12 -23 -11 -3 -27 1 -35 9 -8 8
-20 14 -26 14 -8 0 -7 -4 2 -9 24 -15 6 -35 -44 -50 -34 -10 -53 -11 -64 -4
-14 8 -17 7 -18 -8 -1 -12 3 -17 10 -13 7 4 8 3 4 -2 -5 -5 -13 -9 -18 -9 -5
0 -9 -4 -8 -10 0 -5 10 -9 22 -7 21 3 21 2 2 -12 -11 -9 -26 -16 -32 -16 -7 0
-13 -4 -13 -10 0 -5 -7 -10 -15 -10 -8 0 -15 -6 -15 -13 0 -15 -69 -38 -99
-32 -11 2 -23 -1 -27 -6 -4 -6 -11 -6 -20 2 -19 15 -49 -14 -38 -39 7 -16 7
-16 11 1 3 9 9 17 14 17 15 0 6 -32 -11 -40 -8 -4 -25 -12 -37 -18 -31 -16
-41 -15 -46 6 -4 14 -6 14 -12 -5 -8 -25 -42 -40 -57 -25 -5 5 -24 8 -41 5
-23 -3 -39 2 -54 17 -24 22 -33 25 -33 12 0 -5 11 -14 25 -20 14 -6 25 -16 25
-21 0 -14 -31 -22 -45 -11 -6 5 -14 7 -18 4 -3 -3 -8 3 -11 14 -9 28 -33 35
-39 11 -3 -12 -1 -18 7 -17 6 2 11 -1 11 -7 0 -12 -25 -16 -25 -4 0 5 -5 9
-10 9 -6 0 -9 -5 -8 -11 2 -6 -7 -12 -19 -14 -13 -1 -23 2 -23 7 0 4 -7 8 -15
8 -8 0 -15 5 -15 10 0 7 6 8 17 2 11 -7 24 -6 37 2 43 24 65 73 38 83 -9 4
-22 14 -29 22 -10 14 -14 12 -32 -9 l-20 -25 -1 28 c0 15 4 27 10 27 5 0 7 13
3 32 -4 21 -3 29 5 24 6 -4 9 -13 5 -21 -3 -9 1 -15 9 -15 9 0 14 9 14 23 -1
16 4 21 19 20 14 -1 21 4 22 18 2 18 0 18 -25 6 -15 -8 -45 -22 -66 -33 -22
-10 -42 -26 -44 -34 -4 -12 -2 -13 9 -2 20 19 31 14 19 -8 -6 -11 -14 -20 -19
-20 -13 0 -42 64 -30 68 5 2 7 8 4 13 -4 5 7 6 23 3 24 -5 31 -2 36 14 10 29
-2 51 -25 45 -10 -3 -16 -10 -12 -16 4 -6 -7 -7 -32 -3 -25 5 -35 4 -30 -4 3
-5 11 -7 17 -4 6 4 8 1 6 -7 -3 -8 -10 -13 -15 -12 -5 1 -9 -14 -8 -32 1 -19
-2 -32 -6 -29 -5 3 -9 0 -9 -6 0 -6 -5 -8 -10 -5 -8 5 -7 12 2 23 10 12 10 16
1 19 -9 3 -10 10 -3 24 13 23 7 24 -15 2 -9 -9 -20 -12 -23 -7 -4 5 -18 11
-31 12 l-24 4 24 -34 c35 -50 68 -80 79 -73 6 3 10 1 10 -4 0 -6 -5 -11 -12
-11 -6 0 -1 -12 13 -26 l24 -26 6 24 c6 19 7 18 9 -12 1 -19 2 -39 1 -44 -1
-5 5 -24 14 -42 17 -36 60 -64 85 -57 13 4 13 3 0 -6 -27 -18 -72 20 -120 102
-25 43 -56 90 -68 105 -12 15 -45 56 -73 92 -78 100 -173 193 -297 293 -81 65
-109 93 -100 100 9 6 7 7 -6 3 -12 -4 -33 3 -56 18 -20 13 -78 45 -129 71
l-92 46 7 47 c10 71 26 95 164 252 108 123 135 160 217 295 77 127 123 215
138 265 4 14 25 66 46 117 37 87 50 128 114 371 15 56 29 102 31 102 1 0 18
-9 37 -20 51 -30 109 -13 184 53 66 57 185 202 215 262 12 22 44 81 73 130 83
145 194 437 214 565 7 41 21 111 31 155 49 209 52 236 59 430 4 110 9 173 10
140 6 -125 11 -155 31 -175 11 -11 17 -26 14 -35 -4 -8 -1 -15 5 -15 6 0 11 5
11 11 0 5 4 8 10 4 5 -3 17 6 26 20 12 18 24 25 45 23 16 -1 29 -5 29 -8 0 -4
7 -7 14 -7 11 0 12 5 5 18 -12 23 -11 29 1 29 6 0 10 -7 10 -16 0 -14 3 -14
15 -4 12 10 13 15 3 28 -11 13 -10 14 2 10 8 -3 25 4 38 15 22 20 22 20 37 1
14 -18 14 -18 9 3 -4 15 0 25 15 32 12 7 21 8 21 4 0 -4 7 2 15 13 8 10 15 14
15 9 0 -6 8 -11 19 -11 10 0 17 5 15 11 -4 13 15 36 44 53 20 11 22 10 22 -9
0 -11 4 -17 10 -14 6 4 8 15 5 26 -4 11 -2 19 4 19 14 0 14 -26 1 -51 -8 -15
-7 -19 5 -19 10 0 15 9 15 26 0 19 4 25 15 20 10 -4 14 1 12 17 -1 16 3 21 17
19 11 -2 15 1 11 7 -3 6 1 11 10 11 11 0 15 -5 12 -14 -4 -9 0 -12 12 -9 10 3
18 12 17 21 -1 13 6 16 26 14 22 -3 27 0 22 12 -4 10 -1 16 8 16 7 0 19 9 26
20 7 11 19 20 28 20 9 0 12 -5 8 -12 -4 -7 -3 -8 4 -4 7 4 12 13 12 19 0 7 11
17 25 24 14 6 23 7 20 3 -3 -5 -1 -11 5 -15 5 -3 10 2 10 11 0 10 3 14 6 11 9
-9 46 12 39 22 -6 10 24 25 43 22 8 -1 16 7 19 19 3 11 10 19 16 17 6 -2 40
16 76 40 35 24 76 46 90 50 14 3 34 15 45 25 11 10 23 18 28 18 4 0 8 7 8 15
0 8 4 15 9 15 5 0 17 3 27 7 12 4 15 3 10 -5 -4 -7 -2 -12 3 -12 6 0 11 6 11
13 0 8 12 20 27 28 16 8 37 24 48 36 15 15 25 19 36 12 21 -13 33 -11 20 4
-14 17 -4 27 26 27 12 0 23 4 23 9 0 5 12 12 26 15 14 4 44 19 67 34 23 14 48
25 55 24 7 -2 15 4 18 13 6 14 8 14 20 -2 11 -13 13 -14 9 -2 -8 23 29 52 60
47 17 -4 25 -1 25 9 0 9 6 13 15 9 9 -3 15 0 15 9 0 9 10 15 25 15 l25 0 0
498 -1 497 -24 -30 c-21 -25 -27 -28 -35 -15 -8 12 -10 11 -10 -6 0 -20 -24
-40 -44 -35 -4 1 -15 -4 -24 -11 -13 -11 -15 -10 -10 10 4 12 3 22 -2 22 -4 0
-10 -9 -13 -20 -3 -14 -14 -20 -34 -21 -16 -1 -21 -3 -10 -6 22 -6 22 -26 1
-44 -15 -12 -16 -11 -9 11 7 22 6 23 -8 11 -9 -7 -14 -18 -11 -23 3 -5 -3 -12
-15 -15 -12 -3 -21 -12 -21 -19 0 -9 -9 -13 -25 -12 -14 1 -25 6 -25 11 0 4
-5 5 -11 2 -6 -4 -8 -13 -5 -20 7 -19 -3 -25 -29 -15 -19 7 -24 5 -28 -12 -6
-22 -27 -16 -27 8 0 8 -5 14 -11 14 -6 0 -8 -8 -4 -19 4 -14 -1 -20 -25 -24
-18 -4 -30 -13 -30 -22 0 -9 4 -13 10 -10 5 3 10 1 10 -6 0 -7 -10 -9 -25 -7
-14 3 -29 0 -33 -7 -10 -17 -63 -50 -81 -50 -8 0 -20 -9 -26 -20 -7 -13 -18
-19 -34 -17 -13 2 -21 -1 -17 -6 3 -5 -6 -14 -19 -20 -14 -7 -25 -17 -25 -23
0 -6 -6 -9 -12 -6 -7 2 -21 -2 -31 -11 -11 -10 -17 -11 -17 -4 0 7 -5 12 -10
12 -6 0 -9 -6 -8 -12 5 -21 -54 -22 -69 -2 -11 16 -13 16 -13 2 0 -9 5 -20 10
-23 17 -11 11 -24 -10 -22 -11 1 -20 5 -20 10 0 5 -7 4 -15 -3 -11 -9 -12 -16
-5 -25 8 -10 3 -15 -20 -23 -16 -6 -30 -16 -30 -21 0 -6 -10 -11 -22 -11 -33
0 -88 -22 -88 -36 0 -6 -6 -17 -14 -23 -12 -10 -14 -7 -11 18 5 36 -5 40 -23
10 -11 -17 -11 -20 0 -14 10 6 10 5 2 -4 -18 -20 -57 4 -49 30 5 13 2 19 -10
19 -11 0 -15 -6 -11 -17 3 -10 8 -31 12 -48 6 -28 5 -29 -9 -11 -14 19 -15 19
-39 -7 -28 -30 -85 -38 -85 -12 0 8 3 15 6 15 3 0 7 21 7 48 l2 47 -13 -45
c-7 -25 -18 -67 -25 -93 -23 -86 -20 -43 4 74 30 143 48 351 41 466 l-6 88 31
-90 c28 -84 85 -264 97 -310 4 -16 3 -17 -6 -5 -13 18 -15 1 -2 -19 6 -9 11
-10 15 -3 4 6 13 9 21 5 8 -3 15 0 15 7 0 6 -5 8 -12 4 -8 -5 -9 -2 -5 10 4
10 7 20 7 22 0 3 3 3 8 1 4 -3 7 47 7 111 0 65 1 173 2 242 5 248 -26 578 -67
719 -11 40 -5 55 9 20 28 -74 156 -327 191 -379 23 -34 48 -77 56 -96 8 -19
19 -32 24 -29 14 9 12 80 -5 219 -8 67 -20 159 -26 206 -9 72 -53 262 -89 380
-14 48 -11 61 5 25 9 -19 14 -24 15 -12 0 9 8 17 18 17 9 0 23 9 30 20 7 11
19 20 27 20 8 0 15 5 15 10 0 6 10 10 22 10 11 0 35 10 52 23 17 13 39 26 49
30 9 4 16 12 15 19 -2 8 5 12 15 10 10 -2 30 4 44 13 13 9 31 14 39 11 11 -4
14 -1 10 12 -5 14 2 22 29 32 19 8 35 18 35 23 0 5 5 7 12 5 7 -3 23 6 36 19
12 13 27 23 31 23 4 0 18 9 31 20 13 11 31 20 40 20 9 0 22 11 28 24 6 14 22
26 42 29 17 4 39 14 48 24 16 15 17 15 20 0 4 -21 22 -22 22 -2 0 8 5 14 11
13 6 -2 13 6 15 17 3 22 33 47 49 41 5 -2 9 -9 7 -15 -1 -7 2 -10 7 -6 6 3 7
13 4 22 -5 13 -2 15 11 10 10 -4 19 -1 22 7 6 15 73 52 87 48 4 -1 7 3 7 9 0
5 4 7 10 4 5 -3 10 -2 10 4 0 6 16 18 35 27 l35 16 0 1484 0 1484 -5120 0
-5120 0 0 -4259z m5598 1953 c41 -10 139 -50 220 -91 39 -20 74 -34 77 -31 9
9 -27 72 -54 94 l-26 22 55 3 c61 5 102 -16 180 -90 24 -22 45 -39 48 -36 3 2
-7 29 -22 58 -14 30 -26 56 -26 58 0 3 10 5 22 5 31 0 118 -74 118 -100 0 -8
14 -26 32 -41 40 -34 46 -33 248 43 35 13 74 24 85 22 11 -1 47 -2 81 -3 l61
-2 -29 -17 c-16 -10 -32 -18 -37 -18 -5 0 -14 -6 -20 -14 -17 -20 18 -26 95
-15 42 6 72 6 84 -1 10 -5 34 -10 52 -10 20 0 28 -3 21 -8 -9 -6 14 -34 75
-93 128 -123 186 -201 340 -454 103 -169 172 -314 241 -502 38 -103 75 -223
73 -232 -1 -2 -14 -6 -29 -7 -315 -34 -597 -97 -943 -211 -262 -87 -423 -144
-435 -154 -5 -5 -15 -9 -22 -9 -6 0 -40 -13 -75 -29 -86 -40 -190 -85 -268
-114 -36 -14 -87 -36 -115 -50 -57 -28 -105 -49 -155 -68 -19 -7 -47 -21 -62
-31 -14 -10 -30 -18 -34 -18 -4 0 -39 -15 -78 -34 -39 -18 -100 -47 -136 -64
-216 -100 -251 -120 -336 -189 -51 -40 -94 -73 -98 -73 -3 0 -12 16 -20 35
-22 52 -86 79 -190 78 -45 -1 -94 -6 -109 -12 -16 -6 -51 -11 -79 -11 -68 0
-125 -18 -171 -53 -52 -41 -69 -78 -65 -143 l3 -54 -55 0 c-140 -1 -345 -41
-481 -96 -186 -75 -379 -178 -379 -204 0 -15 4 -13 77 33 217 138 532 237 753
237 84 0 85 -1 102 -29 9 -17 34 -41 55 -54 39 -25 97 -84 147 -153 70 -94
215 -198 264 -188 12 2 32 6 45 9 12 2 39 20 59 39 20 19 71 57 112 84 l74 50
5 -27 c3 -14 3 -77 0 -138 -4 -82 -3 -113 5 -113 9 0 12 44 12 154 0 125 3
155 14 159 8 3 46 29 84 56 62 45 120 80 217 129 17 8 41 24 55 35 14 10 39
25 55 32 17 7 84 36 150 64 66 29 129 56 140 60 37 16 109 43 240 88 125 43
138 46 320 59 269 19 380 17 625 -11 334 -38 465 -71 655 -166 115 -57 146
-79 226 -152 57 -53 57 -53 62 -28 9 44 -31 170 -90 288 -79 155 -193 287
-296 339 -39 20 -83 44 -97 54 -55 38 -244 88 -372 97 -101 7 -102 7 62 33 41
6 104 18 140 25 123 26 442 82 511 90 53 7 57 6 62 -17 4 -12 7 -87 7 -165 0
-84 4 -144 10 -148 6 -3 10 4 11 17 0 22 1 22 9 3 10 -26 13 -17 35 105 10 52
20 99 23 104 3 5 16 -11 28 -37 24 -46 35 -82 59 -197 22 -107 74 -302 92
-345 37 -94 34 -309 -13 -680 -48 -386 -55 -441 -70 -585 -8 -80 -21 -176 -29
-215 -13 -62 -45 -301 -45 -331 0 -7 -21 8 -47 33 -27 24 -79 65 -118 90 -38
25 -81 54 -95 64 -22 17 -56 34 -115 60 -22 9 -61 23 -180 65 -111 38 -108 37
-126 39 -8 1 -37 7 -65 13 -83 19 -283 50 -399 62 -291 29 -397 40 -403 44 -4
2 -87 16 -185 30 -98 15 -195 32 -216 39 -21 8 -75 38 -122 69 -131 85 -188
102 -349 101 -69 0 -276 -46 -328 -72 -9 -5 -59 -30 -111 -56 -52 -25 -112
-58 -135 -73 -73 -47 -99 -61 -246 -135 -80 -40 -161 -82 -180 -94 -42 -25
-183 -76 -262 -93 -32 -7 -58 -17 -58 -22 0 -5 -3 -7 -8 -4 -4 2 -34 -2 -67
-10 -109 -26 -219 -46 -270 -50 -91 -5 -388 -61 -432 -80 -17 -8 -82 -31 -145
-51 -80 -26 -124 -46 -150 -69 -42 -38 -97 -68 -106 -59 -19 19 21 346 47 380
5 5 11 23 15 40 4 16 16 48 27 72 10 23 19 45 19 49 0 3 14 24 31 45 69 87
138 201 169 281 18 45 34 84 35 86 1 1 26 -6 54 -18 86 -34 126 -39 381 -55
l246 -15 144 24 c139 23 208 41 198 51 -3 3 -32 -1 -64 -9 -32 -8 -83 -17
-112 -21 l-54 -6 35 31 c58 51 99 209 79 303 -5 26 -6 47 -2 47 43 0 173 -101
191 -148 9 -24 10 -24 24 -6 17 22 19 65 5 114 -7 26 -22 43 -57 65 -111 70
-108 69 -338 68 -427 -2 -664 -49 -792 -157 -17 -14 -34 -26 -38 -26 -19 0 24
394 54 493 5 18 14 48 19 67 18 61 82 232 114 302 l30 67 112 26 c119 28 147
32 326 43 237 15 797 -33 913 -77 16 -6 44 -11 63 -11 30 0 34 3 34 25 0 45
-70 165 -139 239 -89 95 -273 182 -516 245 -129 33 -508 31 -632 -4 -90 -26
-90 -29 -2 141 44 86 86 166 94 178 9 11 58 84 110 161 202 298 194 288 460
545 156 150 163 156 337 295 229 184 273 212 543 346 249 125 435 202 463 193
8 -2 26 -7 40 -10z m-1871 -3276 c-2 -107 8 -150 58 -232 19 -32 35 -59 35
-60 0 -2 -118 4 -260 15 -119 9 -158 15 -215 38 -47 19 -71 34 -74 47 -2 11
-14 32 -28 48 -13 15 -31 42 -39 59 -15 27 -15 29 0 24 10 -4 16 -1 16 7 0 18
76 61 142 79 61 18 264 55 323 60 22 2 41 4 42 5 1 1 1 -40 0 -90z m4679 -444
c21 -91 20 -426 -2 -564 -21 -133 -80 -426 -97 -480 -46 -147 -153 -388 -240
-543 -47 -83 -165 -235 -225 -289 -66 -60 -135 -72 -187 -34 -18 13 -17 16 3
97 11 46 39 188 61 314 89 512 142 713 217 825 30 44 31 33 2 -16 -24 -41 -29
-116 -9 -152 15 -29 -22 -241 -61 -346 -72 -195 -89 -254 -70 -242 6 3 13 19
17 35 6 30 80 111 191 211 l61 55 17 150 c18 160 23 326 12 363 -17 52 42 145
94 149 42 3 60 -23 60 -90 0 -110 13 -50 20 95 4 88 12 152 20 164 11 18 10
28 -9 67 l-22 45 40 84 c21 46 47 109 57 141 21 66 26 62 50 -39z m-2780 -265
c38 -12 90 -37 116 -55 29 -22 48 -30 50 -22 6 17 111 -227 185 -432 42 -117
45 -131 45 -226 0 -88 -3 -107 -25 -151 -14 -27 -41 -63 -59 -80 -50 -44 -73
-73 -59 -73 20 0 122 102 143 144 15 29 22 67 25 140 5 90 3 109 -21 179 -32
94 -84 230 -138 355 -22 52 -37 96 -34 99 3 4 6 1 6 -5 0 -26 155 -85 275
-103 104 -17 381 -17 516 0 189 23 335 17 481 -20 42 -10 87 -19 99 -19 22 0
41 -5 139 -37 25 -8 91 -38 148 -66 137 -69 190 -112 255 -209 33 -48 38 -62
32 -90 -4 -18 -22 -103 -40 -188 -19 -85 -43 -218 -55 -295 -52 -330 -152
-735 -230 -931 -17 -43 -48 -122 -69 -174 -48 -124 -191 -364 -278 -467 -37
-44 -123 -145 -190 -224 -213 -252 -607 -628 -788 -753 -164 -112 -396 -242
-480 -268 -16 -5 -70 -12 -120 -14 -49 -3 -117 -9 -150 -14 -63 -8 -369 -5
-445 5 -176 24 -518 150 -725 267 -46 26 -179 125 -216 160 -13 13 -53 48 -89
78 -36 30 -66 58 -68 62 -2 3 -12 17 -23 29 -20 23 -21 42 -4 94 7 20 6 20 -9
1 -9 -11 -16 -26 -16 -33 0 -23 -14 -13 -60 43 -26 33 -45 66 -45 80 1 18 -3
23 -15 19 -22 -7 -120 99 -120 130 0 13 9 41 21 62 21 37 14 32 -32 -27 -13
-16 -19 -19 -17 -9 2 9 -35 76 -80 148 -46 73 -99 163 -118 202 l-34 71 31 39
c37 47 24 52 -16 7 l-29 -32 -43 93 c-24 52 -43 104 -43 116 0 13 -7 25 -15
29 -8 3 -15 12 -15 19 0 19 -39 146 -56 182 -24 51 -101 333 -129 474 -24 121
-27 148 -22 290 7 248 52 382 157 470 29 25 115 74 203 116 165 78 180 84 307
121 47 13 108 30 135 38 28 8 136 35 240 61 213 51 194 46 295 76 95 27 288
122 318 155 12 14 22 21 22 17 0 -5 -4 -13 -9 -18 -26 -27 -93 -183 -111 -256
-35 -147 -20 -234 52 -294 44 -37 67 -32 28 6 -49 50 -70 100 -70 170 0 72 22
170 56 246 28 65 111 194 122 191 6 -3 175 87 232 122 8 6 41 23 72 40 31 16
59 34 63 40 3 6 11 8 16 5 5 -4 30 7 54 24 121 81 332 113 471 70z m-3947
-1365 c16 10 14 -10 -3 -26 -14 -15 -6 -50 14 -63 19 -12 24 3 8 27 -17 26
-13 48 8 48 17 0 18 -12 2 -28 -9 -9 -7 -12 13 -12 24 1 63 23 54 31 -2 3 5 5
16 5 16 0 19 -5 15 -22 -4 -16 -1 -21 11 -20 19 1 44 -40 36 -61 -4 -11 -9 -9
-20 7 -8 11 -20 20 -26 20 -8 0 -8 -3 1 -9 11 -7 10 -9 -3 -15 -9 -3 -13 -11
-10 -16 5 -8 12 -7 23 2 9 7 13 8 10 3 -4 -6 5 -16 19 -22 23 -11 25 -10 20 7
-3 13 0 20 9 20 10 0 13 -9 10 -35 -4 -31 -2 -35 19 -35 22 0 39 -14 40 -32 0
-12 15 -22 15 -10 0 7 4 12 8 12 5 0 9 -7 9 -15 0 -8 -8 -15 -18 -15 -10 0
-19 -10 -23 -25 -4 -14 -11 -23 -16 -20 -6 3 -10 -3 -10 -15 0 -13 -4 -19 -11
-14 -7 4 -10 1 -7 -6 7 -23 28 -23 28 0 0 13 5 20 13 17 6 -2 19 -1 28 4 13 6
18 3 22 -12 4 -16 2 -19 -16 -14 -19 5 -20 5 -4 -5 21 -14 22 -30 2 -30 -13 0
-14 -4 -5 -20 6 -11 8 -20 4 -20 -4 0 -4 -3 -1 -7 4 -3 16 2 27 12 20 18 20
17 20 -9 0 -15 4 -25 10 -21 6 3 7 -1 4 -9 -7 -18 -20 -21 -29 -6 -4 6 -16 8
-27 4 -15 -4 -18 -3 -13 6 5 9 4 11 -3 6 -18 -11 -14 -26 7 -26 13 0 21 -9 26
-30 4 -17 10 -28 15 -25 4 3 6 -4 3 -16 -5 -19 -4 -20 16 -9 13 6 25 9 28 7 2
-3 -5 -8 -16 -12 -12 -3 -21 -13 -21 -20 0 -8 -15 -18 -32 -23 -23 -6 -33 -14
-33 -28 0 -13 6 -18 19 -16 18 3 18 2 5 -14 -13 -16 -12 -17 9 -12 17 5 22 2
22 -13 0 -10 -4 -19 -10 -19 -5 0 -10 -7 -10 -15 0 -18 -50 -21 -51 -2 -1 6
-4 1 -8 -13 -4 -14 -13 -26 -21 -27 -19 -4 -47 14 -37 23 3 4 13 1 21 -5 11
-9 16 -9 21 0 4 6 3 14 -3 18 -6 4 -7 12 -3 20 7 10 13 10 29 2 28 -15 31 -14
25 9 -3 11 -9 18 -13 15 -5 -3 -22 6 -39 20 -28 24 -30 25 -26 5 4 -19 -9 -28
-19 -12 -4 7 -26 8 -85 3 -11 -1 -11 -4 -1 -16 9 -11 9 -15 1 -15 -7 0 -9 -5
-5 -12 6 -9 9 -9 12 0 7 21 22 13 22 -11 0 -32 -10 -40 -26 -19 -12 15 -13 12
-14 -24 0 -28 -5 -44 -15 -48 -8 -3 -15 -1 -15 3 0 5 5 11 10 13 6 2 4 12 -5
26 -13 18 -20 20 -36 12 -11 -6 -25 -8 -31 -4 -6 4 -8 3 -4 -4 3 -6 -1 -15 -9
-20 -13 -7 -12 -10 10 -20 21 -10 25 -9 25 3 0 8 7 15 15 15 8 0 15 -4 15 -9
0 -20 -13 -41 -25 -41 -7 0 -16 -6 -18 -12 -3 -8 -6 -6 -6 4 -1 14 -7 16 -33
12 -25 -4 -29 -3 -18 5 12 8 12 13 2 23 -6 6 -12 21 -12 31 0 16 -3 17 -15 7
-17 -14 -20 -40 -4 -40 14 0 1 -62 -15 -72 -8 -6 -7 -8 2 -8 10 0 10 -5 1 -22
-11 -21 -11 -22 4 -10 13 11 15 10 13 -5 -2 -10 2 -21 8 -25 6 -4 7 -11 2 -15
-4 -4 -13 0 -20 9 -10 13 -15 15 -24 6 -7 -7 -12 -9 -12 -5 0 16 -4 23 -19 35
-15 12 -15 13 0 9 21 -7 39 11 32 29 -3 8 1 14 8 14 11 0 11 2 -1 10 -10 6
-17 5 -23 -5 -11 -20 -27 -19 -27 1 0 8 -4 13 -9 10 -11 -7 -23 22 -15 36 3 5
12 7 20 4 12 -5 12 -2 3 16 -9 17 -9 24 3 32 13 9 13 13 2 24 -7 6 -20 12 -29
12 -8 0 -15 4 -15 10 0 5 -7 7 -15 4 -8 -4 -12 -10 -9 -15 3 -5 10 -7 15 -4 5
4 9 1 9 -4 0 -14 -27 -14 -35 -1 -8 14 -35 13 -35 -1 0 -6 7 -9 15 -5 8 3 15
1 15 -4 0 -5 -6 -10 -12 -13 -7 -2 -1 -2 15 0 15 3 27 0 27 -6 0 -6 3 -10 8
-9 4 2 8 0 10 -4 2 -8 -5 -8 -26 -1 -7 3 -19 0 -27 -7 -8 -6 -20 -8 -26 -4 -8
4 -9 3 -5 -5 4 -6 2 -19 -5 -27 -18 -21 -29 1 -19 37 9 30 -3 41 -14 13 -3 -8
-10 -12 -16 -9 -5 3 -10 1 -10 -4 0 -6 6 -11 13 -11 10 0 12 -10 8 -37 -7 -45
-28 -56 -25 -13 1 16 -3 30 -8 30 -6 0 -8 -11 -6 -25 3 -14 1 -28 -3 -31 -5
-3 -9 -14 -9 -25 0 -19 -1 -19 -31 -4 -17 9 -33 14 -37 11 -3 -3 0 -6 7 -6 7
0 9 -4 6 -10 -3 -5 -17 -10 -31 -10 -13 0 -24 -5 -24 -11 0 -5 -4 -7 -10 -4
-5 3 -10 1 -10 -4 0 -13 -6 -14 57 3 43 12 54 12 63 1 8 -10 7 -16 -7 -24 -10
-6 -13 -11 -6 -11 7 0 10 -7 7 -15 -4 -10 0 -15 15 -15 25 0 26 -6 6 -26 -13
-14 -15 -14 -15 0 0 8 -10 20 -21 27 -15 8 -19 8 -15 0 4 -6 0 -11 -8 -11 -10
0 -13 -6 -9 -16 4 -11 9 -12 16 -5 17 17 31 13 16 -5 -7 -9 -14 -23 -15 -31
-3 -19 -14 -30 -14 -14 0 7 -4 9 -10 6 -5 -3 -10 3 -10 14 0 29 -30 27 -31 -1
0 -13 -3 -17 -6 -10 -9 23 6 60 27 67 11 3 20 12 20 18 0 16 -72 16 -77 0 -4
-12 -33 -19 -33 -8 0 3 7 16 16 29 8 14 11 27 6 30 -16 10 -29 -16 -34 -66 -5
-45 -5 -46 16 -35 11 7 26 19 32 27 17 21 28 6 15 -18 -16 -30 -66 -53 -82
-38 -10 9 -11 8 -2 -4 8 -11 7 -18 -3 -28 -11 -10 -14 -10 -14 2 0 21 -47 14
-72 -11 l-20 -21 28 -17 c16 -9 21 -14 12 -11 -10 3 -20 1 -23 -4 -4 -6 -12
-10 -18 -10 -7 0 -6 4 3 10 13 9 13 12 -2 21 -22 12 -23 29 -3 29 9 0 12 6 8
18 -3 9 -3 14 2 10 4 -4 16 -3 26 3 22 11 27 69 7 69 -10 0 -9 3 1 9 11 7 11
13 -4 32 -13 19 -16 20 -11 5 4 -11 1 -23 -5 -27 -14 -8 -43 17 -34 30 3 5 1
12 -5 16 -5 3 -10 1 -10 -4 0 -6 -5 -11 -11 -11 -5 0 -7 4 -4 10 4 6 -1 7 -11
3 -12 -4 -15 -2 -12 8 3 8 13 13 22 13 9 -1 16 2 16 7 0 10 -57 66 -72 71 -6
2 -8 13 -4 25 4 14 13 20 21 16 11 -4 12 -10 4 -24 -8 -16 -6 -19 13 -18 13 0
17 3 11 6 -10 3 -9 8 3 20 11 11 12 19 5 26 -8 8 -6 16 5 28 11 12 14 24 8 36
-7 16 -8 15 -12 -6 -3 -17 -6 -21 -12 -11 -20 33 29 56 59 28 11 -11 13 -10 8
4 -8 24 9 32 22 11 6 -10 11 -13 11 -8 0 6 -8 21 -17 34 -16 23 -15 24 3 19
10 -3 27 -9 37 -13 17 -7 18 -6 6 13 -7 11 -16 19 -20 16 -4 -2 -9 5 -12 16
-5 18 -4 19 24 4 16 -8 27 -19 24 -24 -4 -6 -2 -10 4 -10 6 0 15 9 21 20 6 11
16 17 25 14 8 -4 15 -1 15 5 0 6 -4 11 -10 11 -5 0 -10 8 -10 18 0 11 -8 18
-21 19 -12 1 -19 -1 -15 -4 3 -3 1 -12 -6 -20 -9 -11 -16 -8 -39 19 -23 28
-30 31 -46 22 -24 -15 -43 -66 -25 -71 6 -3 12 -9 12 -14 0 -6 -5 -7 -12 -3
-8 5 -9 0 -6 -14 6 -21 3 -22 -35 -16 -23 4 -47 11 -54 16 -8 7 -10 3 -6 -11
3 -12 10 -18 17 -14 7 4 7 1 -1 -7 -10 -11 -15 -11 -29 1 -16 13 -17 12 -12
-7 4 -17 1 -21 -17 -18 -16 1 -25 -4 -29 -19 -3 -12 -8 -18 -12 -14 -4 4 -14
1 -22 -6 -13 -10 -15 -9 -8 8 11 28 11 27 -4 57 -11 23 -16 26 -32 17 -31 -16
-33 -3 -7 36 27 40 48 46 42 12 -4 -19 0 -23 22 -22 33 2 56 22 36 34 -11 7
-9 13 8 30 11 11 27 21 33 21 7 -1 2 -9 -11 -20 l-23 -20 22 -8 22 -8 -26 -17
c-17 -11 -26 -27 -26 -43 0 -30 17 -23 31 13 7 20 15 24 34 21 21 -4 23 -2 15
13 -13 24 -12 30 3 28 22 -4 65 13 71 27 3 8 3 21 0 29 -4 8 -2 15 4 15 6 0 8
9 5 20 -3 11 0 26 6 34 9 10 7 17 -5 27 -25 21 -64 23 -64 3 0 -12 6 -15 25
-10 14 4 25 2 25 -4 0 -5 -6 -10 -12 -11 -10 0 -10 -2 0 -6 6 -2 12 -11 12
-19 0 -7 -6 -11 -14 -8 -11 4 -13 0 -9 -15 3 -12 1 -21 -6 -21 -6 0 -11 9 -11
20 0 20 -10 25 -40 20 -22 -3 -23 -6 -10 -30 10 -19 10 -21 -8 -11 -31 16 -45
38 -31 47 8 5 10 3 5 -7 -4 -8 0 -5 8 5 24 29 21 49 -4 36 -16 -8 -20 -8 -20
4 0 9 6 13 14 10 18 -7 31 15 17 29 -8 8 -11 7 -11 -3 0 -13 -2 -13 -10 0 -6
10 -10 11 -10 3 0 -7 -4 -13 -10 -13 -22 0 -8 20 18 26 38 9 46 15 31 24 -13
9 -22 40 -11 40 31 -1 53 -15 49 -31 -3 -10 1 -26 9 -36 13 -17 14 -17 8 0 -5
13 -2 16 10 11 25 -9 20 24 -6 47 -13 10 -17 18 -10 19 6 0 12 -4 12 -10 0 -5
4 -10 9 -10 10 0 9 14 -4 43 -9 20 -1 32 14 22 6 -3 11 -20 11 -36 0 -17 4
-28 10 -24 5 3 7 12 3 20 -5 16 5 19 31 9 9 -3 13 -10 10 -15 -3 -5 4 -9 14
-9 22 0 46 23 35 34 -4 4 0 4 9 1 9 -4 19 -13 22 -21 3 -9 10 -12 16 -9 14 9
12 -18 -2 -34 -8 -9 -8 -11 -2 -8 7 4 14 0 18 -8 9 -24 -13 -18 -39 11 -24 25
-24 26 -49 7 -14 -10 -26 -22 -26 -26 0 -5 -9 -5 -20 -2 -28 9 -27 -19 2 -39
16 -11 26 -12 41 -4 16 8 17 12 6 19 -11 7 -10 9 5 9 13 0 16 5 12 18 -5 13
-2 12 11 -4 10 -12 26 -24 36 -27 16 -6 16 -8 1 -26 -9 -11 -24 -17 -32 -14
-11 5 -13 1 -7 -15 4 -15 2 -22 -6 -22 -9 0 -10 -3 -3 -10 6 -6 25 -7 42 -4
28 6 31 9 25 33 -5 23 -4 24 9 13 9 -7 14 -21 11 -33 -5 -18 -3 -19 22 -7 24
11 25 13 7 19 -20 8 -38 39 -23 39 5 0 17 3 25 6 12 5 19 -2 27 -24 6 -17 21
-38 34 -46 21 -14 23 -14 29 7 6 23 -1 37 -12 22 -14 -20 -32 -15 -32 9 0 33
20 44 37 21 7 -11 13 -13 13 -7 0 17 40 15 46 -3 10 -24 27 -17 21 8 -5 20 -5
20 7 5 7 -10 19 -18 26 -18 7 0 10 3 7 7 -4 3 -2 12 5 20 9 11 8 18 -5 30 -15
15 -17 15 -23 0 -5 -13 -10 -14 -25 -7 -15 8 -17 7 -13 -5 4 -9 0 -15 -9 -15
-19 0 -31 31 -16 41 7 4 9 14 6 24 -6 13 -1 16 21 14 56 -4 60 -1 68 46 7 49
11 52 40 29 19 -15 19 -15 -3 -9 -18 5 -21 2 -19 -25 1 -18 -4 -34 -11 -39 -8
-4 -11 -14 -7 -25 7 -19 28 -16 30 5 0 8 2 24 2 37 1 14 8 22 21 22 23 0 36
-16 45 -54 7 -27 6 -28 -10 -16 -14 13 -16 12 -13 -5 5 -26 36 -31 59 -10 11
10 26 15 35 12 8 -4 15 -2 15 3 0 6 -4 10 -10 10 -5 0 -10 5 -10 11 0 15 -42
48 -61 49 -26 0 -45 28 -30 43 9 9 14 9 20 -2 6 -10 10 -10 16 -1 4 6 4 14 1
18 -11 10 -76 12 -76 1 0 -6 -4 -8 -8 -5 -10 6 -9 40 1 43 4 1 13 0 21 -3 8
-3 25 0 37 7 22 11 22 12 3 26 -18 13 -18 14 4 20 13 3 30 20 38 37 8 17 12
23 9 14 -4 -17 4 -22 23 -15 4 1 6 5 5 10 -4 11 7 8 22 -7 8 -7 11 -16 8 -20
-4 -3 -1 -6 5 -6 21 0 22 20 2 40 -18 18 -19 20 -2 20 10 0 23 5 29 11 7 7 19
9 28 5 12 -4 15 -14 10 -43 -4 -28 -3 -33 4 -18 12 26 14 78 2 71 -12 -8 -8
27 4 36 6 5 5 8 -3 8 -7 0 -16 -10 -21 -22 -5 -15 -10 -18 -15 -9 -9 14 36 61
45 47 4 -5 12 -5 18 -2z m-1112 -891 c30 -31 32 -38 19 -45 -15 -8 -14 -12 6
-28 21 -17 21 -19 5 -25 -27 -11 -67 3 -67 24 0 29 -24 45 -40 26 -7 -8 -16
-12 -21 -9 -5 3 -9 0 -9 -7 0 -7 10 -9 25 -6 21 3 29 -1 41 -24 13 -27 4 -43
-12 -18 -4 7 -10 7 -16 1 -12 -12 -1 -35 13 -27 5 4 12 -1 15 -10 4 -10 14
-15 25 -12 12 3 25 -3 34 -16 14 -20 17 -20 39 -7 32 19 32 36 0 32 -16 -2
-24 1 -22 10 2 8 -5 12 -19 10 -13 -2 -23 2 -23 8 0 7 6 10 14 7 21 -8 59 36
44 51 -17 17 0 28 22 14 24 -15 60 -16 60 -2 0 6 -9 10 -20 10 -22 0 -23 1
-14 24 8 21 34 21 34 0 0 -8 4 -13 9 -10 5 3 12 -1 15 -10 9 -24 7 -36 -5 -29
-11 8 -49 -27 -49 -45 0 -7 -8 -9 -20 -5 -11 4 -20 2 -20 -4 0 -6 3 -10 8 -9
4 1 17 -3 30 -10 18 -11 22 -10 22 2 0 8 7 13 18 11 61 -13 72 -17 67 -26 -4
-6 -11 -6 -18 -1 -15 12 -92 -9 -93 -26 -3 -23 -4 -24 -19 -12 -12 10 -15 10
-15 -4 0 -9 4 -16 9 -16 5 0 7 -9 4 -20 -4 -16 -9 -18 -25 -9 -31 17 -46 -5
-19 -27 32 -28 25 -36 -11 -14 -30 17 -35 17 -53 4 -19 -15 -18 -15 10 -9 25
5 27 5 12 -5 -11 -7 -32 -10 -48 -8 -16 3 -29 1 -29 -3 0 -22 15 -39 34 -39
16 0 18 -2 7 -9 -8 -5 -10 -14 -6 -22 6 -11 5 -12 -6 -1 -7 6 -23 12 -35 12
-29 0 -39 16 -18 28 11 6 13 11 5 16 -6 4 -11 2 -11 -4 0 -7 -7 -9 -16 -6 -9
3 -12 2 -9 -4 13 -21 15 -59 4 -66 -8 -5 -10 1 -7 20 4 19 0 29 -13 36 -23 13
-39 13 -39 0 0 -5 6 -7 13 -4 14 5 19 -18 11 -45 -3 -9 -8 -10 -17 -4 -6 6
-26 13 -42 16 -24 4 -36 0 -54 -19 -18 -19 -21 -28 -13 -36 15 -15 15 -28 2
-28 -5 0 -10 7 -10 15 0 8 -8 15 -17 15 -16 1 -16 2 -2 13 9 7 14 18 12 25 -3
7 4 12 15 12 13 0 21 8 24 25 4 20 3 23 -8 14 -10 -8 -14 -8 -14 0 0 6 -7 11
-16 11 -8 0 -12 -4 -9 -10 3 -5 2 -10 -3 -10 -5 0 -14 11 -20 25 -10 21 -9 30
4 50 9 14 21 22 27 18 8 -5 7 -8 -1 -11 -14 -4 -16 -28 -3 -36 14 -9 40 4 37
17 -1 7 -1 9 1 4 3 -4 10 -4 15 -1 7 4 8 2 4 -4 -9 -15 15 -52 34 -52 16 1 60
30 44 30 -5 0 -2 4 6 9 8 6 27 7 44 4 21 -4 27 -3 22 5 -5 8 1 12 14 12 12 0
18 4 15 10 -3 6 1 7 9 4 9 -3 16 -1 16 5 0 6 -4 11 -10 11 -5 0 -10 9 -10 20
0 11 -7 20 -15 20 -8 0 -15 3 -16 8 0 4 -2 18 -5 31 -3 19 -1 22 14 19 15 -4
18 -1 14 19 -7 35 -46 72 -65 61 -10 -5 -20 -3 -29 5 -7 8 -18 12 -25 10 -6
-2 -15 1 -19 8 -4 8 -3 9 5 5 6 -4 14 0 17 9 6 14 10 11 25 -12 14 -20 19 -23
19 -11 0 12 5 15 18 11 15 -6 15 -4 -2 15 -23 27 -2 31 26 5 14 -13 18 -13 18
-2 0 31 15 40 45 29 28 -11 28 -10 12 8 -15 16 -14 32 1 32 3 0 20 -16 39 -37z
m266 -222 c15 -8 27 -18 27 -23 0 -4 7 -8 15 -8 8 0 12 -6 9 -13 -4 -10 3 -12
26 -9 16 2 30 8 30 13 0 5 5 9 10 9 6 0 10 -11 10 -24 0 -21 -4 -23 -39 -21
-21 1 -43 5 -49 9 -6 3 -19 -5 -31 -19 -19 -25 -48 -30 -62 -12 -9 12 -59 -39
-62 -64 -4 -25 -33 -49 -59 -49 -10 0 -18 -4 -18 -10 0 -16 -36 -11 -51 7 -8
9 -9 14 -3 10 17 -10 25 18 11 34 -7 7 -3 6 9 -4 30 -25 78 -22 92 6 6 12 11
31 9 42 -1 15 3 19 17 17 11 -2 15 1 11 7 -3 6 -1 12 4 12 21 3 26 4 40 13 8
5 16 4 22 -5 7 -11 9 -10 9 4 0 10 4 16 9 12 6 -3 15 4 21 15 8 16 8 20 -4 20
-8 0 -16 -6 -19 -12 -3 -10 -8 -10 -21 1 -15 13 -18 12 -23 -7 -6 -23 -33 -31
-33 -9 0 15 20 46 20 32 0 -5 5 -2 11 8 6 9 15 14 21 11 8 -5 9 -1 5 10 -4 10
-4 16 0 14 5 -2 20 -10 36 -17z m6053 -652 c-30 -163 -45 -297 -56 -509 -5
-118 -15 -276 -20 -350 -12 -163 -12 -310 -1 -365 5 -22 20 -85 34 -140 30
-124 45 -195 52 -262 5 -50 5 -52 -53 -125 -88 -110 -170 -191 -234 -229 -31
-19 -96 -61 -145 -93 -185 -125 -527 -271 -740 -317 -332 -70 -488 -138 -564
-244 -18 -25 -39 -45 -47 -45 -7 0 -77 -46 -155 -102 -141 -101 -204 -135
-229 -126 -7 3 -28 51 -46 106 -39 118 -90 194 -181 270 -64 54 -117 75 -227
91 -39 6 -88 17 -110 24 -35 13 -100 28 -289 68 -44 9 -54 14 -38 18 l22 6
-30 87 c-41 123 -58 200 -65 311 -7 93 6 179 27 192 4 3 74 -28 156 -69 81
-41 175 -82 207 -90 32 -9 121 -19 197 -22 112 -5 153 -3 216 11 186 41 256
72 476 211 249 156 285 183 515 379 58 50 137 117 176 150 39 32 91 78 116
101 25 23 77 68 116 100 269 225 423 371 504 478 25 33 59 76 75 97 112 140
195 265 195 292 0 15 150 190 157 183 2 -2 -3 -41 -11 -87z m-4015 -2012 c140
-83 410 -204 583 -262 129 -43 222 -65 417 -100 79 -14 205 -42 279 -61 74
-18 149 -34 166 -34 82 0 186 -67 270 -176 46 -59 105 -220 125 -342 6 -37 22
-112 35 -166 l24 -99 -114 -108 c-62 -60 -127 -130 -144 -156 -40 -63 -73
-164 -114 -347 -32 -149 -32 -149 -46 -115 -8 19 -15 44 -16 56 0 11 -4 19 -7
17 -4 -2 -19 27 -35 64 -15 37 -33 74 -40 82 -6 8 -15 26 -19 40 -4 14 -31 77
-60 140 -119 260 -139 309 -169 428 -9 34 -19 68 -22 77 -5 13 -2 14 22 4 37
-14 211 -55 289 -68 33 -6 98 -17 145 -26 267 -49 260 -48 260 -37 0 5 -62 19
-137 31 -76 13 -165 29 -198 36 -33 7 -81 16 -108 20 -26 3 -46 9 -43 13 2 4
-18 8 -45 9 -49 3 -103 17 -269 73 -47 16 -116 34 -155 41 -38 6 -108 24 -155
39 -47 16 -114 36 -150 46 -71 19 -269 98 -365 146 -116 58 -659 424 -681 459
-3 6 27 -14 67 -45 41 -30 106 -74 144 -98 39 -23 76 -48 83 -55 7 -7 20 -10
30 -7 12 4 13 3 4 -3 -9 -7 -5 -13 15 -21 24 -11 26 -10 11 1 -10 8 -15 17
-11 20 3 4 -2 9 -11 13 -9 3 -16 15 -16 25 0 12 5 16 15 13 8 -4 15 -1 15 5 0
6 -7 11 -16 11 -14 0 -14 3 -4 15 11 13 10 14 -3 10 -11 -5 -17 2 -22 24 -8
37 0 52 23 44 14 -6 15 -4 5 9 -7 8 -10 18 -7 21 3 3 -6 18 -20 34 -25 26 -35
54 -18 52 41 -7 55 16 27 45 -19 19 -19 36 -1 36 8 0 18 5 21 10 4 6 1 9 -6 8
-17 -4 -24 33 -8 43 8 4 23 0 38 -12 29 -24 36 -18 56 46 14 48 14 50 -8 75
-20 23 -21 24 -1 7 12 -10 46 -32 75 -50z m4593 -1417 c31 -417 60 -899 54
-906 -6 -5 -16 116 -25 291 -3 66 -9 122 -12 125 -3 3 -6 70 -7 150 -1 128
-13 300 -44 623 -6 54 -9 117 -9 140 3 70 15 -53 43 -423z"/>
<path d="M6425 10271 c-72 -18 -185 -95 -185 -127 0 -10 17 -1 48 25 77 65
128 82 238 82 110 -1 184 -16 318 -66 118 -45 198 -89 294 -163 134 -104 169
-128 147 -103 -37 44 -230 191 -295 225 -83 44 -245 103 -333 122 -71 15 -181
17 -232 5z"/>
<path d="M6340 9864 c-130 -25 -207 -93 -192 -172 4 -21 6 -22 23 -7 16 16 17
15 12 -5 -4 -17 4 -12 42 22 51 47 82 56 181 57 l62 1 -10 -42 c-19 -81 13
-266 54 -316 11 -13 9 -14 -17 -8 -69 17 -81 17 -45 0 100 -47 343 -55 530
-19 185 36 320 76 320 95 0 5 -16 2 -36 -6 -72 -30 -364 -94 -429 -94 -14 0
-12 6 9 30 53 63 92 188 84 271 -3 27 -3 49 -1 49 2 0 20 -8 41 -19 20 -10 51
-21 67 -25 36 -9 173 -87 207 -119 28 -26 68 -21 68 8 0 27 -31 78 -64 108
-75 68 -285 143 -480 172 -100 16 -380 28 -426 19z"/>
<path d="M4735 8211 c-11 -5 -34 -10 -52 -10 -43 -1 -63 -10 -63 -29 0 -8 2
-13 5 -10 3 3 19 -7 36 -23 64 -60 323 -168 489 -205 138 -30 359 -10 480 43
25 11 65 28 90 38 25 10 54 27 65 38 20 19 20 19 -15 12 -19 -3 -53 -8 -75
-11 -33 -3 -30 -1 15 10 30 7 70 17 87 21 41 9 31 29 -10 21 -16 -3 -35 -2
-41 3 -12 10 -80 17 -316 31 -91 5 -187 14 -215 20 -27 5 -95 19 -150 31 -110
23 -299 34 -330 20z"/>
<path d="M3800 7422 c0 -10 8 -28 17 -41 16 -24 16 -24 -13 -18 -16 3 -38 9
-49 13 -17 7 -18 5 -8 -8 7 -8 32 -20 55 -27 24 -7 70 -25 103 -41 358 -167
896 -261 1449 -254 278 4 390 14 616 55 201 36 311 63 369 92 49 25 124 95
115 108 -3 6 -23 -8 -44 -30 -22 -22 -57 -49 -78 -60 -83 -42 -423 -110 -662
-131 -150 -13 -603 -13 -750 1 -218 19 -553 80 -725 130 -81 24 -268 103 -305
129 -14 10 -36 36 -50 59 -27 44 -40 51 -40 23z"/>
<path d="M4710 6527 c0 -40 50 -73 158 -106 171 -52 181 -54 287 -47 113 7
158 19 265 69 66 31 71 36 45 38 -28 2 -28 2 -5 6 57 11 135 34 144 43 19 19
-3 21 -60 5 -90 -26 -357 -31 -514 -11 -69 9 -169 20 -222 23 l-98 6 0 -26z"/>
<path d="M4135 3315 c-24 -9 -63 -38 -97 -74 -51 -52 -58 -64 -58 -100 0 -123
119 -281 213 -281 64 0 167 36 203 71 43 42 54 82 44 162 -13 110 -53 166
-150 211 -62 29 -97 31 -155 11z m171 -33 c70 -36 105 -90 119 -184 17 -116
-29 -175 -157 -203 -44 -9 -89 -14 -101 -11 -72 18 -167 157 -167 245 0 43 4
51 53 98 28 29 66 59 82 68 38 21 117 14 171 -13z"/>
<path d="M5 6783 c-2 -7 0 -13 6 -13 6 0 6 -7 -1 -20 -14 -27 -3 -63 16 -56 8
3 12 2 9 -3 -3 -5 -1 -12 5 -16 5 -3 10 0 10 7 0 7 4 19 9 27 8 12 12 12 25
-1 17 -17 9 -28 -27 -41 -17 -7 -17 -9 4 -39 32 -45 66 -67 53 -34 -3 8 2 16
13 19 14 4 14 5 -4 6 -13 0 -23 5 -23 11 0 14 49 8 54 -7 3 -7 -3 -17 -12 -23
-14 -8 -11 -9 14 -7 17 2 39 10 50 18 23 17 28 63 7 54 -8 -3 -17 -5 -19 -5
-3 0 -2 -5 2 -12 8 -13 -11 -3 -40 21 -18 15 -19 15 -13 -1 3 -10 2 -20 -3
-23 -13 -8 -32 43 -23 58 4 7 6 25 4 41 -2 21 1 26 11 20 7 -4 4 3 -7 15 l-19
22 -18 -23 c-16 -21 -17 -22 -12 -2 5 18 1 20 -30 20 -20 -1 -38 -7 -41 -13z"/>
<path d="M4633 1813 c-61 -21 -130 -100 -139 -159 -18 -122 10 -192 102 -252
67 -45 120 -50 186 -19 93 44 143 109 154 199 12 100 -35 180 -131 224 -57 27
-111 29 -172 7z m165 -18 c84 -36 126 -106 120 -201 -5 -75 -40 -133 -107
-176 -88 -55 -161 -47 -240 27 -59 55 -72 93 -61 181 8 60 13 71 52 111 24 25
57 51 73 58 41 18 118 18 163 0z"/>
<path d="M4555 309 c-42 -12 -103 -65 -136 -118 -31 -48 -39 -115 -19 -165 14
-38 31 -33 18 5 -17 49 -5 123 28 170 59 86 149 121 240 94 69 -20 115 -65
137 -136 15 -48 16 -60 4 -106 -14 -54 -4 -74 13 -27 18 47 12 121 -15 174
-49 97 -159 142 -270 109z"/>
</g>
</svg>
