<?xml version="1.0" standalone="no"?>
<!DOCTYPE svg PUBLIC "-//W3C//DTD SVG 20010904//EN"
 "http://www.w3.org/TR/2001/REC-SVG-20010904/DTD/svg10.dtd">
<svg version="1.0" xmlns="http://www.w3.org/2000/svg"
 width="1885.000000pt" height="557.000000pt" viewBox="0 0 1885.000000 557.000000"
 preserveAspectRatio="xMidYMid meet">

<g transform="translate(0.000000,557.000000) scale(0.100000,-0.100000)"
fill="#000000" stroke="none">
<path d="M0 2785 l0 -2785 9425 0 9425 0 0 2785 0 2785 -9425 0 -9425 0 0
-2785z m1150 2600 c0 -8 -7 -15 -15 -15 -8 0 -15 7 -15 15 0 8 7 15 15 15 8 0
15 -7 15 -15z m-50 -11 c0 -8 -5 -12 -10 -9 -6 3 -19 3 -31 0 -16 -5 -20 -14
-17 -43 3 -33 6 -37 31 -37 15 1 27 -5 27 -12 0 -19 -60 -16 -82 4 -24 21 -23
68 2 93 24 24 80 27 80 4z m330 7 c0 -5 5 -22 11 -38 l11 -28 12 35 c10 27 19
36 39 38 27 3 27 3 27 -62 0 -59 -2 -66 -20 -66 -16 0 -20 7 -21 33 l-1 32
-10 -32 c-7 -20 -18 -33 -28 -33 -10 0 -21 13 -28 33 l-10 32 -1 -32 c-1 -22
-6 -33 -16 -33 -12 0 -15 14 -15 65 0 63 1 65 25 65 14 0 25 -4 25 -9z m-280
-76 c0 -33 -4 -45 -15 -45 -11 0 -15 12 -15 45 0 33 4 45 15 45 11 0 15 -12
15 -45z m108 -2 c2 -33 0 -43 -12 -43 -9 0 -16 12 -18 33 -2 17 -7 32 -13 32
-5 0 -11 -15 -13 -32 -5 -53 -32 -43 -32 11 l0 45 43 -2 42 -2 3 -42z m103 20
c7 -21 5 -23 -21 -23 -17 0 -30 -5 -30 -11 0 -7 10 -9 26 -5 19 5 25 3 22 -6
-7 -21 -60 -22 -75 -2 -17 24 -16 39 3 59 23 22 65 15 75 -12z m257 15 c7 -7
12 -26 12 -42 0 -29 1 -29 17 -13 15 14 15 21 5 37 -16 27 -15 30 8 30 11 0
20 -5 20 -12 0 -9 3 -9 12 0 7 7 21 12 32 12 18 0 18 -1 1 -20 -17 -18 -17
-21 -1 -45 16 -24 16 -25 -3 -25 -11 0 -23 5 -26 10 -5 8 -11 8 -20 0 -7 -6
-39 -10 -72 -8 -68 4 -84 26 -36 52 26 14 26 15 6 16 -13 0 -23 5 -23 10 0 14
54 12 68 -2z m1537 -123 c0 -23 -34 -33 -45 -14 -13 20 1 40 24 37 13 -2 21
-10 21 -23z m707 12 c16 -25 -4 -38 -48 -31 -40 6 -44 4 -44 -15 0 -12 6 -21
15 -21 8 0 15 -9 15 -20 0 -11 -7 -20 -15 -20 -12 0 -15 -13 -15 -55 0 -54 0
-55 -30 -55 -30 0 -30 1 -30 55 0 54 0 55 -30 55 -35 0 -50 -23 -50 -74 0 -32
-3 -36 -25 -36 -24 0 -25 2 -25 75 0 73 1 75 25 75 14 0 25 -5 25 -12 0 -9 3
-9 12 0 7 7 24 12 39 12 22 0 29 6 34 30 4 16 14 34 23 40 22 12 115 10 124
-3z m78 -102 l0 -115 -25 0 -25 0 0 115 0 115 25 0 25 0 0 -115z m-1008 25
l23 -71 24 71 24 70 39 0 38 0 0 -105 0 -105 -30 0 -30 0 -1 63 -1 62 -21 -62
c-17 -52 -25 -63 -43 -63 -18 0 -26 11 -42 53 -11 28 -22 59 -25 67 -3 8 -6
-15 -6 -52 -1 -66 -2 -68 -26 -68 l-25 0 0 105 0 105 39 0 39 0 24 -70z m470
53 c28 -25 24 -77 -8 -102 -15 -12 -37 -21 -50 -21 -21 0 -24 -5 -24 -35 0
-31 -3 -35 -25 -35 l-25 0 0 105 0 105 57 0 c38 0 62 -5 75 -17z m-242 -118
c0 -73 -1 -75 -25 -75 -24 0 -25 2 -25 75 0 73 1 75 25 75 24 0 25 -2 25 -75z
m376 67 c15 -10 34 -47 34 -66 0 -12 -11 -16 -51 -16 -31 0 -48 -4 -44 -10 3
-5 22 -10 41 -10 28 0 35 -4 32 -17 -5 -28 -81 -30 -107 -4 -46 46 -11 131 53
131 17 0 36 -4 42 -8z m324 -67 c0 -73 -1 -75 -25 -75 -24 0 -25 2 -25 75 0
73 1 75 25 75 24 0 25 -2 25 -75z m-3727 -183 c26 -27 34 -63 21 -96 -5 -12
-20 -16 -64 -16 -62 0 -70 7 -70 58 0 29 45 82 70 82 9 0 28 -13 43 -28z m193
0 c39 -27 14 -92 -36 -92 -29 0 -30 1 -30 50 0 48 1 50 28 50 15 0 32 -4 38
-8z m184 -7 c0 -8 9 -15 20 -15 17 0 20 -6 19 -37 -1 -36 -2 -36 -8 -9 -9 41
-31 46 -31 7 0 -17 -4 -31 -10 -31 -5 0 -10 23 -10 50 0 28 5 50 10 50 6 0 10
-7 10 -15z m80 0 c0 -8 9 -15 19 -15 10 0 22 -8 26 -17 6 -17 7 -17 16 0 14
24 56 22 64 -3 13 -40 -43 -70 -63 -34 -8 14 -10 14 -21 0 -8 -9 -24 -16 -37
-16 -22 0 -24 4 -24 50 0 28 5 50 10 50 6 0 10 -7 10 -15z m330 -36 l0 -50
-32 3 c-28 2 -34 8 -36 31 -4 35 -26 30 -30 -6 -5 -40 -22 -33 -22 9 0 33 2
35 28 34 53 -4 72 0 72 15 0 8 5 15 10 15 6 0 10 -23 10 -51z m-510 -15 c0
-33 -2 -35 -27 -32 -35 4 -37 30 -3 38 17 4 21 8 12 14 -6 4 -16 4 -22 1 -5
-3 -10 -1 -10 4 0 6 11 11 25 11 22 0 25 -4 25 -36z m60 26 c0 -5 -8 -7 -17
-4 -12 4 -10 0 6 -14 13 -11 21 -24 17 -31 -9 -14 -43 -14 -52 0 -4 8 0 9 15
4 24 -7 29 10 6 19 -22 8 -18 36 5 36 11 0 20 -4 20 -10z m318 -27 c3 -31 1
-33 -27 -33 -36 0 -44 28 -11 37 11 3 20 10 20 15 0 5 -10 6 -21 3 -15 -5 -19
-4 -14 5 4 6 17 10 28 8 17 -2 23 -11 25 -35z m10542 -233 c0 -27 -4 -50 -10
-50 -5 0 -10 23 -10 50 0 28 5 50 10 50 6 0 10 -22 10 -50z m142 41 c-7 -4
-12 -12 -11 -17 1 -5 1 -24 0 -41 -1 -37 -21 -46 -21 -10 0 13 -5 28 -12 35
-9 9 -9 12 0 12 7 0 12 7 12 15 0 9 9 15 23 15 15 0 18 -3 9 -9z m428 -1 c0
-5 -4 -10 -10 -10 -5 0 -10 5 -10 10 0 6 5 10 10 10 6 0 10 -4 10 -10z m65 0
c-3 -5 -11 -10 -16 -10 -6 0 -7 5 -4 10 3 6 11 10 16 10 6 0 7 -4 4 -10z m685
-40 c0 -27 -4 -50 -10 -50 -5 0 -10 23 -10 50 0 28 5 50 10 50 6 0 10 -22 10
-50z m3520 39 l-25 -10 28 -23 c31 -25 34 -41 11 -50 -23 -9 -44 -7 -44 3 0 5
9 7 20 4 27 -7 26 14 -2 36 -26 22 -18 51 14 50 23 0 23 0 -2 -10z m440 -40
c0 -33 -4 -48 -11 -44 -6 4 -8 13 -6 19 3 7 1 19 -4 27 -6 11 -11 11 -21 1
-10 -10 -10 -17 1 -33 10 -17 10 -20 0 -17 -7 2 -17 11 -23 20 -12 20 8 48 35
48 11 0 19 7 19 15 0 8 2 15 5 15 3 0 5 -23 5 -51z m160 2 c0 -49 0 -49 -32
-48 -23 1 -34 8 -36 20 -4 19 14 47 30 47 5 0 3 -7 -6 -15 -8 -9 -13 -22 -9
-31 10 -27 28 -8 31 34 4 59 22 53 22 -7z m-5356 3 c11 -28 6 -54 -9 -54 -10
0 -15 10 -15 31 0 17 -4 28 -10 24 -5 -3 -10 -17 -10 -31 0 -13 -4 -24 -10
-24 -5 0 -10 16 -10 35 0 32 3 35 29 35 17 0 31 -6 35 -16z m131 -19 c0 -26
-3 -30 -29 -30 -36 0 -56 26 -36 50 8 9 24 15 39 13 22 -2 26 -8 26 -33z m51
19 c-9 -8 -16 -24 -16 -35 0 -10 -4 -19 -10 -19 -5 0 -10 16 -10 35 0 31 3 35
26 35 23 0 24 -1 10 -16z m131 -3 c3 -13 12 -17 29 -13 13 2 21 8 19 13 -3 4
-12 6 -20 2 -8 -3 -15 0 -15 7 0 6 11 10 28 8 22 -2 28 -8 30 -36 l3 -32 -44
1 c-41 2 -46 5 -51 31 -7 34 -26 28 -26 -8 0 -13 -4 -24 -10 -24 -5 0 -10 11
-10 25 0 14 -4 25 -10 25 -5 0 -10 -11 -10 -25 0 -14 -4 -25 -10 -25 -5 0 -10
15 -10 34 l0 35 51 -1 c40 0 52 -4 56 -17z m143 9 c0 -6 -8 -10 -17 -8 -12 2
-18 -3 -18 -17 0 -14 6 -19 18 -17 9 2 17 -2 17 -8 0 -6 -12 -10 -27 -8 -28 3
-40 25 -29 54 6 16 56 20 56 4z m30 -25 c0 -19 -4 -35 -10 -35 -5 0 -10 16
-10 35 0 19 5 35 10 35 6 0 10 -16 10 -35z m79 21 c20 -24 -4 -58 -37 -54 -27
3 -39 25 -28 54 7 18 50 18 65 0z m85 -2 c11 -28 6 -54 -9 -54 -10 0 -15 10
-15 31 0 17 -4 28 -10 24 -5 -3 -10 -17 -10 -31 0 -13 -4 -24 -10 -24 -5 0
-10 16 -10 35 0 32 3 35 29 35 17 0 31 -6 35 -16z m121 -19 c0 -23 -5 -31 -22
-33 -13 -2 -23 -10 -23 -18 0 -8 -4 -14 -10 -14 -5 0 -10 23 -10 51 l0 50 33
-3 c28 -3 32 -6 32 -33z m75 31 c0 -2 3 -11 6 -20 5 -12 0 -16 -21 -16 -16 0
-24 -4 -20 -11 4 -6 13 -8 21 -5 8 3 14 1 14 -5 0 -6 -12 -9 -27 -7 -47 5 -45
68 2 68 14 0 25 -2 25 -4z m52 -8 c-7 -7 -12 -22 -12 -35 0 -13 -4 -23 -10
-23 -5 0 -10 16 -10 35 0 29 4 35 22 35 17 0 19 -3 10 -12z m68 1 c0 -6 -7 -9
-15 -5 -20 7 -19 -4 2 -19 9 -7 13 -17 9 -23 -9 -15 -43 -15 -52 0 -5 8 -2 9
9 5 10 -3 17 -2 17 3 0 6 -4 10 -10 10 -5 0 -10 9 -10 20 0 15 7 20 25 20 14
0 25 -5 25 -11z m75 -24 c0 -27 -3 -30 -30 -30 -21 0 -31 5 -33 18 -6 33 6 49
35 45 24 -3 28 -8 28 -33z m83 -2 c2 -19 -1 -33 -7 -33 -6 0 -11 12 -11 26 0
31 -23 28 -28 -4 -5 -36 -22 -25 -22 14 0 34 1 35 33 32 28 -3 32 -7 35 -35z
m76 21 c3 -9 6 -25 6 -35 0 -17 -6 -20 -32 -17 -37 4 -50 27 -19 35 12 3 21
10 21 15 0 6 -7 8 -15 4 -8 -3 -15 -1 -15 4 0 17 47 11 54 -6z m3654 -7 c2
-12 -3 -17 -17 -17 -12 0 -21 -5 -21 -11 0 -6 9 -9 20 -6 11 3 20 1 20 -5 0
-15 -42 -5 -53 14 -8 12 -7 21 3 33 16 20 44 16 48 -8z m80 -27 c-3 -40 -6
-45 -28 -47 -25 -3 -25 -3 -2 7 28 12 29 27 0 26 -14 -1 -24 6 -26 17 -6 31 6
47 33 45 24 -2 26 -5 23 -48z m57 -5 c6 0 11 12 13 28 5 38 22 34 22 -6 0 -31
-3 -34 -30 -35 -28 -1 -30 1 -29 36 1 36 1 36 8 7 3 -16 11 -30 16 -30z m82
42 c-9 -7 -18 -23 -20 -37 -3 -19 -5 -17 -6 10 -1 30 3 36 20 37 19 2 19 0 6
-10z m30 -39 c-2 -13 -4 -5 -4 17 -1 22 1 32 4 23 2 -10 2 -28 0 -40z m161 17
c3 -26 -1 -31 -23 -33 -31 -2 -35 27 -5 35 11 3 17 10 14 15 -3 5 -13 7 -21 4
-8 -3 -11 -1 -8 5 13 20 40 4 43 -26z m-16520 -95 l0 -50 -68 0 -68 0 0 50 0
50 68 0 68 0 0 -50z m140 13 l19 -37 12 37 c19 56 41 48 41 -13 0 -27 -4 -50
-10 -50 -5 0 -10 15 -10 33 l-1 32 -14 -32 c-8 -18 -16 -33 -19 -33 -3 0 -12
12 -20 28 l-15 27 -1 -27 c0 -16 -4 -28 -10 -28 -5 0 -10 23 -10 50 0 59 13
64 38 13z m277 2 c0 -16 4 -36 9 -43 15 -24 -3 -25 -23 -1 l-20 24 -1 -22 c0
-13 -4 -23 -10 -23 -5 0 -10 23 -10 51 0 49 1 50 28 47 23 -3 27 -8 27 -33z
m-175 -30 c0 -19 -4 -35 -10 -35 -5 0 -10 16 -10 35 0 19 5 35 10 35 6 0 10
-16 10 -35z m60 25 c0 -5 -8 -7 -17 -4 -12 4 -10 0 6 -14 13 -11 21 -24 17
-31 -9 -14 -43 -14 -52 0 -4 8 0 9 15 4 24 -7 29 10 6 19 -22 8 -18 36 5 36
11 0 20 -4 20 -10z m198 -12 c3 -14 -3 -18 -23 -18 -14 0 -24 -4 -20 -9 6 -11
85 -11 85 0 0 4 -7 9 -15 13 -22 8 -18 36 5 36 11 0 20 -4 20 -10 0 -5 -8 -7
-17 -4 -12 4 -10 0 6 -14 34 -27 19 -41 -41 -39 -58 2 -82 23 -58 52 17 20 54
16 58 -7z m130 0 c3 -14 -3 -18 -24 -18 -30 0 -23 -15 11 -23 15 -4 14 -5 -7
-6 -33 -1 -51 25 -36 52 12 23 51 19 56 -5z m82 0 l9 -23 7 23 c3 12 10 22 15
22 11 0 11 -1 -2 -39 -14 -39 -27 -40 -41 -1 -12 36 -32 34 -36 -3 -5 -39 -22
-33 -22 8 0 32 2 35 30 35 22 0 33 -6 40 -22z m100 -14 c0 -33 -2 -35 -27 -32
-35 4 -37 30 -3 38 17 4 21 8 12 14 -6 4 -16 4 -22 1 -5 -3 -10 -1 -10 4 0 6
11 11 25 11 22 0 25 -4 25 -36z m60 26 c0 -5 -8 -7 -17 -4 -12 4 -10 0 6 -14
13 -11 21 -24 17 -31 -9 -14 -43 -14 -52 0 -4 8 0 9 15 4 24 -7 29 10 6 19
-22 8 -18 36 5 36 11 0 20 -4 20 -10z m-879 -317 c6 -6 9 -34 7 -64 l-3 -54
-65 0 -65 0 -3 55 c-2 40 1 57 12 65 18 14 103 12 117 -2z m169 -18 c10 -12
10 -18 0 -30 -7 -8 -19 -15 -26 -15 -8 0 -14 -9 -14 -20 0 -11 -4 -20 -10 -20
-5 0 -10 23 -10 50 0 46 2 50 24 50 13 0 29 -7 36 -15z m113 4 c-9 -9 -6 -16
10 -30 18 -14 20 -21 11 -36 -14 -22 -53 -24 -67 -2 -7 12 -4 24 13 47 13 18
28 32 34 32 6 0 5 -5 -1 -11z m480 4 c-27 -5 -31 -32 -5 -34 16 -1 16 -2 0 -6
-10 -2 -18 -13 -18 -23 0 -16 7 -19 40 -17 43 1 53 11 19 20 -12 3 -19 12 -17
19 5 16 48 24 48 9 0 -6 -7 -8 -15 -5 -8 4 -15 2 -15 -4 0 -5 9 -12 21 -15 41
-11 14 -32 -44 -35 l-57 -3 0 51 0 50 33 -1 c23 -1 26 -3 10 -6z m109 -13 c2
-6 30 -11 63 -11 54 -1 74 -9 75 -31 0 -5 -11 -8 -25 -8 -31 0 -33 -17 -2 -23
15 -4 12 -5 -8 -4 -25 2 -31 7 -33 30 -4 35 -26 30 -30 -7 -3 -23 -8 -27 -30
-24 -21 2 -28 10 -33 33 -6 33 -1 55 11 55 5 0 10 -5 12 -10z m-649 -17 c-7
-2 -13 -18 -13 -34 0 -16 -4 -29 -10 -29 -5 0 -10 16 -10 35 0 30 3 35 23 34
12 0 16 -3 10 -6z m115 -5 c9 -9 12 -9 12 0 0 7 11 12 25 12 22 0 25 -4 25
-35 0 -31 -3 -35 -25 -35 -14 0 -25 5 -25 12 0 9 -3 9 -12 0 -18 -18 -33 -15
-17 4 10 12 10 20 1 35 -13 21 -3 26 16 7z m180 -25 c2 -19 -1 -33 -7 -33 -6
0 -11 14 -11 30 0 17 -4 30 -10 30 -5 0 -10 -13 -10 -30 0 -16 -4 -30 -10 -30
-5 0 -10 14 -10 30 0 17 -4 30 -10 30 -5 0 -10 -13 -10 -30 0 -16 -4 -30 -10
-30 -5 0 -10 16 -10 35 l0 35 48 -2 c45 -3 47 -4 50 -35z m87 10 c10 -23 33
-38 44 -27 3 3 -2 10 -12 15 -23 14 -22 39 3 39 11 0 20 -4 20 -10 0 -5 -8 -7
-17 -4 -12 4 -10 0 6 -14 13 -11 21 -24 17 -31 -9 -14 -43 -15 -51 -1 -4 6
-13 5 -24 -2 -36 -22 -76 16 -50 48 17 21 52 14 64 -13z m473 -10 c2 -19 -1
-33 -7 -33 -6 0 -11 14 -11 30 0 17 -4 30 -10 30 -5 0 -10 -13 -10 -30 0 -16
-4 -30 -10 -30 -5 0 -10 16 -10 36 0 33 2 35 28 32 22 -2 28 -8 30 -35z m78
26 c4 -8 9 -8 17 0 14 14 47 14 47 1 0 -5 -7 -7 -15 -4 -8 4 -15 2 -15 -4 0
-5 9 -12 21 -15 12 -3 19 -12 17 -19 -6 -16 -58 -24 -58 -8 0 7 8 9 20 5 11
-3 20 -2 20 3 0 19 -37 19 -49 0 -14 -23 -49 -21 -64 4 -8 12 -7 21 2 32 15
18 47 21 57 5z m4894 -75 c0 -43 -15 -74 -36 -74 -14 0 -14 2 0 16 9 9 16 32
16 55 0 21 5 39 10 39 6 0 10 -16 10 -36z m3940 -3 c0 -5 -6 -12 -12 -14 -10
-4 -9 -8 2 -17 11 -9 12 -13 3 -17 -7 -2 -13 -18 -13 -34 0 -16 -4 -29 -10
-29 -5 0 -10 13 -10 29 0 17 -4 33 -10 36 -6 4 -10 -8 -10 -29 0 -20 -4 -36
-10 -36 -5 0 -10 14 -10 30 0 20 -5 30 -15 30 -10 0 -15 -10 -15 -30 0 -20 -5
-30 -15 -30 -11 0 -15 11 -15 41 0 41 0 41 38 39 56 -3 59 -2 65 20 5 20 37
29 37 11z m460 -1 c0 -5 -4 -10 -10 -10 -5 0 -10 5 -10 10 0 6 5 10 10 10 6 0
10 -4 10 -10z m74 -5 c-6 -16 -24 -21 -24 -7 0 11 11 22 21 22 5 0 6 -7 3 -15z
m746 -45 c0 -47 -3 -60 -15 -60 -12 0 -15 13 -15 60 0 47 3 60 15 60 12 0 15
-13 15 -60z m-1430 -5 c0 -42 -3 -55 -15 -55 -12 0 -15 13 -15 55 0 42 3 55
15 55 12 0 15 -13 15 -55z m228 13 c9 -9 12 -9 12 0 0 10 24 12 92 10 83 -3
93 -5 98 -23 4 -19 8 -20 30 -8 l25 13 -23 0 c-13 0 -20 4 -17 10 10 16 55 12
62 -6 5 -15 7 -15 15 0 10 17 58 22 58 6 0 -5 -9 -10 -20 -10 -13 0 -20 -7
-20 -20 0 -13 7 -20 20 -20 11 0 20 -4 20 -10 0 -14 -43 -13 -58 2 -9 9 -12 9
-12 0 0 -8 -18 -11 -55 -11 -54 2 -55 2 -55 30 0 16 -4 29 -10 29 -5 0 -10
-13 -10 -30 0 -20 -5 -30 -15 -30 -10 0 -15 10 -15 30 0 17 -4 30 -10 30 -5 0
-10 -13 -10 -30 0 -20 -5 -30 -15 -30 -11 0 -15 11 -15 36 0 45 -24 42 -28 -4
-3 -34 -32 -46 -32 -14 -1 16 -1 16 -11 0 -12 -21 -49 -24 -67 -6 -26 26 -6
68 33 68 12 0 26 -5 33 -12z m382 -28 c0 -22 -4 -40 -10 -40 -5 0 -10 18 -10
40 0 22 5 40 10 40 6 0 10 -18 10 -40z m94 18 c24 -39 -44 -79 -74 -43 -21 25
3 67 37 63 14 -2 31 -11 37 -20z m90 6 c11 -29 7 -64 -9 -64 -10 0 -15 10 -15
31 0 38 -24 35 -28 -4 -5 -42 -22 -32 -22 13 0 39 1 40 34 40 22 0 36 -6 40
-16z m132 1 c6 -14 8 -14 18 1 15 20 60 15 64 -8 3 -13 -3 -18 -22 -18 -14 0
-26 -4 -26 -10 0 -5 11 -10 25 -10 14 0 25 -4 25 -10 0 -16 -58 -11 -68 6 -8
14 -10 14 -21 0 -8 -9 -22 -16 -32 -16 -12 0 -19 -7 -19 -20 0 -11 -4 -20 -10
-20 -6 0 -10 27 -10 60 l0 60 35 0 c23 0 38 -6 41 -15z m204 5 c0 -5 -8 -10
-17 -10 -15 0 -15 -2 2 -14 17 -12 20 -11 30 8 14 27 55 33 72 10 12 -17 13
-17 13 0 0 14 7 17 38 14 35 -3 37 -5 40 -40 2 -22 -1 -38 -7 -38 -6 0 -11 14
-11 30 0 20 -5 30 -15 30 -10 0 -15 -10 -15 -30 0 -20 -5 -30 -15 -30 -8 0
-15 8 -15 18 -1 16 -1 16 -11 0 -12 -21 -59 -24 -77 -6 -9 9 -12 9 -12 0 0 -7
-13 -12 -30 -12 -16 0 -30 5 -30 10 0 6 9 10 20 10 18 0 18 1 -3 23 -27 29
-37 25 -37 -14 0 -19 -5 -29 -15 -29 -11 0 -15 11 -15 40 l0 40 55 0 c30 0 55
-4 55 -10z m258 -33 c3 -38 3 -38 -30 -35 -41 4 -47 38 -8 49 24 7 24 7 3 8
-13 1 -23 6 -23 12 0 6 12 9 28 7 23 -3 27 -8 30 -41z m-11230 -160 c22 -15
13 -53 -23 -87 l-35 -34 -35 34 c-35 34 -44 67 -25 86 12 12 99 13 118 1z
m155 -14 c-28 -5 -32 -42 -5 -44 16 -1 16 -2 0 -6 -10 -2 -18 -13 -18 -24 0
-10 -4 -19 -10 -19 -5 0 -10 23 -10 50 l0 50 33 -1 c23 -1 26 -3 10 -6z m9707
-3 c0 -5 -4 -10 -10 -10 -5 0 -10 5 -10 10 0 6 5 10 10 10 6 0 10 -4 10 -10z
m317 -67 c-2 -16 -4 -3 -4 27 0 30 2 43 4 28 2 -16 2 -40 0 -55z m533 67 c-13
-9 -13 -11 0 -20 10 -6 11 -10 3 -10 -8 0 -14 -14 -14 -32 l-2 -33 -6 35 c-8
38 2 70 22 70 8 0 6 -4 -3 -10z m1147 -67 c-2 -16 -4 -3 -4 27 0 30 2 43 4 28
2 -16 2 -40 0 -55z m-11355 56 c2 -7 22 -12 43 -13 37 -1 40 -3 40 -31 0 -29
-1 -30 -50 -30 -47 0 -50 1 -56 30 -6 33 -1 55 11 55 5 0 10 -5 12 -11z m9927
-17 c-12 -5 -11 -49 1 -55 6 -3 5 -4 -2 -3 -14 3 -27 52 -20 73 3 9 7 9 17 0
7 -7 9 -13 4 -15z m-10201 -29 c3 -31 1 -33 -27 -33 -36 0 -44 28 -11 37 11 3
20 10 20 15 0 5 -10 6 -21 3 -15 -5 -19 -4 -14 5 4 6 17 10 28 8 17 -2 23 -11
25 -35z m32 9 c0 -13 5 -12 20 8 22 28 26 15 8 -25 -14 -32 -26 -32 -38 1 -13
33 -13 47 0 39 6 -3 10 -14 10 -23z m115 -7 c0 -27 -3 -30 -30 -30 -21 0 -31
5 -33 18 -6 33 6 49 35 45 24 -3 28 -8 28 -33z m85 0 c0 -19 -4 -35 -10 -35
-5 0 -10 14 -10 31 0 38 -24 35 -28 -4 -5 -39 -22 -33 -22 8 0 33 2 35 35 35
33 0 35 -2 35 -35z m190 25 c0 -5 -7 -7 -15 -4 -20 8 -19 -6 2 -21 9 -7 13
-17 9 -23 -9 -14 -46 -16 -46 -2 0 5 7 7 15 4 20 -8 19 6 -2 21 -9 7 -13 17
-9 23 9 14 46 16 46 2z m9186 -5 c-4 -11 1 -15 19 -15 14 0 25 -2 25 -4 0 -2
3 -13 6 -23 5 -17 5 -17 -6 0 -6 9 -20 17 -30 17 -10 0 -24 -8 -29 -17 -6 -10
-11 -15 -11 -12 0 12 22 69 27 69 3 0 3 -7 -1 -15z m97 5 c-13 -5 -23 -16 -23
-25 0 -9 10 -20 23 -25 17 -8 18 -9 3 -7 -28 3 -43 32 -27 51 8 9 21 16 30 15
11 0 9 -3 -6 -9z m60 3 c-7 -2 -19 -2 -25 0 -7 3 -2 5 12 5 14 0 19 -2 13 -5z
m50 -56 c8 -6 7 -7 -3 -4 -9 2 -16 17 -16 38 -2 31 -1 31 3 4 3 -16 10 -34 16
-38z m24 11 c-2 -13 -4 -5 -4 17 -1 22 1 32 4 23 2 -10 2 -28 0 -40z m73 43
c0 -5 -9 -7 -20 -4 -11 3 -20 7 -20 9 0 2 9 4 20 4 11 0 20 -4 20 -9z m67 -43
c-2 -13 -4 -5 -4 17 -1 22 1 32 4 23 2 -10 2 -28 0 -40z m66 45 c-7 -2 -21 -2
-30 0 -10 3 -4 5 12 5 17 0 24 -2 18 -5z m71 -9 c13 -34 7 -54 -18 -54 -14 0
-27 4 -30 9 -4 5 2 7 13 4 10 -3 22 0 25 6 4 6 -1 11 -11 12 -16 0 -16 1 2 9
19 8 19 8 -5 18 -23 10 -23 11 -4 11 12 1 25 -6 28 -15z m163 -36 c-2 -13 -4
-5 -4 17 -1 22 1 32 4 23 2 -10 2 -28 0 -40z m70 0 c-2 -13 -4 -5 -4 17 -1 22
1 32 4 23 2 -10 2 -28 0 -40z m40 0 c-2 -13 -4 -5 -4 17 -1 22 1 32 4 23 2
-10 2 -28 0 -40z m43 42 c0 -5 -7 -7 -15 -4 -8 4 -15 8 -15 10 0 2 7 4 15 4 8
0 15 -4 15 -10z m125 -25 c0 -25 -4 -30 -25 -30 -16 0 -26 6 -28 18 -6 30 6
49 30 45 18 -2 23 -9 23 -33z m52 22 c-9 -7 -18 -23 -20 -37 -3 -19 -5 -17 -6
10 -1 30 3 36 20 37 19 2 19 0 6 -10z m119 -13 c3 -13 4 -29 1 -36 -3 -7 -6
-1 -6 14 -1 32 -17 44 -36 28 -12 -10 -15 -10 -15 0 0 23 -25 3 -31 -26 -7
-29 -7 -28 -8 6 -1 35 -1 35 44 37 40 1 46 -2 51 -23z m72 -12 c3 -29 1 -32
-22 -32 -31 0 -36 29 -6 37 25 7 26 20 3 27 -14 4 -14 4 2 3 15 -2 21 -11 23
-35z m55 28 c-13 -5 -23 -16 -23 -25 0 -9 10 -20 23 -25 22 -10 22 -10 -3 -7
-43 4 -34 68 9 66 11 0 9 -3 -6 -9z m44 -42 c-2 -13 -4 -5 -4 17 -1 22 1 32 4
23 2 -10 2 -28 0 -40z m78 17 c0 -25 -4 -30 -25 -30 -16 0 -26 6 -28 18 -6 30
6 49 30 45 18 -2 23 -9 23 -33z m81 0 c1 -30 1 -30 -3 -2 -6 38 -36 32 -44 -8
-7 -30 -7 -30 -8 6 -1 33 1 36 27 35 23 -1 27 -5 28 -31z m121 15 c4 -12 3
-13 -5 -1 -12 17 -42 7 -42 -14 0 -21 30 -31 42 -14 8 12 9 11 5 -1 -2 -8 -12
-15 -23 -15 -10 0 -22 -9 -26 -20 -3 -12 -6 0 -7 31 -1 49 0 51 26 50 14 -1
28 -8 30 -16z m73 16 c0 -2 3 -11 6 -20 5 -12 0 -16 -20 -16 -32 0 -34 -17 -3
-23 19 -5 19 -5 -3 -4 -41 3 -41 67 0 67 11 0 20 -2 20 -4z m53 -4 c-6 -4 -13
-21 -16 -37 -4 -27 -4 -27 -6 8 -1 29 3 37 17 37 11 0 13 -3 5 -8z m45 1 c-24
-6 -23 -19 3 -26 12 -3 19 -12 17 -19 -5 -15 -48 -24 -48 -10 0 6 9 8 20 5 11
-3 20 0 20 6 0 6 -6 11 -14 11 -8 0 -18 5 -21 10 -9 15 4 30 23 29 15 -1 15
-2 0 -6z m89 -13 c4 -12 3 -13 -5 -1 -13 19 -44 6 -40 -16 2 -11 12 -18 26
-17 14 0 19 -3 13 -9 -25 -25 -61 12 -47 49 7 19 48 14 53 -6z m40 -32 c-2
-13 -4 -5 -4 17 -1 22 1 32 4 23 2 -10 2 -28 0 -40z m39 11 c2 -31 1 -31 -3
-4 -3 16 -10 34 -16 38 -8 6 -7 7 3 4 9 -2 16 -17 16 -38z m74 32 c0 -5 -9 -7
-20 -4 -11 3 -20 7 -20 9 0 2 9 4 20 4 11 0 20 -4 20 -9z m-1558 -23 c-17 -17
-15 -26 6 -31 10 -3 6 -5 -11 -6 -20 -1 -26 3 -21 12 12 21 26 37 32 37 3 0 1
-5 -6 -12z m-139 -5 c-13 -2 -23 -9 -23 -15 0 -6 9 -8 20 -5 11 3 20 1 20 -4
0 -12 -37 -11 -45 1 -10 16 4 30 28 29 22 -2 22 -2 0 -6z m1680 0 c-13 -2 -23
-9 -23 -15 0 -6 9 -8 20 -5 11 3 20 1 20 -4 0 -12 -37 -11 -45 1 -10 16 4 30
28 29 22 -2 22 -2 0 -6z m-1313 -29 c0 -2 -7 -4 -15 -4 -8 0 -15 4 -15 10 0 5
7 7 15 4 8 -4 15 -8 15 -10z m-10525 -279 c0 -25 -4 -30 -25 -30 -16 0 -26 6
-28 18 -6 30 6 49 30 45 18 -2 23 -9 23 -33z m213 -12 c2 -16 -4 -26 -22 -35
-14 -6 -26 -17 -26 -25 0 -7 -4 -13 -10 -13 -5 0 -10 23 -10 51 l0 50 33 -3
c24 -2 33 -8 35 -25z m208 15 c5 -8 0 -9 -14 -6 -12 4 -25 2 -28 -3 -3 -5 6
-9 20 -9 23 0 26 -4 26 -35 0 -24 -5 -35 -15 -35 -10 0 -15 10 -15 30 0 17 -4
30 -10 30 -5 0 -10 -13 -10 -30 0 -16 -4 -30 -10 -30 -5 0 -10 14 -10 31 0 24
-4 30 -17 27 -11 -2 -19 -14 -21 -31 -5 -39 -22 -33 -22 8 0 32 3 35 29 35 16
0 31 6 35 15 6 18 52 20 62 3z m34 -38 c0 -27 -4 -50 -10 -50 -5 0 -10 23 -10
50 0 28 5 50 10 50 6 0 10 -22 10 -50z m-172 -2 c2 -13 -3 -18 -18 -18 -12 0
-19 -4 -15 -10 3 -5 12 -7 20 -3 8 3 15 0 15 -6 0 -6 -13 -11 -29 -11 -34 0
-51 31 -30 56 16 19 53 14 57 -8z m9611 -30 l21 -33 0 33 c0 17 5 32 10 32 6
0 10 -22 10 -50 0 -57 -9 -62 -39 -22 l-20 27 -1 -27 c0 -18 -5 -28 -15 -28
-11 0 -15 12 -15 50 0 60 18 66 49 18z m291 18 c0 -8 10 -16 23 -18 17 -2 22
-10 22 -33 0 -27 -4 -30 -32 -33 l-33 -3 0 50 c0 28 5 51 10 51 6 0 10 -6 10
-14z m600 -36 c0 -27 -4 -50 -10 -50 -5 0 -10 23 -10 50 0 28 5 50 10 50 6 0
10 -22 10 -50z m-10763 5 c2 -27 2 -28 -7 -7 -7 16 -18 22 -40 22 -22 0 -33
-6 -40 -22 -9 -23 -9 -23 -9 3 -1 35 7 40 54 37 37 -3 40 -6 42 -33z m10885
23 c3 -7 19 -11 41 -10 43 3 65 -23 44 -53 -20 -27 -61 -16 -65 18 -2 15 -8
27 -14 27 -6 0 -8 -12 -4 -30 4 -22 2 -30 -9 -30 -9 0 -15 10 -15 24 0 14 -4
28 -10 31 -6 4 -5 11 3 20 15 18 24 19 29 3z m-4972 -51 c0 -24 -5 -48 -12
-55 -15 -15 -48 -16 -48 -2 0 6 7 10 15 10 11 0 15 12 15 45 0 33 4 45 15 45
11 0 15 -11 15 -43z m4085 8 c0 -26 -3 -30 -29 -30 -36 0 -56 26 -36 50 8 9
24 15 39 13 22 -2 26 -8 26 -33z m125 -1 c0 -19 -4 -34 -10 -34 -5 0 -10 11
-10 25 0 14 -4 25 -10 25 -5 0 -10 -11 -10 -25 0 -14 -4 -25 -10 -25 -5 0 -10
11 -10 25 0 16 -6 25 -15 25 -9 0 -15 -9 -15 -25 0 -14 -4 -25 -10 -25 -5 0
-10 16 -10 35 l0 34 55 0 55 -1 0 -34z m212 23 c13 -21 9 -27 -18 -27 -14 0
-23 -4 -19 -10 3 -5 12 -7 20 -3 8 3 15 0 15 -7 0 -6 -11 -10 -27 -8 -22 2
-29 9 -31 31 -4 35 -26 30 -30 -6 -5 -39 -22 -33 -22 7 l0 35 53 -1 c28 0 55
-5 59 -11z m108 3 c0 -5 -9 -10 -20 -10 -11 0 -20 -7 -20 -15 0 -8 9 -15 20
-15 11 0 20 -5 20 -11 0 -6 -12 -9 -27 -7 -28 3 -40 25 -29 54 6 16 56 20 56
4z m75 -25 c0 -26 -3 -30 -29 -30 -36 0 -56 26 -36 50 8 9 24 15 39 13 22 -2
26 -8 26 -33z m125 -1 c0 -19 -4 -34 -10 -34 -5 0 -10 11 -10 25 0 14 -4 25
-10 25 -5 0 -10 -11 -10 -25 0 -14 -4 -25 -10 -25 -5 0 -10 11 -10 25 0 16 -6
25 -15 25 -9 0 -15 -9 -15 -25 0 -14 -4 -25 -10 -25 -5 0 -10 16 -10 35 l0 34
55 0 55 -1 0 -34z m85 1 c0 -23 -5 -31 -22 -33 -13 -2 -23 -10 -23 -18 0 -8
-4 -14 -10 -14 -5 0 -10 23 -10 51 l0 50 33 -3 c28 -3 32 -6 32 -33z m113 13
c2 -13 -3 -18 -18 -18 -12 0 -19 -4 -15 -10 3 -5 13 -6 22 -3 11 4 14 3 9 -5
-4 -7 -18 -12 -31 -12 -28 0 -43 34 -24 56 16 19 53 14 57 -8z m-4851 -19 c8
-8 13 -8 17 0 9 14 56 15 56 1 0 -5 -10 -10 -22 -11 l-23 0 23 -10 c32 -12 25
-43 -11 -47 -15 -2 -27 1 -27 7 0 6 10 11 23 11 18 0 19 2 7 10 -20 13 -93 13
-85 0 3 -5 15 -10 26 -10 10 0 19 -4 19 -10 0 -14 -43 -13 -58 2 -7 7 -12 19
-12 28 0 34 43 53 67 29z m103 -19 c0 -20 5 -30 15 -30 10 0 15 10 15 30 0 20
5 30 15 30 8 0 15 -6 16 -12 0 -10 2 -10 6 0 6 14 53 17 53 2 0 -5 -7 -10 -16
-10 -13 0 -11 -4 6 -18 36 -29 17 -41 -58 -39 l-67 2 -3 38 c-2 21 1 37 7 37
6 0 11 -13 11 -30z m-970 -130 c-13 -9 -13 -11 0 -20 10 -6 11 -10 3 -10 -8 0
-14 -14 -14 -32 l-2 -33 -6 35 c-8 38 2 70 22 70 8 0 6 -4 -3 -10z m27 -67
c-2 -16 -4 -3 -4 27 0 30 2 43 4 28 2 -16 2 -40 0 -55z m548 42 c16 0 20 -7
21 -35 l2 -35 -5 33 c-6 42 -35 40 -44 -3 -5 -22 -7 -16 -7 25 0 31 3 46 6 35
4 -11 16 -20 27 -20z m356 -54 c-3 -10 -6 -11 -9 -3 -2 7 -15 12 -28 12 -14 0
-23 4 -20 9 3 5 15 7 26 4 16 -4 20 0 20 17 0 20 -2 21 -17 9 -13 -11 -13 -8
3 16 l19 29 5 -39 c3 -22 4 -47 1 -54z m75 58 c1 -19 -4 -25 -20 -25 -12 1
-21 -5 -21 -14 0 -9 9 -15 22 -14 12 0 20 -3 17 -8 -8 -13 -30 -9 -44 7 -9 11
-10 18 -1 28 6 8 8 17 5 20 -12 12 6 38 23 35 11 -2 18 -13 19 -29z m78 9 c17
-27 -4 -73 -34 -75 -19 -1 -20 0 -5 4 19 5 35 20 35 35 0 3 -9 4 -20 1 -22 -6
-36 17 -26 43 7 19 35 15 50 -8z m117 5 c11 -15 11 -16 -1 -5 -18 15 -52 16
-68 0 -15 -15 -16 -54 -2 -63 6 -3 10 -2 10 3 0 5 14 8 30 6 24 -3 33 1 40 19
6 15 9 17 9 6 1 -17 -21 -41 -35 -38 -5 1 -18 0 -29 -1 -15 -2 -12 -4 10 -10
30 -8 30 -8 3 -9 -51 -2 -76 53 -41 91 20 23 57 23 74 1z m356 -60 c-2 -16 -4
-3 -4 27 0 30 2 43 4 28 2 -16 2 -40 0 -55z m-1038 39 c-12 -5 -11 -49 1 -55
6 -3 5 -4 -2 -3 -14 3 -27 52 -20 73 3 9 7 9 17 0 7 -7 9 -13 4 -15z m-412
-12 c4 -12 3 -13 -5 -1 -13 19 -44 6 -40 -16 2 -11 12 -18 26 -17 14 0 19 -3
13 -9 -25 -25 -61 12 -47 49 7 19 48 14 53 -6z m56 12 c-6 -4 -13 -21 -16 -37
-4 -27 -4 -27 -6 8 -1 29 3 37 17 37 11 0 13 -3 5 -8z m67 4 c0 -2 3 -11 6
-20 5 -12 0 -16 -20 -16 -32 0 -34 -17 -3 -23 19 -5 19 -5 -3 -4 -41 3 -41 67
0 67 11 0 20 -2 20 -4z m48 -3 c-24 -6 -23 -19 3 -26 25 -7 20 -32 -7 -33 -15
-1 -16 0 -1 3 21 5 23 23 3 23 -8 0 -18 5 -21 10 -9 15 4 30 23 29 15 -1 15
-2 0 -6z m112 -2 c0 -5 -9 -7 -20 -4 -11 3 -20 7 -20 9 0 2 9 4 20 4 11 0 20
-4 20 -9z m37 -43 c-2 -13 -4 -5 -4 17 -1 22 1 32 4 23 2 -10 2 -28 0 -40z
m43 42 c0 -5 -7 -7 -15 -4 -8 4 -15 8 -15 10 0 2 7 4 15 4 8 0 15 -4 15 -10z
m207 -10 c4 -12 3 -13 -5 -1 -13 19 -44 6 -40 -16 2 -11 12 -18 26 -17 14 0
19 -3 13 -9 -25 -25 -61 12 -47 49 7 19 48 14 53 -6z m40 -32 c-2 -13 -4 -5
-4 17 -1 22 1 32 4 23 2 -10 2 -28 0 -40z m39 11 c2 -31 1 -31 -3 -4 -3 16
-10 34 -16 38 -8 6 -7 7 3 4 9 -2 16 -17 16 -38z m55 -9 c10 -8 -9 -50 -23
-50 -10 0 -10 2 1 9 13 8 12 20 -4 78 -3 10 0 7 7 -7 7 -14 15 -27 19 -30z
m369 46 c0 -2 -9 -6 -20 -9 -11 -3 -18 -1 -14 4 5 9 34 13 34 5z m88 -3 c-21
-5 -25 -49 -5 -56 7 -2 6 -3 -3 -3 -16 1 -25 29 -16 52 3 8 13 13 23 13 17 -1
17 -2 1 -6z m28 -79 c-3 -8 -18 -14 -33 -13 l-28 1 25 7 c21 6 26 14 30 51 l4
45 4 -39 c2 -21 1 -44 -2 -52z m41 34 c-2 -13 -4 -5 -4 17 -1 22 1 32 4 23 2
-10 2 -28 0 -40z m39 11 c2 -31 1 -31 -3 -4 -3 16 -10 34 -16 38 -8 6 -7 7 3
4 9 -2 16 -17 16 -38z m40 0 c2 -31 1 -31 -3 -4 -3 16 -10 34 -16 38 -8 6 -7
7 3 4 9 -2 16 -17 16 -38z m74 32 c0 -5 -9 -7 -20 -4 -11 3 -20 7 -20 9 0 2 9
4 20 4 11 0 20 -4 20 -9z m37 -43 c-2 -13 -4 -5 -4 17 -1 22 1 32 4 23 2 -10
2 -28 0 -40z m116 42 c-13 -5 -23 -16 -23 -25 0 -9 10 -20 23 -25 17 -8 18 -9
3 -7 -28 3 -43 32 -27 51 8 9 21 16 30 15 11 0 9 -3 -6 -9z m92 -25 c0 -25 -4
-30 -25 -30 -16 0 -26 6 -28 18 -6 30 6 49 30 45 18 -2 23 -9 23 -33z m121 -5
l2 -35 -5 33 c-2 19 -10 32 -19 32 -8 0 -14 -5 -14 -11 0 -8 -5 -7 -15 1 -19
16 -31 5 -38 -30 -3 -19 -5 -16 -6 11 l-1 36 48 -1 c47 -1 47 -1 48 -36z
m-1483 3 c-13 -2 -23 -9 -23 -15 0 -6 9 -8 20 -5 11 3 20 1 20 -4 0 -12 -37
-11 -45 1 -10 16 4 30 28 29 22 -2 22 -2 0 -6z m1100 0 c-13 -2 -23 -9 -23
-15 0 -6 9 -8 20 -5 11 3 20 1 20 -4 0 -12 -37 -11 -45 1 -10 16 4 30 28 29
22 -2 22 -2 0 -6z m3397 -87 c0 -40 -18 -76 -37 -76 -17 1 -17 1 0 11 11 7 17
22 17 49 0 22 5 40 10 40 6 0 10 -11 10 -24z m70 -26 c9 -18 8 -20 -15 -20
-31 0 -33 -17 -2 -23 15 -4 12 -5 -8 -4 -30 2 -43 22 -31 53 8 21 44 17 56 -6z
m60 10 c0 -5 -7 -7 -15 -4 -20 8 -19 -6 2 -21 9 -7 13 -17 9 -23 -9 -14 -46
-16 -46 -2 0 5 7 7 15 4 20 -8 19 6 -2 21 -9 7 -13 17 -9 23 9 14 46 16 46 2z
m30 -21 c0 -38 24 -35 28 4 5 40 22 33 22 -9 0 -34 -1 -35 -32 -32 -29 3 -33
7 -36 36 -2 18 1 32 7 32 6 0 11 -14 11 -31z m110 21 c0 -5 -7 -7 -15 -4 -20
8 -19 -6 2 -21 9 -7 13 -17 9 -23 -9 -14 -46 -16 -46 -2 0 5 7 7 15 4 20 -8
19 6 -2 21 -9 7 -13 17 -9 23 9 14 46 16 46 2z m-7304 -292 c-3 -13 -6 -35 -6
-50 0 -16 -4 -28 -10 -28 -5 0 -10 23 -10 50 0 39 3 50 16 50 12 0 15 -6 10
-22z m84 -28 c0 -57 -20 -69 -21 -12 0 20 -3 30 -6 22 -3 -8 -10 -26 -15 -40
l-10 -25 -13 25 c-8 14 -14 32 -14 40 0 9 5 5 13 -10 l14 -24 15 37 c22 52 37
46 37 -13z m35 40 c3 -5 1 -10 -4 -10 -6 0 -11 5 -11 10 0 6 2 10 4 10 3 0 8
-4 11 -10z m260 -25 c16 0 20 -7 20 -30 0 -26 -4 -30 -27 -31 -27 -1 -28 1
-27 50 1 31 4 43 7 31 4 -11 16 -20 27 -20z m285 -13 c0 -47 -1 -49 -30 -50
-21 0 -31 5 -35 19 -7 20 9 49 27 49 5 0 3 -7 -6 -15 -8 -9 -13 -22 -9 -31 10
-27 28 -8 31 34 4 58 22 53 22 -6z m210 -1 c0 -46 -1 -48 -27 -47 -24 1 -28 5
-28 31 0 25 4 30 23 29 15 0 22 5 22 18 0 10 2 18 5 18 3 0 5 -22 5 -49z
m4198 22 c2 -14 -4 -27 -17 -35 -28 -17 -26 -26 7 -31 22 -3 20 -4 -10 -6 -21
0 -38 2 -38 5 0 3 11 20 25 36 28 33 24 52 -7 42 -14 -4 -18 -3 -13 6 12 19
50 7 53 -17z m77 -23 c0 -38 -3 -45 -21 -48 -28 -4 -51 23 -35 41 6 8 8 17 5
20 -14 13 7 38 28 35 20 -3 23 -9 23 -48z m125 -1 l0 -50 -32 3 c-29 3 -33 6
-33 33 0 23 5 31 23 33 12 2 22 10 22 18 0 8 5 14 10 14 6 0 10 -23 10 -51z
m220 36 c0 -8 9 -15 19 -15 24 0 37 -36 21 -55 -7 -8 -23 -15 -36 -15 -22 0
-24 4 -24 50 0 28 5 50 10 50 6 0 10 -7 10 -15z m160 -35 c0 -27 -4 -50 -10
-50 -5 0 -10 23 -10 50 0 28 5 50 10 50 6 0 10 -22 10 -50z m120 -1 l0 -50
-32 3 c-29 3 -33 6 -33 33 0 23 5 31 23 33 12 2 22 10 22 18 0 8 5 14 10 14 6
0 10 -23 10 -51z m188 29 c2 -9 -9 -27 -23 -40 l-27 -23 29 -6 28 -7 -32 -1
c-38 -1 -43 17 -13 44 11 10 20 25 20 33 0 9 -7 13 -20 9 -11 -3 -20 -1 -20 5
0 17 55 4 58 -14z m70 10 c7 -7 12 -24 12 -38 0 -50 -54 -71 -66 -25 -14 57
20 97 54 63z m80 -10 c2 -9 -9 -27 -23 -40 l-27 -23 29 -6 28 -7 -32 -1 c-38
-1 -43 17 -13 44 11 10 20 25 20 33 0 9 -7 13 -20 9 -11 -3 -20 -1 -20 5 0 17
55 4 58 -14z m55 12 c-25 -10 -31 -30 -10 -30 23 0 37 -21 26 -42 -10 -19 -59
-26 -59 -8 0 5 10 9 21 7 29 -3 37 23 10 30 -14 3 -21 13 -21 29 0 20 5 24 28
23 26 0 26 -1 5 -9z m-6043 -55 c0 -19 -4 -35 -10 -35 -5 0 -10 16 -10 35 0
19 5 35 10 35 6 0 10 -16 10 -35z m68 12 c2 -12 -3 -17 -17 -17 -12 0 -21 -5
-21 -11 0 -6 9 -9 20 -6 11 3 20 1 20 -5 0 -15 -42 -5 -53 14 -8 12 -7 21 3
33 16 20 44 16 48 -8z m42 -12 c0 -19 -4 -35 -10 -35 -5 0 -10 16 -10 35 0 19
5 35 10 35 6 0 10 -16 10 -35z m78 -3 l-1 -37 -4 33 c-5 40 -25 38 -34 -4 -6
-28 -7 -28 -8 -3 0 14 -6 30 -11 35 -7 7 2 10 25 11 34 1 35 0 33 -35z m144
29 c-7 -4 -17 -21 -22 -37 l-8 -29 -1 35 c-1 30 3 36 21 37 15 2 18 -1 10 -6z
m79 -7 c17 -21 0 -49 -32 -49 -18 0 -25 6 -27 24 -6 38 34 55 59 25z m197 -7
c2 -12 -3 -17 -17 -17 -12 0 -21 -5 -21 -11 0 -6 9 -9 20 -6 11 3 20 1 20 -5
0 -15 -42 -5 -53 14 -8 12 -7 21 3 33 16 20 44 16 48 -8z m50 16 c-22 -5 -24
-23 -3 -23 8 0 15 -9 15 -20 0 -14 -6 -20 -22 -19 -17 1 -19 2 -5 6 21 6 22
12 0 28 -19 14 -9 36 15 34 15 -1 15 -2 0 -6z m170 -16 c2 -12 -3 -17 -17 -17
-12 0 -21 -5 -21 -11 0 -6 9 -9 20 -6 11 3 20 1 20 -5 0 -15 -42 -5 -53 14 -8
12 -7 21 3 33 16 20 44 16 48 -8z m4392 19 c0 -2 3 -11 6 -20 5 -12 0 -16 -20
-16 -32 0 -34 -17 -3 -23 15 -4 12 -5 -8 -4 -30 2 -43 22 -31 53 5 12 56 21
56 10z m110 -32 c0 -33 -2 -35 -27 -32 -35 4 -37 30 -3 38 17 4 21 8 12 14 -6
4 -16 4 -22 1 -5 -3 -10 -1 -10 4 0 6 11 11 25 11 22 0 25 -4 25 -36z m133 29
c-7 -2 -13 -18 -13 -34 0 -16 -4 -29 -10 -29 -5 0 -10 16 -10 35 0 30 3 35 23
34 12 0 16 -3 10 -6z m37 -28 c0 -19 -4 -35 -10 -35 -5 0 -10 16 -10 35 0 19
5 35 10 35 6 0 10 -16 10 -35z m228 13 c3 -14 -3 -18 -24 -18 -30 0 -23 -14
11 -23 12 -4 9 -5 -9 -4 -37 2 -55 29 -36 52 17 20 54 16 58 -7z m1092 -47 c0
-5 -12 -11 -27 -13 -22 -2 -28 -8 -28 -28 0 -20 6 -26 28 -28 36 -4 35 -22 -1
-22 -35 0 -52 16 -52 50 0 14 5 31 12 38 14 14 68 16 68 3z m490 -41 c0 -38
-4 -50 -15 -50 -11 0 -15 12 -15 50 0 38 4 50 15 50 11 0 15 -12 15 -50z m305
40 c-3 -5 -11 -10 -16 -10 -6 0 -7 5 -4 10 3 6 11 10 16 10 6 0 7 -4 4 -10z
m135 0 c0 -5 -4 -10 -10 -10 -5 0 -10 5 -10 10 0 6 5 10 10 10 6 0 10 -4 10
-10z m-258 -11 c2 -5 31 -10 66 -10 49 -1 64 -4 72 -18 13 -26 -10 -54 -41
-49 -18 2 -25 10 -27 31 -4 35 -26 30 -30 -6 -4 -37 -22 -34 -22 3 0 17 -5 30
-11 30 -7 0 -9 -11 -5 -30 4 -22 2 -30 -9 -30 -9 0 -15 9 -15 23 0 31 -5 35
-35 29 -30 -5 -34 -32 -5 -32 11 0 20 -4 20 -10 0 -16 -50 -12 -56 5 -4 8 -17
15 -31 15 -13 0 -22 -4 -18 -10 3 -5 12 -7 20 -3 8 3 15 0 15 -7 0 -6 -11 -10
-27 -8 -24 3 -28 8 -28 33 0 25 4 30 28 33 17 2 27 -1 27 -9 0 -10 3 -10 12
-1 7 7 27 12 45 12 18 0 33 5 33 10 0 13 17 13 22 -1z m-595 -25 c9 -24 -10
-49 -37 -49 -31 0 -48 28 -31 49 17 21 60 21 68 0z m175 3 c4 -7 11 -7 22 2
21 17 60 10 64 -12 8 -39 -42 -63 -68 -32 -14 17 -65 21 -55 4 4 -6 13 -8 21
-5 8 3 14 1 14 -5 0 -6 -12 -9 -27 -7 -22 2 -29 9 -31 31 -4 37 -22 35 -22 -3
0 -20 -5 -30 -15 -30 -10 0 -15 10 -15 31 0 38 -24 35 -28 -4 -5 -39 -22 -33
-22 8 l0 35 78 -1 c43 -1 80 -6 84 -12z m196 -9 c2 -13 -3 -18 -18 -18 -12 0
-19 -4 -15 -10 3 -5 12 -7 20 -3 8 3 15 0 15 -7 0 -17 -51 -8 -63 12 -8 12 -7
21 3 33 17 20 54 16 58 -7z m446 6 c11 -28 6 -54 -9 -54 -9 0 -15 9 -15 25 0
14 -4 25 -10 25 -5 0 -10 -11 -10 -25 0 -14 -4 -25 -10 -25 -5 0 -10 16 -10
35 0 32 3 35 29 35 17 0 31 -6 35 -16z m36 -19 c0 -19 -4 -35 -10 -35 -5 0
-10 16 -10 35 0 19 5 35 10 35 6 0 10 -16 10 -35z m70 25 c0 -5 -9 -10 -20
-10 -11 0 -20 -7 -20 -15 0 -8 9 -15 20 -15 11 0 20 -5 20 -11 0 -6 -12 -9
-27 -7 -28 3 -40 25 -29 54 6 16 56 20 56 4z m75 -25 c0 -26 -3 -30 -29 -30
-36 0 -56 26 -36 50 8 9 24 15 39 13 22 -2 26 -8 26 -33z m-993 -284 c-7 -4
-12 -12 -11 -17 1 -5 0 -25 -1 -44 l-3 -35 -6 35 c-8 38 2 70 22 70 9 0 8 -3
-1 -9z m25 -68 c-2 -16 -4 -3 -4 27 0 30 2 43 4 28 2 -16 2 -40 0 -55z m904
-12 c-3 -10 -6 -11 -9 -3 -2 7 -12 12 -23 12 -10 0 -19 4 -19 9 0 5 9 7 21 4
18 -5 21 -2 19 23 -3 47 2 52 9 9 4 -22 5 -47 2 -54z m76 69 c4 -12 3 -13 -5
-1 -6 8 -17 11 -27 8 -10 -4 -14 -3 -10 4 9 14 37 7 42 -11z m67 11 c4 -5 -3
-7 -14 -4 -15 4 -20 0 -20 -15 0 -11 8 -23 18 -25 16 -4 16 -5 -1 -6 -20 -1
-32 21 -23 44 6 17 32 20 40 6z m127 -8 c11 -15 11 -16 -1 -5 -20 17 -50 15
-74 -5 -21 -18 -21 -18 -2 5 23 26 58 29 77 5z m356 -60 c-2 -16 -4 -3 -4 27
0 30 2 43 4 28 2 -16 2 -40 0 -55z m-1044 18 c2 -42 -10 -43 -13 -1 -3 37 -1
54 6 47 3 -3 7 -24 7 -46z m-409 20 c4 -5 -3 -7 -14 -4 -23 6 -26 13 -6 13 8
0 17 -4 20 -9z m66 5 c0 -2 -7 -7 -16 -10 -8 -3 -12 -2 -9 4 6 10 25 14 25 6z
m117 -2 c-3 -3 -12 -4 -19 -1 -8 3 -5 6 6 6 11 1 17 -2 13 -5z m103 -3 c0 -5
-9 -7 -20 -4 -11 3 -20 7 -20 9 0 2 9 4 20 4 11 0 20 -4 20 -9z m37 -43 c-2
-13 -4 -5 -4 17 -1 22 1 32 4 23 2 -10 2 -28 0 -40z m38 42 c3 -6 -1 -7 -9 -4
-18 7 -21 14 -7 14 6 0 13 -4 16 -10z m131 -30 l2 -35 -5 33 c-4 28 -8 33 -24
29 -11 -3 -16 -1 -13 4 14 23 39 3 40 -31z m78 31 c4 -5 -3 -7 -14 -4 -23 6
-26 13 -6 13 8 0 17 -4 20 -9z m81 -1 c3 -6 -1 -7 -9 -4 -18 7 -21 14 -7 14 6
0 13 -4 16 -10z m235 -5 c0 -2 -6 -5 -13 -8 -8 -3 -14 1 -14 8 0 7 6 11 14 8
7 -3 13 -6 13 -8z m97 -7 c-3 -8 -6 -5 -6 6 -1 11 2 17 5 13 3 -3 4 -12 1 -19z
m93 18 c0 -2 -9 -6 -20 -9 -11 -3 -18 -1 -14 4 5 9 34 13 34 5z m117 -58 c-2
-13 -4 -3 -4 22 0 25 2 35 4 23 2 -13 2 -33 0 -45z m79 21 c2 -31 1 -31 -3 -4
-3 16 -10 34 -16 38 -8 6 -7 7 3 4 9 -2 16 -17 16 -38z m40 0 c2 -31 1 -31 -3
-4 -3 16 -10 34 -16 38 -8 6 -7 7 3 4 9 -2 16 -17 16 -38z m74 32 c0 -5 -9 -7
-20 -4 -11 3 -20 7 -20 9 0 2 9 4 20 4 11 0 20 -4 20 -9z m170 5 c0 -2 -9 -6
-20 -9 -11 -3 -18 -1 -14 4 5 9 34 13 34 5z m76 -14 c1 -7 0 -8 -3 -2 -7 14
-43 13 -43 -2 0 -6 -3 -9 -6 -5 -3 3 -3 11 1 17 9 15 48 9 51 -8z m110 11 c-3
-3 -20 -6 -38 -7 -28 -1 -34 -6 -39 -31 -7 -30 -7 -30 -8 5 -1 35 -1 35 45 37
25 0 43 -1 40 -4z m-1789 -35 c-3 -8 -6 -5 -6 6 -1 11 2 17 5 13 3 -3 4 -12 1
-19z m183 7 c0 -2 -13 -5 -30 -7 -19 -3 -30 0 -30 7 0 7 11 10 30 7 17 -2 30
-5 30 -7z m387 -7 c-3 -8 -6 -5 -6 6 -1 11 2 17 5 13 3 -3 4 -12 1 -19z m641
-22 c12 -3 11 -4 -3 -3 -12 1 -20 10 -21 22 -1 14 0 15 3 3 2 -9 12 -19 21
-22z m-881 28 c-3 -3 -12 -4 -19 -1 -8 3 -5 6 6 6 11 1 17 -2 13 -5z m1100 0
c-3 -3 -12 -4 -19 -1 -8 3 -5 6 6 6 11 1 17 -2 13 -5z m-674 -25 c-3 -10 -13
-24 -22 -31 -14 -12 -15 -11 -2 4 7 10 11 24 8 31 -3 8 1 14 8 14 7 0 10 -8 8
-18z m387 6 c0 -1 -12 -2 -26 -2 -17 0 -22 2 -13 7 10 7 39 3 39 -5z m520 -2
c16 4 20 3 13 -4 -15 -15 -45 -7 -50 11 -4 12 -3 13 5 1 6 -8 19 -12 32 -8z
m-1615 -3 c-3 -5 -14 -10 -23 -9 -14 0 -13 2 3 9 27 11 27 11 20 0z m278 -2
c-2 -5 -10 -8 -18 -8 -8 0 -16 3 -18 8 -3 4 5 7 18 7 13 0 21 -3 18 -7z m292
2 c-3 -5 -14 -10 -23 -9 -14 0 -13 2 3 9 27 11 27 11 20 0z m328 -2 c-2 -5
-10 -8 -18 -8 -8 0 -16 3 -18 8 -3 4 5 7 18 7 13 0 21 -3 18 -7z m72 2 c-3 -5
-14 -10 -23 -9 -14 0 -13 2 3 9 27 11 27 11 20 0z m408 -2 c-2 -5 -10 -8 -18
-8 -8 0 -16 3 -18 8 -3 4 5 7 18 7 13 0 21 -3 18 -7z m168 -6 c-7 -2 -18 1
-23 6 -8 8 -4 9 13 5 13 -4 18 -8 10 -11z m-1428 1 c-7 -2 -19 -2 -25 0 -7 3
-2 5 12 5 14 0 19 -2 13 -5z m64 1 c-3 -3 -12 -4 -19 -1 -8 3 -5 6 6 6 11 1
17 -2 13 -5z m884 -12 c-13 -2 -27 0 -32 5 -6 6 3 7 23 4 28 -4 29 -6 9 -9z
m-8161 -7 c10 -12 10 -18 0 -30 -7 -8 -19 -15 -26 -15 -8 0 -14 -9 -14 -20 0
-11 -4 -20 -10 -20 -5 0 -10 23 -10 50 0 46 2 50 24 50 13 0 29 -7 36 -15z
m107 -62 c-2 -16 -4 -3 -4 27 0 30 2 43 4 28 2 -16 2 -40 0 -55z m220 0 c-2
-16 -4 -3 -4 27 0 30 2 43 4 28 2 -16 2 -40 0 -55z m5731 25 c-1 -44 -2 -46
-5 -15 -3 26 -9 37 -21 37 -15 1 -15 2 2 15 11 8 21 15 23 15 2 0 2 -24 1 -52z
m90 25 c2 -14 -4 -27 -17 -35 -28 -17 -26 -26 7 -31 22 -3 20 -4 -10 -6 -21 0
-38 2 -38 5 0 3 11 20 25 36 28 33 24 52 -7 42 -14 -4 -18 -3 -13 6 12 19 50
7 53 -17z m-5429 -11 c-14 -5 -11 -50 4 -55 7 -3 5 -6 -5 -6 -13 -1 -18 7 -18
29 0 17 -5 30 -10 30 -7 0 -6 5 2 13 9 10 16 11 24 3 7 -6 8 -12 3 -14z m7548
12 c-3 -3 -12 -4 -19 -1 -8 3 -5 6 6 6 11 1 17 -2 13 -5z m-8199 -16 c18 -18
14 -26 -15 -30 l-28 -4 25 -12 25 -12 -25 3 c-15 1 -26 9 -28 20 -8 40 20 61
46 35z m69 -40 c-2 -13 -4 -5 -4 17 -1 22 1 32 4 23 2 -10 2 -28 0 -40z m61
41 c-10 -5 -18 -16 -18 -24 0 -8 8 -19 18 -25 16 -10 16 -11 -2 -8 -28 4 -43
33 -27 52 8 9 21 16 30 16 14 -1 14 -2 -1 -11z m62 -44 c8 0 18 13 21 30 7 30
7 30 8 -6 1 -33 -1 -36 -26 -35 -25 1 -28 5 -30 36 -1 34 -1 34 5 5 4 -17 14
-30 22 -30z m138 20 c3 -26 -1 -31 -23 -33 -31 -2 -35 27 -5 35 11 3 17 10 14
15 -3 5 -13 7 -21 4 -8 -3 -11 -1 -8 5 13 20 40 4 43 -26z m52 25 c-13 -8 -12
-11 4 -23 11 -8 16 -19 12 -25 -9 -14 -46 -16 -46 -2 0 5 7 7 15 4 20 -8 19 6
-2 21 -19 14 -10 35 15 35 15 0 15 -2 2 -10z m87 -17 l10 -28 8 28 c4 15 11
27 16 27 5 0 3 -15 -4 -32 -7 -18 -17 -32 -22 -31 -11 2 -36 63 -26 63 4 0 12
-12 18 -27z m70 -25 c-2 -13 -4 -5 -4 17 -1 22 1 32 4 23 2 -10 2 -28 0 -40z
m51 45 c-22 -6 -23 -12 -1 -28 19 -14 9 -36 -15 -34 -15 1 -15 2 1 6 21 6 22
12 0 28 -19 14 -9 36 15 34 15 -1 15 -2 0 -6z m130 -28 c3 -26 -1 -31 -23 -33
-31 -2 -35 27 -5 35 25 7 26 20 3 27 -14 4 -14 4 2 3 14 -2 21 -11 23 -32z
m52 25 c-13 -8 -12 -11 4 -23 11 -8 16 -19 12 -25 -9 -14 -46 -16 -46 -2 0 5
7 7 15 4 20 -8 19 6 -2 21 -19 14 -10 35 15 35 15 0 15 -2 2 -10z m6033 -207
c-7 -2 -19 -2 -25 0 -7 3 -2 5 12 5 14 0 19 -2 13 -5z m1644 -60 c-2 -16 -4
-5 -4 22 0 28 2 40 4 28 2 -13 2 -35 0 -50z m-1543 22 c-19 -15 -19 -15 0 -30
16 -12 17 -15 4 -15 -9 0 -19 7 -22 16 -7 18 10 44 27 44 6 0 2 -7 -9 -15z
m79 8 c3 -5 -5 -8 -18 -8 -13 0 -21 3 -18 8 2 4 10 7 18 7 8 0 16 -3 18 -7z
m34 -40 c-3 -10 -5 -2 -5 17 0 19 2 27 5 18 2 -10 2 -26 0 -35z m121 30 c2 -8
-5 -13 -17 -13 -28 0 -27 -17 2 -23 l22 -4 -23 -2 c-25 -1 -38 20 -28 45 7 18
37 15 44 -3z m67 -13 c0 -18 -6 -26 -21 -28 -26 -4 -40 24 -23 45 18 21 44 11
44 -17z m103 13 c2 -8 -5 -13 -17 -13 -25 0 -28 -17 -3 -23 16 -4 16 -5 -1 -6
-20 -1 -32 22 -23 45 7 18 37 15 44 -3z m90 0 c2 -8 -5 -13 -17 -13 -25 0 -28
-17 -3 -23 16 -4 16 -5 -1 -6 -20 -1 -32 22 -23 45 7 18 37 15 44 -3z m49 11
c-3 -3 -12 -4 -19 -1 -8 3 -5 6 6 6 11 1 17 -2 13 -5z m50 0 c-3 -3 -12 -4
-19 -1 -8 3 -5 6 6 6 11 1 17 -2 13 -5z m20 -41 c-3 -10 -5 -2 -5 17 0 19 2
27 5 18 2 -10 2 -26 0 -35z m66 40 c-14 -3 -23 -12 -23 -23 0 -11 9 -20 23
-23 l22 -4 -23 -2 c-12 0 -25 6 -28 14 -10 24 4 45 28 44 l23 -2 -22 -4z m87
-1 c0 -4 -9 -8 -19 -8 -11 0 -17 4 -15 8 3 4 12 8 20 8 8 0 14 -4 14 -8z m27
-39 c-3 -10 -5 -2 -5 17 0 19 2 27 5 18 2 -10 2 -26 0 -35z m51 40 c-10 -2
-18 -9 -18 -15 0 -6 -3 -9 -6 -5 -10 10 6 27 24 26 15 -1 15 -2 0 -6z m77 -23
c0 -18 -6 -26 -21 -28 -26 -4 -40 24 -23 45 18 21 44 11 44 -17z m62 -17 c-3
-10 -5 -2 -5 17 0 19 2 27 5 18 2 -10 2 -26 0 -35z m40 11 c1 -25 0 -26 -4 -4
-3 14 -10 29 -17 33 -7 6 -6 7 4 4 8 -2 16 -16 17 -33z m68 6 c0 -18 -6 -26
-21 -28 -26 -4 -40 24 -23 45 18 21 44 11 44 -17z m82 24 c-3 -3 -12 -4 -19
-1 -8 3 -5 6 6 6 11 1 17 -2 13 -5z m71 -11 c2 -8 -5 -13 -17 -13 -25 0 -28
-17 -3 -23 16 -4 16 -5 -1 -6 -20 -1 -32 22 -23 45 7 18 37 15 44 -3z m97 -13
c0 -18 -6 -26 -22 -28 -13 -2 -23 1 -23 6 0 6 9 8 20 5 16 -4 20 0 20 17 0 17
-4 21 -20 17 -11 -3 -17 -1 -14 4 12 19 39 4 39 -21z m133 13 c2 -8 -5 -13
-17 -13 -28 0 -27 -17 2 -23 l22 -4 -23 -2 c-25 -1 -38 20 -28 45 7 18 37 15
44 -3z m52 13 c0 -2 -7 -7 -16 -10 -8 -3 -12 -2 -9 4 6 10 25 14 25 6z m65 -5
c-19 -8 -18 -9 5 -13 25 -5 25 -5 -2 -7 -27 -1 -35 8 -21 22 3 4 13 7 22 6 12
0 10 -3 -4 -8z m102 3 c-3 -3 -12 -4 -19 -1 -8 3 -5 6 6 6 11 1 17 -2 13 -5z
m61 -27 c3 -23 0 -27 -20 -26 -17 1 -18 3 -5 6 9 2 17 9 17 15 0 5 -8 7 -17 4
-16 -5 -16 -5 0 8 18 14 18 14 0 20 -15 4 -15 5 2 3 14 -2 21 -11 23 -30z
m102 23 c0 -5 -7 -7 -15 -4 -11 5 -15 -1 -16 -22 l-2 -29 -4 28 c-5 33 -25 31
-34 -4 -7 -22 -7 -22 -8 6 -1 29 1 31 39 32 22 1 40 -2 40 -7z m70 6 c0 -2 -9
-6 -20 -9 -11 -3 -18 -1 -14 4 5 9 34 13 34 5z m87 -2 c-3 -3 -12 -4 -19 -1
-8 3 -5 6 6 6 11 1 17 -2 13 -5z m-2120 -10 c-3 -3 -12 -4 -19 -1 -8 3 -5 6 6
6 11 1 17 -2 13 -5z m641 -38 c12 -3 12 -4 -3 -3 -11 1 -20 9 -21 17 0 8 1 10
3 3 2 -6 12 -14 21 -17z m1150 0 c12 -3 12 -4 -3 -3 -11 1 -20 9 -21 17 0 8 1
10 3 3 2 -6 12 -14 21 -17z m342 14 c0 -13 -7 -20 -19 -20 -22 0 -35 15 -26
30 12 19 45 11 45 -10z m-1947 -12 c-2 -5 -10 -8 -18 -8 -8 0 -16 3 -18 8 -3
4 5 7 18 7 13 0 21 -3 18 -7z m768 -6 c-7 -2 -18 1 -23 6 -8 8 -4 9 13 5 13
-4 18 -8 10 -11z m559 6 c0 -4 -9 -8 -20 -8 -11 0 -20 4 -20 8 0 4 9 8 20 8
11 0 20 -4 20 -8z m115 -6 c-3 -3 -11 0 -18 7 -9 10 -8 11 6 5 10 -3 15 -9 12
-12z m76 0 c-7 -2 -18 1 -23 6 -8 8 -4 9 13 5 13 -4 18 -8 10 -11z m329 2 c0
-2 -9 -4 -20 -4 -11 0 -20 4 -20 9 0 5 9 7 20 4 11 -3 20 -7 20 -9z m-2027 -1
c-7 -2 -19 -2 -25 0 -7 3 -2 5 12 5 14 0 19 -2 13 -5z m1274 1 c-3 -3 -12 -4
-19 -1 -8 3 -5 6 6 6 11 1 17 -2 13 -5z m-8147 -219 c10 -12 10 -18 0 -30 -7
-8 -19 -15 -26 -15 -8 0 -14 -9 -14 -20 0 -11 -4 -20 -10 -20 -5 0 -10 23 -10
50 0 46 2 50 24 50 13 0 29 -7 36 -15z m107 -62 c-2 -16 -4 -3 -4 27 0 30 2
43 4 28 2 -16 2 -40 0 -55z m220 0 c-2 -16 -4 -3 -4 27 0 30 2 43 4 28 2 -16
2 -40 0 -55z m223 67 c-13 -9 -13 -11 0 -20 10 -6 11 -10 3 -10 -8 0 -14 -14
-14 -32 l-2 -33 -6 35 c-8 38 2 70 22 70 8 0 6 -4 -3 -10z m5596 -22 c-8 -18
-18 -42 -22 -53 -6 -17 -8 -18 -11 -3 -2 9 3 30 11 47 16 29 15 30 -12 34 -22
3 -20 4 10 6 l38 1 -14 -32z m-5235 15 c5 -50 2 -82 -6 -80 -11 4 -23 56 -17
75 4 13 22 17 23 5z m5989 -3 c0 -5 -7 -10 -15 -10 -11 0 -15 -11 -15 -40 0
-22 -4 -40 -10 -40 -5 0 -10 16 -10 36 0 23 -6 42 -17 50 -16 12 -13 13 25 14
23 0 42 -4 42 -10z m90 -40 c0 -27 -4 -50 -10 -50 -5 0 -10 23 -10 50 0 28 5
50 10 50 6 0 10 -22 10 -50z m65 40 c-3 -5 -11 -10 -16 -10 -6 0 -7 5 -4 10 3
6 11 10 16 10 6 0 7 -4 4 -10z m59 -12 c-1 -13 -3 -35 -3 -50 -1 -41 -28 -35
-33 7 -2 19 0 42 5 50 13 23 34 18 31 -7z m-7046 -10 c18 -18 14 -26 -15 -30
l-28 -4 25 -12 25 -12 -25 3 c-15 1 -26 9 -28 20 -8 40 20 61 46 35z m69 -40
c-2 -13 -4 -5 -4 17 -1 22 1 32 4 23 2 -10 2 -28 0 -40z m61 41 c-10 -5 -18
-16 -18 -24 0 -8 8 -19 18 -25 16 -10 16 -11 -2 -8 -28 4 -43 33 -27 52 8 9
21 16 30 16 14 -1 14 -2 -1 -11z m62 -44 c8 0 18 13 21 30 7 30 7 30 8 -6 1
-33 -1 -36 -26 -35 -25 1 -28 5 -30 36 -1 34 -1 34 5 5 4 -17 14 -30 22 -30z
m138 20 c3 -26 -1 -31 -23 -33 -31 -2 -35 27 -5 35 11 3 17 10 14 15 -3 5 -13
7 -21 4 -8 -3 -11 -1 -8 5 13 20 40 4 43 -26z m52 25 c-13 -8 -12 -11 4 -23
11 -8 16 -19 12 -25 -9 -14 -46 -16 -46 -2 0 5 7 7 15 4 20 -8 19 6 -2 21 -19
14 -10 35 15 35 15 0 15 -2 2 -10z m168 -25 c3 -26 -1 -31 -23 -33 -31 -2 -35
27 -5 35 25 7 26 20 3 27 -14 4 -14 4 2 3 14 -2 21 -11 23 -32z m44 0 c4 -17
6 -16 17 9 6 16 14 27 16 24 7 -7 -15 -68 -25 -68 -7 0 -30 53 -30 68 0 13 18
-14 22 -33z m116 3 c2 -19 -2 -28 -18 -33 -37 -12 -64 27 -38 53 21 21 53 10
56 -20z m49 19 c-9 -7 -18 -23 -20 -37 -3 -19 -5 -17 -6 10 -1 30 3 36 20 37
19 2 19 0 6 -10z m30 -39 c-2 -13 -4 -5 -4 17 -1 22 1 32 4 23 2 -10 2 -28 0
-40z m131 14 c3 -31 2 -33 -24 -30 -37 4 -41 24 -7 36 l28 10 -25 11 -25 11
25 -3 c20 -2 26 -8 28 -35z m50 31 c-22 -6 -23 -12 -1 -28 19 -14 9 -36 -15
-34 -15 1 -15 2 1 6 21 6 22 12 0 28 -19 14 -9 36 15 34 15 -1 15 -2 0 -6z
m5912 -7 c0 -2 3 -11 6 -20 5 -12 0 -16 -21 -16 -16 0 -24 -4 -20 -11 4 -6 13
-8 21 -5 8 3 14 1 14 -5 0 -6 -12 -9 -27 -7 -47 5 -45 68 2 68 14 0 25 -2 25
-4z m110 0 c0 -2 3 -11 6 -20 5 -12 0 -16 -21 -16 -16 0 -24 -4 -20 -11 4 -6
13 -8 21 -5 8 3 14 1 14 -5 0 -6 -12 -9 -27 -7 -47 5 -45 68 2 68 14 0 25 -2
25 -4z m137 -12 c9 -24 -10 -49 -37 -49 -31 0 -48 28 -31 49 17 21 60 21 68 0z
m81 -21 c4 -38 -15 -45 -20 -8 -4 35 -22 36 -26 3 -5 -41 -22 -34 -22 8 0 34
1 35 33 32 28 -3 32 -7 35 -35z m83 21 c19 -23 -1 -49 -37 -49 -30 0 -42 20
-30 51 7 19 50 18 67 -2z m-7361 -489 c10 -12 10 -18 0 -30 -10 -12 -10 -18 0
-30 7 -9 10 -18 7 -21 -3 -3 -10 4 -17 15 -14 27 -30 27 -30 1 0 -11 -4 -20
-10 -20 -5 0 -10 23 -10 50 0 46 2 50 24 50 13 0 29 -7 36 -15z m797 -62 c-2
-16 -4 -3 -4 27 0 30 2 43 4 28 2 -16 2 -40 0 -55z m5281 55 c2 -9 -9 -27 -23
-40 l-27 -23 29 -6 28 -7 -32 -1 c-38 -1 -43 17 -13 44 11 10 20 25 20 33 0 9
-7 13 -20 9 -11 -3 -20 -1 -20 5 0 17 55 4 58 -14z m69 6 c3 -9 0 -20 -8 -25
-11 -7 -11 -9 -1 -9 8 0 12 -9 10 -22 -2 -17 -11 -24 -30 -26 -16 -2 -28 1
-28 6 0 5 10 8 21 8 31 -1 35 22 7 33 -17 7 -18 10 -5 10 9 1 17 8 17 17 0 11
-6 14 -21 9 -15 -5 -19 -4 -15 4 11 17 46 13 53 -5z m-5588 -22 c-14 -5 -11
-50 4 -55 7 -4 6 -6 -4 -6 -12 -1 -18 9 -21 33 -5 46 0 59 17 43 7 -7 9 -13 4
-15z m132 21 c5 -50 2 -82 -6 -80 -11 4 -23 56 -17 75 4 13 22 17 23 5z m-613
-36 c2 -12 -3 -17 -17 -17 -23 0 -29 -16 -8 -23 8 -3 7 -4 -2 -3 -24 2 -37 32
-21 51 16 20 44 16 48 -8z m50 16 c-22 -6 -23 -12 -1 -28 19 -14 9 -36 -15
-34 -15 1 -15 2 1 6 21 6 22 12 0 28 -19 14 -9 36 15 34 15 -1 15 -2 0 -6z
m80 -5 c18 -18 14 -26 -15 -30 l-28 -4 25 -12 25 -12 -25 3 c-15 1 -26 9 -28
20 -8 40 20 61 46 35z m53 -2 c-5 -6 -11 -22 -14 -36 -3 -19 -5 -17 -6 11 -1
25 3 36 14 36 9 0 11 -4 6 -11z m46 -13 l10 -28 8 28 c4 15 11 27 16 27 5 0 3
-15 -4 -32 -7 -18 -17 -32 -22 -31 -11 2 -36 63 -26 63 4 0 12 -12 18 -27z
m101 -8 c3 -26 -1 -31 -23 -33 -31 -2 -35 27 -5 35 11 3 17 10 14 15 -3 5 -13
7 -21 4 -8 -3 -11 -1 -8 5 13 20 40 4 43 -26z m52 25 c-13 -8 -12 -11 4 -23
11 -8 16 -19 12 -25 -9 -14 -46 -16 -46 -2 0 5 7 7 15 4 20 -8 19 6 -2 21 -19
14 -10 35 15 35 15 0 15 -2 2 -10z m181 -6 c17 -21 0 -49 -32 -49 -18 0 -25 6
-27 24 -6 38 34 55 59 25z m127 -22 c3 -31 2 -33 -24 -30 -37 4 -41 24 -7 36
l28 10 -25 11 -25 11 25 -3 c20 -2 26 -8 28 -35z m110 15 c2 -12 -3 -17 -17
-17 -12 0 -21 -5 -21 -11 0 -6 9 -9 20 -6 11 3 20 1 20 -5 0 -15 -42 -5 -53
14 -8 12 -7 21 3 33 16 20 44 16 48 -8z m50 16 c-22 -6 -23 -12 -1 -28 19 -14
9 -36 -15 -34 -15 1 -15 2 1 6 21 6 22 12 0 28 -19 14 -9 36 15 34 15 -1 15
-2 0 -6z"/>
<path d="M1575 5290 c-3 -5 -2 -10 4 -10 5 0 13 5 16 10 3 6 2 10 -4 10 -5 0
-13 -4 -16 -10z"/>
<path d="M3320 5151 c0 -31 13 -39 38 -22 21 13 10 46 -16 49 -19 3 -22 -1
-22 -27z"/>
<path d="M3483 5123 c-22 -8 -14 -23 13 -23 15 0 24 5 22 12 -5 14 -18 18 -35
11z"/>
<path d="M62 4897 c-13 -14 -22 -36 -22 -55 0 -39 17 -43 22 -4 2 21 8 27 28
27 20 0 26 -6 28 -27 5 -39 22 -35 22 5 0 22 -8 41 -23 55 -29 27 -29 27 -55
-1z"/>
<path d="M80 4830 c0 -11 5 -20 10 -20 6 0 10 9 10 20 0 11 -4 20 -10 20 -5 0
-10 -9 -10 -20z"/>
<path d="M280 4860 c0 -33 3 -41 16 -38 9 2 22 11 28 21 13 20 -2 50 -28 55
-13 3 -16 -5 -16 -38z"/>
<path d="M590 4845 c0 -17 5 -25 13 -22 6 2 12 12 12 22 0 10 -6 20 -12 23 -8
2 -13 -6 -13 -23z"/>
<path d="M663 4854 c-8 -21 13 -42 28 -27 13 13 5 43 -11 43 -6 0 -13 -7 -17
-16z"/>
<path d="M870 4845 c0 -17 5 -25 13 -22 6 2 12 12 12 22 0 10 -6 20 -12 23 -8
2 -13 -6 -13 -23z"/>
<path d="M370 4830 c0 -5 4 -10 9 -10 6 0 13 5 16 10 3 6 -1 10 -9 10 -9 0
-16 -4 -16 -10z"/>
<path d="M750 4830 c0 -5 5 -10 10 -10 6 0 10 5 10 10 0 6 -4 10 -10 10 -5 0
-10 -4 -10 -10z"/>
<path d="M11501 4607 c-9 -11 -8 -17 4 -27 12 -10 16 -9 21 5 9 23 -10 40 -25
22z"/>
<path d="M11760 4579 c0 -5 5 -7 10 -4 6 3 10 8 10 11 0 2 -4 4 -10 4 -5 0
-10 -5 -10 -11z"/>
<path d="M11934 4606 c-4 -10 -2 -22 4 -28 8 -8 13 -7 18 6 4 10 2 22 -4 28
-8 8 -13 7 -18 -6z"/>
<path d="M12144 4606 c-4 -10 -2 -22 4 -28 8 -8 13 -7 18 6 4 10 2 22 -4 28
-8 8 -13 7 -18 -6z"/>
<path d="M12225 4610 c-3 -5 1 -10 10 -10 9 0 13 5 10 10 -3 6 -8 10 -10 10
-2 0 -7 -4 -10 -10z"/>
<path d="M12414 4606 c-4 -10 -2 -22 4 -28 8 -8 13 -7 18 6 4 10 2 22 -4 28
-8 8 -13 7 -18 -6z"/>
<path d="M16230 4610 c0 -5 7 -10 16 -10 8 0 12 5 9 10 -3 6 -10 10 -16 10 -5
0 -9 -4 -9 -10z"/>
<path d="M16303 4604 c-8 -21 13 -42 28 -27 13 13 5 43 -11 43 -6 0 -13 -7
-17 -16z"/>
<path d="M16640 4580 c0 -5 4 -10 9 -10 6 0 13 5 16 10 3 6 -1 10 -9 10 -9 0
-16 -4 -16 -10z"/>
<path d="M30 4529 c0 -5 5 -9 10 -9 6 0 10 -9 10 -20 0 -11 -4 -20 -10 -20 -5
0 -10 -4 -10 -9 0 -6 27 -9 60 -9 33 0 60 5 60 9 0 5 -4 9 -10 9 -5 0 -10 9
-10 20 0 11 5 20 10 20 6 0 10 4 10 9 0 5 -27 10 -60 10 -33 0 -60 -4 -60 -10z
m80 -23 c0 -3 -4 -8 -10 -11 -5 -3 -10 -1 -10 4 0 6 5 11 10 11 6 0 10 -2 10
-4z"/>
<path d="M540 4520 c0 -13 5 -20 13 -17 6 2 12 10 12 17 0 7 -6 15 -12 18 -8
2 -13 -5 -13 -18z"/>
<path d="M615 4500 c-3 -5 1 -10 9 -10 9 0 16 5 16 10 0 6 -4 10 -9 10 -6 0
-13 -4 -16 -10z"/>
<path d="M745 4500 c-3 -5 1 -10 9 -10 9 0 16 5 16 10 0 6 -4 10 -9 10 -6 0
-13 -4 -16 -10z"/>
<path d="M930 4470 c0 -5 4 -10 9 -10 6 0 13 5 16 10 3 6 -1 10 -9 10 -9 0
-16 -4 -16 -10z"/>
<path d="M40 4176 c0 -13 11 -16 50 -16 39 0 50 3 50 16 0 14 -3 14 -15 4 -10
-9 -15 -9 -15 -1 0 6 -9 11 -20 11 -11 0 -20 -5 -20 -11 0 -8 -5 -8 -15 1 -12
10 -15 10 -15 -4z"/>
<path d="M40 4115 l0 -35 50 0 50 0 0 35 0 35 -50 0 -50 0 0 -35z"/>
<path d="M280 4160 c0 -13 5 -20 13 -17 6 2 12 10 12 17 0 7 -6 15 -12 18 -8
2 -13 -5 -13 -18z"/>
<path d="M403 4134 c-8 -21 13 -42 28 -27 13 13 5 43 -11 43 -6 0 -13 -7 -17
-16z"/>
<path d="M1020 4125 c0 -14 5 -25 10 -25 6 0 10 11 10 25 0 14 -4 25 -10 25
-5 0 -10 -11 -10 -25z"/>
<path d="M1110 4140 c0 -5 7 -10 16 -10 8 0 12 5 9 10 -3 6 -10 10 -16 10 -5
0 -9 -4 -9 -10z"/>
<path d="M511 4136 c-9 -10 -8 -16 4 -26 13 -11 15 -8 15 14 0 30 -3 32 -19
12z"/>
<path d="M703 4134 c-8 -21 13 -42 28 -27 13 13 5 43 -11 43 -6 0 -13 -7 -17
-16z"/>
<path d="M1263 4134 c-8 -21 13 -42 28 -27 13 13 5 43 -11 43 -6 0 -13 -7 -17
-16z"/>
<path d="M10165 4010 c-8 -14 3 -30 21 -30 8 0 14 9 14 20 0 21 -24 28 -35 10z"/>
<path d="M10640 4000 c0 -15 5 -20 18 -18 9 2 17 10 17 18 0 8 -8 16 -17 18
-13 2 -18 -3 -18 -18z"/>
<path d="M10860 4000 c0 -15 5 -20 18 -18 9 2 17 10 17 18 0 8 -8 16 -17 18
-13 2 -18 -3 -18 -18z"/>
<path d="M10958 4013 c7 -3 16 -2 19 1 4 3 -2 6 -13 5 -11 0 -14 -3 -6 -6z"/>
<path d="M11155 4010 c-8 -14 3 -30 21 -30 8 0 14 9 14 20 0 21 -24 28 -35 10z"/>
<path d="M11340 3990 c-13 -8 -12 -10 3 -10 9 0 17 5 17 10 0 12 -1 12 -20 0z"/>
<path d="M33 3813 c-3 -9 7 -28 26 -46 l31 -32 31 32 c44 43 34 61 -31 61 -36
0 -53 -5 -57 -15z"/>
<path d="M650 3765 c0 -14 5 -25 10 -25 6 0 10 11 10 25 0 14 -4 25 -10 25 -5
0 -10 -11 -10 -25z"/>
<path d="M693 3774 c-8 -20 13 -42 27 -28 12 12 3 44 -11 44 -5 0 -12 -7 -16
-16z"/>
<path d="M340 3750 c0 -5 5 -10 10 -10 6 0 10 5 10 10 0 6 -4 10 -10 10 -5 0
-10 -4 -10 -10z"/>
<path d="M480 3765 c0 -16 6 -25 15 -25 9 0 15 9 15 25 0 16 -6 25 -15 25 -9
0 -15 -9 -15 -25z"/>
<path d="M10890 3765 c0 -18 5 -25 20 -25 15 0 20 7 20 25 0 18 -5 25 -20 25
-15 0 -20 -7 -20 -25z"/>
<path d="M11140 3750 c0 -5 7 -10 15 -10 8 0 15 5 15 10 0 6 -7 10 -15 10 -8
0 -15 -4 -15 -10z"/>
<path d="M11310 3765 c0 -18 5 -25 20 -25 15 0 20 7 20 25 0 18 -5 25 -20 25
-15 0 -20 -7 -20 -25z"/>
<path d="M11590 3780 c0 -5 9 -10 21 -10 11 0 17 5 14 10 -3 6 -13 10 -21 10
-8 0 -14 -4 -14 -10z"/>
<path d="M74 3459 c-10 -17 13 -36 27 -22 12 12 4 33 -11 33 -5 0 -12 -5 -16
-11z"/>
<path d="M280 3434 c0 -9 5 -14 12 -12 18 6 21 28 4 28 -9 0 -16 -7 -16 -16z"/>
<path d="M358 3413 c7 -3 16 -2 19 1 4 3 -2 6 -13 5 -11 0 -14 -3 -6 -6z"/>
<path d="M10306 3373 c-12 -12 -6 -33 9 -33 8 0 15 6 15 14 0 17 -14 28 -24
19z"/>
<path d="M11064 3366 c-4 -10 -2 -22 4 -28 8 -8 13 -7 18 6 4 10 2 22 -4 28
-8 8 -13 7 -18 -6z"/>
<path d="M10090 3355 c0 -8 7 -15 15 -15 8 0 15 7 15 15 0 8 -7 15 -15 15 -8
0 -15 -7 -15 -15z"/>
<path d="M10435 3370 c-3 -5 1 -10 10 -10 9 0 13 5 10 10 -3 6 -8 10 -10 10
-2 0 -7 -4 -10 -10z"/>
<path d="M10610 3355 c0 -8 7 -15 15 -15 8 0 15 7 15 15 0 8 -7 15 -15 15 -8
0 -15 -7 -15 -15z"/>
<path d="M10822 3354 c4 -21 22 -23 26 -1 2 10 -3 17 -13 17 -10 0 -15 -6 -13
-16z"/>
<path d="M10935 3370 c-3 -5 1 -10 10 -10 9 0 13 5 10 10 -3 6 -8 10 -10 10
-2 0 -7 -4 -10 -10z"/>
<path d="M6088 3333 c7 -3 16 -2 19 1 4 3 -2 6 -13 5 -11 0 -14 -3 -6 -6z"/>
<path d="M6290 3316 c0 -10 8 -16 22 -16 12 0 19 1 17 3 -2 1 -12 9 -21 16
-15 12 -18 11 -18 -3z"/>
<path d="M6230 3185 c0 -8 7 -15 15 -15 8 0 15 7 15 15 0 8 -7 15 -15 15 -8 0
-15 -7 -15 -15z"/>
<path d="M6300 3180 c0 -15 5 -20 18 -18 9 2 17 10 17 18 0 8 -8 16 -17 18
-13 2 -18 -3 -18 -18z"/>
<path d="M5450 3160 c0 -5 9 -10 21 -10 11 0 17 5 14 10 -3 6 -13 10 -21 10
-8 0 -14 -4 -14 -10z"/>
<path d="M6950 3145 c0 -18 5 -25 20 -25 15 0 20 7 20 25 0 18 -5 25 -20 25
-15 0 -20 -7 -20 -25z"/>
<path d="M10160 3030 c0 -5 7 -10 16 -10 8 0 12 5 9 10 -3 6 -10 10 -16 10 -5
0 -9 -4 -9 -10z"/>
<path d="M3453 2714 c-8 -21 13 -42 28 -27 13 13 5 43 -11 43 -6 0 -13 -7 -17
-16z"/>
<path d="M3923 2714 c-8 -21 13 -42 28 -27 13 13 5 43 -11 43 -6 0 -13 -7 -17
-16z"/>
<path d="M8210 2745 c0 -8 5 -15 10 -15 6 0 10 7 10 15 0 8 -4 15 -10 15 -5 0
-10 -7 -10 -15z"/>
<path d="M8204 2709 c-10 -17 13 -36 27 -22 12 12 4 33 -11 33 -5 0 -12 -5
-16 -11z"/>
<path d="M8320 2705 c0 -17 5 -25 13 -22 6 2 12 12 12 22 0 10 -6 20 -12 23
-8 2 -13 -6 -13 -23z"/>
<path d="M8590 2705 c0 -17 5 -25 13 -22 6 2 12 12 12 22 0 10 -6 20 -12 23
-8 2 -13 -6 -13 -23z"/>
<path d="M8820 2705 c0 -16 6 -25 15 -25 9 0 15 9 15 25 0 16 -6 25 -15 25 -9
0 -15 -9 -15 -25z"/>
<path d="M9095 2747 c-9 -22 -2 -62 10 -60 6 1 11 14 13 29 4 32 -14 56 -23
31z"/>
<path d="M3250 2720 c0 -5 7 -10 15 -10 8 0 15 5 15 10 0 6 -7 10 -15 10 -8 0
-15 -4 -15 -10z"/>
<path d="M3583 2714 c-8 -21 13 -42 28 -27 13 13 5 43 -11 43 -6 0 -13 -7 -17
-16z"/>
<path d="M3790 2720 c0 -5 7 -10 15 -10 8 0 15 5 15 10 0 6 -7 10 -15 10 -8 0
-15 -4 -15 -10z"/>
<path d="M4010 2720 c0 -5 7 -10 15 -10 8 0 15 5 15 10 0 6 -7 10 -15 10 -8 0
-15 -4 -15 -10z"/>
<path d="M8400 2720 c0 -5 7 -10 16 -10 8 0 12 5 9 10 -3 6 -10 10 -16 10 -5
0 -9 -4 -9 -10z"/>
<path d="M8510 2690 c0 -5 4 -10 9 -10 6 0 13 5 16 10 3 6 -1 10 -9 10 -9 0
-16 -4 -16 -10z"/>
<path d="M8905 2720 c-3 -5 1 -10 9 -10 9 0 16 5 16 10 0 6 -4 10 -9 10 -6 0
-13 -4 -16 -10z"/>
<path d="M10565 2630 c-3 -5 1 -10 10 -10 9 0 13 5 10 10 -3 6 -8 10 -10 10
-2 0 -7 -4 -10 -10z"/>
<path d="M10804 2626 c-4 -10 -2 -22 4 -28 8 -8 13 -7 18 6 4 10 2 22 -4 28
-8 8 -13 7 -18 -6z"/>
<path d="M10067 2624 c-9 -10 2 -24 19 -24 8 0 14 7 14 15 0 15 -21 21 -33 9z"/>
<path d="M10255 2630 c-3 -5 1 -10 10 -10 9 0 13 5 10 10 -3 6 -8 10 -10 10
-2 0 -7 -4 -10 -10z"/>
<path d="M10327 2624 c-9 -10 2 -24 19 -24 8 0 14 7 14 15 0 15 -21 21 -33 9z"/>
<path d="M11070 2615 c0 -8 7 -15 15 -15 8 0 15 7 15 15 0 8 -7 15 -15 15 -8
0 -15 -7 -15 -15z"/>
<path d="M3090 2211 c0 -12 6 -21 16 -21 9 0 14 7 12 17 -5 25 -28 28 -28 4z"/>
<path d="M3165 2190 c-3 -5 1 -10 9 -10 9 0 16 5 16 10 0 6 -4 10 -9 10 -6 0
-13 -4 -16 -10z"/>
<path d="M3490 2160 c0 -5 4 -10 9 -10 6 0 13 5 16 10 3 6 -1 10 -9 10 -9 0
-16 -4 -16 -10z"/>
<path d="M3880 2160 c0 -5 4 -10 9 -10 6 0 13 5 16 10 3 6 -1 10 -9 10 -9 0
-16 -4 -16 -10z"/>
<path d="M10308 1953 c7 -3 16 -2 19 1 4 3 -2 6 -13 5 -11 0 -14 -3 -6 -6z"/>
<path d="M10365 1950 c-8 -14 3 -30 21 -30 8 0 14 9 14 20 0 21 -24 28 -35 10z"/>
<path d="M10478 1953 c7 -3 16 -2 19 1 4 3 -2 6 -13 5 -11 0 -14 -3 -6 -6z"/>
<path d="M10568 1953 c7 -3 16 -2 19 1 4 3 -2 6 -13 5 -11 0 -14 -3 -6 -6z"/>
<path d="M10985 1950 c-8 -14 3 -30 21 -30 8 0 14 9 14 20 0 21 -24 28 -35 10z"/>
<path d="M11155 1950 c-8 -14 3 -30 21 -30 8 0 14 9 14 20 0 21 -24 28 -35 10z"/>
<path d="M11318 1953 c7 -3 16 -2 19 1 4 3 -2 6 -13 5 -11 0 -14 -3 -6 -6z"/>
<path d="M11548 1953 c7 -3 16 -2 19 1 4 3 -2 6 -13 5 -11 0 -14 -3 -6 -6z"/>
<path d="M12090 1930 c0 -5 7 -10 15 -10 8 0 15 5 15 10 0 6 -7 10 -15 10 -8
0 -15 -4 -15 -10z"/>
<path d="M3090 1681 c0 -12 6 -21 16 -21 9 0 14 7 12 17 -5 25 -28 28 -28 4z"/>
<path d="M3165 1660 c-3 -5 1 -10 9 -10 9 0 16 5 16 10 0 6 -4 10 -9 10 -6 0
-13 -4 -16 -10z"/>
<path d="M3490 1630 c0 -5 4 -10 9 -10 6 0 13 5 16 10 3 6 -1 10 -9 10 -9 0
-16 -4 -16 -10z"/>
<path d="M3710 1630 c0 -5 4 -10 9 -10 6 0 13 5 16 10 3 6 -1 10 -9 10 -9 0
-16 -4 -16 -10z"/>
<path d="M3857 1657 c-3 -8 -2 -20 3 -27 11 -18 42 -4 38 17 -4 22 -34 29 -41
10z"/>
<path d="M4080 1630 c0 -5 4 -10 9 -10 6 0 13 5 16 10 3 6 -1 10 -9 10 -9 0
-16 -4 -16 -10z"/>
<path d="M10045 1650 c-3 -5 1 -10 10 -10 9 0 13 5 10 10 -3 6 -8 10 -10 10
-2 0 -7 -4 -10 -10z"/>
<path d="M10155 1650 c-3 -5 1 -10 10 -10 9 0 13 5 10 10 -3 6 -8 10 -10 10
-2 0 -7 -4 -10 -10z"/>
<path d="M10277 1644 c-9 -10 2 -24 19 -24 8 0 14 7 14 15 0 15 -21 21 -33 9z"/>
<path d="M10440 1635 c0 -8 7 -15 15 -15 8 0 15 7 15 15 0 8 -7 15 -15 15 -8
0 -15 -7 -15 -15z"/>
<path d="M3090 1150 c0 -13 5 -20 13 -17 6 2 12 10 12 17 0 7 -6 15 -12 18 -8
2 -13 -5 -13 -18z"/>
<path d="M3170 1130 c0 -5 7 -10 16 -10 8 0 12 5 9 10 -3 6 -10 10 -16 10 -5
0 -9 -4 -9 -10z"/>
<path d="M3305 1130 c-3 -5 1 -10 9 -10 9 0 16 5 16 10 0 6 -4 10 -9 10 -6 0
-13 -4 -16 -10z"/>
<path d="M3500 1100 c0 -5 4 -10 9 -10 6 0 13 5 16 10 3 6 -1 10 -9 10 -9 0
-16 -4 -16 -10z"/>
<path d="M3723 1124 c-8 -21 13 -42 28 -27 13 13 5 43 -11 43 -6 0 -13 -7 -17
-16z"/>
<path d="M3860 1100 c0 -5 4 -10 9 -10 6 0 13 5 16 10 3 6 -1 10 -9 10 -9 0
-16 -4 -16 -10z"/>
<path d="M3970 1130 c0 -5 7 -10 15 -10 8 0 15 5 15 10 0 6 -7 10 -15 10 -8 0
-15 -4 -15 -10z"/>
</g>
</svg>
