<?xml version="1.0" standalone="no"?>
<!DOCTYPE svg PUBLIC "-//W3C//DTD SVG 20010904//EN"
 "http://www.w3.org/TR/2001/REC-SVG-20010904/DTD/svg10.dtd">
<svg version="1.0" xmlns="http://www.w3.org/2000/svg"
 width="1851.000000pt" height="834.000000pt" viewBox="0 0 1851.000000 834.000000"
 preserveAspectRatio="xMidYMid meet">

<g transform="translate(0.000000,834.000000) scale(0.100000,-0.100000)"
fill="#000000" stroke="none">
<path d="M0 7495 l0 -845 78 -2 77 -2 -74 -5 c-41 -3 -76 -11 -78 -17 -2 -7 6
-10 23 -6 19 3 25 1 20 -7 -4 -6 -3 -11 3 -11 5 0 11 5 13 12 5 15 37 3 45
-18 3 -9 0 -20 -8 -24 -11 -7 -8 -13 10 -29 13 -11 28 -18 32 -15 5 3 9 1 9
-5 0 -18 -47 -24 -77 -9 -15 7 -32 23 -38 36 -5 12 -14 21 -20 19 -7 -3 -11
-313 -13 -917 l-2 -914 25 24 c37 35 44 15 7 -23 -18 -18 -32 -39 -32 -47 0
-8 14 -29 32 -47 36 -38 30 -58 -7 -23 l-25 23 0 -2321 0 -2322 5434 0 c4821
0 5435 2 5440 15 3 8 15 15 26 15 25 0 27 -17 3 -23 -10 -3 3 -5 30 -6 44 -1
46 0 35 19 -18 28 -2 37 25 13 12 -11 29 -22 38 -25 18 -7 67 27 56 39 -5 4
-11 3 -15 -2 -9 -13 -62 -19 -63 -8 0 4 -2 30 -5 56 l-5 48 25 -16 c13 -9 27
-23 30 -32 4 -9 9 -13 13 -10 3 4 11 -1 18 -10 7 -10 19 -14 29 -10 19 7 22
53 3 60 -7 2 -23 26 -36 52 -21 42 -22 49 -8 62 13 13 20 13 51 2 22 -8 36
-20 36 -30 0 -13 11 -18 46 -21 25 -2 51 0 58 4 7 4 25 1 40 -7 24 -13 29 -12
46 5 11 11 20 27 20 35 0 8 5 15 12 15 6 0 20 7 30 17 17 15 18 14 18 -19 0
-29 6 -39 38 -61 20 -15 56 -35 79 -46 23 -11 47 -29 53 -40 15 -29 27 -26 35
9 7 32 14 36 100 46 70 9 84 7 106 -12 23 -21 44 -17 57 10 6 14 21 26 34 28
32 4 68 -14 68 -34 0 -9 3 -23 6 -32 9 -24 -26 -33 -42 -11 -11 15 -16 16 -29
5 -21 -18 -19 -29 5 -23 15 4 20 0 20 -14 0 -25 28 -63 46 -63 9 0 22 7 30 15
15 15 69 11 89 -6 17 -17 64 -10 77 11 13 21 78 29 78 10 0 -5 7 -10 15 -10 8
0 15 -4 15 -10 0 -6 1093 -10 3100 -10 l3100 0 0 3495 c0 3094 -2 3495 -15
3495 -8 0 -15 -4 -15 -10 0 -17 -28 -11 -33 8 -4 16 -5 16 -6 -1 -1 -17 -3
-17 -16 -3 -12 11 -14 25 -9 51 5 31 4 35 -15 35 -11 0 -21 -4 -21 -10 0 -5
-18 -18 -40 -29 -30 -15 -42 -16 -49 -7 -11 12 -71 10 -69 -3 3 -25 -6 -31
-47 -31 -25 0 -45 -4 -45 -10 0 -5 -11 -10 -25 -10 -14 0 -25 4 -25 9 0 12
-71 25 -79 14 -6 -8 -33 -14 -63 -14 -10 0 -18 -4 -18 -10 0 -5 5 -9 12 -9 6
0 9 -3 6 -6 -4 -3 -15 -1 -26 5 -16 9 -19 7 -18 -7 0 -9 -5 -16 -12 -14 -7 1
-15 -4 -18 -12 -3 -8 -12 -12 -19 -10 -7 3 -16 1 -19 -5 -4 -6 -14 -7 -24 -4
-9 3 -14 3 -10 -1 3 -4 -1 -16 -10 -27 -12 -14 -18 -15 -24 -6 -5 7 -8 2 -8
-15 0 -14 -3 -33 -6 -42 -5 -14 -8 -14 -21 -1 -16 17 -33 20 -33 6 0 -5 -9 -7
-20 -4 -15 4 -20 0 -20 -15 0 -22 -22 -35 -45 -26 -9 4 -15 1 -15 -7 0 -10 -3
-10 -12 -1 -17 17 -48 15 -48 -3 0 -8 -7 -15 -15 -15 -8 0 -15 6 -15 14 0 15
-16 16 -39 1 -10 -5 -16 -4 -19 3 -2 7 -19 19 -38 28 -40 19 -46 39 -9 30 22
-6 25 -3 25 19 0 14 -5 25 -12 25 -6 0 -3 9 7 20 18 20 51 28 40 10 -3 -6 5
-10 19 -10 18 0 25 6 28 23 2 16 11 23 31 25 35 4 46 28 21 47 -11 8 -14 14
-6 15 21 0 13 20 -8 20 -11 0 -20 5 -20 10 0 6 5 10 10 10 6 0 10 8 10 18 0
11 -9 17 -26 19 -15 0 -30 6 -34 13 -10 15 -88 4 -108 -16 -7 -8 -18 -11 -24
-8 -7 4 -8 2 -4 -5 4 -6 12 -9 17 -5 6 3 5 -4 -3 -15 -7 -12 -20 -20 -28 -18
-19 5 -55 -39 -40 -48 5 -3 10 -15 10 -26 0 -11 4 -17 10 -14 17 11 0 -88 -18
-101 -10 -7 -16 -27 -16 -53 -1 -22 -4 -41 -8 -41 -5 0 -8 -13 -8 -29 0 -17
-5 -33 -11 -37 -6 -3 -8 -16 -6 -28 5 -17 4 -18 -5 -5 -9 13 -17 14 -49 5 -22
-5 -39 -16 -39 -24 0 -7 4 -11 9 -8 5 3 14 -8 20 -26 14 -40 14 -38 -9 -38
-24 0 -28 -38 -5 -46 34 -14 10 -21 -72 -23 -116 -2 -127 -6 -119 -42 4 -23 2
-27 -11 -22 -13 5 -15 2 -9 -21 6 -25 5 -26 -16 -14 -31 17 -38 28 -38 61 0
15 -3 27 -7 28 -5 1 -46 2 -93 4 -47 2 -93 3 -102 4 -10 0 -18 8 -18 17 0 10
-6 14 -14 11 -15 -6 -16 9 -2 32 5 8 3 16 -5 22 -16 10 -50 -27 -42 -47 2 -7
0 -15 -6 -19 -6 -3 -11 1 -11 9 0 17 -15 22 -24 7 -8 -13 -56 0 -56 15 0 8 5
14 11 14 6 0 9 9 6 20 -3 12 5 35 19 56 14 20 22 43 20 52 -7 22 19 56 37 49
8 -3 18 -2 24 1 16 11 31 86 22 110 -5 13 -12 58 -15 101 -6 69 -5 79 11 85
17 6 29 -3 38 -27 1 -5 10 -5 19 -2 15 6 15 8 -3 26 -27 27 -79 23 -79 -6 0
-7 -6 -15 -12 -18 -10 -3 -10 -9 0 -26 16 -27 15 -31 -3 -31 -8 0 -15 7 -15
16 0 8 -5 12 -10 9 -6 -4 -10 -14 -9 -23 3 -32 -1 -41 -20 -47 -13 -4 -17 -12
-14 -26 9 -33 -28 -20 -52 18 -11 18 -27 35 -35 38 -8 3 -26 21 -40 40 -25 35
-57 43 -52 13 1 -8 -9 -23 -23 -32 -30 -20 -31 -35 -5 -69 11 -14 20 -33 20
-44 0 -11 -3 -14 -8 -7 -13 19 -40 24 -46 7 -3 -8 -4 -19 0 -24 3 -5 0 -9 -5
-9 -6 0 -11 -11 -11 -24 0 -14 -4 -28 -10 -31 -5 -3 -10 -14 -10 -24 0 -16 5
-17 38 -11 46 8 63 3 55 -16 -4 -10 3 -14 29 -14 42 0 71 -20 66 -46 -2 -14
-10 -18 -27 -16 -18 3 -22 0 -18 -12 5 -13 -1 -16 -29 -16 -24 0 -33 4 -28 12
4 7 3 8 -4 4 -7 -4 -12 -3 -12 2 0 19 -33 22 -51 6 -26 -23 -13 -37 27 -31 32
5 34 4 34 -22 0 -22 -6 -29 -32 -36 -23 -7 -32 -15 -30 -27 2 -11 -3 -18 -13
-18 -19 0 -19 -7 0 -27 14 -14 14 -17 -2 -28 -10 -7 -21 -11 -25 -9 -5 3 -8 0
-8 -6 0 -6 -4 -9 -9 -5 -5 3 -13 0 -17 -6 -4 -7 -3 -9 2 -6 6 3 15 -2 21 -12
9 -14 8 -18 -3 -18 -8 0 -14 4 -14 8 0 3 -9 9 -20 12 -16 4 -19 11 -14 36 6
27 3 31 -15 33 -11 0 -27 1 -33 2 -7 1 -12 -5 -11 -11 3 -13 -3 -15 -42 -17
-21 -1 -19 18 -34 -320 -1 -29 -1 -29 -20 -10 -12 12 -15 23 -9 31 6 8 2 13
-11 18 -12 3 -21 11 -21 16 0 5 -11 14 -25 19 -23 9 -25 15 -24 62 1 64 18
130 36 141 17 10 17 44 1 50 -10 4 -10 8 2 16 8 5 17 8 21 5 13 -7 22 57 10
69 -6 6 -11 21 -11 34 0 21 -16 59 -30 73 -14 14 -30 52 -30 70 0 11 -6 23
-14 26 -8 3 -12 12 -9 20 3 7 -2 17 -11 20 -9 3 -16 12 -16 19 0 13 -35 28
-59 25 -7 -1 -2 10 12 24 15 14 33 26 42 26 8 0 15 5 15 10 0 9 -7 11 -27 9
-4 0 -11 9 -15 21 -7 18 -13 21 -34 16 -19 -5 -25 -3 -22 6 6 16 48 23 48 8 0
-7 7 -7 23 2 12 7 30 11 39 9 11 -1 18 4 18 13 0 9 -6 16 -14 16 -8 0 -18 5
-22 12 -4 6 -3 8 3 5 26 -16 35 23 30 125 -4 81 -9 105 -23 115 -9 7 -22 9
-28 5 -17 -10 -36 -11 -36 -1 0 5 -5 9 -10 9 -7 0 -7 -7 1 -22 10 -18 9 -20
-5 -15 -8 3 -18 1 -22 -4 -3 -6 -15 -9 -25 -6 -11 3 -17 1 -13 -4 3 -5 -5 -9
-18 -9 -13 0 -29 -5 -35 -11 -8 -8 -13 -8 -17 0 -4 6 -2 11 3 11 6 0 11 5 11
11 0 6 -9 8 -20 4 -11 -4 -20 -2 -20 4 0 6 7 11 16 11 11 0 14 5 10 16 -3 9
-6 18 -6 20 0 2 -5 4 -11 4 -6 0 -9 -7 -5 -15 3 -8 2 -15 -2 -16 -61 -7 -59
-8 -36 16 12 12 14 19 6 27 -14 14 -28 -19 -37 -83 -6 -46 -6 -46 -52 -53 -25
-3 -103 -7 -172 -7 -69 -1 -116 -4 -103 -6 28 -5 24 -27 -6 -31 -28 -4 -29
-22 -2 -22 11 0 20 -7 20 -15 0 -15 -28 -21 -75 -16 -11 1 -25 -6 -31 -14 -10
-14 -15 -14 -33 -3 -25 15 -29 58 -6 58 13 0 14 4 5 20 -6 11 -9 20 -8 21 29
8 38 5 38 -12 0 -14 7 -19 29 -19 34 0 38 10 32 84 l-3 50 -20 -34 c-16 -30
-18 -31 -15 -10 3 14 8 34 12 45 5 11 5 17 0 13 -4 -4 -14 -3 -22 3 -11 9 -13
1 -14 -47 -1 -57 -2 -57 -9 -19 -4 22 -6 45 -3 52 3 6 0 20 -6 30 -9 16 -11
15 -12 -7 -1 -23 -2 -23 -9 5 -6 25 -8 20 -10 -30 -2 -33 -5 -49 -7 -35 -2 14
-7 32 -10 40 -7 20 -14 78 -14 114 1 51 -15 67 -62 64 -37 -3 -42 -6 -39 -26
1 -13 -2 -31 -7 -40 -8 -13 -11 -8 -17 26 -6 41 -7 42 -46 42 -32 0 -39 3 -36
18 2 13 15 18 51 20 48 3 59 16 35 40 -13 13 7 16 85 12 l37 -2 0 51 0 51 -54
0 c-47 0 -54 2 -49 18 3 14 -5 20 -47 28 -39 8 -53 8 -61 -2 -17 -21 -1 -50
32 -60 41 -12 37 -30 -6 -27 -19 1 -35 -2 -35 -8 0 -6 -9 -8 -20 -4 -13 4 -20
2 -20 -6 0 -7 -9 -2 -20 11 -12 14 -18 31 -15 39 4 9 7 21 8 26 3 13 -42 14
-67 2 -18 -9 -18 -6 -12 33 4 24 9 47 12 52 9 14 124 10 124 -5 0 -8 -3 -17
-7 -20 -3 -4 -8 -18 -9 -32 -4 -41 15 -18 22 26 4 23 12 39 20 39 8 0 13 -5
11 -11 -1 -7 9 -15 23 -19 72 -20 80 -20 80 -6 0 16 -34 31 -50 21 -5 -3 -10
-1 -10 4 0 8 534 11 1780 11 l1780 0 0 325 0 325 -9255 0 -9255 0 0 -845z
m3430 600 c0 -8 -9 -15 -20 -15 -11 0 -20 7 -20 15 0 8 9 15 20 15 11 0 20 -7
20 -15z m-60 -9 c0 -9 -7 -12 -20 -9 -28 7 -50 -14 -50 -47 0 -33 22 -54 50
-47 13 3 20 0 20 -9 0 -22 -66 -18 -90 6 -44 44 -8 120 57 120 22 0 33 -5 33
-14z m371 -13 c5 -16 12 -35 15 -43 4 -10 11 0 21 28 12 34 19 42 39 42 23 0
24 -3 24 -70 0 -54 -3 -70 -14 -70 -10 0 -16 14 -18 43 l-3 42 -14 -42 c-9
-28 -20 -43 -31 -43 -11 0 -22 15 -31 43 l-14 42 -3 -42 c-2 -29 -8 -43 -18
-43 -11 0 -14 16 -14 70 0 68 1 70 25 70 19 0 28 -7 36 -27z m10119 -23 c0
-29 4 -40 15 -40 8 0 15 -4 15 -10 0 -5 -13 -10 -30 -10 -29 0 -30 1 -30 50 0
38 4 50 15 50 11 0 15 -11 15 -40z m230 30 c0 -5 -4 -10 -10 -10 -5 0 -10 5
-10 10 0 6 5 10 10 10 6 0 10 -4 10 -10z m645 -30 c1 -19 4 -41 8 -48 15 -22
-20 -13 -36 11 l-16 22 0 -22 c-2 -47 -21 -21 -21 28 l0 50 33 -3 c29 -3 32
-6 32 -38z m200 30 c3 -5 -1 -10 -9 -10 -9 0 -16 5 -16 10 0 6 4 10 9 10 6 0
13 -4 16 -10z m107 -12 c3 -7 20 -12 39 -12 31 -1 34 -4 37 -33 l3 -32 -55 0
c-52 1 -56 3 -56 25 0 15 -6 24 -16 24 -13 0 -14 -3 -4 -15 6 -8 9 -19 5 -25
-8 -13 -55 -13 -55 0 0 6 5 10 11 10 8 0 8 4 -1 15 -17 20 -4 35 31 35 16 0
29 5 29 10 0 14 28 12 32 -2z m-11612 -58 c0 -43 -3 -50 -20 -50 -17 0 -20 7
-20 50 0 43 3 50 20 50 17 0 20 -7 20 -50z m118 -2 c2 -38 0 -48 -12 -48 -10
0 -16 9 -16 24 0 13 -3 31 -6 40 -11 29 -24 16 -24 -24 0 -33 -3 -40 -20 -40
-17 0 -20 7 -20 51 l0 50 48 -3 47 -3 3 -47z m100 40 c7 -7 12 -20 12 -30 0
-13 -8 -18 -31 -18 -19 0 -28 -4 -23 -11 3 -6 17 -8 31 -4 18 4 24 2 21 -7
-10 -30 -83 -20 -93 13 -15 46 50 90 83 57z m300 0 c7 -7 12 -29 12 -50 l0
-38 -44 0 c-30 0 -46 5 -50 15 -9 25 4 45 30 45 13 0 24 5 24 11 0 7 -10 9
-25 5 -24 -6 -33 3 -18 17 11 11 58 8 71 -5z m67 -5 c6 -17 7 -17 16 0 6 9 17
17 24 17 18 0 19 -5 3 -30 -10 -16 -10 -24 0 -40 6 -11 12 -22 12 -25 0 -11
-39 -4 -44 8 -5 10 -7 10 -12 0 -5 -12 -44 -19 -44 -8 0 3 6 14 12 25 10 16
10 24 0 40 -16 26 -15 30 7 30 10 0 22 -8 26 -17z m9950 -18 c0 -27 -3 -30
-30 -30 -21 0 -31 5 -33 18 -6 33 6 49 35 45 24 -3 28 -8 28 -33z m95 4 c0
-44 -17 -69 -45 -69 -14 0 -25 5 -25 11 0 6 7 9 15 6 8 -4 17 -2 20 3 4 6 -3
10 -13 10 -23 0 -35 24 -27 51 5 14 16 19 41 19 31 0 34 -2 34 -31z m30 -4 c0
-19 -4 -35 -10 -35 -5 0 -10 16 -10 35 0 19 5 35 10 35 6 0 10 -16 10 -35z
m80 0 c0 -19 -4 -35 -10 -35 -5 0 -10 11 -10 25 0 14 -4 25 -10 25 -5 0 -10
-11 -10 -25 0 -14 -4 -25 -10 -25 -5 0 -10 16 -10 35 0 32 2 35 30 35 28 0 30
-3 30 -35z m640 23 c0 -9 3 -9 12 0 7 7 27 12 45 12 31 0 33 -2 33 -34 0 -52
-9 -66 -41 -66 -34 0 -40 19 -6 21 20 1 20 2 2 6 -11 3 -26 10 -32 15 -9 7
-13 7 -13 -1 0 -6 -11 -11 -25 -11 -29 0 -47 27 -34 52 11 20 59 25 59 6z
m120 -23 c0 -19 -4 -35 -10 -35 -5 0 -10 16 -10 35 0 19 5 35 10 35 6 0 10
-16 10 -35z m236 19 c-9 -8 -16 -24 -16 -35 0 -10 -4 -19 -10 -19 -5 0 -10 16
-10 35 0 31 3 35 26 35 23 0 24 -1 10 -16z m-12633 -401 c-3 -27 -10 -54 -16
-60 -5 -7 -7 -22 -4 -33 6 -24 -11 -38 -19 -16 -9 24 -24 19 -24 -8 l0 -24
-42 19 c-63 29 -71 34 -76 47 -2 7 6 12 18 12 12 0 19 -4 15 -9 -3 -5 -1 -12
5 -16 5 -3 10 0 10 7 0 7 12 22 28 34 21 18 24 25 15 35 -10 10 -16 9 -31 -5
-24 -21 -62 -29 -62 -13 0 22 14 33 57 45 23 7 45 17 48 22 3 6 24 10 45 10
l40 0 -7 -47z m1554 23 c24 1 48 6 55 11 21 16 68 14 85 -3 17 -16 76 -12 99
7 6 5 13 7 16 4 5 -5 49 -12 131 -20 27 -3 40 0 44 11 6 16 39 19 47 5 3 -5
15 -7 25 -4 10 3 22 0 25 -6 8 -12 74 -15 100 -5 9 3 13 11 9 18 -3 6 3 2 14
-9 11 -11 17 -24 13 -30 -4 -5 -6 -18 -4 -29 1 -10 -2 -30 -7 -43 -6 -17 -6
-30 1 -38 5 -6 8 -30 6 -53 -2 -31 0 -42 10 -42 10 0 14 14 14 50 0 37 4 50
14 50 11 0 15 -19 18 -79 2 -65 0 -78 -12 -76 -8 1 -16 12 -18 23 -4 26 -15
28 -36 7 -8 -8 -17 -15 -21 -15 -3 0 -5 35 -4 78 l2 77 -51 3 c-50 3 -52 2
-44 -20 5 -13 6 -57 2 -98 -3 -41 -2 -77 2 -78 18 -8 28 -41 19 -65 -7 -17
-20 -26 -43 -31 -33 -6 -34 -8 -35 -56 0 -28 3 -50 8 -50 5 0 9 16 9 35 0 49
26 47 33 -2 3 -21 4 -49 2 -63 -2 -14 -4 -31 -4 -37 -1 -7 -9 -13 -19 -13 -15
0 -18 6 -14 33 3 24 1 29 -7 21 -7 -6 -13 -21 -14 -33 -1 -13 -8 -21 -19 -21
-16 0 -18 10 -18 90 0 83 -1 90 -20 90 -12 0 -20 7 -21 18 0 10 -3 12 -6 5
-10 -27 -24 -11 -21 24 3 32 7 37 33 40 32 5 48 20 40 41 -3 8 -5 49 -5 92 l0
79 -37 3 c-24 2 -37 8 -35 16 1 6 -5 12 -13 12 -8 0 -15 -6 -15 -14 0 -13 -23
-14 -142 -10 -92 4 -146 10 -151 17 -6 9 -10 9 -14 0 -3 -9 -26 -13 -64 -13
l-59 0 0 53 c0 63 6 72 34 54 12 -7 40 -12 63 -11z m889 7 c-1 -14 7 -18 34
-19 45 -1 60 5 60 22 0 10 13 14 48 13 34 -2 39 -3 17 -6 l-30 -5 40 -14 c59
-20 96 -18 102 6 4 16 14 20 50 20 28 0 42 -4 38 -10 -12 -19 16 -40 51 -40
19 0 34 5 34 10 0 6 9 10 20 10 18 0 19 -8 19 -118 0 -91 -3 -123 -14 -138
-14 -17 -15 -11 -13 64 3 77 2 83 -18 88 -38 10 -79 1 -75 -16 6 -22 1 -142
-6 -153 -3 -6 -12 -2 -20 9 -14 18 -15 18 -27 1 -23 -30 -36 2 -33 84 l2 74
-83 1 c-60 1 -86 5 -93 15 -6 10 -9 10 -9 2 0 -9 -20 -13 -65 -13 -45 0 -65 4
-65 13 0 8 -3 7 -10 -3 -12 -20 8 -42 31 -35 18 6 19 0 18 -69 -1 -75 -12
-102 -30 -75 -8 12 -10 12 -18 0 -20 -31 -30 2 -27 84 l2 85 -68 0 -68 0 -1
33 c-1 17 -3 43 -4 55 -2 22 0 23 34 16 61 -13 148 -4 144 15 -2 6 6 11 16 11
12 0 18 -7 17 -17z m484 7 c0 -5 -7 -10 -15 -10 -8 0 -15 5 -15 10 0 6 7 10
15 10 8 0 15 -4 15 -10z m3118 -2 c1 -7 4 -25 8 -40 10 -42 -11 -33 -29 12
-14 37 -14 40 2 40 10 0 18 -6 19 -12z m972 -34 c0 -27 -4 -43 -10 -39 -5 3
-10 24 -10 46 0 21 5 39 10 39 6 0 10 -21 10 -46z m182 1 c-3 -29 -8 -45 -16
-42 -6 2 -11 8 -11 13 -1 5 -4 19 -9 31 -9 27 -1 43 22 43 14 0 17 -8 14 -45z
m843 35 c7 -11 -9 -11 -45 0 -24 8 -24 8 7 9 17 1 35 -3 38 -9z m2253 -10
c-15 -24 -18 -24 -54 -5 l-29 16 39 -7 c28 -5 37 -4 32 5 -4 6 -1 11 8 11 14
0 14 -3 4 -20z m88 4 c-3 -9 -6 -22 -6 -30 0 -8 -8 -15 -17 -15 -17 -1 -17 -2
0 -6 22 -6 12 -23 -14 -23 -24 0 -25 24 -1 48 10 10 16 24 14 30 -2 7 4 12 13
12 12 0 15 -5 11 -16z m849 3 c28 -21 1 -31 -30 -11 -14 9 -25 18 -25 20 0 9
38 3 55 -9z m195 3 c0 -5 -9 -10 -19 -10 -11 0 -23 5 -26 10 -4 6 5 10 19 10
14 0 26 -4 26 -10z m527 -2 c49 -13 68 -27 54 -41 -9 -9 -181 29 -195 43 -14
14 84 12 141 -2z m56 5 c-7 -2 -21 -2 -30 0 -10 3 -4 5 12 5 17 0 24 -2 18 -5z
m123 -10 c-3 -10 -8 -30 -12 -45 -6 -28 -18 -36 -28 -20 -3 5 -3 25 1 45 4 28
10 37 25 37 14 0 18 -5 14 -17z m-2929 -3 c37 0 44 -3 41 -17 -3 -15 -13 -17
-66 -14 -40 2 -62 -1 -62 -8 0 -12 -92 -16 -103 -5 -3 4 1 18 10 31 16 24 21
25 76 19 33 -3 80 -6 104 -6z m2163 -3 c0 -4 -16 -7 -35 -5 -19 1 -35 5 -35 9
0 4 16 7 35 6 19 -1 35 -6 35 -10z m-5108 -27 c3 -18 -1 -35 -10 -44 -8 -8
-15 -29 -14 -46 0 -16 -6 -43 -14 -58 -7 -15 -14 -32 -14 -38 0 -7 -7 -14 -15
-18 -16 -6 -20 5 -7 18 4 4 7 11 8 14 0 4 3 21 7 37 4 17 9 59 12 95 2 36 4
66 4 68 1 1 9 2 20 2 13 0 20 -9 23 -30z m3032 -9 c-4 -17 -9 -30 -11 -27 -3
2 -2 19 2 36 9 41 17 33 9 -9z m764 18 c12 -11 27 -17 32 -14 6 3 10 1 10 -4
0 -6 -9 -11 -20 -11 -11 0 -19 -5 -17 -11 1 -6 -4 -14 -10 -16 -7 -3 -13 0
-13 6 0 6 -18 14 -40 17 -42 7 -52 21 -22 30 9 3 24 9 32 14 22 13 24 12 48
-11z m172 -12 c0 -5 -6 -6 -12 -3 -7 3 -21 9 -30 12 -10 4 -18 10 -18 14 0 5
14 3 30 -3 17 -6 30 -15 30 -20z m-4837 1 c4 -12 4 -24 1 -27 -6 -7 -24 20
-24 37 0 21 17 13 23 -10z m6529 -5 c43 -10 78 -21 78 -25 0 -4 -15 -10 -33
-13 -47 -9 -161 25 -165 49 -3 15 1 18 20 13 12 -3 58 -14 100 -24z m-11762 8
c0 -6 -4 -13 -10 -16 -5 -3 -10 1 -10 9 0 9 5 16 10 16 6 0 10 -4 10 -9z
m9788 -10 c4 -11 -11 -13 -84 -8 -49 4 -110 7 -136 7 -27 0 -48 4 -48 10 0 5
52 8 132 7 102 -2 132 -5 136 -16z m1152 3 c0 -8 -4 -12 -10 -9 -5 3 -10 10
-10 16 0 5 5 9 10 9 6 0 10 -7 10 -16z m-835 -4 c3 -5 2 -10 -4 -10 -5 0 -13
5 -16 10 -3 6 -2 10 4 10 5 0 13 -4 16 -10z m-4065 -14 c0 -8 -5 -18 -10 -21
-6 -4 -8 -10 -5 -15 8 -13 -27 -22 -39 -10 -8 8 -4 12 12 16 13 4 22 14 22 25
0 11 5 19 10 19 6 0 10 -6 10 -14z m3345 -6 c8 -13 -15 -13 -35 0 -12 8 -11
10 7 10 12 0 25 -4 28 -10z m655 -11 c0 -4 -3 -10 -8 -13 -9 -5 -44 19 -36 26
7 8 44 -3 44 -13z m-605 1 c3 -5 -1 -10 -10 -10 -9 0 -13 5 -10 10 3 6 8 10
10 10 2 0 7 -4 10 -10z m1562 -7 c4 -10 11 -21 17 -25 8 -5 8 -8 0 -8 -10 0
-54 36 -54 45 0 13 32 3 37 -12z m710 2 c41 -6 72 -28 55 -39 -15 -9 -132 27
-132 42 0 8 7 11 18 8 9 -2 36 -7 59 -11z m-13910 -21 c-9 -9 -28 6 -21 18 4
6 10 6 17 -1 6 -6 8 -13 4 -17z m12197 10 c23 -9 20 -23 -4 -17 -11 3 -20 9
-20 14 0 11 3 11 24 3z m214 -11 c-2 -11 -14 -19 -31 -21 -22 -3 -27 1 -27 17
0 17 6 21 31 21 24 0 30 -4 27 -17z m680 5 c18 -18 14 -38 -6 -38 -21 0 -56
33 -45 43 10 11 38 8 51 -5z m-7220 -5 c-10 -2 -28 -2 -40 0 -13 2 -5 4 17 4
22 1 32 -1 23 -4z m1909 -49 c-10 -10 -47 26 -47 45 0 11 7 8 27 -11 15 -15
24 -31 20 -34z m-7677 -8 c0 -10 -129 -7 -135 3 -5 9 21 16 85 23 23 3 50 -12
50 -26z m3440 -15 c0 -49 -16 -111 -29 -111 -9 0 -14 137 -6 150 3 6 13 10 21
10 10 0 14 -13 14 -49z m4600 34 c0 -8 -5 -15 -12 -15 -6 0 -4 -7 5 -18 19
-21 13 -32 -15 -32 -10 0 -18 -4 -18 -10 0 -15 -27 -12 -33 4 -3 7 0 19 6 25
9 9 8 15 -7 23 -18 10 -18 11 5 24 33 18 69 18 69 -1z m5710 5 c0 -5 -6 -10
-14 -10 -8 0 -18 5 -21 10 -3 6 3 10 14 10 12 0 21 -4 21 -10z m-13540 -9 c0
-5 -8 -11 -17 -13 -25 -6 -54 3 -47 13 7 12 64 12 64 0z m3425 -71 l0 -75 -38
-2 c-51 -2 -60 17 -46 96 l11 62 37 -3 36 -3 0 -75z m195 17 c0 -34 -4 -67 -8
-74 -4 -6 -25 -13 -47 -15 l-40 -3 -3 77 -3 76 51 0 50 1 0 -62z m686 23 c-1
-36 -17 -34 -27 3 -8 29 -3 38 16 31 6 -3 12 -18 11 -34z m52 -7 c-3 -50 -18
-60 -29 -20 -7 27 6 67 21 67 7 0 10 -18 8 -47z m7732 37 c0 -5 -16 -10 -35
-10 -19 0 -35 5 -35 10 0 6 16 10 35 10 19 0 35 -4 35 -10z m-10190 -14 c0 -8
-4 -18 -10 -21 -5 -3 -10 3 -10 14 0 12 5 21 10 21 6 0 10 -6 10 -14z m1965
-28 c-13 -63 -38 -66 -28 -5 3 23 11 37 20 37 11 0 13 -8 8 -32z m713 -25
l-12 -28 -4 28 c-2 16 -1 36 3 45 6 16 7 16 16 0 6 -11 5 -26 -3 -45z m6907
47 c4 -6 -15 -10 -49 -10 -31 0 -56 5 -56 10 0 6 22 10 49 10 28 0 53 -4 56
-10z m155 0 c0 -6 -28 -10 -65 -10 -37 0 -65 4 -65 10 0 6 28 10 65 10 37 0
65 -4 65 -10z m135 -5 l30 -13 -32 -1 c-18 -1 -33 -6 -33 -13 0 -6 -7 -4 -18
5 -10 10 -29 17 -41 17 -12 0 -19 4 -16 10 9 14 75 12 110 -5z m1880 5 c3 -5
-3 -10 -14 -10 -12 0 -21 5 -21 10 0 6 6 10 14 10 8 0 18 -4 21 -10z m-2775
-10 c0 -5 -2 -10 -4 -10 -3 0 -8 5 -11 10 -3 6 -1 10 4 10 6 0 11 -4 11 -10z
m1200 -6 c0 -2 -19 -4 -42 -4 -26 0 -38 4 -30 8 12 8 72 4 72 -4z m1434 1 c-4
-8 -10 -12 -15 -9 -11 6 -2 24 11 24 5 0 7 -7 4 -15z m526 -5 c0 -5 -5 -10
-11 -10 -5 0 -7 5 -4 10 3 6 8 10 11 10 2 0 4 -4 4 -10z m96 -9 c14 -11 21
-22 17 -24 -6 -4 -71 -2 -80 2 -4 1 31 41 35 41 2 0 15 -9 28 -19z m-2891 -1
c8 -13 -15 -13 -35 0 -12 8 -11 10 7 10 12 0 25 -4 28 -10z m-3100 -10 c3 -5
-1 -10 -9 -10 -9 0 -16 5 -16 10 0 6 4 10 9 10 6 0 13 -4 16 -10z m3140 0 c3
-5 1 -10 -4 -10 -6 0 -11 5 -11 10 0 6 2 10 4 10 3 0 8 -4 11 -10z m515 0 c0
-5 -4 -10 -10 -10 -5 0 -10 5 -10 10 0 6 5 10 10 10 6 0 10 -4 10 -10z m1830
-11 c0 -4 -7 -6 -15 -3 -8 4 -15 10 -15 15 0 4 7 6 15 3 8 -4 15 -10 15 -15z
m-9979 -16 c-12 -20 -14 -14 -5 12 4 9 9 14 11 11 3 -2 0 -13 -6 -23z m8427
15 c-3 -7 -23 -14 -46 -16 -33 -2 -42 0 -42 12 0 12 11 16 46 16 32 0 44 -4
42 -12z m-7728 -42 c0 -8 -4 -18 -10 -21 -5 -3 -10 3 -10 14 0 12 5 21 10 21
6 0 10 -6 10 -14z m9294 6 c2 -4 2 -13 -2 -18 -8 -13 -72 2 -72 16 0 12 67 13
74 2z m-11736 -79 c2 -60 6 -72 22 -76 16 -4 17 -10 9 -48 -5 -24 -17 -49 -25
-56 -11 -8 -12 -13 -4 -18 12 -7 8 -92 -6 -128 -5 -13 -1 -17 16 -17 19 0 21
-4 15 -32 -4 -18 -15 -46 -24 -61 -12 -21 -13 -30 -4 -35 10 -6 10 -17 3 -42
-14 -50 -12 -90 5 -96 8 -4 15 -14 15 -23 0 -25 -20 -91 -28 -91 -4 0 -8 80
-9 178 -1 97 -5 278 -8 401 -5 183 -4 222 7 219 9 -3 14 -28 16 -75z m155
-162 c1 -137 -2 -221 -8 -221 -6 0 -11 91 -13 232 -2 172 1 229 9 221 7 -7 11
-84 12 -232z m2245 222 c-5 -26 -38 -29 -38 -4 0 15 6 21 21 21 14 0 19 -5 17
-17z m7761 13 c-10 -9 -79 -14 -79 -5 0 5 19 9 42 9 23 0 39 -2 37 -4z m2006
-6 c8 -13 -5 -60 -17 -60 -5 0 -8 6 -6 13 1 6 -3 22 -10 35 -11 19 -10 22 7
22 11 0 22 -4 26 -10z m-6135 -21 c0 -6 -4 -7 -10 -4 -5 3 -10 11 -10 16 0 6
5 7 10 4 6 -3 10 -11 10 -16z m3666 1 c5 -5 24 -6 47 0 27 6 50 4 75 -5 36
-13 33 -14 -60 -14 l-97 -1 2 -112 c2 -111 2 -112 27 -118 28 -7 20 -15 -27
-25 -32 -6 -33 -6 -33 29 0 20 -5 36 -11 36 -7 0 -9 10 -5 25 5 18 2 27 -9 31
-14 6 -14 8 1 19 16 11 16 14 -2 38 -10 15 -22 27 -26 27 -5 0 -8 12 -8 28 1
23 2 24 11 10 11 -19 29 -24 29 -9 0 5 -7 16 -15 25 -14 13 -12 15 17 19 62 7
74 7 84 -3z m1185 -12 c39 -22 50 -38 27 -38 -19 0 -78 38 -78 50 0 14 7 13
51 -12z m-731 2 c0 -5 -16 -10 -35 -10 -19 0 -35 5 -35 10 0 6 16 10 35 10 19
0 35 -4 35 -10z m1584 -11 c17 -16 -2 -20 -43 -9 -53 14 -55 35 -3 25 20 -3
41 -11 46 -16z m-10218 -8 c19 -18 71 -20 93 -4 16 10 26 12 33 5 12 -12 17
-101 6 -108 -5 -3 -5 -11 -1 -17 11 -17 12 -110 2 -128 -6 -12 -5 -19 4 -23 6
-3 -1 -4 -18 -3 -23 1 -31 7 -33 25 -2 12 2 22 9 22 8 0 10 12 5 41 -4 26 -2
46 5 55 9 11 8 18 -1 29 -7 8 -16 12 -22 9 -15 -9 -114 -13 -127 -4 -9 5 -10
10 -2 14 15 9 14 63 -1 72 -6 4 -8 3 -5 -4 9 -13 -2 -42 -15 -42 -5 0 -6 5 -2
12 5 7 2 9 -9 5 -9 -3 -18 1 -21 10 -8 21 -3 25 41 33 21 4 40 8 44 9 3 0 9
-3 15 -8z m630 -1 c21 0 55 2 74 4 19 2 40 -1 46 -5 6 -5 34 -11 62 -12 38 -3
49 0 45 10 -3 7 1 13 9 13 9 0 14 -8 12 -22 -1 -13 -3 -39 -3 -58 -1 -26 -4
-31 -11 -20 -5 8 -10 10 -10 4 0 -7 -10 -9 -25 -6 -13 2 -36 1 -51 -2 -21 -6
-25 -11 -20 -30 9 -35 -5 -116 -19 -116 -17 0 -29 102 -13 111 9 6 8 14 -2 35
-11 20 -16 23 -18 11 -3 -14 -17 -17 -77 -17 l-73 0 13 -37 c8 -24 10 -45 4
-60 -5 -13 -8 -27 -8 -31 6 -36 -3 -52 -27 -52 -15 0 -23 -4 -19 -11 4 -6 13
-8 20 -5 8 3 19 -2 25 -10 7 -8 21 -14 32 -14 16 0 18 -3 9 -14 -9 -11 -7 -15
10 -19 11 -3 18 -10 15 -15 -8 -13 -55 -21 -62 -11 -2 4 -11 6 -19 2 -8 -3
-15 0 -15 7 0 7 -6 5 -16 -5 -12 -11 -25 -14 -43 -10 -41 10 -45 21 -17 48 28
28 31 42 16 81 -6 16 -6 27 0 31 6 4 10 28 10 56 0 51 8 59 34 33 15 -14 16
-14 16 0 0 9 3 16 8 16 4 0 5 29 4 65 -4 65 -3 66 20 60 13 -4 42 -6 64 -5z
m427 -26 c-1 -16 -3 -68 -4 -116 -3 -104 -17 -117 -21 -20 l-3 67 -31 3 c-32
3 -53 35 -32 48 5 3 7 12 4 19 -3 8 2 11 12 8 9 -2 26 3 37 11 28 21 40 14 38
-20z m55 24 c20 -20 15 -75 -7 -81 -15 -4 -20 2 -25 28 -6 33 0 65 13 65 4 0
12 -5 19 -12z m122 -48 l0 -48 -47 5 c-56 6 -70 13 -26 13 27 0 30 3 26 24 -4
22 -2 24 18 19 14 -3 19 -1 13 4 -16 12 -14 42 3 36 8 -3 13 -22 13 -53z
m7385 40 c-3 -5 -17 -10 -31 -10 -13 0 -24 5 -24 10 0 6 14 10 31 10 17 0 28
-4 24 -10z m850 -20 c4 -6 -2 -7 -16 -1 -13 4 -25 14 -27 20 -3 10 0 10 16 2
12 -6 24 -16 27 -21z m-9615 9 c0 -7 6 -17 14 -23 8 -6 17 -21 21 -33 6 -21 3
-23 -34 -23 -44 0 -71 26 -71 67 0 20 5 23 35 23 20 0 35 -5 35 -11z m8750
-19 c0 -5 -9 -10 -20 -10 -11 0 -20 5 -20 10 0 6 9 10 20 10 11 0 20 -4 20
-10z m1601 0 c20 -11 26 -30 10 -30 -23 0 -62 21 -56 30 8 13 21 13 46 0z
m-1616 -30 c3 -5 -1 -10 -10 -10 -9 0 -13 5 -10 10 3 6 8 10 10 10 2 0 7 -4
10 -10z m1570 -7 c51 -7 60 -12 47 -25 -8 -8 -25 -8 -67 2 -30 7 -55 16 -55
20 0 14 14 20 29 14 9 -4 30 -9 46 -11z m605 7 c0 -5 -5 -10 -11 -10 -5 0 -7
5 -4 10 3 6 8 10 11 10 2 0 4 -4 4 -10z m-10251 -14 c10 -12 7 -15 -19 -14
-17 1 -33 6 -37 11 -3 6 -1 7 5 3 6 -3 13 -2 17 4 9 14 20 13 34 -4z m7831 -6
c0 -4 -11 -10 -25 -12 -21 -4 -23 -3 -14 13 9 17 39 16 39 -1z m2300 -17 c0
-43 -5 -41 -13 5 -4 18 -2 32 3 32 6 0 10 -16 10 -37z m-2370 13 c0 -10 -15
-15 -50 -18 -54 -3 -73 17 -22 25 56 8 72 7 72 -7z m-6272 -38 c-4 -30 -48
-39 -48 -10 0 10 3 22 7 25 3 4 15 7 25 7 14 0 19 -6 16 -22z m358 2 c37 -11
69 -22 73 -26 9 -9 -118 2 -162 14 -31 8 -39 7 -44 -4 -4 -11 -28 -14 -104
-14 -89 0 -99 2 -99 18 0 10 3 22 7 25 3 4 64 7 135 6 94 0 146 -6 194 -19z
m214 16 c0 -3 -4 -8 -10 -11 -5 -3 -10 -1 -10 4 0 6 5 11 10 11 6 0 10 -2 10
-4z m5120 -17 c0 -5 -12 -9 -27 -9 -27 1 -27 1 -9 15 19 14 36 12 36 -6z
m2467 2 c26 -7 31 -24 9 -29 -14 -3 -106 34 -106 43 0 4 61 -5 97 -14z
m-10157 -25 c0 -13 -3 -38 -6 -55 -5 -25 -10 -30 -25 -26 -14 5 -22 -2 -33
-27 l-14 -33 -1 42 c-1 37 1 41 19 36 14 -4 20 -1 18 8 -2 7 2 13 9 14 6 0 15
4 20 9 5 5 3 6 -5 2 -20 -12 -34 36 -15 51 21 16 33 8 33 -21z m690 -26 l-8
-55 -1 51 c-1 43 6 71 15 61 1 -1 -1 -27 -6 -57z m410 50 c0 -5 -5 -10 -11
-10 -5 0 -7 5 -4 10 3 6 8 10 11 10 2 0 4 -4 4 -10z m130 -125 c0 -128 1 -135
20 -135 11 0 20 -4 20 -10 0 -6 -35 -10 -85 -10 -50 0 -85 4 -85 10 0 6 17 10
38 11 l37 1 -35 9 c-19 4 -65 9 -102 11 -70 2 -93 20 -43 32 14 4 29 16 34 27
7 21 8 20 24 -5 10 -14 23 -26 30 -26 8 0 9 3 1 8 -6 4 -11 15 -11 25 0 23 33
22 54 -3 20 -22 53 -27 53 -7 0 7 5 18 11 24 8 8 11 42 10 92 -2 68 0 81 13
81 14 0 16 -19 16 -135z m2990 125 c0 -5 -7 -10 -15 -10 -8 0 -15 5 -15 10 0
6 7 10 15 10 8 0 15 -4 15 -10z m-4280 -9 c0 -6 -4 -13 -10 -16 -5 -3 -10 1
-10 9 0 9 5 16 10 16 6 0 10 -4 10 -9z m926 0 c-4 -5 0 -11 6 -14 7 -2 10 -8
5 -12 -10 -12 -31 11 -23 24 4 6 9 11 12 11 3 0 3 -4 0 -9z m1724 -1 c0 -5 -5
-10 -11 -10 -5 0 -7 5 -4 10 3 6 8 10 11 10 2 0 4 -4 4 -10z m5885 0 c3 -5 -3
-10 -14 -10 -12 0 -21 5 -21 10 0 6 6 10 14 10 8 0 18 -4 21 -10z m-8225 -71
l0 -59 -34 0 -34 0 10 36 c5 21 8 47 5 60 -3 17 1 24 17 27 33 5 36 0 36 -64z
m732 20 c3 -58 -3 -75 -26 -66 -12 5 -16 20 -16 62 0 47 3 55 19 55 16 0 20
-9 23 -51z m-1209 26 c-3 -9 -8 -14 -10 -11 -3 3 -2 9 2 15 9 16 15 13 8 -4z
m4467 -6 c0 -6 12 -26 26 -45 31 -40 16 -45 -31 -10 -22 17 -40 23 -56 20 -24
-6 -24 -5 4 20 29 27 57 34 57 15z m6400 -5 c0 -8 -5 -12 -10 -9 -6 4 -8 11
-5 16 9 14 15 11 15 -7z m-2167 -1 c-7 -2 -21 -2 -30 0 -10 3 -4 5 12 5 17 0
24 -2 18 -5z m1706 -8 c10 -11 -12 -22 -36 -18 -45 7 -55 12 -47 24 5 9 71 5
83 -6z m-9077 -37 c5 -44 3 -56 -8 -45 -10 9 -14 87 -5 87 5 0 11 -19 13 -42z
m-1312 -16 c0 -32 -2 -34 -14 -22 -9 9 -12 26 -9 42 7 38 23 25 23 -20z m1073
7 c-5 -5 -9 3 -11 19 -1 24 0 25 9 9 7 -11 7 -23 2 -28z m10807 -23 c0 -3 -15
-2 -34 1 -19 3 -36 1 -40 -6 -10 -15 -25 -14 -22 2 1 8 10 26 20 41 l17 27 30
-30 c16 -17 29 -33 29 -35z m-1549 30 c12 7 51 -15 44 -25 -10 -17 -135 20
-135 40 0 5 18 2 41 -6 23 -8 45 -12 50 -9z m-8147 -29 c-8 -21 -64 -24 -64
-3 0 16 51 37 63 26 4 -3 5 -14 1 -23z m5714 21 c-3 -7 -11 -13 -18 -13 -7 0
-15 6 -17 13 -3 7 4 12 17 12 13 0 20 -5 18 -12z m3782 2 c0 -5 -2 -10 -4 -10
-3 0 -8 5 -11 10 -3 6 -1 10 4 10 6 0 11 -4 11 -10z m-9277 -20 c-5 -18 -14
-20 -104 -20 -55 0 -99 2 -99 4 0 31 15 36 110 36 93 0 98 -1 93 -20z m235 3
l57 -18 -65 -2 c-40 -2 -92 4 -135 16 l-70 19 78 1 c49 1 100 -6 135 -16z
m190 0 c-2 -12 -14 -19 -35 -21 -27 -3 -31 -1 -26 17 7 28 66 31 61 4z m-2632
-40 c-11 -11 -17 4 -9 23 7 18 8 18 11 1 2 -10 1 -21 -2 -24z m5208 11 c4 -10
1 -14 -6 -12 -15 5 -23 28 -10 28 5 0 13 -7 16 -16z m2986 6 c-19 -13 -30 -13
-30 0 0 6 10 10 23 10 18 0 19 -2 7 -10z m1943 -6 c43 -10 31 -25 -15 -18 -66
9 -76 13 -58 24 8 5 22 8 30 5 8 -2 27 -7 43 -11z m-5863 -25 c0 -6 -4 -7 -10
-4 -5 3 -10 11 -10 16 0 6 5 7 10 4 6 -3 10 -11 10 -16z m-3882 -5 c32 -22 30
-70 -4 -77 -19 -3 -24 -1 -19 11 7 19 -3 52 -16 52 -5 0 -9 -6 -8 -12 3 -27
-14 -58 -32 -58 -11 0 -19 4 -19 8 0 5 -10 8 -22 8 -15 -1 -23 7 -29 28 -8 27
-7 28 26 22 24 -5 36 -3 42 8 7 12 19 17 53 25 3 0 16 -6 28 -15z m-255 -30
c2 -17 7 -36 12 -43 5 -9 3 -12 -5 -9 -17 5 -34 54 -26 75 9 21 15 13 19 -23z
m577 -4 c0 -22 -4 -40 -9 -40 -12 0 -20 36 -14 60 9 34 23 22 23 -20z m3520
30 c0 -5 -2 -10 -4 -10 -3 0 -8 5 -11 10 -3 6 -1 10 4 10 6 0 11 -4 11 -10z
m-4443 -47 c-3 -10 -5 -2 -5 17 0 19 2 27 5 18 2 -10 2 -26 0 -35z m163 37 c0
-5 -9 -14 -20 -20 -23 -12 -26 -6 -7 15 14 17 27 19 27 5z m10157 -2 c38 -14
45 -33 8 -24 -37 9 -75 25 -75 31 0 9 32 6 67 -7z m-10072 -26 c12 -17 13 -22
4 -15 -9 7 -18 11 -20 8 -3 -2 -10 5 -17 15 -20 32 9 25 33 -8z m155 2 c0 -8
-4 -14 -10 -14 -5 0 -10 9 -10 21 0 11 5 17 10 14 6 -3 10 -13 10 -21z m470 6
c0 -5 -4 -10 -10 -10 -5 0 -10 5 -10 10 0 6 5 10 10 10 6 0 10 -4 10 -10z
m213 -3 c4 3 7 -1 7 -9 0 -17 -37 -31 -45 -18 -3 5 -2 15 1 24 5 12 10 14 19
6 6 -5 15 -7 18 -3z m9619 -9 c-6 -6 -15 -8 -19 -4 -4 4 -1 11 7 16 19 12 27
3 12 -12z m-8536 -5 c-3 -10 -7 -55 -8 -101 -2 -84 -16 -118 -40 -94 -7 7 -7
20 1 45 7 20 14 58 16 87 2 28 9 57 15 65 17 20 23 19 16 -2z m221 -3 c-2 -24
-32 -30 -127 -27 -59 2 -65 4 -68 25 -3 22 -1 22 97 22 94 0 100 -1 98 -20z
m296 -1 c99 -33 -23 -31 -148 2 l-70 19 90 -4 c50 -3 107 -10 128 -17z m139
-3 c13 -19 9 -21 -32 -21 -30 0 -40 4 -40 16 0 9 3 19 6 22 9 9 57 -4 66 -17z
m2708 14 c0 -5 -4 -10 -10 -10 -5 0 -10 5 -10 10 0 6 5 10 10 10 6 0 10 -4 10
-10z m8840 0 c13 -9 13 -11 0 -20 -28 -18 -60 -4 -45 20 8 13 26 13 45 0z
m-10887 -17 c-3 -9 -13 -11 -27 -7 -37 11 -39 22 -3 21 25 -1 33 -5 30 -14z
m6801 -4 c16 -15 0 -20 -28 -10 -32 13 -36 35 -3 26 12 -4 26 -11 31 -16z
m-13264 1 c0 -5 -7 -10 -16 -10 -8 0 -12 5 -9 10 3 6 10 10 16 10 5 0 9 -4 9
-10z m8828 -8 c2 -7 -2 -10 -12 -6 -9 3 -16 11 -16 16 0 13 23 5 28 -10z
m4954 -62 c-1 -41 2 -78 8 -85 8 -10 6 -16 -7 -25 -16 -10 -14 -11 10 -7 15 2
30 0 34 -6 4 -6 -12 -8 -46 -5 -42 4 -51 2 -51 -11 -1 -14 -2 -14 -11 2 -5 9
-8 21 -5 26 3 4 -1 17 -8 27 -12 16 -12 23 0 45 12 23 11 28 -4 41 -9 9 -24
13 -32 10 -13 -4 -13 -3 -1 11 12 15 11 17 -10 17 -17 0 -20 3 -12 11 10 10
107 29 128 24 6 -1 9 -32 7 -75z m1063 50 c-7 -11 -75 -11 -75 0 0 9 59 18 73
12 4 -2 5 -7 2 -12z m-6625 -28 c0 -10 4 -22 10 -28 11 -11 1 -56 -11 -48 -5
3 -9 21 -9 40 0 24 -5 34 -15 34 -8 0 -15 5 -15 10 0 6 9 10 20 10 13 0 20 -7
20 -18z m1090 -20 c0 -9 -6 -8 -25 4 -14 9 -22 20 -19 25 7 12 44 -12 44 -29z
m-60 18 c0 -13 -11 -13 -30 0 -12 8 -11 10 8 10 12 0 22 -4 22 -10z m-1650
-40 c18 -23 30 -43 27 -46 -8 -9 -67 54 -67 71 0 22 5 19 40 -25z m-3133 14
c2 -6 -33 -11 -77 -12 -89 -3 -114 15 -27 20 73 5 101 2 104 -8z m-4093 -10
c9 -25 7 -64 -4 -64 -5 0 -11 3 -11 8 -7 48 -7 72 0 72 5 0 12 -7 15 -16z
m3871 6 c-3 -5 -10 -10 -16 -10 -5 0 -9 5 -9 10 0 6 7 10 16 10 8 0 12 -4 9
-10z m45 6 c0 -2 -7 -6 -15 -10 -8 -3 -15 -1 -15 4 0 6 7 10 15 10 8 0 15 -2
15 -4z m12790 -21 c-12 -15 -30 -12 -30 5 0 8 31 19 39 13 2 -1 -2 -9 -9 -18z
m-8710 0 c19 -23 8 -26 -20 -5 -19 15 -21 20 -9 20 9 0 22 -7 29 -15z m-3050
1 c0 -3 -4 -8 -10 -11 -5 -3 -10 -1 -10 4 0 6 5 11 10 11 6 0 10 -2 10 -4z
m338 -2 c12 -4 22 -10 22 -15 0 -14 -31 -24 -39 -13 -7 11 -23 15 -79 19 -24
2 -47 6 -50 9 -7 8 117 7 146 0z m121 -11 c0 -10 -3 -13 -5 -6 -4 8 -14 9 -35
3 -22 -7 -29 -5 -29 6 0 9 11 14 35 14 27 0 35 -4 34 -17z m7476 7 c3 -5 -1
-10 -9 -10 -8 0 -18 5 -21 10 -3 6 1 10 9 10 8 0 18 -4 21 -10z m1547 -22 c-7
-7 -12 -8 -12 -2 0 14 12 26 19 19 2 -3 -1 -11 -7 -17z m-5473 -12 c15 -27 8
-46 -16 -46 -10 0 -14 6 -10 20 3 11 1 23 -4 26 -10 6 -3 24 10 24 4 0 13 -11
20 -24z m-5034 4 c3 -5 -1 -10 -10 -10 -9 0 -13 5 -10 10 3 6 8 10 10 10 2 0
7 -4 10 -10z m135 -67 c0 -58 -3 -73 -15 -73 -12 0 -15 14 -13 73 2 52 6 74
15 74 9 0 13 -21 13 -74z m-2600 11 c0 -27 -4 -43 -10 -39 -5 3 -10 24 -10 46
0 21 5 39 10 39 6 0 10 -21 10 -46z m3460 20 c0 -14 -12 -19 -23 -8 -9 9 4 35
14 28 5 -3 9 -12 9 -20z m-1100 -33 c0 -65 -7 -81 -36 -81 -22 0 -24 4 -24 49
0 65 7 81 36 81 22 0 24 -4 24 -49z m116 -19 c0 -25 -6 -47 -12 -49 -19 -6
-23 21 -12 72 12 57 26 44 24 -23z m3684 58 c13 -9 13 -10 0 -9 -8 0 -24 4
-35 9 l-20 9 20 0 c11 0 27 -4 35 -9z m6325 0 c4 -6 -9 -10 -32 -9 -38 1 -38
1 -8 9 17 4 31 8 32 9 1 0 5 -3 8 -9z m-10061 -46 c-2 -60 -3 -64 -14 -64 -5
0 -10 25 -10 56 0 40 3 54 13 51 7 -2 11 -19 11 -43z m10389 8 c0 -18 -4 -36
-8 -40 -4 -4 -92 -7 -195 -7 -138 0 -192 3 -201 13 -7 6 -26 12 -43 12 -62 0
-16 13 88 25 22 3 44 9 49 14 6 6 19 6 34 0 14 -5 31 -6 37 -1 6 4 49 9 96 11
46 1 87 4 89 7 3 3 17 4 31 2 21 -3 25 -8 23 -36z m-11193 -4 c0 -25 -6 -36
-24 -44 -22 -10 -24 -9 -28 15 -6 44 2 61 28 61 20 0 24 -5 24 -32z m5830 17
c0 -8 -4 -15 -10 -15 -5 0 -10 7 -10 15 0 8 5 15 10 15 6 0 10 -7 10 -15z
m4865 5 c3 -5 -1 -10 -10 -10 -9 0 -13 5 -10 10 3 6 8 10 10 10 2 0 7 -4 10
-10z m-8242 -17 c-7 -2 -19 -2 -25 0 -7 3 -2 5 12 5 14 0 19 -2 13 -5z m7981
-14 c-3 -5 -10 -7 -15 -3 -5 3 -7 10 -3 15 3 5 10 7 15 3 5 -3 7 -10 3 -15z
m-4536 -20 c-7 -5 -2 -18 16 -39 15 -18 33 -45 42 -61 13 -26 13 -29 -1 -29
-12 0 -15 -6 -10 -20 5 -16 3 -19 -11 -13 -14 5 -16 2 -12 -20 6 -32 -18 -60
-28 -33 -9 24 -24 19 -24 -9 0 -14 -4 -25 -10 -25 -5 0 -10 8 -10 18 0 10 -6
24 -12 30 -10 10 -10 15 2 22 12 8 12 19 2 82 l-13 73 33 27 c22 18 35 23 40
15 4 -6 2 -15 -4 -18z m6066 3 c-22 -5 -31 7 -14 18 9 6 17 5 22 -3 4 -7 1
-13 -8 -15z m-1814 3 c0 -8 -7 -15 -15 -15 -16 0 -20 12 -8 23 11 12 23 8 23
-8z m1700 -6 c0 -5 -7 -9 -15 -9 -9 0 -12 6 -9 15 6 15 24 11 24 -6z m1000 11
c0 -5 -4 -10 -10 -10 -5 0 -10 5 -10 10 0 6 5 10 10 10 6 0 10 -4 10 -10z
m-12773 -54 c5 -31 3 -35 -11 -30 -9 3 -16 10 -16 16 0 5 -4 6 -10 3 -5 -3
-10 3 -10 14 0 12 5 21 10 21 6 0 10 8 10 17 0 30 20 -1 27 -41z m-1693 -34
c-9 -83 -23 -87 -19 -6 2 38 4 70 5 72 0 2 5 0 11 -3 6 -5 8 -27 3 -63z m5791
48 c-3 -5 -10 -10 -16 -10 -5 0 -9 5 -9 10 0 6 7 10 16 10 8 0 12 -4 9 -10z
m-1075 -30 c0 -5 -4 -10 -10 -10 -5 0 -10 5 -10 10 0 6 5 10 10 10 6 0 10 -4
10 -10z m7976 -15 c1 -14 -2 -25 -7 -25 -10 0 -12 33 -2 43 3 4 7 7 7 7 1 0 2
-11 2 -25z m-14055 -62 c-9 -15 -10 -13 -11 14 0 17 3 40 8 50 5 14 8 11 10
-14 2 -18 -1 -41 -7 -50z m3957 22 c1 -31 -2 -52 -10 -57 -10 -6 -10 -8 0 -8
9 0 12 -33 12 -133 l0 -133 -47 -3 c-27 -1 -60 -4 -74 -6 -29 -5 -43 12 -28
36 5 8 9 24 9 37 0 19 4 22 20 18 11 -3 29 -9 41 -12 13 -4 26 1 38 15 10 11
21 18 25 14 3 -3 6 -1 6 5 0 6 -4 14 -10 17 -5 3 -10 42 -10 85 l0 79 -57 -2
c-58 -2 -58 -2 -60 28 0 17 -3 37 -5 45 -2 12 8 15 54 15 31 0 60 4 64 8 17
17 29 -2 32 -48z m3834 3 c-5 -19 -6 -18 -17 8 -14 34 -7 54 10 30 7 -9 10
-26 7 -38z m1258 22 c0 -13 -7 -13 -31 1 -11 5 -17 14 -14 20 7 11 45 -7 45
-21z m-5261 -2 c6 -17 5 -24 -5 -26 -17 -4 -19 -39 -2 -44 7 -3 8 -7 2 -10 -5
-4 -20 0 -34 9 -14 8 -17 12 -7 9 14 -5 16 -1 11 22 -8 33 -14 41 -14 18 0
-15 -2 -16 -15 -2 -22 21 -19 39 5 31 11 -4 20 -2 20 4 0 20 31 11 39 -11z
m3345 14 c8 -13 -11 -35 -23 -28 -16 10 -14 36 3 36 8 0 17 -4 20 -8z m-3484
-17 c0 -8 -4 -15 -8 -15 -5 0 -9 7 -9 15 0 8 4 15 9 15 4 0 8 -7 8 -15z m4625
-10 c30 -31 31 -35 4 -35 -15 0 -19 4 -15 16 5 13 2 15 -14 11 -24 -6 -38 12
-19 24 18 11 14 13 44 -16z m-2365 11 c0 -3 -4 -8 -10 -11 -5 -3 -10 -1 -10 4
0 6 5 11 10 11 6 0 10 -2 10 -4z m-7155 -16 c4 -6 -5 -10 -20 -10 -15 0 -24 4
-20 10 3 6 12 10 20 10 8 0 17 -4 20 -10z m52 4 c-3 -3 -12 -4 -19 -1 -8 3 -5
6 6 6 11 1 17 -2 13 -5z m4263 -4 c-7 -4 -10 -12 -7 -17 3 -5 2 -24 -1 -42 -6
-28 -12 -34 -36 -37 -23 -2 -27 0 -23 17 3 10 1 17 -4 13 -5 -3 -9 -12 -9 -20
0 -8 -9 -14 -20 -14 -20 0 -20 1 -5 30 9 17 20 28 25 25 6 -4 10 1 10 9 0 23
26 44 56 44 16 0 21 -3 14 -8z m11100 -9 c0 -5 3 -16 6 -24 10 -26 -22 -44
-83 -46 -32 -1 -86 -5 -120 -10 -35 -4 -68 -4 -75 1 -7 4 -24 8 -38 8 -14 0
-33 7 -43 14 -16 13 -11 15 50 25 283 44 303 46 303 32z m-11015 -11 c-3 -5
-10 -10 -16 -10 -5 0 -9 5 -9 10 0 6 7 10 16 10 8 0 12 -4 9 -10z m449 -14
c-6 -15 -24 -23 -24 -11 0 8 24 34 28 30 1 -1 0 -10 -4 -19z m-494 4 c0 -5 -7
-10 -16 -10 -8 0 -12 5 -9 10 3 6 10 10 16 10 5 0 9 -4 9 -10z m12970 -11 c0
-5 -4 -9 -10 -9 -5 0 -10 7 -10 16 0 8 5 12 10 9 6 -3 10 -10 10 -16z m-17276
-5 c4 -10 1 -14 -6 -12 -15 5 -23 28 -10 28 5 0 13 -7 16 -16z m2416 -30 c0
-13 -4 -24 -9 -24 -10 0 -21 47 -13 54 10 11 22 -6 22 -30z m1640 30 c0 -3 -7
-12 -15 -20 -12 -13 -15 -13 -15 -1 0 7 3 17 7 20 8 8 23 9 23 1z m10663 0
c11 -11 -3 -24 -18 -18 -8 4 -12 10 -9 15 6 11 18 12 27 3z m-9833 -14 c-33
-11 -50 -12 -50 -2 0 4 17 8 38 9 32 1 33 0 12 -7z m-2333 -37 c-3 -10 -5 -4
-5 12 0 17 2 24 5 18 2 -7 2 -21 0 -30z m2240 31 c-3 -3 -12 -4 -19 -1 -8 3
-5 6 6 6 11 1 17 -2 13 -5z m3973 -15 c0 -5 -4 -9 -10 -9 -5 0 -10 7 -10 16 0
8 5 12 10 9 6 -3 10 -10 10 -16z m-3780 -21 l9 -23 7 23 c3 12 13 22 20 22 11
0 13 -15 11 -65 -2 -54 -5 -65 -19 -65 -10 0 -18 5 -18 10 0 6 4 10 9 10 6 0
9 12 7 28 -2 23 -6 27 -31 25 -23 -2 -26 0 -15 7 10 6 11 10 3 10 -7 0 -13 9
-13 20 0 27 18 25 30 -2z m3055 12 c-3 -5 -13 -10 -21 -10 -8 0 -14 5 -14 10
0 6 9 10 21 10 11 0 17 -4 14 -10z m-3186 -72 c0 -59 -2 -68 -10 -48 -6 14 -9
42 -7 63 2 20 0 37 -4 37 -5 0 -8 5 -8 10 0 6 7 10 15 10 12 0 15 -14 14 -72z
m1821 53 c-10 -20 -30 -37 -30 -26 0 11 25 45 33 45 4 0 3 -9 -3 -19z m1827
-3 c-3 -8 -6 -5 -6 6 -1 11 2 17 5 13 3 -3 4 -12 1 -19z m2383 12 c0 -5 -12
-10 -27 -9 -25 0 -26 1 -8 9 27 12 35 12 35 0z m-6085 -10 c3 -5 1 -10 -4 -10
-6 0 -11 5 -11 10 0 6 2 10 4 10 3 0 8 -4 11 -10z m-361 -16 c8 -22 8 -26 -4
-19 -5 3 -10 1 -10 -4 0 -6 -4 -11 -9 -11 -4 0 -6 11 -3 25 5 28 17 33 26 9z
m9601 6 c3 -5 -1 -10 -9 -10 -9 0 -16 5 -16 10 0 6 4 10 9 10 6 0 13 -4 16
-10z m672 4 c-3 -3 -12 -4 -19 -1 -8 3 -5 6 6 6 11 1 17 -2 13 -5z m-14830
-46 c-3 -7 -5 -2 -5 12 0 14 2 19 5 13 2 -7 2 -19 0 -25z m16213 11 c0 -5 -4
-9 -10 -9 -5 0 -10 7 -10 16 0 8 5 12 10 9 6 -3 10 -10 10 -16z m-12060 -29
c-5 -22 -8 -27 -9 -13 -1 21 9 56 14 51 2 -2 0 -19 -5 -38z m-4104 15 c-3 -10
1 -18 12 -22 9 -4 20 -11 24 -17 5 -7 8 -7 8 2 0 6 9 12 20 12 21 0 27 -24 9
-36 -6 -3 -9 -15 -6 -25 3 -11 4 -19 3 -19 -12 0 -66 33 -66 41 0 5 -6 9 -14
9 -7 0 -19 7 -26 15 -10 12 -9 15 4 15 13 0 16 5 11 20 -5 15 -2 20 10 20 11
0 15 -5 11 -15z m6712 -6 c-2 -6 -8 -10 -13 -10 -5 0 -11 4 -13 10 -2 6 4 11
13 11 9 0 15 -5 13 -11z m-2528 -56 c0 -61 -10 -69 -12 -9 -1 26 -5 35 -15 32
-7 -3 -13 0 -13 8 0 16 10 26 27 26 9 0 13 -16 13 -57z m4925 46 c4 -6 5 -12
2 -15 -7 -7 -37 7 -37 17 0 13 27 11 35 -2z m6323 -26 l-3 -38 -75 0 c-41 0
-78 -4 -82 -10 -5 -6 -8 -6 -8 2 0 7 -18 11 -46 11 -58 0 -81 18 -33 26 68 11
119 11 123 1 2 -5 10 -2 17 7 11 14 60 32 102 37 5 1 7 -16 5 -36z m-12938 1
c0 -8 -7 -14 -15 -14 -8 0 -15 9 -15 20 0 13 5 18 15 14 8 -4 15 -12 15 -20z
m127 -6 c-3 -7 -5 -2 -5 12 0 14 2 19 5 13 2 -7 2 -19 0 -25z m1741 -15 c-13
-12 -14 -10 -10 18 4 27 6 29 14 14 7 -12 6 -21 -4 -32z m692 37 c0 -5 -5 -10
-11 -10 -5 0 -7 5 -4 10 3 6 8 10 11 10 2 0 4 -4 4 -10z m11746 -58 c-17 -16
-18 -16 -5 5 7 12 15 20 18 17 3 -2 -3 -12 -13 -22z m-7380 -9 c-7 -7 -26 7
-26 19 0 6 6 6 15 -2 9 -7 13 -15 11 -17z m6135 17 c27 -15 24 -30 -6 -30 -18
0 -25 5 -25 20 0 23 4 24 31 10z m-11788 -30 c-3 -12 -8 -19 -11 -16 -5 6 5
36 12 36 2 0 2 -9 -1 -20z m14037 16 c0 -3 -4 -8 -10 -11 -5 -3 -10 -1 -10 4
0 6 5 11 10 11 6 0 10 -2 10 -4z m-7280 -26 c0 -5 -5 -10 -11 -10 -5 0 -7 5
-4 10 3 6 8 10 11 10 2 0 4 -4 4 -10z m-6210 -30 c0 -5 -6 -7 -14 -4 -10 4
-12 -2 -8 -21 3 -19 7 -23 13 -14 10 17 17 10 23 -24 l5 -27 -65 0 c-46 0 -64
4 -62 12 2 6 11 13 19 16 11 3 11 2 -1 -7 -12 -8 -8 -11 18 -11 17 0 33 3 33
8 6 33 5 53 -3 58 -6 4 -5 10 3 15 19 12 39 11 39 -1z m171 -10 c-13 -11 -18
-21 -12 -21 6 -1 16 -3 21 -4 6 -1 14 -3 20 -4 5 0 7 -8 4 -16 -3 -8 -25 -17
-52 -20 -26 -3 -64 -8 -84 -11 l-37 -6 9 33 c5 17 7 35 5 39 -3 4 3 10 13 12
14 4 18 0 18 -16 -1 -12 -5 -24 -11 -28 -6 -5 -3 -8 7 -8 10 0 18 9 20 22 2
18 10 23 36 24 19 1 39 7 45 13 6 6 13 11 17 11 3 -1 -6 -10 -19 -20z m82 0
c4 -15 0 -20 -14 -20 -21 0 -22 1 -13 24 8 22 21 20 27 -4z m1922 10 c3 -5 1
-10 -4 -10 -6 0 -11 5 -11 10 0 6 2 10 4 10 3 0 8 -4 11 -10z m-5825 -10 c0
-6 -23 -9 -52 -8 l-53 1 50 7 c28 4 51 8 53 8 1 1 2 -2 2 -8z m3523 -5 c-3 -9
-8 -14 -10 -11 -3 3 -2 9 2 15 9 16 15 13 8 -4z m567 -26 c0 -21 -20 -25 -37
-8 -17 17 6 52 24 37 7 -6 13 -19 13 -29z m4015 11 c11 -34 -16 -68 -29 -35
-3 8 -18 20 -32 26 -29 10 -24 24 11 31 28 6 43 -1 50 -22z m6753 -6 c-10 -10
-28 6 -28 24 0 15 1 15 17 -1 9 -9 14 -19 11 -23z m492 12 c0 -11 -3 -16 -6
-13 -4 3 -16 1 -27 -4 -23 -13 -42 7 -26 27 16 19 59 12 59 -10z m-15575 5
c-14 -13 -245 -25 -245 -13 0 6 48 11 117 11 64 1 119 4 122 6 2 3 7 5 10 5 3
0 1 -4 -4 -9z m48 2 c-7 -2 -19 -2 -25 0 -7 3 -2 5 12 5 14 0 19 -2 13 -5z
m60 0 c-7 -2 -21 -2 -30 0 -10 3 -4 5 12 5 17 0 24 -2 18 -5z m3564 -15 c-3
-8 -6 -5 -6 6 -1 11 2 17 5 13 3 -3 4 -12 1 -19z m2983 2 c-8 -5 -19 -10 -25
-10 -5 0 -3 5 5 10 8 5 20 10 25 10 6 0 3 -5 -5 -10z m-2830 -30 c0 -14 -14
-12 -28 2 -19 19 -14 30 8 18 11 -6 20 -15 20 -20z m354 18 c-5 -7 0 -9 14 -6
13 4 23 0 26 -8 4 -11 -8 -14 -62 -13 -37 0 -60 3 -52 6 8 3 19 12 23 19 4 8
19 14 33 14 17 0 23 -4 18 -12z m8226 -3 c0 -8 -4 -15 -10 -15 -5 0 -10 7 -10
15 0 8 5 15 10 15 6 0 10 -7 10 -15z m-12246 -17 c25 -39 48 -107 42 -123 -9
-24 -34 -6 -47 33 -6 21 -20 49 -30 64 -11 14 -19 31 -19 37 0 20 39 11 54
-11z m3609 15 c-7 -2 -19 -2 -25 0 -7 3 -2 5 12 5 14 0 19 -2 13 -5z m484 1
c-3 -3 -12 -4 -19 -1 -8 3 -5 6 6 6 11 1 17 -2 13 -5z m5402 -19 c13 -14 19
-25 14 -25 -14 0 -53 30 -53 41 0 15 14 10 39 -16z m381 15 c0 -5 -4 -10 -10
-10 -5 0 -10 5 -10 10 0 6 5 10 10 10 6 0 10 -4 10 -10z m4960 -25 c0 -30 -23
-38 -83 -26 -26 4 -47 5 -47 1 0 -10 -49 0 -56 11 -3 5 3 10 13 11 36 3 48 5
63 11 29 11 95 24 103 20 4 -2 7 -15 7 -28z m-10210 -6 c0 -25 -3 -29 -13 -20
-8 6 -17 8 -20 4 -9 -8 -9 10 -1 31 11 29 34 18 34 -15z m10717 -1 c-3 -7 -5
-2 -5 12 0 14 2 19 5 13 2 -7 2 -19 0 -25z m-15667 12 c0 -5 8 -10 18 -11 9 0
12 -3 5 -5 -6 -3 -24 2 -40 10 -26 14 -27 15 -5 16 12 0 22 -4 22 -10z m170
-7 c0 -10 -4 -14 -8 -8 -4 6 -11 13 -16 18 -5 4 -2 7 7 7 10 0 17 -8 17 -17z
m4658 -6 c5 -24 -15 -21 -21 4 -3 13 -1 19 6 16 7 -2 13 -11 15 -20z m4892 3
c0 -5 -4 -10 -10 -10 -5 0 -10 5 -10 10 0 6 5 10 10 10 6 0 10 -4 10 -10z
m4917 4 c-3 -3 -12 -4 -19 -1 -8 3 -5 6 6 6 11 1 17 -2 13 -5z m-10787 -8 c0
-3 -4 -8 -10 -11 -5 -3 -10 -1 -10 4 0 6 5 11 10 11 6 0 10 -2 10 -4z m620
-37 c0 -44 -14 -45 -24 -3 -6 23 4 43 22 44 1 0 2 -18 2 -41z m1990 31 c0 -5
-5 -10 -11 -10 -5 0 -7 5 -4 10 3 6 8 10 11 10 2 0 4 -4 4 -10z m-2174 -11 c3
-6 22 -9 40 -7 l34 4 -2 -71 c0 -38 -3 -56 -5 -39 -3 24 -10 33 -28 36 -32 7
-49 -6 -43 -30 7 -25 -8 -54 -16 -32 -12 34 -11 150 1 150 6 0 15 -5 19 -11z
m137 -9 c-8 -31 -23 -34 -23 -6 0 16 6 26 14 26 9 0 12 -7 9 -20z m3442 10 c3
-5 2 -10 -4 -10 -5 0 -13 5 -16 10 -3 6 -2 10 4 10 5 0 13 -4 16 -10z m-3628
-28 c1 -12 -1 -22 -5 -22 -5 0 -8 -21 -8 -47 1 -30 -4 -48 -12 -51 -10 -3 -13
9 -11 49 2 70 9 101 22 96 5 -1 12 -13 14 -25z m-2035 -35 l-11 -22 0 22 c-1
12 -4 30 -8 40 -7 17 -6 17 11 0 15 -14 16 -23 8 -40z m1871 32 c27 27 36 11
36 -59 0 -59 -3 -70 -18 -70 -13 0 -17 9 -16 47 0 37 -4 48 -17 51 -14 3 -17
-4 -15 -42 1 -25 7 -46 12 -46 14 0 -17 -20 -32 -20 -9 0 -13 23 -12 81 l1 80
25 -16 c18 -12 28 -14 36 -6z m-165 -71 c-1 -60 -2 -64 -5 -23 -2 28 -8 54
-14 60 -14 14 -11 35 6 35 12 0 15 -14 13 -72z m-3711 47 c0 -8 -4 -12 -9 -9
-4 3 -8 9 -8 15 0 5 4 9 8 9 5 0 9 -7 9 -15z m12423 -9 c0 -14 -29 -31 -38
-22 -2 3 -2 12 1 21 8 19 37 20 37 1z m113 7 c-7 -2 -21 -2 -30 0 -10 3 -4 5
12 5 17 0 24 -2 18 -5z m1067 -7 c0 -28 -29 -82 -59 -109 -17 -15 -32 -27 -34
-27 -2 0 -2 13 1 30 2 16 19 45 38 64 19 19 34 40 34 46 0 5 5 10 10 10 6 0
10 -6 10 -14z m-10232 -26 c-1 -16 -5 -30 -9 -30 -20 0 -39 14 -39 29 0 23 9
31 32 31 14 0 18 -7 16 -30z m852 -22 c0 -16 -4 -28 -9 -28 -13 0 -18 19 -13
53 6 35 22 17 22 -25z m6510 33 c17 -32 12 -43 -13 -27 -15 10 -27 12 -37 6
-19 -13 -30 -12 -30 0 0 6 6 10 14 10 8 0 16 7 20 15 8 21 33 19 46 -4z m1755
1 c0 -18 -20 -15 -23 4 -3 10 1 15 10 12 7 -3 13 -10 13 -16z m-8215 -38 c0
-8 -5 -12 -10 -9 -6 4 -8 11 -5 16 9 14 15 11 15 -7z m-4665 -4 c-8 -13 -35
-13 -55 0 -11 7 -5 10 23 10 23 0 36 -4 32 -10z m3782 -42 c-3 -7 -5 -2 -5 12
0 14 2 19 5 13 2 -7 2 -19 0 -25z m7341 20 c-3 -7 -12 -14 -21 -16 -12 -2 -15
1 -11 12 7 19 38 22 32 4z m-7068 -24 c0 -20 -7 -17 -20 6 -9 16 -8 18 5 14 8
-4 15 -12 15 -20z m9620 16 c0 -5 -4 -10 -10 -10 -5 0 -10 5 -10 10 0 6 5 10
10 10 6 0 10 -4 10 -10z m-13535 -10 c-3 -5 -17 -10 -30 -10 -13 0 -27 5 -30
10 -4 6 8 10 30 10 22 0 34 -4 30 -10z m8725 -5 c0 -8 -4 -15 -10 -15 -5 0
-10 7 -10 15 0 8 5 15 10 15 6 0 10 -7 10 -15z m-4382 -21 c8 -14 13 -14 32
-4 15 8 20 8 16 1 -4 -6 -2 -11 3 -11 6 0 11 5 11 11 0 8 5 8 15 -1 8 -7 21
-10 30 -7 23 10 26 -9 5 -33 -11 -12 -18 -26 -15 -29 2 -4 -17 -8 -43 -10 -26
-1 -55 -4 -64 -7 -16 -5 -18 2 -18 50 0 56 11 71 28 40z m-180 -9 c23 -17 92
-12 92 6 0 5 7 9 15 9 11 0 15 -11 15 -42 0 -67 1 -67 -132 -58 -9 1 -18 10
-21 21 -3 10 -11 19 -17 19 -7 0 -10 -7 -6 -15 3 -8 1 -15 -4 -15 -6 0 -9 -6
-7 -12 1 -9 -15 -14 -51 -16 -37 -2 -52 0 -47 8 3 6 11 8 16 5 8 -6 14 25 10
49 -1 4 11 6 26 3 15 -4 23 -4 16 -1 -10 4 -10 10 0 25 14 23 27 25 27 4 0 -8
7 -15 15 -15 8 0 15 9 15 20 0 24 8 25 38 5z m9952 1 c0 -8 -4 -17 -9 -21 -12
-7 -24 12 -16 25 9 15 25 12 25 -4z m1098 -8 c-2 -16 -11 -24 -28 -26 -14 -2
-29 -7 -35 -11 -5 -4 -18 0 -27 10 -20 21 -13 28 36 40 52 12 58 11 54 -13z
m-10618 -25 c-1 -25 -2 -26 -14 -10 -7 9 -18 17 -25 17 -6 0 -11 5 -11 10 0 6
11 10 25 10 21 0 25 -5 25 -27z m40 7 c0 -11 -4 -20 -10 -20 -5 0 -10 9 -10
20 0 11 5 20 10 20 6 0 10 -9 10 -20z m1700 10 c0 -5 -2 -10 -4 -10 -3 0 -8 5
-11 10 -3 6 -1 10 4 10 6 0 11 -4 11 -10z m-60 -10 c0 -5 -2 -10 -4 -10 -3 0
-8 5 -11 10 -3 6 -1 10 4 10 6 0 11 -4 11 -10z m8810 -4 c0 -8 -4 -18 -10 -21
-5 -3 -10 -4 -10 -1 0 2 -3 11 -6 20 -4 11 -1 16 10 16 9 0 16 -6 16 -14z
m-10558 -13 c13 -12 18 -13 18 -3 0 7 3 11 6 8 12 -13 3 -23 -24 -24 -21 -1
-28 3 -29 17 -2 23 5 24 29 2z m10464 2 c11 -27 -1 -39 -19 -21 -17 17 -15 36
4 36 5 0 12 -7 15 -15z m1154 -5 c0 -11 -4 -20 -9 -20 -14 0 -23 18 -16 30 10
17 25 11 25 -10z m-7646 -56 c4 -10 1 -14 -6 -12 -15 5 -23 28 -10 28 5 0 13
-7 16 -16z m-3854 -15 c0 -11 -5 -17 -10 -14 -6 4 -8 10 -5 15 3 4 -1 11 -7
13 -8 3 -6 6 5 6 11 1 17 -6 17 -20z m-360 -19 c-6 -11 -12 -20 -14 -20 -2 0
-2 9 1 20 3 11 9 20 15 20 5 0 4 -9 -2 -20z m240 5 c0 -8 -4 -15 -9 -15 -5 0
-11 7 -15 15 -3 9 0 15 9 15 8 0 15 -7 15 -15z m-432 -12 c-4 -22 -22 -20 -26
1 -2 10 3 16 13 16 10 0 15 -7 13 -17z m252 -10 c0 -17 -8 -16 -26 1 -12 13
-12 15 6 13 11 -1 20 -7 20 -14z m10864 -38 c-5 -12 -14 -15 -32 -10 -13 3
-38 9 -55 12 -30 6 -29 7 24 23 58 19 76 11 63 -25z m-4339 27 c6 -4 17 -16
25 -26 14 -18 13 -19 -15 -12 -42 11 -60 27 -43 37 16 11 20 11 33 1z m-6598
-24 c-3 -8 -6 -5 -6 6 -1 11 2 17 5 13 3 -3 4 -12 1 -19z m-177 -13 c-5 -6 -7
-15 -3 -18 3 -4 1 -7 -5 -7 -6 0 -13 -10 -15 -22 -3 -13 -3 -3 -2 22 2 25 4
46 4 47 1 1 8 0 16 -3 11 -5 13 -10 5 -19z m4234 10 c24 -18 21 -20 -26 -29
-24 -4 -38 -3 -38 4 0 5 -8 10 -17 10 -15 0 -16 2 -3 10 20 13 33 13 25 0 -3
-5 -1 -10 4 -10 6 0 11 7 11 15 0 19 19 19 44 0z m-4172 -31 c2 -19 0 -38 -5
-41 -12 -8 -17 0 -24 41 -4 28 -2 36 10 36 10 0 16 -12 19 -36z m10908 32 c0
-3 -4 -8 -10 -11 -5 -3 -10 -1 -10 4 0 6 5 11 10 11 6 0 10 -2 10 -4z m-10425
-16 c3 -5 1 -10 -4 -10 -6 0 -11 5 -11 10 0 6 2 10 4 10 3 0 8 -4 11 -10z
m5899 -13 c24 -17 17 -50 -11 -52 -16 -1 -23 5 -26 24 -8 42 5 51 37 28z
m-2394 -57 c0 -5 -2 -10 -4 -10 -3 0 -8 5 -11 10 -3 6 -1 10 4 10 6 0 11 -4
11 -10z m7064 -83 c-3 -9 -13 -17 -21 -17 -8 0 -12 4 -9 8 3 5 -18 7 -47 6
-47 -3 -49 -3 -22 7 84 30 112 29 99 -4z m2526 -952 l44 -45 -46 -47 c-26 -26
-51 -44 -54 -40 -4 4 10 25 31 47 l39 40 -37 38 c-20 21 -37 41 -37 45 0 16
18 4 60 -38z m-15184 -56 c4 -7 0 -9 -14 -5 -26 9 -45 -21 -30 -47 7 -13 16
-16 31 -11 17 5 19 4 10 -6 -7 -8 -22 -10 -37 -6 -45 11 -31 86 15 86 10 0 21
-5 25 -11z m392 4 c-22 -5 -24 -23 -3 -23 10 0 15 -10 15 -30 0 -38 -19 -40
-21 -2 l-2 27 -4 -27 c-2 -16 -8 -28 -13 -28 -9 0 -17 47 -12 73 2 11 12 17
30 16 17 -1 21 -3 10 -6z m203 -7 c-9 -11 -8 -15 4 -20 10 -3 15 -15 13 -28
-4 -28 -51 -33 -56 -6 -4 19 25 68 40 68 6 0 6 -5 -1 -14z m476 -31 c7 -21 10
-41 7 -44 -4 -3 -9 0 -11 7 -5 14 -43 16 -43 2 0 -5 -4 -10 -9 -10 -6 0 -3 20
6 45 18 54 31 54 50 0z m801 33 c29 -29 7 -78 -35 -78 -21 0 -23 5 -23 45 0
40 2 45 23 45 13 0 28 -5 35 -12z m-578 -8 c0 -5 9 -10 20 -10 15 0 20 -7 20
-25 0 -14 5 -25 10 -25 6 0 10 11 10 25 0 14 5 25 10 25 6 0 10 -14 10 -30 0
-30 -1 -30 -47 -28 -41 3 -48 6 -54 28 l-7 25 -1 -27 c-1 -35 -21 -37 -21 -2
0 14 -4 23 -10 19 -5 -3 -10 -15 -10 -26 0 -10 -4 -19 -10 -19 -5 0 -10 7 -10
15 0 8 -9 15 -20 15 -25 0 -26 -17 -2 -24 10 -3 6 -4 -8 -3 -20 2 -25 7 -25
27 0 24 3 25 60 28 33 1 62 7 63 12 5 13 22 13 22 0z m-1273 -57 c-3 -10 -5
-2 -5 17 0 19 2 27 5 18 2 -10 2 -26 0 -35z m71 30 c2 -8 -5 -13 -17 -13 -28
0 -27 -17 2 -23 19 -4 18 -4 -6 -6 -29 -1 -43 18 -33 45 7 18 47 15 54 -3z
m61 -15 c-1 -28 -2 -30 -7 -10 -4 13 -11 23 -17 23 -5 0 -13 -10 -17 -23 -5
-20 -6 -18 -7 10 -1 28 2 32 24 32 22 0 25 -4 24 -32z m45 17 c-19 -15 -19
-15 0 -30 19 -15 19 -15 -1 -15 -27 0 -36 14 -28 40 4 12 15 20 28 20 20 0 20
0 1 -15z m46 -5 c0 -18 3 -19 20 -8 18 12 19 13 2 20 -13 6 -11 7 8 5 19 -1
26 -8 28 -29 3 -27 1 -28 -37 -26 -38 1 -41 3 -41 30 0 15 5 28 10 28 6 0 10
-9 10 -20z m210 13 c-30 -12 -34 -43 -5 -43 7 0 16 11 19 25 4 17 13 25 28 25
21 0 21 0 2 -15 -18 -14 -18 -15 -1 -29 17 -13 14 -14 -28 -14 -31 0 -48 4
-52 14 -9 23 5 44 29 43 15 0 18 -3 8 -6z m90 -23 c0 -16 -4 -30 -10 -30 -5 0
-10 14 -10 30 0 17 5 30 10 30 6 0 10 -13 10 -30z m138 -2 c2 -16 -1 -28 -7
-28 -6 0 -11 12 -11 26 0 14 -4 23 -10 19 -5 -3 -10 -15 -10 -26 0 -10 -4 -19
-10 -19 -5 0 -10 14 -10 31 0 27 3 30 28 27 21 -2 28 -9 30 -30z m422 15 c1
-17 1 -17 14 0 20 26 26 21 15 -13 -6 -16 -15 -30 -20 -30 -9 0 -29 33 -29 49
0 19 20 12 20 -6z m370 -13 c0 -25 -4 -30 -25 -30 -29 0 -34 24 -7 39 14 9 13
10 -10 11 -23 0 -28 -4 -28 -25 0 -14 -4 -25 -10 -25 -5 0 -10 14 -10 30 0 29
2 30 45 30 43 0 45 -1 45 -30z m508 -2 c3 -24 0 -28 -22 -28 -34 0 -41 16 -14
35 l23 16 -30 -3 c-21 -2 -31 -10 -36 -28 -6 -23 -7 -22 -8 8 -1 33 -1 33 42
30 38 -3 42 -6 45 -30z m102 2 c0 -38 -19 -40 -21 -2 l-2 27 -4 -27 c-5 -35
-23 -37 -23 -2 0 14 -4 23 -10 19 -5 -3 -10 -15 -10 -26 0 -10 -4 -19 -10 -19
-5 0 -10 14 -10 30 0 29 2 30 45 30 43 0 45 -1 45 -30z m64 14 c13 -33 6 -44
-24 -44 -36 0 -42 29 -8 38 21 5 21 6 2 13 -18 7 -18 8 2 8 12 1 25 -6 28 -15z
m-2001 -416 c115 -35 163 -178 99 -299 -22 -43 -38 -59 -81 -81 -49 -26 -62
-28 -162 -28 l-109 0 0 210 0 210 106 0 c59 0 125 -5 147 -12z m1802 2 c49
-19 75 -58 75 -114 0 -94 -57 -146 -159 -146 l-51 0 0 -75 0 -75 -50 0 -50 0
0 210 0 210 104 0 c58 0 116 -4 131 -10z m1405 -30 l0 -40 -60 0 -60 0 0 -170
0 -170 -55 0 -55 0 0 170 0 169 -57 3 -58 3 -3 38 -3 37 175 0 176 0 0 -40z
m-590 -35 c0 -43 1 -45 30 -45 28 0 30 -3 30 -35 0 -32 -2 -35 -30 -35 l-30 0
0 -79 c0 -82 9 -98 46 -84 13 5 15 -1 12 -33 l-3 -39 -51 -3 c-86 -5 -113 37
-114 176 0 55 -2 62 -20 62 -16 0 -20 7 -20 35 0 28 4 35 19 35 15 0 21 8 23
32 3 28 8 34 43 44 63 19 65 18 65 -31z m-1809 -64 c29 -29 29 -30 29 -155 l0
-126 -50 0 -50 0 0 104 c0 82 -3 108 -16 120 -20 20 -33 20 -56 -1 -15 -14
-18 -32 -18 -120 l0 -103 -55 0 -55 0 0 150 0 150 55 0 c31 0 55 -4 55 -10 0
-6 12 -4 28 4 46 26 99 20 133 -13z m309 13 c39 -23 62 -67 63 -122 l2 -47
-97 -3 c-54 -1 -98 -7 -98 -12 0 -6 9 -19 21 -31 17 -17 30 -20 67 -17 26 3
55 8 65 12 14 7 17 3 17 -28 0 -44 -23 -56 -109 -56 -69 0 -117 27 -143 80
-38 75 -7 186 62 222 43 22 113 23 150 2z m1016 -18 l34 -34 0 -121 0 -121
-45 0 c-34 0 -45 4 -45 16 0 13 -5 12 -26 -5 -59 -47 -149 -13 -160 59 -10 68
48 119 136 120 14 0 31 4 39 9 13 8 13 12 1 26 -11 13 -25 16 -65 12 -27 -2
-58 -8 -67 -12 -15 -6 -18 -2 -18 29 0 31 4 36 33 45 17 5 58 10 91 10 53 1
61 -2 92 -33z m304 -11 c0 -44 0 -44 -29 -39 -21 5 -34 1 -50 -15 -18 -18 -21
-33 -21 -116 l0 -95 -50 0 -50 0 0 150 0 150 50 0 c28 0 50 -5 50 -11 0 -5 10
-3 22 5 12 9 35 16 50 16 26 0 28 -2 28 -45z m1490 27 c103 -51 102 -230 -2
-283 -44 -23 -127 -25 -166 -5 -57 30 -76 62 -80 134 -3 57 0 72 20 102 30 45
81 70 143 70 28 0 66 -8 85 -18z m-3650 -96 c0 -82 3 -108 16 -120 19 -20 35
-20 60 -2 16 12 19 29 22 120 l4 106 49 0 49 0 0 -150 0 -150 -50 0 c-39 0
-50 4 -50 16 0 13 -5 12 -26 -5 -17 -13 -41 -21 -66 -21 -88 0 -108 36 -108
195 l0 115 50 0 50 0 0 -104z m1042 87 c22 -20 23 -41 1 -65 -30 -33 -103 -12
-103 30 0 45 66 68 102 35z m1984 -73 c10 -49 20 -90 24 -90 3 0 16 41 29 90
l23 90 49 0 c45 0 49 -2 55 -27 3 -16 14 -59 24 -98 l17 -70 12 60 c7 33 16
76 20 95 7 34 9 35 55 38 37 2 47 0 44 -10 -2 -7 -22 -75 -44 -150 l-39 -138
-52 0 c-59 0 -49 -15 -86 130 l-14 55 -12 -45 c-7 -25 -18 -65 -24 -90 l-13
-45 -51 -3 -51 -3 -15 48 c-24 76 -67 231 -67 242 0 6 21 11 49 11 l48 0 19
-90z m-1984 -137 c22 -20 23 -41 1 -65 -30 -33 -103 -12 -103 30 0 45 66 68
102 35z m-1295 -343 c1 -39 -3 -70 -8 -70 -5 0 -9 32 -9 70 0 91 14 91 17 0z
m533 1 l0 -69 -36 1 c-46 2 -63 25 -46 61 8 18 19 26 37 26 20 0 25 5 25 25 0
14 5 25 10 25 6 0 10 -30 10 -69z m970 -1 c0 -40 -4 -70 -10 -70 -6 0 -10 30
-10 70 0 40 4 70 10 70 6 0 10 -30 10 -70z m3200 0 c0 -40 -4 -70 -10 -70 -6
0 -10 30 -10 70 0 40 4 70 10 70 6 0 10 -30 10 -70z m443 3 c-7 -91 -13 -93
-13 -5 0 40 4 72 9 72 5 0 6 -30 4 -67z m-5379 35 c14 -23 -3 -52 -33 -56 -15
-2 -21 -10 -21 -28 0 -13 -4 -24 -10 -24 -6 0 -10 29 -10 66 l0 65 31 -3 c18
-2 37 -11 43 -20z m375 -22 c28 -64 34 -86 22 -86 -5 0 -13 9 -16 20 -4 13
-15 20 -32 20 -16 0 -27 -7 -30 -20 -3 -11 -10 -20 -15 -20 -6 0 -8 6 -6 13 3
6 13 36 23 65 11 28 22 52 27 52 4 0 16 -20 27 -44z m281 34 c0 -5 -4 -10 -10
-10 -5 0 -10 5 -10 10 0 6 5 10 10 10 6 0 10 -4 10 -10z m1383 3 c-16 -3 -23
-11 -23 -29 0 -18 6 -24 23 -25 l22 -2 -22 -4 c-18 -3 -23 -11 -23 -34 0 -16
-4 -29 -10 -29 -6 0 -10 28 -10 65 l0 65 33 -1 c23 -1 26 -3 10 -6z m1097 -3
c0 -5 -4 -10 -10 -10 -5 0 -10 5 -10 10 0 6 5 10 10 10 6 0 10 -4 10 -10z
m800 0 c0 -5 -4 -10 -10 -10 -5 0 -10 5 -10 10 0 6 5 10 10 10 6 0 10 -4 10
-10z m140 0 c0 -5 -4 -10 -10 -10 -5 0 -10 5 -10 10 0 6 5 10 10 10 6 0 10 -4
10 -10z m460 0 c0 -5 -4 -10 -10 -10 -5 0 -10 5 -10 10 0 6 5 10 10 10 6 0 10
-4 10 -10z m900 -5 c-7 -9 -15 -13 -17 -11 -7 7 7 26 19 26 6 0 6 -6 -2 -15z
m90 5 c0 -5 -4 -10 -10 -10 -5 0 -10 5 -10 10 0 6 5 10 10 10 6 0 10 -4 10
-10z m-5080 -15 c0 -8 6 -15 13 -16 10 0 10 -2 0 -6 -7 -2 -13 -20 -13 -38 0
-18 6 -36 13 -39 6 -3 3 -5 -8 -3 -15 2 -21 12 -25 42 -3 22 -4 48 -2 58 5 21
22 23 22 2z m4258 -16 c15 -1 15 -2 0 -6 -12 -3 -18 -14 -18 -33 0 -17 7 -33
18 -39 15 -9 15 -10 -5 -11 -20 0 -23 5 -23 40 0 25 -5 40 -12 41 -10 0 -10 2
0 6 6 2 13 12 13 21 1 15 2 15 6 0 2 -10 12 -19 21 -19z m780 0 c15 -1 15 -2
0 -6 -12 -3 -18 -14 -18 -33 0 -17 7 -33 18 -39 15 -9 15 -10 -5 -11 -20 0
-23 5 -23 40 0 25 -5 40 -12 41 -10 0 -10 2 0 6 6 2 13 12 13 21 1 15 2 15 6
0 2 -10 12 -19 21 -19z m-5400 -47 l3 -43 -33 3 c-25 2 -34 8 -36 25 -3 17 3
24 22 29 14 3 26 11 26 16 0 6 -9 8 -20 5 -11 -3 -20 -1 -20 5 0 5 12 8 28 6
24 -3 27 -7 30 -46z m44 11 c2 -26 8 -38 18 -38 10 0 16 12 18 38 4 52 22 46
22 -8 0 -44 0 -45 -34 -45 -37 0 -46 12 -46 61 0 42 18 36 22 -8z m396 30
c-10 -3 -21 -21 -26 -46 l-10 -42 -1 45 c-1 43 1 46 27 47 15 0 19 -1 10 -4z
m90 -20 c3 -20 -1 -23 -28 -23 -21 0 -30 -4 -27 -12 2 -7 16 -13 30 -13 14 1
23 -3 21 -7 -3 -4 -16 -8 -30 -8 -32 0 -51 38 -34 69 16 30 64 26 68 -6z m42
-18 c0 -25 -4 -45 -10 -45 -5 0 -10 20 -10 45 0 25 5 45 10 45 6 0 10 -20 10
-45z m198 33 c22 -22 13 -38 -19 -38 -20 0 -29 -4 -26 -12 2 -7 14 -13 26 -12
11 0 21 -3 21 -8 0 -12 -44 -10 -58 4 -26 26 -7 78 28 78 9 0 21 -5 28 -12z
m82 3 c0 -5 -9 -7 -20 -4 -27 7 -26 -11 2 -29 28 -19 18 -48 -17 -48 -14 0
-25 4 -25 9 0 5 8 7 19 4 30 -8 35 16 7 29 -25 11 -33 28 -19 41 10 10 53 8
53 -2z m130 0 c0 -5 -9 -7 -20 -4 -13 4 -20 0 -20 -10 0 -8 9 -17 21 -20 31
-8 21 -41 -14 -45 -15 -2 -27 1 -27 6 0 6 9 8 20 5 14 -4 20 0 20 11 0 9 -6
16 -14 16 -19 0 -29 17 -22 35 6 16 56 21 56 6z m88 -18 c3 -20 -1 -23 -28
-23 -21 0 -30 -4 -27 -12 2 -7 16 -13 30 -13 14 1 23 -3 21 -7 -3 -4 -16 -8
-30 -8 -32 0 -51 38 -34 69 16 30 64 26 68 -6z m94 -10 c2 -26 8 -38 18 -38
10 0 16 12 18 38 4 52 22 47 22 -6 0 -43 -1 -44 -32 -45 -38 -1 -48 11 -48 56
0 45 18 40 22 -5z m156 -10 c2 -26 -1 -43 -7 -43 -6 0 -11 18 -11 41 0 33 -3
40 -17 37 -13 -2 -19 -14 -21 -41 -4 -52 -22 -47 -22 7 l0 44 38 -1 c36 -2 37
-3 40 -44z m100 20 c3 -20 -1 -23 -28 -23 -21 0 -30 -4 -27 -12 2 -7 16 -13
30 -13 15 1 23 -3 18 -8 -13 -13 -53 -4 -64 15 -8 12 -7 24 1 43 16 34 65 33
70 -2z m136 11 c3 -9 6 -28 6 -44 0 -26 -3 -28 -37 -27 -51 3 -58 32 -12 51
31 13 25 34 -7 22 -9 -3 -12 -1 -9 4 10 16 52 12 59 -6z m194 4 c7 -7 12 -21
12 -33 0 -12 -5 -26 -12 -33 -7 -7 -21 -12 -33 -12 -12 0 -26 5 -33 12 -7 7
-12 21 -12 33 0 12 5 26 12 33 7 7 21 12 33 12 12 0 26 -5 33 -12z m82 3 c0
-5 -9 -7 -20 -4 -28 7 -25 -12 6 -32 20 -13 23 -19 13 -31 -12 -15 -59 -20
-59 -5 0 4 11 6 25 3 32 -6 32 11 -1 33 -20 13 -23 19 -13 31 13 15 49 19 49
5z m197 -3 c-11 -6 -17 -22 -17 -43 0 -19 -4 -35 -10 -35 -5 0 -10 20 -10 44
0 40 2 44 27 44 21 0 23 -2 10 -10z m91 0 c22 -22 13 -38 -19 -38 -20 0 -29
-4 -26 -12 2 -7 16 -13 30 -13 15 1 23 -3 18 -8 -13 -13 -53 -4 -64 15 -25 39
29 88 61 56z m160 -35 c2 -26 -1 -43 -7 -43 -6 0 -11 18 -11 40 0 28 -4 40
-14 40 -16 0 -25 -20 -27 -58 -1 -19 -4 -15 -8 13 -8 53 -35 55 -39 3 -4 -53
-22 -48 -22 6 l0 43 63 -1 62 -1 3 -42z m90 35 c22 -22 13 -38 -19 -38 -36 0
-35 -21 2 -32 22 -6 22 -7 -5 -5 -38 3 -54 27 -38 61 12 28 40 34 60 14z m102
-7 c13 -25 13 -71 0 -71 -5 0 -10 15 -10 34 0 62 -45 55 -53 -7 -3 -25 -4 -22
-5 13 -2 44 -1 46 28 48 20 2 32 -4 40 -17z m100 -13 l12 -33 15 35 c9 19 18
30 20 24 7 -22 -45 -124 -63 -124 -16 0 -16 1 1 14 17 12 18 17 6 52 -7 22
-15 45 -17 52 -3 6 -1 12 4 12 6 0 15 -15 22 -32z m180 24 c0 -5 -10 -8 -22
-8 -19 1 -23 -4 -23 -29 0 -25 4 -30 23 -29 12 0 22 -3 22 -8 0 -16 -52 -4
-63 14 -17 26 7 68 38 68 14 0 25 -4 25 -8z m100 -12 c15 -29 3 -59 -26 -66
-30 -8 -54 11 -54 40 0 46 59 64 80 26z m146 -30 l2 -45 -7 40 c-8 53 -35 55
-39 3 -4 -51 -22 -49 -22 2 0 45 -26 58 -34 18 -3 -13 -7 -32 -9 -43 -3 -11
-5 1 -6 26 l-1 46 58 -1 57 -1 1 -45z m54 5 c0 -25 -4 -45 -10 -45 -5 0 -10
20 -10 45 0 25 5 45 10 45 6 0 10 -20 10 -45z m88 33 c23 -23 13 -38 -24 -38
-32 0 -35 -2 -23 -16 7 -8 21 -13 31 -11 10 3 18 1 18 -4 0 -13 -44 -11 -58 3
-26 26 -7 78 28 78 9 0 21 -5 28 -12z m98 1 c16 -13 19 -79 4 -79 -5 0 -10 15
-10 34 0 62 -45 55 -53 -7 -3 -25 -4 -22 -5 13 -2 43 0 46 24 48 15 1 33 -3
40 -9z m80 -22 c-32 -42 -32 -45 2 -50 19 -3 14 -4 -16 -6 l-43 -1 26 38 25
37 -22 7 c-18 5 -14 6 15 7 l38 1 -25 -33z m102 -14 c3 -41 3 -41 -30 -40 -26
2 -34 7 -36 24 -3 17 3 24 22 29 33 8 34 28 1 22 -13 -3 -22 -1 -19 4 3 5 18
8 32 6 24 -3 27 -8 30 -45z m92 6 c0 -33 3 -40 18 -37 12 2 18 14 20 41 4 52
22 47 22 -7 l0 -44 -37 1 c-37 2 -38 3 -41 45 -2 25 1 42 7 42 6 0 11 -18 11
-41z m158 -6 c2 -26 -1 -43 -7 -43 -6 0 -11 18 -11 41 0 33 -3 40 -17 37 -13
-2 -19 -14 -21 -41 -4 -52 -22 -47 -22 7 l0 44 38 -1 c36 -2 37 -3 40 -44z
m96 15 l14 -33 12 33 c7 17 16 32 22 32 5 0 8 -3 6 -7 -2 -5 -10 -25 -18 -45
-8 -21 -18 -38 -23 -38 -8 0 -37 61 -37 80 0 19 10 10 24 -22z m86 -13 c0 -25
-4 -45 -10 -45 -5 0 -10 20 -10 45 0 25 5 45 10 45 6 0 10 -20 10 -45z m88 -1
c3 -40 3 -41 -30 -40 -46 1 -51 32 -7 50 31 13 25 34 -6 22 -8 -3 -15 -1 -15
5 0 6 12 9 28 7 24 -3 27 -8 30 -44z m47 -11 c-8 -68 -11 -73 -33 -73 -16 1
-16 1 1 11 13 8 17 23 17 64 0 34 4 55 11 55 8 0 9 -18 4 -57z m93 45 c23 -23
13 -38 -23 -38 -27 0 -33 -3 -28 -16 4 -10 14 -14 30 -11 16 3 21 1 14 -6 -5
-5 -21 -7 -35 -3 -44 11 -31 86 14 86 9 0 21 -5 28 -12z m140 0 c22 -22 13
-38 -19 -38 -20 0 -29 -4 -26 -12 2 -7 14 -13 26 -12 11 0 21 -3 21 -8 0 -12
-44 -10 -58 4 -26 26 -7 78 28 78 9 0 21 -5 28 -12z m82 3 c0 -5 -9 -7 -20 -4
-28 7 -25 -12 6 -32 20 -13 23 -19 13 -31 -12 -15 -59 -20 -59 -5 0 4 11 6 25
3 32 -6 32 11 -1 33 -20 13 -23 19 -13 31 13 15 49 19 49 5z m103 -13 c8 -12
7 -24 -1 -43 -10 -22 -18 -26 -37 -22 -21 3 -25 0 -25 -19 0 -13 -4 -24 -10
-24 -6 0 -10 28 -10 64 l0 64 36 -1 c22 -1 41 -9 47 -19z m47 -23 c0 -25 -4
-45 -10 -45 -5 0 -10 20 -10 45 0 25 5 45 10 45 6 0 10 -20 10 -45z m57 33
c-11 -6 -17 -22 -17 -43 0 -19 -4 -35 -10 -35 -5 0 -10 20 -10 44 0 40 2 44
27 44 21 0 23 -2 10 -10z m48 -36 c-8 -53 -15 -52 -15 2 0 30 4 45 10 41 6 -4
9 -22 5 -43z m107 11 c2 -26 8 -38 18 -38 10 0 16 12 18 38 4 52 22 47 22 -7
l0 -44 -37 1 c-37 2 -38 3 -41 45 -2 23 1 42 7 42 5 0 11 -17 13 -37z m146
-11 l3 -43 -33 3 c-25 2 -34 8 -36 25 -3 17 3 24 22 29 14 3 26 11 26 16 0 6
-9 8 -20 5 -11 -3 -20 -1 -20 5 0 5 12 8 28 6 24 -3 27 -7 30 -46z m136 16
l14 -33 12 33 c10 28 31 45 29 25 -1 -22 -56 -118 -69 -122 -11 -3 -10 0 3 13
21 21 20 18 2 63 -8 19 -15 39 -15 44 0 18 10 8 24 -23z m199 10 c8 -12 7 -24
-1 -43 -10 -22 -18 -26 -37 -22 -21 3 -25 0 -25 -19 0 -13 -4 -24 -10 -24 -6
0 -10 28 -10 64 l0 64 36 -1 c22 -1 41 -9 47 -19z m91 16 c19 -7 21 -55 4 -72
-18 -18 -56 -14 -68 7 -14 27 -13 37 6 55 16 17 33 20 58 10z m106 -39 c0 -25
-4 -45 -10 -45 -5 0 -10 20 -10 45 0 25 5 45 10 45 6 0 10 -20 10 -45z m100 0
c0 -25 -4 -45 -10 -45 -5 0 -10 20 -10 45 0 25 5 45 10 45 6 0 10 -20 10 -45z
m90 37 c0 -5 -10 -8 -22 -8 -19 1 -23 -4 -23 -29 0 -25 4 -30 23 -29 12 0 22
-3 22 -8 0 -16 -52 -4 -63 14 -17 26 7 68 38 68 14 0 25 -4 25 -8z m84 2 c19
-7 21 -55 4 -72 -18 -18 -56 -14 -68 7 -14 27 -13 37 6 55 16 17 33 20 58 10z
m169 -16 c8 -12 7 -24 -1 -43 -10 -22 -18 -26 -37 -22 -21 3 -25 0 -25 -19 0
-13 -4 -24 -10 -24 -6 0 -10 28 -10 64 l0 64 36 -1 c22 -1 41 -9 47 -19z m95
-25 c3 -41 3 -41 -30 -40 -26 2 -34 7 -36 24 -3 17 3 24 22 29 33 8 34 28 1
22 -13 -3 -22 -1 -19 4 3 5 18 8 32 6 24 -3 27 -8 30 -45z m59 35 c-11 -6 -17
-22 -17 -43 0 -19 -4 -35 -10 -35 -5 0 -10 20 -10 44 0 40 2 44 27 44 21 0 23
-2 10 -10z m91 -36 l3 -43 -33 3 c-25 2 -34 8 -36 25 -3 17 3 24 22 29 14 3
26 11 26 16 0 6 -9 8 -20 5 -11 -3 -20 -1 -20 5 0 5 12 8 28 6 24 -3 27 -7 30
-46z m-5578 -252 c0 -40 -4 -70 -10 -70 -6 0 -10 30 -10 70 0 40 4 70 10 70 6
0 10 -30 10 -70z m460 2 c0 -66 -1 -68 -26 -70 -33 -3 -54 14 -54 42 0 28 18
46 47 46 18 0 23 6 23 25 0 14 2 25 5 25 3 0 5 -31 5 -68z m250 -3 l0 -70 -37
3 c-33 3 -38 7 -41 31 -4 33 13 57 39 57 14 0 19 7 19 25 0 14 5 25 10 25 6 0
10 -30 10 -71z m438 64 c-20 -5 -25 -43 -5 -44 10 0 10 -2 0 -6 -8 -2 -13 -22
-13 -44 0 -53 -20 -50 -21 4 -2 73 8 98 40 96 13 -1 13 -2 -1 -6z m322 -63 c0
-40 -4 -70 -10 -70 -6 0 -10 30 -10 70 0 40 4 70 10 70 6 0 10 -30 10 -70z
m1223 63 c-7 -2 -13 -13 -13 -24 0 -10 6 -19 13 -20 10 0 10 -2 0 -6 -8 -2
-13 -22 -13 -44 0 -21 -4 -39 -10 -39 -5 0 -10 18 -10 40 0 25 -5 40 -12 41
-10 0 -10 2 0 6 6 2 12 13 12 22 0 22 9 31 29 30 10 0 12 -2 4 -6z m770 0 c-7
-2 -13 -13 -13 -24 0 -10 6 -19 13 -20 10 0 10 -2 0 -6 -8 -2 -13 -22 -13 -44
0 -21 -4 -39 -10 -39 -5 0 -10 18 -10 40 0 25 -5 40 -12 41 -10 0 -10 2 0 6 6
2 12 13 12 22 0 22 9 31 29 30 10 0 12 -2 4 -6z m1047 -63 c0 -40 -4 -70 -10
-70 -6 0 -10 30 -10 70 0 40 4 70 10 70 6 0 10 -30 10 -70z m-4140 45 c-7 -9
-15 -13 -17 -11 -7 7 7 26 19 26 6 0 6 -6 -2 -15z m1060 5 c0 -5 -4 -10 -10
-10 -5 0 -10 5 -10 10 0 6 5 10 10 10 6 0 10 -4 10 -10z m90 0 c0 -5 -4 -10
-10 -10 -5 0 -10 5 -10 10 0 6 5 10 10 10 6 0 10 -4 10 -10z m3230 6 c0 -2 -7
-9 -15 -16 -13 -11 -14 -10 -9 4 5 14 24 23 24 12z m-2610 -21 c0 -8 6 -15 13
-16 10 0 10 -2 0 -6 -7 -2 -13 -20 -13 -38 0 -18 6 -36 13 -39 6 -3 3 -5 -8
-3 -15 2 -21 12 -25 42 -3 22 -4 48 -2 58 5 21 22 23 22 2z m850 0 c0 -8 6
-15 13 -16 10 0 10 -2 0 -6 -7 -2 -13 -20 -13 -38 0 -18 6 -36 13 -39 6 -3 3
-5 -8 -3 -15 2 -21 12 -25 42 -3 22 -4 48 -2 58 5 21 22 23 22 2z m628 -16
c15 -1 15 -2 0 -6 -12 -3 -18 -14 -18 -33 0 -17 7 -33 18 -39 15 -9 15 -10 -5
-11 -20 0 -23 5 -23 40 0 25 -5 40 -12 41 -10 0 -10 2 0 6 6 2 13 12 13 21 1
15 2 15 6 0 2 -10 12 -19 21 -19z m-4211 -31 l11 -33 13 33 c11 27 29 44 29
27 0 -15 -34 -85 -41 -85 -8 0 -39 64 -39 81 0 22 18 6 27 -23z m131 20 c22
-22 13 -38 -19 -38 -20 0 -29 -4 -26 -12 2 -7 14 -13 26 -12 11 0 21 -3 21 -8
0 -12 -44 -10 -58 4 -26 26 -7 78 28 78 9 0 21 -5 28 -12z m100 0 c14 -14 16
-78 3 -78 -6 0 -11 17 -13 38 -2 25 -8 37 -18 37 -10 0 -16 -12 -18 -37 -4
-53 -22 -47 -22 7 0 43 1 45 28 45 15 0 33 -5 40 -12z m112 -41 c0 -29 -5 -58
-12 -65 -13 -13 -68 -17 -68 -4 0 4 12 8 27 7 36 0 42 23 6 27 -22 2 -29 9
-31 31 -4 37 13 57 49 57 28 0 29 -1 29 -53z m90 34 c5 -11 10 -31 10 -44 0
-22 -4 -25 -37 -24 -51 3 -58 32 -12 51 31 13 25 34 -6 22 -8 -3 -15 -1 -15 4
0 18 49 10 60 -9z m68 8 c-12 -6 -18 -22 -18 -44 0 -19 -4 -35 -10 -35 -5 0
-10 20 -10 45 0 42 2 45 28 45 23 -1 24 -2 10 -11z m180 -37 l3 -43 -33 3
c-25 2 -34 8 -36 25 -3 17 3 24 22 29 14 3 26 11 26 16 0 6 -9 8 -20 5 -11 -3
-20 -1 -20 5 0 5 12 8 28 6 24 -3 27 -7 30 -46z m142 40 c0 -5 -10 -8 -22 -8
-19 1 -23 -4 -23 -29 0 -25 4 -30 23 -29 12 0 22 -3 22 -8 0 -12 -44 -10 -58
4 -29 29 -7 78 35 78 13 0 23 -4 23 -8z m84 -8 c3 -9 6 -28 6 -44 0 -26 -3
-28 -37 -27 -51 3 -58 32 -12 51 31 13 25 34 -7 22 -9 -3 -12 -1 -9 4 10 16
52 12 59 -6z m46 -29 c0 -25 -4 -45 -10 -45 -5 0 -10 20 -10 45 0 25 5 45 10
45 6 0 10 -20 10 -45z m194 29 c3 -9 6 -28 6 -44 0 -26 -3 -28 -37 -27 -51 3
-58 32 -12 51 31 13 25 34 -7 22 -9 -3 -12 -1 -9 4 10 16 52 12 59 -6z m254
-11 c3 -20 -1 -23 -28 -23 -21 0 -30 -4 -27 -12 2 -7 16 -13 30 -13 15 1 23
-3 18 -8 -13 -13 -53 -4 -64 15 -8 12 -7 24 1 43 16 34 65 33 70 -2z m122 18
c0 -5 -9 -7 -20 -4 -28 7 -25 -12 6 -32 20 -13 23 -19 13 -31 -12 -15 -59 -20
-59 -5 0 4 11 6 25 3 32 -6 32 11 -1 33 -20 13 -23 19 -13 31 13 15 49 19 49
5z m40 -26 c0 -23 6 -38 15 -42 21 -7 27 0 35 44 l8 38 1 -45 c1 -44 0 -46
-29 -48 -24 -2 -32 3 -40 23 -13 34 -13 65 0 65 6 0 10 -16 10 -35z m258 -13
l3 -43 -33 3 c-25 2 -34 8 -36 25 -3 17 3 24 22 29 14 3 26 11 26 16 0 6 -9 8
-20 5 -11 -3 -20 -1 -20 5 0 5 12 8 28 6 24 -3 27 -7 30 -46z m149 36 c15 -12
18 -78 4 -78 -6 0 -11 17 -13 38 -2 25 -8 37 -18 37 -10 0 -16 -12 -18 -37 -4
-51 -22 -49 -22 2 0 45 -26 58 -34 18 -3 -13 -7 -32 -9 -43 -3 -11 -5 1 -6 26
l-1 45 52 1 c29 1 58 -3 65 -9z m53 -33 c0 -25 -4 -45 -10 -45 -5 0 -10 20
-10 45 0 25 5 45 10 45 6 0 10 -20 10 -45z m90 0 c0 -25 -4 -45 -10 -45 -5 0
-10 20 -10 45 0 25 5 45 10 45 6 0 10 -20 10 -45z m88 -3 l3 -43 -33 3 c-25 2
-34 8 -36 25 -3 17 3 24 22 29 14 3 26 11 26 16 0 6 -11 7 -26 4 -17 -5 -23
-3 -19 4 4 6 19 10 33 8 24 -3 27 -8 30 -46z m240 1 c2 -26 -1 -43 -7 -43 -6
0 -11 18 -11 40 0 29 -4 40 -15 40 -11 0 -15 -11 -15 -40 0 -51 -18 -53 -22
-2 -2 25 -8 37 -18 37 -10 0 -16 -12 -18 -37 -4 -53 -22 -48 -22 6 l0 43 63
-1 62 -1 3 -42z m52 -4 c0 -21 -4 -39 -10 -39 -5 0 -10 21 -10 46 0 27 4 43
10 39 6 -3 10 -24 10 -46z m88 24 c3 -20 -1 -23 -28 -23 -21 0 -30 -4 -27 -12
2 -7 16 -13 30 -13 14 1 23 -3 21 -7 -3 -4 -16 -8 -30 -8 -32 0 -51 38 -34 69
16 30 64 26 68 -6z m100 -20 c2 -26 -1 -43 -7 -43 -6 0 -11 18 -11 41 0 33 -3
40 -17 37 -13 -2 -19 -14 -21 -41 -4 -52 -22 -47 -22 7 l0 44 38 -1 c36 -2 37
-3 40 -44z m130 40 c-10 -2 -20 -14 -23 -26 -2 -12 -6 -31 -8 -42 -3 -11 -5 0
-6 25 -1 43 1 46 27 47 15 0 19 -1 10 -4z m82 -12 c5 -11 10 -31 10 -44 0 -22
-4 -25 -37 -24 -51 3 -58 32 -12 51 31 13 25 34 -7 22 -9 -3 -12 -1 -9 4 10
17 44 11 55 -9z m60 8 c-24 -10 -24 -11 -6 -24 10 -8 24 -16 29 -18 6 -2 8
-11 4 -20 -7 -18 -57 -24 -57 -8 0 5 9 7 20 4 27 -7 26 11 -2 29 -27 18 -18
48 14 47 23 0 23 0 -2 -10z m154 5 c9 -3 16 -15 16 -25 0 -15 -7 -19 -31 -19
-20 0 -29 -4 -26 -12 2 -7 16 -13 30 -13 15 1 23 -3 18 -8 -13 -13 -53 -4 -64
15 -8 12 -7 24 1 42 12 26 27 31 56 20z m114 -41 c2 -26 -1 -43 -7 -43 -6 0
-11 18 -11 41 0 33 -3 40 -17 37 -13 -2 -19 -14 -21 -41 -4 -52 -22 -47 -22 7
l0 44 38 -1 c36 -2 37 -3 40 -44z m120 36 c-12 -6 -18 -22 -18 -44 0 -19 -4
-35 -10 -35 -5 0 -10 20 -10 45 0 42 2 45 28 45 23 -1 24 -2 10 -11z m90 -1
c23 -23 13 -38 -24 -38 -32 0 -35 -2 -23 -16 7 -8 21 -13 31 -11 10 3 18 1 18
-4 0 -10 -31 -12 -54 -3 -19 7 -21 55 -4 72 7 7 19 12 28 12 9 0 21 -5 28 -12z
m102 -7 c13 -25 13 -71 0 -71 -5 0 -10 15 -10 34 0 62 -45 55 -53 -7 -3 -25
-4 -22 -5 13 -2 44 -1 46 28 48 20 2 32 -4 40 -17z m154 3 c3 -9 6 -28 6 -44
0 -26 -3 -28 -37 -27 -51 3 -58 32 -12 51 31 13 25 34 -7 22 -9 -3 -12 -1 -9
4 10 16 52 12 59 -6z m92 -41 c9 -47 44 -21 44 33 0 13 5 24 10 24 6 0 10 -20
10 -44 l0 -44 -37 1 c-38 2 -38 2 -40 47 -1 42 0 40 13 -17z m162 10 c2 -26
-1 -43 -7 -43 -6 0 -11 18 -11 41 0 33 -3 40 -17 37 -13 -2 -19 -14 -21 -41
-4 -52 -22 -47 -22 7 l0 44 38 -1 c36 -2 37 -3 40 -44z m148 -10 c9 -47 44
-21 44 33 0 13 5 24 10 24 6 0 10 -20 10 -44 l0 -44 -37 1 c-38 2 -38 2 -40
47 -1 42 0 40 13 -17z m166 20 c2 -26 8 -38 18 -38 10 0 16 12 18 38 4 52 22
47 22 -7 l0 -44 -37 1 c-37 2 -38 3 -41 45 -2 23 1 42 7 42 5 0 11 -17 13 -37z
m115 25 c-11 -6 -17 -22 -17 -43 0 -19 -4 -35 -10 -35 -5 0 -10 20 -10 44 0
40 2 44 27 44 21 0 23 -2 10 -10z m101 0 c30 -30 3 -83 -39 -76 -32 5 -45 31
-31 62 13 28 49 35 70 14z m162 -53 c0 -37 -4 -65 -10 -65 -5 0 -10 9 -10 19
0 14 -8 21 -27 23 -22 2 -29 9 -31 31 -4 37 13 57 49 57 29 0 29 0 29 -65z
m40 30 c0 -23 6 -38 15 -42 21 -7 27 0 35 44 l8 38 1 -45 c1 -44 0 -46 -29
-48 -24 -2 -32 3 -40 23 -13 34 -13 65 0 65 6 0 10 -16 10 -35z m158 8 c3 -20
-1 -23 -28 -23 -21 0 -30 -4 -27 -12 2 -7 16 -13 30 -13 14 1 23 -3 21 -7 -3
-4 -16 -8 -30 -8 -32 0 -51 38 -34 69 16 30 64 26 68 -6z m132 18 c0 -5 -8 -7
-19 -4 -30 8 -35 -16 -6 -27 35 -13 30 -44 -8 -48 -15 -2 -27 1 -27 6 0 6 9 8
20 5 27 -7 26 11 -2 29 -28 19 -18 48 17 48 14 0 25 -4 25 -9z m88 -3 c7 -7
12 -21 12 -33 0 -44 -60 -63 -80 -26 -14 27 -13 37 6 55 18 19 45 21 62 4z
m150 0 c30 -30 3 -83 -39 -76 -32 5 -45 31 -31 62 13 28 49 35 70 14z m150 0
c23 -23 13 -38 -24 -38 -32 0 -35 -2 -23 -16 7 -8 21 -13 31 -11 10 3 18 1 18
-4 0 -10 -31 -12 -54 -3 -19 7 -21 55 -4 72 7 7 19 12 28 12 9 0 21 -5 28 -12z
m-3115 -78 c-3 -11 -9 -20 -13 -20 -5 0 -6 9 -3 20 3 11 9 20 13 20 5 0 6 -9
3 -20z m3157 10 c0 -5 -4 -10 -10 -10 -5 0 -10 5 -10 10 0 6 5 10 10 10 6 0
10 -4 10 -10z m40 0 c0 -5 -4 -10 -10 -10 -5 0 -10 5 -10 10 0 6 5 10 10 10 6
0 10 -4 10 -10z m40 0 c0 -5 -4 -10 -10 -10 -5 0 -10 5 -10 10 0 6 5 10 10 10
6 0 10 -4 10 -10z m-2680 -340 c18 -18 20 -33 20 -180 0 -147 -2 -162 -20
-180 -20 -20 -33 -20 -625 -20 -592 0 -605 0 -625 20 -18 18 -20 33 -20 180 0
147 2 162 20 180 20 20 33 20 625 20 592 0 605 0 625 -20z m-2474 -155 c3 -14
10 -25 14 -25 4 0 11 11 14 25 4 14 13 25 20 25 12 0 11 -8 -2 -50 -10 -33
-21 -50 -32 -50 -11 0 -22 17 -32 50 -13 42 -14 50 -2 50 7 0 16 -11 20 -25z
m308 -2 c8 -16 15 -22 16 -15 0 9 10 12 28 10 22 -2 28 -8 30 -35 3 -31 1 -33
-28 -33 -18 0 -33 6 -36 15 -5 13 -8 13 -21 0 -8 -8 -28 -15 -44 -15 -28 0
-29 1 -29 50 l0 50 35 0 c27 0 37 -6 49 -27z m236 -23 c0 -27 -4 -50 -10 -50
-5 0 -10 23 -10 50 0 28 5 50 10 50 6 0 10 -22 10 -50z m40 18 c1 -27 2 -30
11 -15 11 19 59 24 59 5 0 -9 3 -9 12 0 15 15 58 16 58 2 0 -5 -5 -10 -11 -10
-8 0 -8 -4 1 -15 6 -8 9 -19 5 -25 -8 -13 -55 -13 -55 0 0 6 5 10 11 10 5 0 7
5 3 12 -5 8 -11 5 -17 -10 -12 -27 -52 -29 -66 -4 -10 16 -10 16 -11 0 0 -10
-7 -18 -15 -18 -11 0 -15 12 -15 50 0 38 4 50 15 50 10 0 15 -10 15 -32z
m-160 12 c0 -5 18 -10 40 -10 39 0 40 -1 40 -35 l0 -35 -50 0 c-46 0 -50 2
-50 24 0 14 -4 28 -10 31 -6 4 -5 11 3 20 14 17 27 19 27 5z m-305 -21 c4 -5
4 -21 1 -35 -5 -20 -12 -25 -34 -22 -27 3 -39 25 -28 54 6 16 52 19 61 3z m53
0 c-10 -5 -18 -21 -18 -34 0 -14 -4 -25 -10 -25 -5 0 -10 16 -10 35 0 32 3 35
28 35 23 -1 24 -2 10 -11z m722 -1834 l0 -115 -25 0 -25 0 0 115 0 115 25 0
25 0 0 -115z m-1100 75 c0 -16 -7 -20 -35 -20 -31 0 -35 -3 -35 -25 0 -22 4
-25 35 -25 28 0 35 -4 35 -20 0 -16 -7 -20 -35 -20 -28 0 -35 -4 -35 -20 0
-17 7 -20 40 -20 33 0 40 -3 40 -20 0 -18 -7 -20 -65 -20 l-65 0 0 105 0 105
60 0 c53 0 60 -2 60 -20z m458 -8 c3 -21 1 -23 -32 -17 -29 6 -39 3 -61 -19
-21 -21 -25 -33 -20 -54 10 -40 21 -47 71 -46 40 1 45 -1 42 -20 -3 -18 -11
-21 -56 -24 -47 -3 -56 0 -82 27 -23 23 -30 38 -30 68 1 75 44 114 120 110 39
-2 45 -5 48 -25z m372 -7 c0 -18 5 -25 20 -25 12 0 20 -7 20 -16 0 -9 -9 -18
-20 -21 -14 -4 -20 -14 -20 -35 0 -21 6 -31 20 -35 11 -3 20 -14 20 -24 0 -15
-7 -19 -35 -19 -40 0 -55 20 -55 74 0 20 -4 36 -10 36 -5 0 -10 9 -10 20 0 11
5 20 10 20 6 0 10 9 10 19 0 17 12 25 43 30 4 0 7 -10 7 -24z m10747 -35 c3
-16 9 -30 13 -30 5 0 11 14 15 30 4 17 13 30 21 30 11 0 10 -9 -5 -47 -22 -56
-37 -64 -51 -28 -19 49 -23 75 -11 75 6 0 14 -13 18 -30z m281 16 c-12 -8 -18
-27 -18 -50 0 -20 -4 -36 -10 -36 -5 0 -10 18 -10 40 0 29 -4 40 -15 40 -8 0
-15 5 -15 10 0 6 19 10 43 10 37 -1 40 -2 25 -14z m162 -12 c0 -22 2 -24 14
-14 8 6 25 10 38 8 18 -2 23 -9 23 -33 0 -24 -5 -31 -23 -33 -13 -2 -30 2 -38
8 -10 9 -14 9 -14 1 0 -18 -67 -13 -74 5 -10 26 3 54 25 54 10 0 19 7 19 15 0
8 7 15 15 15 10 0 15 -10 15 -26z m-11940 -6 c0 -9 3 -9 12 0 15 15 61 15 76
0 7 -7 12 -39 12 -75 0 -61 -1 -63 -25 -63 -24 0 -25 3 -25 55 0 47 -3 55 -19
55 -23 0 -31 -19 -31 -71 0 -35 -3 -39 -25 -39 -24 0 -25 2 -25 75 0 73 1 75
25 75 14 0 25 -5 25 -12z m514 -4 c11 -10 16 -34 16 -74 l0 -58 -59 -1 c-70 0
-90 15 -75 56 6 19 20 29 49 37 24 7 35 15 28 19 -6 4 -23 3 -37 -3 -22 -8
-26 -7 -26 9 0 10 3 21 7 24 13 13 82 7 97 -9z m156 -4 c0 -12 -9 -20 -22 -22
-20 -3 -23 -10 -26 -55 -3 -49 -5 -53 -28 -53 -23 0 -24 2 -24 74 l0 75 50 -1
c42 0 50 -3 50 -18z m246 12 c15 -10 34 -47 34 -66 0 -13 -12 -16 -52 -16 -46
-1 -51 -2 -35 -14 9 -7 29 -11 43 -8 21 4 25 1 22 -14 -5 -29 -80 -32 -107 -5
-46 46 -11 131 53 131 17 0 36 -4 42 -8z m257 -9 c8 -10 19 -30 22 -45 7 -28
7 -28 -44 -28 -28 0 -51 -4 -51 -10 0 -10 18 -14 58 -10 18 1 23 -3 20 -17 -5
-28 -80 -31 -107 -4 -28 28 -28 84 -1 111 25 25 81 26 103 3z m147 -3 c0 -12
-9 -20 -22 -22 -20 -3 -23 -10 -26 -55 -3 -49 -5 -53 -28 -53 -23 0 -24 2 -24
74 l0 75 50 -1 c42 0 50 -3 50 -18z m134 -2 c10 -13 16 -44 16 -74 l0 -52 -57
0 c-65 0 -83 10 -83 43 0 28 15 41 58 50 23 5 31 10 24 17 -7 7 -20 7 -41 0
-27 -10 -31 -9 -31 8 0 22 13 28 62 29 27 1 41 -5 52 -21z m10156 8 c0 -2 3
-11 6 -20 5 -12 0 -16 -21 -16 -16 0 -24 -4 -20 -11 4 -6 13 -8 21 -5 8 3 14
1 14 -5 0 -6 -12 -9 -27 -7 -47 5 -45 68 2 68 14 0 25 -2 25 -4z m52 -8 c-7
-7 -12 -22 -12 -35 0 -13 -4 -23 -10 -23 -5 0 -10 16 -10 35 0 29 4 35 22 35
17 0 19 -3 10 -12z m183 -23 c0 -27 -3 -30 -30 -30 -21 0 -31 5 -33 18 -6 33
6 49 35 45 24 -3 28 -8 28 -33z m235 24 c0 -5 -4 -7 -10 -4 -5 3 -10 1 -10 -4
0 -6 5 -11 10 -11 6 0 10 -9 10 -20 0 -15 -7 -20 -25 -20 -14 0 -25 4 -25 10
0 5 7 7 15 4 20 -8 19 6 -2 21 -9 7 -13 17 -9 23 9 15 46 16 46 1z m-9620
-541 c17 -12 30 -30 30 -39 0 -27 -97 -99 -133 -99 -29 0 -30 0 -24 46 6 53
33 96 68 105 13 4 25 7 27 8 2 1 16 -9 32 -21z m2540 0 c17 -12 30 -30 30 -39
0 -27 -97 -99 -133 -99 -29 0 -30 0 -24 46 6 53 33 96 68 105 13 4 25 7 27 8
2 1 16 -9 32 -21z m3373 -37 c9 -16 17 -37 17 -46 0 -15 -2 -15 -16 -4 -14 12
-44 61 -44 74 0 16 28 1 43 -24z m-5523 -62 l0 -60 -31 3 c-58 6 -66 68 -10
76 13 2 21 11 21 23 0 10 5 19 10 19 6 0 10 -27 10 -61z m320 1 c0 -33 -4 -60
-10 -60 -6 0 -10 27 -10 60 0 33 4 60 10 60 6 0 10 -27 10 -60z m490 0 c0 -33
-4 -60 -10 -60 -6 0 -10 27 -10 60 0 33 4 60 10 60 6 0 10 -27 10 -60z m260
50 c0 -5 -4 -10 -10 -10 -5 0 -10 5 -10 10 0 6 5 10 10 10 6 0 10 -4 10 -10z
m1370 0 c0 -5 -4 -10 -10 -10 -5 0 -10 5 -10 10 0 6 5 10 10 10 6 0 10 -4 10
-10z m790 -51 l0 -60 -37 3 c-36 3 -38 5 -38 38 0 31 3 35 28 38 19 2 27 9 27
23 0 10 5 19 10 19 6 0 10 -27 10 -61z m-3496 35 c36 -35 5 -94 -50 -94 l-34
0 0 55 0 55 34 0 c19 0 42 -7 50 -16z m721 6 c4 -6 2 -17 -4 -24 -8 -10 -7
-17 4 -26 13 -10 15 -9 15 9 0 11 5 21 10 21 14 0 13 -37 -2 -46 -8 -5 -6 -10
5 -19 13 -9 7 -12 -33 -13 -52 -1 -75 14 -64 42 3 9 10 16 14 16 4 0 5 11 2
25 -4 21 -1 25 21 25 14 0 29 -5 32 -10z m122 -20 c8 -44 21 -46 29 -5 8 46
30 45 39 -2 l8 -38 15 38 c8 20 19 37 24 37 6 0 8 -6 5 -14 -3 -8 -11 -33 -17
-55 -14 -51 -35 -53 -45 -3 l-8 37 -11 -34 c-18 -52 -33 -49 -50 10 -19 62
-19 59 -6 59 6 0 13 -14 17 -30z m1666 23 c-15 -3 -23 -12 -23 -24 0 -13 7
-19 23 -20 l22 -2 -22 -4 c-16 -3 -23 -11 -23 -29 0 -13 -4 -24 -10 -24 -5 0
-10 25 -10 55 l0 55 33 -1 c23 -1 26 -3 10 -6z m609 -47 c18 -47 16 -78 -3
-43 -13 22 -45 22 -58 0 -16 -30 -22 -8 -8 28 8 19 17 42 21 52 10 29 27 15
48 -37z m118 12 l18 -43 18 43 c25 61 44 55 44 -13 0 -30 -4 -55 -10 -55 -5 0
-10 17 -11 38 l0 37 -16 -37 c-19 -46 -29 -48 -47 -5 l-14 32 -1 -32 c-2 -57
-21 -36 -21 22 0 66 14 71 40 13z m364 0 l18 -43 18 43 c26 58 40 53 40 -13 0
-58 -20 -79 -21 -22 l0 32 -16 -32 c-9 -18 -20 -33 -24 -33 -4 0 -14 17 -22
38 l-16 37 0 -37 c-1 -21 -5 -38 -11 -38 -5 0 -10 25 -10 55 0 68 19 74 44 13z
m366 32 c0 -6 -11 -8 -25 -4 -34 8 -33 -14 2 -42 34 -27 26 -54 -17 -54 -16 0
-30 4 -30 9 0 4 11 6 25 3 18 -3 25 0 25 12 0 9 -11 22 -25 28 -24 11 -33 37
-18 51 10 11 63 8 63 -3z m-3872 -42 c3 -14 -3 -18 -27 -18 -24 0 -29 -4 -24
-16 4 -11 13 -14 32 -9 20 5 23 4 15 -5 -19 -20 -59 -8 -62 18 -2 13 -1 30 2
38 8 21 60 14 64 -8z m80 -21 c3 -38 3 -38 -30 -35 -42 4 -51 34 -14 44 14 3
26 11 26 16 0 6 -9 8 -20 5 -11 -3 -20 -1 -20 5 0 5 12 8 28 6 23 -3 27 -8 30
-41z m190 15 c4 -28 -14 -52 -39 -52 -12 0 -19 -7 -19 -20 0 -11 -4 -20 -10
-20 -6 0 -10 27 -10 61 l0 60 38 -3 c30 -2 38 -7 40 -26z m87 -12 c0 -29 -4
-36 -23 -38 -43 -6 -69 37 -40 66 7 7 24 12 38 10 21 -3 25 -8 25 -38z m99 18
c15 -24 -3 -52 -37 -56 -33 -4 -53 28 -37 59 14 25 58 23 74 -3z m490 0 c16
-26 -4 -53 -40 -53 -23 0 -30 5 -32 23 -2 13 -1 30 2 38 8 20 56 14 70 -8z
m77 -5 l11 -28 10 28 c8 23 28 38 28 22 0 -16 -30 -75 -38 -75 -5 0 -16 18
-25 40 -8 22 -11 40 -6 40 5 0 14 -12 20 -27z m127 5 c3 -14 -3 -18 -27 -18
-24 0 -29 -4 -24 -16 4 -11 13 -14 32 -9 20 5 23 4 15 -5 -19 -20 -59 -8 -62
18 -2 13 -1 30 2 38 8 21 60 14 64 -8z m48 6 c-9 -8 -16 -26 -16 -40 0 -13 -4
-24 -10 -24 -5 0 -10 18 -10 40 0 36 2 40 26 40 23 0 24 -1 10 -16z m44 -24
c0 -22 -4 -40 -10 -40 -5 0 -10 18 -10 40 0 22 5 40 10 40 6 0 10 -18 10 -40z
m88 -2 c2 -22 -1 -38 -7 -38 -6 0 -11 16 -11 36 0 45 -24 42 -28 -4 -5 -46
-22 -39 -22 9 0 39 1 40 33 37 29 -3 32 -6 35 -40z m90 20 c3 -14 -3 -18 -27
-18 -24 0 -29 -4 -24 -16 3 -9 13 -14 24 -11 11 3 19 1 19 -4 0 -5 -11 -9 -25
-9 -32 0 -50 32 -35 61 14 25 63 23 68 -3z m1042 -14 c0 -45 24 -42 28 4 5 46
22 39 22 -9 0 -39 -1 -40 -32 -37 -30 3 -33 6 -36 41 -2 21 1 37 7 37 6 0 11
-16 11 -36z m106 20 c-9 -8 -16 -26 -16 -40 0 -13 -4 -24 -10 -24 -5 0 -10 18
-10 40 0 36 2 40 26 40 23 0 24 -1 10 -16z m44 -24 c0 -22 -4 -40 -10 -40 -5
0 -10 18 -10 40 0 22 5 40 10 40 6 0 10 -18 10 -40z m85 0 c0 -29 -4 -36 -23
-38 -43 -6 -69 37 -40 66 7 7 24 12 38 10 21 -3 25 -8 25 -38z m75 30 c0 -5
-7 -7 -15 -4 -20 8 -19 -13 2 -24 21 -12 10 -42 -17 -42 -11 0 -20 4 -20 10 0
5 7 7 15 4 20 -8 19 13 -2 24 -21 12 -10 42 17 42 11 0 20 -4 20 -10z m78 -33
c3 -38 3 -38 -30 -35 -39 4 -45 28 -10 43 27 12 29 29 2 22 -11 -3 -17 -1 -14
5 3 5 16 8 27 6 18 -2 23 -11 25 -41z m42 33 c0 -5 -4 -10 -10 -10 -5 0 -10 5
-10 10 0 6 5 10 10 10 6 0 10 -4 10 -10z m408 -33 c3 -38 3 -38 -30 -35 -39 4
-45 28 -10 43 27 12 29 29 2 22 -11 -3 -17 -1 -14 5 3 5 16 8 27 6 18 -2 23
-11 25 -41z m372 4 c4 -31 6 -33 19 -18 11 14 11 20 1 32 -7 9 -10 19 -6 22 4
4 11 1 16 -7 7 -12 12 -12 22 -2 19 19 29 14 16 -8 -10 -16 -10 -24 0 -40 10
-16 10 -20 -2 -20 -8 0 -17 6 -19 13 -4 9 -7 9 -15 -1 -14 -20 -96 -12 -100
10 -2 12 5 19 22 24 14 3 23 10 20 16 -3 5 -12 7 -20 4 -8 -3 -14 -1 -14 5 0
6 12 9 28 7 22 -2 28 -9 32 -37z m278 -4 c3 -38 3 -38 -30 -35 -42 4 -51 34
-14 44 14 3 26 11 26 16 0 6 -9 8 -20 5 -11 -3 -20 -1 -20 5 0 5 12 8 28 6 23
-3 27 -8 30 -41z m90 -14 c-3 -57 -3 -58 -35 -61 -18 -2 -33 1 -33 6 0 5 10 8
21 8 12 -1 24 5 26 12 3 7 -4 12 -15 12 -31 0 -47 26 -34 55 9 19 19 25 42 25
l31 0 -3 -57z m80 40 c2 -7 -9 -18 -25 -24 -27 -10 -27 -11 -9 -25 19 -14 19
-14 -1 -14 -11 0 -23 6 -26 14 -6 16 11 36 30 36 7 0 13 5 13 11 0 6 -9 8 -21
4 -15 -5 -19 -4 -14 5 9 14 47 9 53 -7z m-4308 -18 c0 -20 -5 -25 -27 -25
l-26 0 23 25 c13 14 25 25 27 25 2 0 3 -11 3 -25z m2540 0 c0 -20 -5 -25 -27
-25 l-26 0 23 25 c13 14 25 25 27 25 2 0 3 -11 3 -25z m540 -35 c0 -5 -4 -10
-10 -10 -5 0 -10 5 -10 10 0 6 5 10 10 10 6 0 10 -4 10 -10z m2145 -160 c4 -6
-5 -10 -19 -10 -14 0 -26 5 -26 10 0 6 9 10 19 10 11 0 23 -4 26 -10z"/>
<path d="M14690 8060 c0 -5 5 -10 10 -10 6 0 10 5 10 10 0 6 -4 10 -10 10 -5
0 -10 -4 -10 -10z"/>
<path d="M15041 8024 c0 -11 3 -14 6 -6 3 7 2 16 -1 19 -3 4 -6 -2 -5 -13z"/>
<path d="M3605 8030 c-3 -5 1 -10 9 -10 9 0 16 5 16 10 0 6 -4 10 -9 10 -6 0
-13 -4 -16 -10z"/>
<path d="M3900 7990 c0 -5 5 -10 10 -10 6 0 10 5 10 10 0 6 -4 10 -10 10 -5 0
-10 -4 -10 -10z"/>
<path d="M13924 8036 c-4 -10 -2 -22 4 -28 8 -8 13 -7 18 6 4 10 2 22 -4 28
-8 8 -13 7 -18 -6z"/>
<path d="M14000 8025 c0 -8 7 -15 15 -15 8 0 15 7 15 15 0 8 -7 15 -15 15 -8
0 -15 -7 -15 -15z"/>
<path d="M14847 8034 c-8 -8 1 -24 14 -24 5 0 9 7 9 15 0 15 -12 20 -23 9z"/>
<path d="M2500 7669 c0 -5 5 -7 10 -4 6 3 10 8 10 11 0 2 -4 4 -10 4 -5 0 -10
-5 -10 -11z"/>
<path d="M4375 7620 c3 -5 8 -10 11 -10 2 0 4 5 4 10 0 6 -5 10 -11 10 -5 0
-7 -4 -4 -10z"/>
<path d="M4560 7550 c20 -13 33 -13 25 0 -3 6 -14 10 -23 10 -15 0 -15 -2 -2
-10z"/>
<path d="M4555 7380 c-19 -8 -19 -9 3 -9 12 -1 22 4 22 9 0 6 -1 10 -2 9 -2 0
-12 -4 -23 -9z"/>
<path d="M5290 7670 c0 -5 4 -10 9 -10 6 0 13 5 16 10 3 6 -1 10 -9 10 -9 0
-16 -4 -16 -10z"/>
<path d="M4992 7608 c-14 -14 -16 -28 -3 -28 9 0 24 30 18 36 -2 2 -9 -2 -15
-8z"/>
<path d="M5282 7551 c-11 -7 -11 -9 0 -13 18 -7 39 2 32 13 -6 11 -15 11 -32
0z"/>
<path d="M4370 7480 c0 -52 15 -52 17 0 0 22 -3 40 -8 40 -5 0 -9 -18 -9 -40z"/>
<path d="M5065 7319 c-4 -6 -5 -12 -2 -15 2 -3 7 2 10 11 7 17 1 20 -8 4z"/>
<path d="M4750 7110 c0 -11 6 -20 13 -20 7 0 13 9 14 20 1 11 -4 20 -13 20 -8
0 -14 -9 -14 -20z"/>
<path d="M5441 7294 c0 -11 3 -14 6 -6 3 7 2 16 -1 19 -3 4 -6 -2 -5 -13z"/>
<path d="M5420 6986 c0 -2 7 -6 15 -10 8 -3 15 -1 15 4 0 6 -7 10 -15 10 -8 0
-15 -2 -15 -4z"/>
<path d="M15821 7126 c-8 -10 -3 -11 20 -8 16 2 27 7 24 10 -11 11 -34 10 -44
-2z"/>
<path d="M10360 6681 c0 -12 6 -21 15 -21 8 0 15 4 15 9 0 5 -7 14 -15 21 -13
10 -15 9 -15 -9z"/>
<path d="M8976 6301 c-3 -5 1 -11 9 -15 8 -3 15 -1 15 4 0 13 -18 22 -24 11z"/>
<path d="M3574 4639 c-10 -17 13 -36 27 -22 12 12 4 33 -11 33 -5 0 -12 -5
-16 -11z"/>
<path d="M4046 4651 c-4 -7 -5 -15 -2 -18 9 -9 19 4 14 18 -4 11 -6 11 -12 0z"/>
<path d="M4830 4645 c0 -29 3 -36 18 -33 11 2 17 13 17 33 0 20 -6 31 -17 33
-15 3 -18 -4 -18 -33z"/>
<path d="M4300 4630 c0 -11 5 -20 10 -20 6 0 10 9 10 20 0 11 -4 20 -10 20 -5
0 -10 -9 -10 -20z"/>
<path d="M3275 4620 c-3 -5 -1 -10 4 -10 6 0 11 5 11 10 0 6 -2 10 -4 10 -3 0
-8 -4 -11 -10z"/>
<path d="M4955 4620 c-3 -5 -1 -10 4 -10 6 0 11 5 11 10 0 6 -2 10 -4 10 -3 0
-8 -4 -11 -10z"/>
<path d="M5120 4619 c0 -5 5 -7 10 -4 6 3 10 8 10 11 0 2 -4 4 -10 4 -5 0 -10
-5 -10 -11z"/>
<path d="M3000 4030 l0 -130 40 0 c52 0 96 23 115 60 17 33 20 96 5 134 -13
36 -67 66 -117 66 l-43 0 0 -130z"/>
<path d="M4820 4105 l0 -68 41 6 c47 6 55 12 64 48 9 35 -20 66 -67 75 l-38 6
0 -67z"/>
<path d="M4164 4045 c-35 -36 -30 -45 26 -45 41 0 50 3 50 18 -1 45 -42 61
-76 27z"/>
<path d="M5170 3951 c-19 -5 -25 -13 -25 -36 0 -25 5 -31 27 -33 28 -3 58 27
58 60 0 19 -16 21 -60 9z"/>
<path d="M6956 4039 c-21 -17 -26 -29 -26 -68 0 -54 14 -77 51 -86 44 -11 71
21 72 84 1 45 -3 57 -22 72 -30 24 -42 24 -75 -2z"/>
<path d="M3644 3546 c-10 -26 0 -51 21 -51 16 0 20 7 20 30 0 33 -30 49 -41
21z"/>
<path d="M2890 3570 c0 -25 4 -31 18 -28 11 2 17 12 17 28 0 16 -6 26 -17 28
-14 3 -18 -3 -18 -28z"/>
<path d="M3282 3562 c-10 -29 -9 -32 9 -32 20 0 23 12 10 44 -7 18 -9 16 -19
-12z"/>
<path d="M2981 3516 c-8 -10 -9 -16 -1 -21 13 -8 30 3 30 21 0 18 -14 18 -29
0z"/>
<path d="M3507 3553 c-14 -13 -6 -23 18 -23 18 0 23 4 19 15 -6 16 -26 20 -37
8z"/>
<path d="M3750 3545 c-11 -13 -9 -15 15 -15 16 0 25 5 23 12 -7 19 -24 20 -38
3z"/>
<path d="M4046 3545 c-4 -11 1 -15 19 -15 18 0 23 4 19 15 -4 8 -12 15 -19 15
-7 0 -15 -7 -19 -15z"/>
<path d="M4397 3553 c-13 -12 -7 -23 13 -23 11 0 20 7 20 15 0 15 -21 21 -33
8z"/>
<path d="M4533 3515 c-3 -9 -3 -18 0 -22 10 -10 37 6 37 22 0 20 -29 20 -37 0z"/>
<path d="M4724 3546 c-10 -26 0 -51 21 -51 16 0 20 7 20 30 0 33 -30 49 -41
21z"/>
<path d="M5107 3553 c-13 -12 -7 -23 13 -23 11 0 20 7 20 15 0 15 -21 21 -33
8z"/>
<path d="M5357 3553 c-13 -12 -7 -23 13 -23 11 0 20 7 20 15 0 15 -21 21 -33
8z"/>
<path d="M5820 3545 c-17 -21 -2 -50 26 -50 14 0 19 7 19 30 0 34 -24 45 -45
20z"/>
<path d="M6120 3545 c-11 -13 -9 -15 15 -15 16 0 25 5 23 12 -7 19 -24 20 -38
3z"/>
<path d="M6400 3520 c-11 -7 -12 -12 -3 -21 13 -13 33 -4 33 17 0 16 -9 18
-30 4z"/>
<path d="M6927 3523 c-12 -11 -7 -33 7 -33 12 0 26 20 26 36 0 7 -26 5 -33 -3z"/>
<path d="M7060 3545 c-11 -13 -9 -15 15 -15 16 0 25 5 23 12 -7 19 -24 20 -38
3z"/>
<path d="M7207 3554 c-13 -13 -7 -24 14 -24 11 0 19 5 17 12 -5 14 -22 21 -31
12z"/>
<path d="M7374 3546 c-10 -26 0 -51 21 -51 16 0 20 7 20 30 0 33 -30 49 -41
21z"/>
<path d="M7790 3520 c-11 -7 -12 -12 -3 -21 13 -13 33 -4 33 17 0 16 -9 18
-30 4z"/>
<path d="M8114 3546 c-10 -26 0 -51 21 -51 16 0 20 7 20 30 0 33 -30 49 -41
21z"/>
<path d="M8217 3554 c-13 -13 -7 -55 9 -61 24 -9 51 23 38 45 -12 19 -36 27
-47 16z"/>
<path d="M8597 3554 c-13 -13 -7 -55 9 -61 24 -9 51 23 38 45 -12 19 -36 27
-47 16z"/>
<path d="M8754 3546 c-10 -26 0 -51 21 -51 16 0 20 7 20 30 0 33 -30 49 -41
21z"/>
<path d="M8860 3520 c-11 -7 -12 -12 -3 -21 13 -13 33 -4 33 17 0 16 -9 18
-30 4z"/>
<path d="M9013 3515 c-3 -9 -3 -18 0 -21 9 -9 27 6 27 22 0 19 -19 18 -27 -1z"/>
<path d="M3884 3266 c-9 -23 0 -51 17 -54 19 -4 32 23 24 49 -7 22 -33 25 -41
5z"/>
<path d="M4130 3264 c-10 -11 -11 -20 -3 -32 17 -27 38 -20 38 12 0 34 -16 44
-35 20z"/>
<path d="M2977 3274 c-13 -13 -7 -24 14 -24 11 0 19 5 17 12 -5 14 -22 21 -31
12z"/>
<path d="M3170 3259 c-10 -17 -9 -24 4 -37 20 -20 39 -4 34 29 -4 31 -24 35
-38 8z"/>
<path d="M3277 3243 c-12 -11 -7 -33 7 -33 12 0 26 20 26 36 0 7 -26 5 -33 -3z"/>
<path d="M3523 3235 c-3 -9 -3 -18 0 -21 9 -9 27 6 27 22 0 19 -19 18 -27 -1z"/>
<path d="M3743 3235 c-3 -9 -3 -18 0 -22 10 -10 37 6 37 22 0 20 -29 20 -37 0z"/>
<path d="M3983 3235 c-3 -9 -3 -18 0 -22 10 -10 37 6 37 22 0 20 -29 20 -37 0z"/>
<path d="M4237 3273 c-13 -12 -7 -23 13 -23 11 0 20 7 20 15 0 15 -21 21 -33
8z"/>
<path d="M4663 3235 c-3 -9 -3 -18 0 -21 9 -9 27 6 27 22 0 19 -19 18 -27 -1z"/>
<path d="M5040 3240 c-11 -7 -12 -12 -3 -21 13 -13 33 -4 33 17 0 16 -9 18
-30 4z"/>
<path d="M5416 3265 c-4 -11 1 -15 19 -15 18 0 23 4 19 15 -4 8 -12 15 -19 15
-7 0 -15 -7 -19 -15z"/>
<path d="M5733 3235 c-3 -9 -3 -18 0 -22 10 -10 37 6 37 22 0 20 -29 20 -37 0z"/>
<path d="M5957 3273 c-13 -12 -7 -23 13 -23 11 0 20 7 20 15 0 15 -21 21 -33
8z"/>
<path d="M6270 3265 c-11 -13 -9 -15 15 -15 16 0 25 5 23 12 -7 19 -24 20 -38
3z"/>
<path d="M6523 3235 c-3 -9 -3 -18 0 -22 10 -10 37 6 37 22 0 20 -29 20 -37 0z"/>
<path d="M7304 3266 c-10 -26 0 -51 21 -51 16 0 20 7 20 30 0 33 -30 49 -41
21z"/>
<path d="M7460 3264 c-10 -11 -11 -20 -3 -32 17 -27 38 -20 38 12 0 34 -16 44
-35 20z"/>
<path d="M7666 3265 c-4 -11 1 -15 19 -15 18 0 23 4 19 15 -4 8 -12 15 -19 15
-7 0 -15 -7 -19 -15z"/>
<path d="M7887 3274 c-13 -13 -7 -55 9 -61 24 -9 51 23 38 45 -12 19 -36 27
-47 16z"/>
<path d="M8034 3266 c-10 -26 0 -51 21 -51 16 0 20 7 20 30 0 33 -30 49 -41
21z"/>
<path d="M8190 3265 c-11 -13 -9 -15 15 -15 16 0 25 5 23 12 -7 19 -24 20 -38
3z"/>
<path d="M4437 2862 c-14 -16 -17 -43 -17 -174 0 -137 2 -157 18 -171 17 -15
74 -17 619 -17 568 0 601 1 616 18 14 16 17 43 17 174 0 137 -2 157 -18 171
-17 15 -74 17 -619 17 -568 0 -601 -1 -616 -18z m336 -163 l10 -34 11 34 c7
19 18 37 26 39 8 3 11 -1 8 -9 -3 -8 -11 -31 -19 -51 -7 -21 -18 -38 -25 -38
-7 0 -19 21 -28 47 -19 56 -19 56 -4 51 7 -3 16 -20 21 -39z m287 31 c0 -5 -7
-10 -15 -10 -11 0 -15 -11 -15 -40 0 -22 -4 -40 -10 -40 -5 0 -10 16 -10 36 0
23 -6 42 -17 50 -16 12 -13 13 25 14 23 0 42 -4 42 -10z m140 0 c0 -5 -4 -10
-10 -10 -5 0 -10 5 -10 10 0 6 5 10 10 10 6 0 10 -4 10 -10z m40 -40 c0 -27
-4 -50 -10 -50 -5 0 -10 23 -10 50 0 28 5 50 10 50 6 0 10 -22 10 -50z m-352
-2 c2 -13 -3 -18 -18 -18 -12 0 -19 -4 -15 -10 3 -5 13 -6 22 -3 11 4 14 3 9
-5 -4 -7 -18 -12 -31 -12 -28 0 -43 34 -24 56 16 19 53 14 57 -8z m50 11 c-10
-5 -18 -21 -18 -34 0 -14 -4 -25 -10 -25 -5 0 -10 16 -10 35 0 32 3 35 28 35
23 -1 24 -2 10 -11z m154 -1 c-7 -7 -12 -22 -12 -35 0 -13 -4 -23 -10 -23 -5
0 -10 16 -10 35 0 29 4 35 22 35 17 0 19 -3 10 -12z m76 -26 c3 -32 2 -33 -30
-30 -38 4 -46 31 -10 36 12 2 20 7 17 12 -3 5 -12 7 -20 3 -8 -3 -15 0 -15 7
0 6 11 10 28 8 23 -2 28 -8 30 -36z m32 3 c0 -19 -4 -35 -10 -35 -5 0 -10 16
-10 35 0 19 5 35 10 35 6 0 10 -16 10 -35z m118 13 c2 -13 -3 -18 -18 -18 -12
0 -19 -4 -15 -10 3 -5 13 -6 22 -3 11 4 14 3 9 -5 -4 -7 -18 -12 -31 -12 -28
0 -43 34 -24 56 16 19 53 14 57 -8z m44 10 c-7 -7 -12 -22 -12 -35 0 -13 -4
-23 -10 -23 -5 0 -10 16 -10 35 0 29 4 35 22 35 17 0 19 -3 10 -12z"/>
<path d="M4845 2690 c-3 -5 1 -10 10 -10 9 0 13 5 10 10 -3 6 -8 10 -10 10 -2
0 -7 -4 -10 -10z"/>
<path d="M5130 2659 c0 -5 5 -7 10 -4 6 3 10 8 10 11 0 2 -4 4 -10 4 -5 0 -10
-5 -10 -11z"/>
<path d="M5275 2690 c-3 -5 1 -10 10 -10 9 0 13 5 10 10 -3 6 -8 10 -10 10 -2
0 -7 -4 -10 -10z"/>
<path d="M3450 2690 c0 -25 4 -31 18 -28 11 2 17 12 17 28 0 16 -6 26 -17 28
-14 3 -18 -3 -18 -28z"/>
<path d="M3630 2675 c0 -8 5 -15 10 -15 6 0 10 4 10 9 0 5 10 12 23 14 16 3
13 5 -10 6 -23 1 -33 -3 -33 -14z"/>
<path d="M15051 867 c-9 -11 -8 -17 4 -27 12 -10 16 -9 21 5 9 23 -10 40 -25
22z"/>
<path d="M14967 863 c-12 -11 -8 -23 8 -23 8 0 15 7 15 15 0 16 -12 20 -23 8z"/>
<path d="M3531 811 c-7 -5 -11 -14 -7 -19 9 -15 36 -4 36 14 0 16 -9 18 -29 5z"/>
<path d="M3943 863 c-22 -8 -14 -23 13 -23 15 0 24 5 22 12 -5 14 -18 18 -35
11z"/>
<path d="M4190 860 c-19 -12 -7 -22 21 -18 19 2 20 5 8 15 -9 7 -20 9 -29 3z"/>
<path d="M4463 813 c-7 -2 -13 -9 -13 -15 0 -14 43 -6 48 10 4 12 -12 15 -35
5z"/>
<path d="M14655 870 c-3 -5 1 -10 10 -10 9 0 13 5 10 10 -3 6 -8 10 -10 10 -2
0 -7 -4 -10 -10z"/>
<path d="M14884 866 c-4 -10 -2 -22 4 -28 8 -8 13 -7 18 6 4 10 2 22 -4 28 -8
8 -13 7 -18 -6z"/>
<path d="M5874 236 c-8 -22 3 -49 19 -43 6 2 12 14 12 27 0 27 -22 39 -31 16z"/>
<path d="M9096 235 c-7 -20 3 -45 19 -45 16 0 29 35 20 50 -9 15 -32 12 -39
-5z"/>
<path d="M5600 235 c0 -37 3 -45 18 -45 24 0 42 19 42 45 0 26 -18 45 -42 45
-15 0 -18 -8 -18 -45z"/>
<path d="M6345 271 c-6 -11 9 -23 19 -14 9 9 7 23 -3 23 -6 0 -12 -4 -16 -9z"/>
<path d="M6335 220 c-4 -7 -3 -16 3 -22 14 -14 45 -2 40 15 -6 16 -34 21 -43
7z"/>
<path d="M8745 247 c-8 -19 -2 -31 13 -26 5 2 6 13 2 24 -7 19 -8 19 -15 2z"/>
<path d="M5710 240 c0 -5 7 -10 15 -10 8 0 15 5 15 10 0 6 -7 10 -15 10 -8 0
-15 -4 -15 -10z"/>
<path d="M5795 209 c-4 -6 -5 -13 -2 -16 7 -7 27 6 27 18 0 12 -17 12 -25 -2z"/>
<path d="M5974 236 c-8 -22 3 -49 19 -43 6 2 12 14 12 27 0 27 -22 39 -31 16z"/>
<path d="M6064 235 c-8 -21 2 -45 20 -45 17 0 28 24 20 45 -4 8 -13 15 -20 15
-8 0 -17 -7 -20 -15z"/>
<path d="M6157 235 c-9 -22 3 -46 22 -43 10 2 16 13 16 28 0 28 -29 40 -38 15z"/>
<path d="M6650 235 c-11 -13 -11 -19 3 -33 20 -19 41 -5 35 24 -4 24 -22 28
-38 9z"/>
<path d="M6860 240 c0 -5 7 -10 15 -10 8 0 15 5 15 10 0 6 -7 10 -15 10 -8 0
-15 -4 -15 -10z"/>
<path d="M7125 240 c-3 -5 3 -10 15 -10 12 0 18 5 15 10 -3 6 -10 10 -15 10
-5 0 -12 -4 -15 -10z"/>
<path d="M8404 235 c-8 -21 2 -45 20 -45 17 0 28 24 20 45 -4 8 -13 15 -20 15
-8 0 -17 -7 -20 -15z"/>
<path d="M8567 213 c-12 -11 -8 -23 8 -23 8 0 15 7 15 15 0 16 -12 20 -23 8z"/>
<path d="M9017 213 c-12 -11 -8 -23 8 -23 8 0 15 7 15 15 0 16 -12 20 -23 8z"/>
<path d="M9385 209 c-4 -6 -5 -13 -2 -16 7 -7 27 6 27 18 0 12 -17 12 -25 -2z"/>
<path d="M9665 209 c-4 -6 -5 -13 -2 -16 7 -7 27 6 27 18 0 12 -17 12 -25 -2z"/>
<path d="M9746 235 c-8 -21 3 -45 20 -45 9 0 14 11 14 30 0 32 -23 42 -34 15z"/>
<path d="M14770 7656 c0 -2 9 -6 20 -9 11 -3 20 -1 20 4 0 5 -9 9 -20 9 -11 0
-20 -2 -20 -4z"/>
<path d="M15167 7544 c-10 -11 24 -54 44 -54 26 0 29 12 9 38 -18 21 -40 28
-53 16z"/>
<path d="M15760 7510 c0 -11 7 -20 15 -20 17 0 18 2 9 24 -9 23 -24 20 -24 -4z"/>
<path d="M18460 7466 c0 -9 7 -16 16 -16 17 0 14 22 -4 28 -7 2 -12 -3 -12
-12z"/>
<path d="M15103 7453 c-18 -6 -16 -23 1 -23 17 0 30 16 19 23 -5 2 -14 2 -20
0z"/>
<path d="M15276 7453 c-11 -11 -6 -33 7 -33 8 0 19 -10 25 -22 10 -23 11 -23
11 5 1 21 -4 27 -19 27 -11 0 -20 4 -20 9 0 4 12 6 28 3 15 -2 24 -1 19 4 -10
10 -42 15 -51 7z"/>
<path d="M15494 7447 c-8 -21 3 -37 21 -30 9 3 15 -1 15 -11 0 -9 5 -16 10
-16 13 0 13 17 0 25 -8 5 -7 12 2 23 11 13 11 14 0 8 -7 -4 -19 -2 -27 4 -12
10 -16 9 -21 -3z"/>
<path d="M15020 7440 c0 -5 7 -10 15 -10 8 0 15 5 15 10 0 6 -7 10 -15 10 -8
0 -15 -4 -15 -10z"/>
<path d="M15265 7371 c-3 -5 -1 -12 5 -16 5 -3 10 1 10 9 0 18 -6 21 -15 7z"/>
<path d="M17572 7318 c-16 -16 -15 -28 3 -28 8 0 15 9 15 20 0 23 -2 24 -18 8z"/>
<path d="M15896 7291 c-19 -7 -19 -8 2 -13 15 -4 22 -2 22 8 0 8 -1 14 -2 13
-2 0 -12 -4 -22 -8z"/>
<path d="M15860 7250 c0 -5 5 -10 10 -10 6 0 10 5 10 10 0 6 -4 10 -10 10 -5
0 -10 -4 -10 -10z"/>
<path d="M16077 7223 c-4 -3 -7 -14 -7 -24 0 -12 10 -18 39 -21 22 -2 45 -2
50 0 17 6 13 39 -5 46 -21 8 -69 8 -77 -1z"/>
<path d="M17325 7219 c-4 -6 -5 -13 -2 -16 7 -7 27 6 27 18 0 12 -17 12 -25
-2z"/>
<path d="M15273 7203 c9 -2 25 -2 35 0 9 3 1 5 -18 5 -19 0 -27 -2 -17 -5z"/>
<path d="M15393 7203 c9 -2 25 -2 35 0 9 3 1 5 -18 5 -19 0 -27 -2 -17 -5z"/>
<path d="M16578 7193 c-27 -3 -35 -8 -31 -19 3 -8 0 -14 -6 -14 -18 0 -12 -30
7 -31 9 0 25 -2 35 -4 13 -2 19 5 24 28 6 30 7 30 15 7 8 -22 9 -22 28 -5 11
10 20 24 20 32 0 13 -14 14 -92 6z"/>
<path d="M16750 7175 c10 -12 10 -15 -3 -15 -8 0 -18 6 -20 13 -4 7 -6 6 -6
-4 -1 -9 -13 -20 -27 -23 -20 -5 -24 -10 -16 -18 8 -8 15 -8 24 -1 7 6 21 8
31 4 15 -5 11 -9 -17 -19 -38 -14 -58 -43 -25 -37 10 2 19 0 19 -6 0 -5 -9 -9
-20 -9 -11 0 -20 -4 -20 -10 0 -5 13 -10 29 -10 17 0 33 -5 37 -12 4 -7 3 -8
-4 -4 -7 4 -12 2 -12 -3 0 -14 17 -14 26 0 5 8 9 7 15 -3 9 -17 66 -11 105 10
14 8 24 8 31 1 8 -8 13 -7 17 0 4 6 18 11 31 11 12 0 26 7 29 16 9 23 8 24
-18 14 -13 -5 -27 -6 -30 -3 -3 4 -6 1 -6 -5 0 -18 -37 -14 -44 4 -4 12 -13
14 -32 10 -17 -5 -23 -3 -19 4 6 10 -7 14 -32 11 -7 -1 -13 7 -13 18 0 11 -5
23 -10 26 -6 4 -8 10 -5 15 7 12 -5 40 -17 40 -6 0 -5 -6 2 -15z"/>
<path d="M16780 7160 c0 -5 7 -10 15 -10 8 0 15 5 15 10 0 6 -7 10 -15 10 -8
0 -15 -4 -15 -10z"/>
<path d="M15261 7156 c7 -8 317 -11 324 -4 4 4 -69 7 -161 7 -92 1 -166 -1
-163 -3z"/>
<path d="M16136 7145 c-3 -9 0 -15 9 -15 9 0 12 6 9 15 -4 8 -7 15 -9 15 -2 0
-5 -7 -9 -15z"/>
<path d="M17205 7140 c-4 -7 -18 -9 -31 -6 -16 4 -24 2 -24 -6 0 -7 -12 -24
-25 -37 -32 -29 -32 -41 0 -41 14 0 25 -5 25 -10 0 -6 8 -5 19 2 15 9 28 9 55
1 28 -9 36 -8 40 4 10 26 6 43 -9 43 -8 0 -16 6 -16 13 -1 6 -2 18 -3 26 -1
18 -22 25 -31 11z"/>
<path d="M16626 7103 c-4 -11 -4 -28 0 -37 6 -15 8 -15 21 4 14 19 14 24 0 37
-13 14 -16 13 -21 -4z"/>
<path d="M17405 7110 c-3 -5 1 -10 9 -10 9 0 16 5 16 10 0 6 -4 10 -9 10 -6 0
-13 -4 -16 -10z"/>
<path d="M17008 7063 c-17 -4 -26 -33 -10 -33 10 1 42 26 42 34 0 6 -5 6 -32
-1z"/>
<path d="M18455 7060 c3 -5 8 -10 11 -10 2 0 4 5 4 10 0 6 -5 10 -11 10 -5 0
-7 -4 -4 -10z"/>
<path d="M17800 7000 c0 -6 7 -10 15 -10 8 0 15 2 15 4 0 2 -7 6 -15 10 -8 3
-15 1 -15 -4z"/>
<path d="M16936 6991 c-4 -7 -5 -15 -2 -18 9 -9 19 4 14 18 -4 11 -6 11 -12 0z"/>
<path d="M17732 6989 c2 -6 8 -10 13 -10 5 0 11 4 13 10 2 6 -4 11 -13 11 -9
0 -15 -5 -13 -11z"/>
<path d="M17851 6973 c-1 -6 -4 -20 -7 -30 -5 -17 -5 -17 6 0 6 10 9 23 6 30
-3 9 -5 9 -5 0z"/>
<path d="M17020 6949 c0 -22 36 -58 58 -59 9 0 12 10 10 27 -2 19 -12 30 -35
40 -31 12 -33 12 -33 -8z"/>
<path d="M17521 6914 c0 -11 3 -14 6 -6 3 7 2 16 -1 19 -3 4 -6 -2 -5 -13z"/>
<path d="M16090 6890 c-13 -8 -12 -10 3 -10 11 0 17 -8 17 -23 0 -13 6 -29 13
-36 10 -11 10 -13 0 -7 -9 5 -13 -2 -13 -22 0 -21 -6 -31 -19 -35 -25 -6 -37
-91 -32 -234 1 -22 31 -35 31 -14 0 5 16 15 35 21 49 16 59 39 30 72 -13 15
-26 24 -29 21 -3 -4 -6 1 -6 10 0 11 8 17 24 17 17 0 27 7 32 23 4 12 12 25
18 30 8 5 8 9 0 15 -13 8 -34 98 -25 107 3 4 6 22 6 41 0 28 -2 31 -11 19 -11
-15 -42 -11 -54 6 -3 4 -12 4 -20 -1z"/>
<path d="M17160 6890 c0 -5 7 -10 15 -10 8 0 15 5 15 10 0 6 -7 10 -15 10 -8
0 -15 -4 -15 -10z"/>
<path d="M16677 6874 c-11 -11 -8 -52 3 -59 6 -3 13 0 15 8 7 17 -8 60 -18 51z"/>
<path d="M17615 6820 c3 -5 8 -10 11 -10 2 0 4 5 4 10 0 6 -5 10 -11 10 -5 0
-7 -4 -4 -10z"/>
<path d="M16670 6775 c0 -29 -2 -28 38 -14 18 6 30 15 27 20 -3 4 -12 6 -19 3
-8 -3 -17 -1 -21 5 -11 19 -25 12 -25 -14z"/>
<path d="M16685 6530 c3 -5 15 -10 25 -10 10 0 22 5 25 10 4 6 -7 10 -25 10
-18 0 -29 -4 -25 -10z"/>
<path d="M16760 6524 c0 -8 5 -12 10 -9 6 3 10 10 10 16 0 5 -4 9 -10 9 -5 0
-10 -7 -10 -16z"/>
<path d="M11415 170 c-4 -6 1 -10 9 -10 8 0 20 -8 25 -19 6 -10 22 -26 36 -35
22 -14 25 -15 25 -1 0 29 -82 85 -95 65z"/>
<path d="M11875 100 c-3 -5 1 -10 10 -10 9 0 13 5 10 10 -3 6 -8 10 -10 10 -2
0 -7 -4 -10 -10z"/>
</g>
</svg>
