<?xml version="1.0" standalone="no"?>
<!DOCTYPE svg PUBLIC "-//W3C//DTD SVG 20010904//EN"
 "http://www.w3.org/TR/2001/REC-SVG-20010904/DTD/svg10.dtd">
<svg version="1.0" xmlns="http://www.w3.org/2000/svg"
 width="757.000000pt" height="718.000000pt" viewBox="0 0 757.000000 718.000000"
 preserveAspectRatio="xMidYMid meet">

<g transform="translate(0.000000,718.000000) scale(0.100000,-0.100000)"
fill="#000000" stroke="none">
<path d="M0 3590 l0 -3590 3785 0 3785 0 0 3590 0 3590 -3785 0 -3785 0 0
-3590z m6163 2536 l22 19 -19 -22 c-19 -23 -19 -23 0 -45 l19 -23 -22 19 c-23
19 -23 19 -45 0 l-23 -19 19 23 c19 22 19 22 0 45 l-19 22 23 -19 c22 -19 22
-19 45 0z m-3053 -296 c0 -16 -5 -19 -29 -14 -22 5 -32 1 -45 -17 -21 -31 -20
-52 4 -74 13 -12 27 -15 45 -11 21 5 25 3 25 -14 0 -17 -6 -20 -42 -20 -73 1
-110 51 -84 114 17 41 39 55 89 56 30 0 37 -4 37 -20z m791 -65 c16 -44 29
-81 29 -82 0 -2 -11 -3 -24 -3 -16 0 -27 7 -31 20 -4 13 -15 20 -32 20 -16 0
-27 -7 -30 -20 -3 -13 -14 -20 -29 -20 -29 0 -29 -4 -3 67 12 32 26 68 30 81
7 18 15 23 35 20 23 -3 30 -13 55 -83z m-361 55 c0 -11 7 -20 15 -20 8 0 15
-7 15 -15 0 -8 -7 -15 -15 -15 -10 0 -15 -10 -15 -30 0 -20 5 -30 15 -30 8 0
15 -7 15 -15 0 -10 -10 -15 -30 -15 -32 0 -50 22 -50 64 0 14 -4 26 -10 26 -5
0 -10 7 -10 15 0 8 5 15 10 15 6 0 10 6 10 14 0 14 14 24 38 25 6 1 12 -8 12
-19z m1120 0 c0 -11 7 -20 15 -20 8 0 15 -7 15 -15 0 -8 -7 -15 -15 -15 -9 0
-15 -9 -15 -25 0 -14 7 -28 15 -31 8 -4 15 -13 15 -21 0 -10 -9 -13 -32 -11
-31 3 -33 6 -36 46 -2 23 -7 42 -13 42 -5 0 -9 7 -9 15 0 8 5 15 10 15 6 0 10
6 10 14 0 13 13 23 33 25 4 1 7 -8 7 -19z m-1440 -34 c0 -7 -9 -16 -20 -19
-16 -4 -20 -14 -20 -46 0 -37 -2 -41 -25 -41 -24 0 -25 3 -25 60 l0 60 45 0
c32 0 45 -4 45 -14z m104 -2 c9 -8 16 -24 16 -35 0 -16 -7 -19 -41 -19 -27 0
-38 -4 -33 -11 4 -6 19 -9 36 -5 24 5 29 3 26 -12 -4 -24 -70 -29 -92 -7 -21
21 -21 63 1 87 20 22 66 24 87 2z m124 4 c7 -7 12 -33 12 -60 l0 -47 -52 2
c-52 2 -53 3 -53 32 0 25 6 32 35 43 l35 13 -32 -5 c-32 -5 -45 9 -26 27 11
12 68 8 81 -5z m230 0 c7 -7 12 -22 12 -35 0 -20 -5 -23 -36 -23 -23 0 -33 -4
-28 -11 3 -6 17 -8 31 -4 20 5 24 2 21 -12 -5 -25 -64 -30 -89 -7 -40 36 -11
104 45 104 17 0 37 -5 44 -12z m362 -9 c0 -15 -5 -19 -17 -15 -25 8 -46 -8
-41 -30 3 -14 11 -18 31 -17 21 1 27 -3 27 -18 0 -38 -96 -19 -100 21 -7 52
16 80 66 80 28 0 34 -4 34 -21z m118 -2 c3 -14 -1 -17 -20 -12 -16 4 -29 1
-37 -9 -19 -23 4 -49 37 -41 19 5 23 2 20 -12 -5 -25 -64 -30 -89 -7 -43 38
-6 108 54 102 21 -2 33 -9 35 -21z m124 6 c40 -36 10 -103 -47 -103 -44 0 -68
21 -68 60 0 20 7 38 18 46 26 19 75 17 97 -3z m80 -25 c2 -30 8 -43 18 -43 10
0 16 13 18 43 3 34 7 42 23 42 17 0 19 -7 19 -59 l0 -59 -47 0 c-27 0 -54 4
-60 10 -7 6 -13 32 -13 59 0 42 3 49 19 49 16 0 20 -8 23 -42z m218 22 c6 -10
10 -37 10 -59 0 -37 -2 -41 -25 -41 -23 0 -25 4 -25 46 0 59 -24 55 -28 -4 -3
-37 -6 -42 -28 -42 -23 0 -24 3 -24 59 l0 60 55 0 c43 0 57 -4 65 -19z m-2047
-297 c-27 -5 -31 -32 -5 -34 16 -1 16 -2 0 -6 -26 -7 -22 -41 5 -46 19 -4 18
-4 -5 -6 -27 -1 -28 1 -28 49 0 48 1 50 28 49 23 -2 24 -2 5 -6z m781 -1 c-5
-4 -11 -25 -13 -47 -2 -48 -11 -61 -11 -17 0 19 -5 32 -12 33 -10 0 -10 2 0 6
6 2 12 11 12 19 0 8 8 14 18 14 10 0 13 -3 6 -8z m-645 -30 c-14 -5 -11 -50 4
-55 7 -4 6 -6 -4 -6 -12 -1 -18 9 -21 33 -5 46 0 59 17 43 7 -7 9 -13 4 -15z
m1000 0 c-12 -5 -11 -49 1 -55 6 -3 5 -4 -2 -3 -14 3 -27 52 -20 73 3 9 7 9
17 0 7 -7 9 -13 4 -15z m280 0 c-12 -5 -11 -49 1 -55 6 -3 5 -4 -2 -3 -14 3
-27 52 -20 73 3 9 7 9 17 0 7 -7 9 -13 4 -15z m430 0 c-14 -5 -11 -50 4 -55 7
-4 6 -6 -4 -6 -12 -1 -18 9 -21 33 -5 46 0 59 17 43 7 -7 9 -13 4 -15z m784
-21 c1 -23 -1 -41 -5 -41 -5 0 -8 14 -8 30 0 17 -5 30 -10 30 -6 0 -5 6 2 14
17 19 20 15 21 -33z m-2547 -11 l2 -35 -5 33 c-2 18 -10 32 -18 32 -8 0 -15
-14 -18 -32 -4 -32 -4 -32 -5 5 -2 34 0 38 21 35 18 -2 22 -10 23 -38z m124
36 c0 -2 3 -11 6 -20 5 -12 0 -16 -20 -16 -32 0 -34 -17 -3 -23 19 -5 19 -5
-3 -4 -41 3 -41 67 0 67 11 0 20 -2 20 -4z m53 -4 c-6 -4 -13 -21 -16 -37 -4
-27 -4 -27 -6 8 -1 29 3 37 17 37 11 0 13 -3 5 -8z m71 -19 l14 -28 7 28 c4
15 11 27 16 27 5 0 1 -17 -8 -37 -22 -48 -33 -63 -46 -63 -6 0 -3 6 7 13 17
12 17 16 2 50 -18 43 -13 49 8 10z m111 -8 c0 -25 -4 -30 -25 -30 -16 0 -26 6
-28 18 -6 30 6 49 30 45 18 -2 23 -9 23 -33z m53 -23 c9 2 20 17 23 33 7 30 7
30 8 -6 1 -33 -1 -36 -26 -35 -24 1 -28 6 -30 34 l-3 32 6 -31 c4 -21 10 -29
22 -27z m79 45 c-9 -7 -18 -23 -20 -37 -3 -19 -5 -17 -6 10 -1 30 3 36 20 37
19 2 19 0 6 -10z m70 -39 c-2 -13 -4 -5 -4 17 -1 22 1 32 4 23 2 -10 2 -28 0
-40z m80 12 c1 -34 1 -34 -5 -5 -4 17 -14 30 -22 30 -8 0 -18 -13 -21 -30 -7
-30 -7 -30 -8 6 -1 33 1 36 27 35 24 -1 27 -5 29 -36z m127 18 c8 -14 7 -21
-6 -34 -30 -30 -75 9 -48 42 16 18 39 15 54 -8z m49 14 c-6 -4 -13 -21 -16
-37 -4 -27 -4 -27 -6 8 -1 29 3 37 17 37 11 0 13 -3 5 -8z m74 -32 c1 -33 1
-33 -5 -6 -10 42 -30 44 -35 4 -4 -33 -4 -33 -5 5 -2 34 0 38 21 35 18 -2 22
-10 24 -38z m39 -1 c2 -31 1 -31 -3 -4 -3 16 -10 34 -16 38 -8 6 -7 7 3 4 9
-2 16 -17 16 -38z m78 25 c3 -9 6 -25 6 -35 0 -16 -6 -20 -27 -17 -35 4 -37
30 -3 39 l25 6 -25 11 c-23 10 -23 11 -4 11 12 1 25 -6 28 -15z m83 -36 c-2
-13 -4 -5 -4 17 -1 22 1 32 4 23 2 -10 2 -28 0 -40z m78 17 c0 -25 -4 -30 -25
-30 -16 0 -26 6 -28 18 -6 30 6 49 30 45 18 -2 23 -9 23 -33z m82 -5 c1 -34 1
-34 -5 -5 -4 17 -14 30 -22 30 -8 0 -18 -13 -21 -30 -7 -30 -7 -30 -8 6 -1 33
1 36 27 35 24 -1 27 -5 29 -36z m167 18 c8 -14 7 -21 -6 -34 -30 -30 -75 9
-48 42 16 18 39 15 54 -8z m89 12 c-13 -5 -23 -16 -23 -25 0 -9 10 -20 23 -25
17 -8 18 -9 3 -7 -28 3 -43 32 -27 51 8 9 21 16 30 15 11 0 9 -3 -6 -9z m64
-3 c-9 -7 -18 -23 -20 -37 -3 -19 -5 -17 -6 10 -1 30 3 36 20 37 19 2 19 0 6
-10z m67 4 c4 -5 -3 -7 -14 -4 -11 3 -20 0 -20 -6 0 -6 12 -12 28 -12 l27 -2
-27 -4 c-34 -5 -37 -20 -5 -26 19 -5 19 -5 -3 -4 -25 2 -37 25 -26 53 6 16 32
19 40 5z m74 -29 c3 -29 1 -32 -22 -32 -31 0 -36 29 -6 37 25 7 26 20 3 27
-14 4 -14 4 2 3 15 -2 21 -11 23 -35z m122 34 c0 -2 3 -11 6 -20 5 -12 0 -16
-20 -16 -32 0 -34 -17 -3 -23 19 -5 19 -5 -3 -4 -41 3 -41 67 0 67 11 0 20 -2
20 -4z m108 -34 c3 -29 1 -32 -22 -32 -31 0 -36 29 -6 37 25 7 26 20 3 27 -14
4 -14 4 2 3 15 -2 21 -11 23 -35z m78 -2 l2 -35 -5 33 c-2 18 -10 32 -18 32
-8 0 -15 -14 -18 -32 -4 -32 -4 -32 -5 5 -2 34 0 38 21 35 18 -2 22 -10 23
-38z m112 2 c3 -29 1 -32 -22 -32 -31 0 -36 29 -6 37 25 7 26 20 3 27 -14 4
-14 4 2 3 15 -2 21 -11 23 -35z m55 28 c-13 -5 -23 -16 -23 -25 0 -9 10 -20
23 -25 22 -10 22 -10 -3 -7 -42 4 -40 68 2 66 l23 0 -22 -9z m60 0 c-13 -5
-23 -16 -23 -25 0 -9 10 -20 23 -25 17 -8 18 -9 3 -7 -28 3 -43 32 -27 51 8 9
21 16 30 15 11 0 9 -3 -6 -9z m92 -25 c0 -25 -4 -30 -25 -30 -16 0 -26 6 -28
18 -6 30 6 49 30 45 18 -2 23 -9 23 -33z m55 -20 c8 0 18 13 21 30 l7 30 1
-35 c1 -30 -3 -36 -21 -37 -26 -2 -38 13 -37 47 1 22 2 22 8 -5 3 -17 13 -30
21 -30z m106 15 l2 -35 -5 33 c-2 18 -10 32 -18 32 -8 0 -15 -14 -18 -32 -4
-32 -4 -32 -5 5 -2 34 0 38 21 35 18 -2 22 -10 23 -38z m-3381 -432 l20 -33 3
33 c5 51 22 37 22 -18 0 -60 -20 -67 -47 -17 l-18 32 -3 -32 c-5 -52 -22 -38
-22 17 0 59 16 66 45 18z m123 -35 c3 -32 2 -33 -32 -33 -26 0 -36 4 -36 16 0
9 9 18 20 21 11 3 20 9 20 14 0 5 -7 6 -15 3 -8 -4 -15 -1 -15 6 0 6 11 10 28
8 22 -2 28 -8 30 -35z m120 0 c2 -19 -1 -33 -7 -33 -6 0 -11 9 -11 19 0 11 -4
23 -10 26 -6 4 -10 -5 -10 -19 0 -16 -6 -26 -15 -26 -9 0 -15 9 -15 25 0 14
-4 25 -10 25 -5 0 -10 -11 -10 -25 0 -14 -4 -25 -10 -25 -5 0 -10 16 -10 36
l0 35 53 -3 c51 -3 52 -4 55 -35z m72 33 c0 -2 3 -11 6 -20 5 -12 0 -16 -21
-16 -14 0 -24 -4 -20 -10 3 -5 12 -7 20 -3 8 3 15 0 15 -7 0 -6 -11 -10 -27
-8 -47 5 -45 68 2 68 14 0 25 -2 25 -4z m-211 -432 c-6 -8 -17 -14 -23 -14 -6
0 -3 5 7 11 11 7 18 24 19 52 l1 42 4 -38 c3 -21 -1 -45 -8 -53z m152 53 c14
-4 19 -13 17 -39 l-1 -33 -4 33 c-3 18 -10 32 -18 32 -8 0 -15 -14 -18 -32 -2
-19 -4 -9 -4 22 0 30 1 48 4 39 2 -10 13 -19 24 -22z m227 21 c30 -30 2 -88
-44 -88 -22 0 -24 4 -24 50 0 48 1 50 28 50 15 0 33 -5 40 -12z m-293 -53 c0
-25 -4 -30 -25 -30 -16 0 -26 6 -28 18 -6 30 6 49 30 45 18 -2 23 -9 23 -33z
m162 -5 c1 -34 1 -34 -5 -5 -4 17 -14 30 -22 30 -8 0 -18 -13 -21 -30 -7 -30
-7 -30 -8 6 -1 33 1 36 27 35 24 -1 27 -5 29 -36z m218 5 c0 -25 -4 -30 -25
-30 -16 0 -26 6 -28 18 -6 30 6 49 30 45 18 -2 23 -9 23 -33z m75 31 c0 -2 3
-11 6 -20 5 -12 0 -16 -20 -16 -32 0 -34 -17 -3 -23 19 -5 19 -5 -3 -4 -41 3
-41 67 0 67 11 0 20 -2 20 -4z m-635 -436 c-3 -5 -13 -10 -21 -10 -23 0 -16
-18 9 -23 l22 -4 -22 -8 c-28 -9 -30 -25 -3 -25 11 0 20 -4 20 -10 0 -5 -13
-10 -30 -10 -29 0 -30 1 -30 50 0 49 1 50 31 50 17 0 28 -4 24 -10z m235 0 c0
-5 -4 -10 -10 -10 -5 0 -10 5 -10 10 0 6 5 10 10 10 6 0 10 -4 10 -10z m40
-40 c0 -38 -4 -50 -15 -50 -11 0 -15 12 -15 50 0 38 4 50 15 50 11 0 15 -12
15 -50z m-150 -16 c0 -19 -4 -34 -10 -34 -5 0 -10 11 -10 25 0 14 -4 25 -10
25 -5 0 -10 -11 -10 -25 0 -16 -6 -25 -15 -25 -9 0 -15 9 -15 25 0 14 -4 25
-10 25 -5 0 -10 -11 -10 -25 0 -14 -4 -25 -10 -25 -5 0 -10 16 -10 35 l0 34
55 0 55 -1 0 -34z m78 -1 c3 -32 2 -33 -32 -33 -26 0 -36 4 -36 16 0 9 9 18
20 21 11 3 20 9 20 14 0 5 -7 6 -15 3 -8 -4 -15 -1 -15 6 0 6 11 10 28 8 22
-2 28 -8 30 -35z m32 2 c0 -19 -4 -35 -10 -35 -5 0 -10 16 -10 35 0 19 5 35
10 35 6 0 10 -16 10 -35z m-100 -365 c0 -27 -4 -50 -10 -50 -5 0 -10 14 -10
30 0 17 -4 30 -10 30 -5 0 -10 -13 -10 -30 0 -42 -17 -38 -22 5 -5 44 7 65 37
65 23 0 25 -4 25 -50z m530 35 c0 -8 9 -15 20 -15 16 0 20 -7 20 -35 0 -19 -4
-35 -10 -35 -5 0 -10 14 -10 30 0 17 -4 30 -10 30 -5 0 -10 -13 -10 -30 0 -16
-4 -30 -10 -30 -5 0 -10 23 -10 50 0 28 5 50 10 50 6 0 10 -7 10 -15z m370
-20 c0 -32 19 -52 21 -22 1 6 2 21 3 32 2 28 51 28 51 0 1 -11 4 -26 9 -33 18
-30 -36 -56 -62 -30 -10 10 -15 10 -23 -2 -8 -11 -12 -12 -16 -2 -2 6 -13 12
-24 12 -24 0 -24 5 2 46 26 43 39 43 39 -1z m158 -3 c4 -39 -12 -62 -42 -61
-21 0 -21 0 2 9 27 11 29 30 3 30 -24 0 -35 28 -20 47 7 8 22 13 33 11 16 -2
22 -11 24 -36z m116 25 c12 -9 17 -23 14 -42 -3 -28 -6 -30 -43 -30 -36 0 -40
3 -40 25 0 20 6 26 27 28 22 3 27 -1 31 -25 4 -27 4 -27 6 4 1 23 -4 33 -18
38 -27 8 -50 -4 -57 -31 -8 -31 10 -52 49 -57 25 -4 23 -4 -8 -3 -31 1 -42 6
-54 27 -13 24 -13 29 2 53 19 29 61 35 91 13z m356 -37 c0 -27 -4 -50 -10 -50
-5 0 -10 23 -10 50 0 28 5 50 10 50 6 0 10 -22 10 -50z m-1044 25 c9 -8 11
-15 5 -15 -15 0 -14 -47 2 -54 6 -3 3 -5 -8 -3 -20 2 -36 47 -27 75 5 16 10
15 28 -3z m-405 -21 c17 -21 0 -49 -31 -49 -31 0 -48 28 -31 49 8 9 21 16 31
16 10 0 23 -7 31 -16z m52 9 c-7 -2 -13 -18 -13 -34 0 -16 -4 -29 -10 -29 -5
0 -10 16 -10 35 0 30 3 35 23 34 12 0 16 -3 10 -6z m75 -15 c3 -14 -3 -18 -24
-18 -30 0 -23 -15 11 -23 13 -3 9 -5 -12 -6 -36 -1 -54 29 -32 55 16 19 53 14
57 -8z m62 12 c0 -5 -7 -7 -15 -4 -29 11 -15 -14 15 -28 41 -18 38 -26 -10
-26 -22 0 -40 3 -40 8 0 5 7 7 15 4 8 -4 15 -2 15 4 0 5 -7 12 -15 16 -25 9
-18 36 10 36 14 0 25 -4 25 -10z m98 -27 c3 -31 1 -33 -27 -33 -36 0 -44 28
-11 37 11 3 20 10 20 15 0 5 -10 6 -21 3 -15 -5 -19 -4 -14 5 4 6 17 10 28 8
17 -2 23 -11 25 -35z m80 0 c4 -38 -15 -45 -20 -8 -4 35 -22 36 -26 3 -5 -41
-22 -34 -22 8 0 34 1 35 33 32 28 -3 32 -7 35 -35z m203 21 c17 -21 0 -49 -31
-49 -31 0 -48 28 -31 49 8 9 21 16 31 16 10 0 23 -7 31 -16z m79 -19 c0 -19
-4 -35 -10 -35 -5 0 -10 14 -10 30 0 17 -4 30 -10 30 -5 0 -10 -13 -10 -30 0
-16 -4 -30 -10 -30 -5 0 -10 16 -10 35 0 32 2 35 30 35 28 0 30 -3 30 -35z
m37 13 l10 -23 7 23 c4 12 12 22 17 22 12 0 12 -2 -11 -54 -13 -30 -25 -46
-37 -46 -14 0 -15 2 -4 9 13 8 12 32 -5 75 -10 25 12 19 23 -6z m501 -25 c-3
-46 -5 -48 -33 -50 -20 -1 -23 0 -7 4 28 6 29 21 0 25 -46 6 -29 68 19 68 23
0 24 -3 21 -47z m122 11 c0 -19 -4 -34 -10 -34 -5 0 -10 14 -10 31 0 17 -4 28
-10 24 -5 -3 -10 -17 -10 -31 0 -13 -4 -24 -10 -24 -5 0 -10 14 -10 30 0 17
-4 30 -10 30 -5 0 -10 -13 -10 -30 0 -16 -4 -30 -10 -30 -5 0 -10 15 -10 34
l0 35 50 -1 50 0 0 -34z m74 20 c3 -9 6 -25 6 -35 0 -17 -6 -20 -32 -17 -40 4
-45 29 -8 38 17 4 21 8 12 14 -6 4 -16 4 -22 1 -5 -3 -10 -1 -10 4 0 17 47 13
54 -5z m36 -19 c0 -19 -4 -35 -10 -35 -5 0 -10 16 -10 35 0 19 5 35 10 35 6 0
10 -16 10 -35z m130 26 c0 -5 -8 -8 -17 -7 -12 1 -18 -6 -18 -19 0 -13 6 -20
18 -19 9 1 17 -3 17 -8 0 -15 -42 -5 -53 14 -8 12 -7 21 2 32 14 17 51 22 51
7z m75 -26 c0 -27 -3 -30 -30 -30 -21 0 -31 5 -33 18 -6 33 6 49 35 45 24 -3
28 -8 28 -33z m123 -2 c2 -19 -1 -33 -7 -33 -6 0 -11 14 -11 30 0 17 -4 30
-10 30 -5 0 -10 -13 -10 -30 0 -16 -4 -30 -10 -30 -5 0 -10 11 -10 24 0 14 -4
28 -10 31 -6 4 -10 -7 -10 -24 0 -17 -4 -31 -10 -31 -5 0 -10 16 -10 35 l0 35
48 -2 c45 -3 47 -4 50 -35z m-998 -23 c0 -5 -4 -10 -10 -10 -5 0 -10 5 -10 10
0 6 5 10 10 10 6 0 10 -4 10 -10z m740 0 c0 -5 -7 -10 -15 -10 -8 0 -15 5 -15
10 0 6 7 10 15 10 8 0 15 -4 15 -10z m-1692 -397 c2 -16 -4 -26 -22 -35 -14
-6 -26 -17 -26 -25 0 -7 -4 -13 -10 -13 -5 0 -10 23 -10 51 l0 50 33 -3 c24
-2 33 -8 35 -25z m512 -23 l0 -50 -34 0 c-26 0 -36 5 -41 20 -3 11 -3 25 1 31
4 7 1 10 -7 7 -8 -2 -15 -17 -17 -31 -5 -40 -22 -33 -22 9 0 33 2 35 28 34 49
-4 62 0 62 15 0 8 7 15 15 15 11 0 15 -12 15 -50z m-290 3 c0 -14 2 -14 15 3
13 16 16 17 26 4 8 -11 12 -12 16 -2 9 24 23 12 17 -15 -10 -42 -23 -51 -40
-29 -12 17 -14 18 -14 3 0 -28 -30 -19 -36 11 -4 19 -12 28 -25 28 -23 0 -24
-5 -2 -21 31 -23 4 -33 -87 -34 -76 -1 -90 1 -90 15 0 9 9 18 20 21 11 3 20 9
20 14 0 5 -7 6 -15 3 -8 -4 -15 -2 -15 3 0 6 45 11 105 11 91 1 105 -1 105
-15z m157 1 c9 -24 -10 -49 -37 -49 -31 0 -48 28 -31 49 17 21 60 21 68 0z
m-277 -389 c0 -8 -9 -15 -20 -15 -11 0 -20 7 -20 15 0 8 9 15 20 15 11 0 20
-7 20 -15z m53 0 c1 -5 -6 -11 -15 -13 -11 -2 -18 3 -18 13 0 17 30 18 33 0z
m57 0 c0 -8 -6 -15 -14 -15 -17 0 -28 14 -19 24 12 12 33 6 33 -9z m60 0 c0
-8 -9 -15 -20 -15 -11 0 -20 7 -20 15 0 8 9 15 20 15 11 0 20 -7 20 -15z m53
0 c1 -5 -6 -11 -15 -13 -11 -2 -18 3 -18 13 0 17 30 18 33 0z m57 0 c0 -8 -6
-15 -14 -15 -17 0 -28 14 -19 24 12 12 33 6 33 -9z m60 0 c0 -8 -9 -15 -20
-15 -11 0 -20 7 -20 15 0 8 9 15 20 15 11 0 20 -7 20 -15z m53 0 c1 -5 -6 -11
-15 -13 -11 -2 -18 3 -18 13 0 17 30 18 33 0z m1397 -465 c0 -5 -10 -10 -22
-10 -23 0 -23 0 2 -20 20 -16 26 -16 28 -5 4 18 32 20 32 3 0 -10 2 -10 9 0 5
9 29 12 82 10 l74 -3 3 -32 c2 -25 -1 -33 -12 -33 -10 0 -16 9 -16 25 0 14 -4
25 -10 25 -5 0 -10 -11 -10 -25 0 -18 -5 -25 -19 -25 -10 0 -21 -7 -25 -15 -3
-9 -18 -15 -36 -15 -34 0 -42 19 -7 21 20 1 20 2 2 6 -11 3 -23 10 -27 17 -6
8 -8 7 -8 -1 0 -7 -7 -13 -15 -13 -8 0 -15 6 -16 13 0 10 -2 10 -6 0 -6 -15
-73 -18 -73 -3 0 6 12 10 28 10 l27 0 -29 23 c-37 30 -30 57 14 57 16 0 30 -4
30 -10z m40 0 c0 -5 -7 -10 -15 -10 -8 0 -15 5 -15 10 0 6 7 10 15 10 8 0 15
-4 15 -10z m242 -27 c4 -52 28 -56 28 -4 0 30 4 41 16 41 12 0 14 -10 12 -47
-3 -46 -4 -48 -37 -51 -40 -4 -51 9 -51 61 0 51 28 52 32 0z m143 -28 c0 -23
-5 -31 -22 -33 -13 -2 -23 -10 -23 -18 0 -8 -7 -14 -15 -14 -11 0 -15 12 -15
51 l0 50 38 -3 c34 -3 37 -6 37 -33z m-752 -375 c-13 -5 -23 -15 -23 -21 0 -7
-3 -9 -6 -6 -10 10 16 37 35 36 11 0 9 -3 -6 -9z m102 -25 c1 -17 4 -37 8 -45
5 -8 0 -5 -9 8 -9 12 -20 22 -25 22 -4 0 -10 -10 -12 -22 -2 -13 -5 -1 -6 25
-1 45 1 48 22 45 17 -2 22 -10 22 -33z m112 29 c-3 -3 -12 -4 -19 -1 -8 3 -5
6 6 6 11 1 17 -2 13 -5z m81 -6 c7 -7 12 -16 12 -22 0 -5 -6 -1 -14 10 -13 17
-17 18 -38 5 -21 -13 -22 -13 -9 2 16 20 32 22 49 5z m62 -21 c10 -21 10 -21
-4 -3 -14 17 -15 15 -19 -20 -3 -37 -4 -36 -5 9 -2 50 9 55 28 14z m40 -12 c0
-44 -12 -60 -24 -29 -3 8 -2 12 4 9 6 -4 10 9 10 29 0 20 2 36 5 36 3 0 5 -20
5 -45z m58 38 c-10 -2 -26 -2 -35 0 -10 3 -2 5 17 5 19 0 27 -2 18 -5z m29
-60 c-2 -16 -4 -5 -4 22 0 28 2 40 4 28 2 -13 2 -35 0 -50z m54 45 c11 -21 11
-22 -4 -9 -10 7 -17 17 -17 22 0 15 9 10 21 -13z m177 15 c-10 -2 -18 -11 -18
-19 0 -8 8 -15 18 -15 16 -1 16 -2 0 -6 -10 -2 -18 -11 -18 -18 0 -7 8 -16 18
-18 13 -4 11 -5 -5 -6 -21 -1 -23 4 -23 44 0 40 2 45 23 44 16 -1 18 -2 5 -6z
m122 -33 c0 -13 -1 -13 -10 0 -8 12 -10 12 -10 1 0 -8 -2 -12 -5 -10 -2 3 -2
15 2 28 4 17 8 19 14 9 5 -7 9 -20 9 -28z m57 -27 c-2 -16 -4 -5 -4 22 0 28 2
40 4 28 2 -13 2 -35 0 -50z m66 60 c-7 -2 -14 -23 -15 -46 l-1 -42 -4 40 c-3
22 -10 43 -16 47 -7 4 1 7 18 7 17 0 24 -3 18 -6z m57 -33 c11 0 20 9 23 23 2
12 4 0 4 -28 0 -27 -2 -40 -4 -27 -3 13 -12 22 -23 22 -11 0 -20 -9 -23 -22
-2 -13 -4 0 -4 27 0 28 2 40 4 28 3 -14 12 -23 23 -23z m-233 -2 c-3 -8 -6 -5
-6 6 -1 11 2 17 5 13 3 -3 4 -12 1 -19z m80 0 c-3 -8 -6 -5 -6 6 -1 11 2 17 5
13 3 -3 4 -12 1 -19z m-700 -10 c-3 -8 -6 -5 -6 6 -1 11 2 17 5 13 3 -3 4 -12
1 -19z m-148 -20 c12 7 21 8 21 3 0 -5 -9 -13 -20 -16 -22 -7 -50 9 -50 28 0
6 6 2 14 -9 13 -16 18 -17 35 -6z m559 -14 c-4 -3 -12 5 -18 18 -12 22 -12 22
6 6 10 -10 15 -20 12 -24z m-281 16 c17 13 17 13 2 -4 -17 -18 -59 -15 -59 5
0 5 9 4 19 -3 15 -9 23 -9 38 2z m513 -11 c0 -6 -4 -7 -10 -4 -5 3 -10 11 -10
16 0 6 5 7 10 4 6 -3 10 -11 10 -16z m50 6 c0 -8 -4 -15 -10 -15 -5 0 -10 7
-10 15 0 8 5 15 10 15 6 0 10 -7 10 -15z m-654 -13 c-10 -2 -22 0 -28 6 -6 6
0 7 19 4 21 -5 23 -7 9 -10z m447 6 c-2 -5 -10 -8 -18 -8 -8 0 -16 3 -18 8 -3
4 5 7 18 7 13 0 21 -3 18 -7z m-473 -317 c16 -30 12 -107 -6 -125 -21 -21
-107 -21 -128 0 -18 18 -22 95 -6 125 9 15 22 19 70 19 48 0 61 -4 70 -19z
m1668 -13 c17 -16 26 -19 29 -10 3 7 14 17 25 23 23 12 19 0 -10 -34 -14 -16
-13 -20 6 -47 12 -16 22 -34 22 -40 0 -19 -28 -10 -48 15 l-19 24 -23 -24
c-30 -32 -39 -24 -11 11 20 26 17 53 -9 69 -14 9 -13 35 2 35 6 0 23 -10 36
-22z m-3054 6 c24 -9 9 -24 -25 -24 -26 0 -29 -3 -29 -30 0 -25 4 -30 24 -30
14 0 28 5 31 10 3 6 -1 10 -9 10 -9 0 -16 5 -16 10 0 6 14 10 31 10 27 0 30
-3 24 -22 -8 -28 -32 -48 -57 -48 -24 0 -58 35 -58 60 0 23 33 60 54 60 8 0
21 -3 30 -6z m306 -13 c0 -5 -12 -11 -27 -13 -22 -2 -28 -8 -28 -28 0 -17 6
-26 20 -29 17 -3 18 -1 6 13 -12 14 -10 16 13 16 23 0 27 -4 24 -22 -4 -27
-50 -37 -74 -17 -17 14 -19 60 -2 77 14 14 68 16 68 3z m240 -1 c0 -5 -7 -10
-16 -10 -8 0 -12 5 -9 10 3 6 10 10 16 10 5 0 9 -4 9 -10z m40 -40 c0 -38 -4
-50 -15 -50 -11 0 -15 12 -15 50 0 38 4 50 15 50 11 0 15 -12 15 -50z m1000 0
c0 -27 -4 -50 -10 -50 -5 0 -10 23 -10 50 0 28 5 50 10 50 6 0 10 -22 10 -50z
m1757 34 c5 -15 7 -15 15 0 5 9 16 16 24 16 12 0 12 -4 -2 -25 -15 -23 -15
-27 0 -50 14 -21 14 -25 2 -25 -8 0 -19 8 -25 18 -9 16 -10 16 -16 0 -4 -10
-14 -18 -22 -18 -13 0 -13 3 1 25 15 23 15 27 0 50 -15 23 -15 25 0 25 9 0 19
-7 23 -16z m-1567 -3 c0 -6 17 -11 38 -13 34 -3 37 -6 40 -36 l3 -33 -53 3
c-47 3 -53 6 -58 28 -5 23 -40 40 -40 19 0 -5 7 -9 16 -9 24 0 12 -35 -14 -38
-12 -2 -22 1 -22 7 0 6 8 8 18 5 16 -5 16 -5 0 9 -29 23 -23 47 11 47 17 0 33
5 36 10 8 13 25 13 25 1z m-1342 -48 c2 -19 -1 -33 -7 -33 -6 0 -11 9 -11 19
0 11 -4 23 -10 26 -6 4 -10 -5 -10 -19 0 -16 -6 -26 -15 -26 -9 0 -15 9 -15
25 0 14 -4 25 -10 25 -5 0 -10 -11 -10 -25 0 -14 -4 -25 -10 -25 -5 0 -10 16
-10 36 l0 35 53 -3 c51 -3 52 -4 55 -35z m72 2 c0 -32 -2 -35 -30 -35 -35 0
-43 29 -10 37 11 3 17 9 15 14 -3 4 -13 5 -22 2 -11 -4 -14 -3 -9 5 4 7 18 12
32 12 21 0 24 -5 24 -35z m40 0 c0 -24 -5 -35 -15 -35 -10 0 -15 11 -15 35 0
24 5 35 15 35 10 0 15 -11 15 -35z m1124 19 c11 -28 6 -54 -9 -54 -9 0 -15 9
-15 25 0 14 -4 25 -10 25 -5 0 -10 -11 -10 -25 0 -14 -4 -25 -10 -25 -5 0 -10
16 -10 35 0 32 3 35 29 35 17 0 31 -6 35 -16z m276 -22 c0 -21 -5 -43 -12 -50
-15 -15 -58 -16 -58 -1 0 6 7 9 15 6 8 -4 17 -2 20 3 4 6 -3 10 -14 10 -26 0
-34 15 -27 46 5 20 13 24 41 24 34 0 35 -1 35 -38z m118 0 c3 -32 2 -33 -30
-30 -38 3 -41 18 -8 34 24 13 18 19 -20 19 -20 0 -26 -6 -28 -27 -5 -41 -22
-34 -22 8 l0 35 53 -3 c51 -3 52 -4 55 -36z m122 2 c0 -19 -4 -34 -10 -34 -5
0 -10 11 -10 25 0 14 -4 25 -10 25 -5 0 -10 -11 -10 -25 0 -14 -4 -25 -10 -25
-5 0 -10 11 -10 25 0 14 -4 25 -10 25 -5 0 -10 -11 -10 -25 0 -16 -6 -25 -15
-25 -10 0 -15 11 -15 35 l0 34 55 0 55 -1 0 -34z"/>
<path d="M3837 5786 c-11 -27 -8 -36 8 -36 16 0 17 5 6 34 -7 18 -8 18 -14 2z"/>
<path d="M3265 5760 c-3 -5 3 -10 15 -10 12 0 18 5 15 10 -3 6 -10 10 -15 10
-5 0 -12 -4 -15 -10z"/>
<path d="M3395 5729 c-4 -6 -5 -13 -2 -16 7 -7 27 6 27 18 0 12 -17 12 -25 -2z"/>
<path d="M3620 5760 c0 -5 7 -10 16 -10 8 0 12 5 9 10 -3 6 -10 10 -16 10 -5
0 -9 -4 -9 -10z"/>
<path d="M4214 5755 c-8 -21 2 -45 20 -45 7 0 16 7 20 15 8 21 -3 45 -20 45
-8 0 -17 -7 -20 -15z"/>
<path d="M2700 5440 c0 -5 9 -10 21 -10 11 0 17 5 14 10 -3 6 -13 10 -21 10
-8 0 -14 -4 -14 -10z"/>
<path d="M2930 5425 c0 -18 5 -25 20 -25 15 0 20 7 20 25 0 18 -5 25 -20 25
-15 0 -20 -7 -20 -25z"/>
<path d="M3334 5435 c-4 -9 -2 -21 4 -27 15 -15 44 -1 40 19 -4 23 -36 29 -44
8z"/>
<path d="M3580 5410 c0 -5 6 -10 14 -10 8 0 18 5 21 10 3 6 -3 10 -14 10 -12
0 -21 -4 -21 -10z"/>
<path d="M3740 5425 c0 -18 5 -25 20 -25 15 0 20 7 20 25 0 18 -5 25 -20 25
-15 0 -20 -7 -20 -25z"/>
<path d="M3984 5435 c-4 -9 -2 -21 4 -27 15 -15 44 -1 40 19 -4 23 -36 29 -44
8z"/>
<path d="M4290 5410 c0 -5 7 -10 15 -10 8 0 15 5 15 10 0 6 -7 10 -15 10 -8 0
-15 -4 -15 -10z"/>
<path d="M4410 5440 c0 -5 9 -10 21 -10 11 0 17 5 14 10 -3 6 -13 10 -21 10
-8 0 -14 -4 -14 -10z"/>
<path d="M4520 5410 c0 -5 7 -10 15 -10 8 0 15 5 15 10 0 6 -7 10 -15 10 -8 0
-15 -4 -15 -10z"/>
<path d="M4710 5410 c0 -5 7 -10 15 -10 8 0 15 5 15 10 0 6 -7 10 -15 10 -8 0
-15 -4 -15 -10z"/>
<path d="M4914 5435 c-7 -18 3 -35 22 -35 8 0 14 10 14 25 0 27 -27 35 -36 10z"/>
<path d="M2015 4970 c-3 -5 1 -10 10 -10 9 0 13 5 10 10 -3 6 -8 10 -10 10 -2
0 -7 -4 -10 -10z"/>
<path d="M2160 4590 c0 -32 4 -40 18 -40 38 0 60 61 26 74 -35 13 -44 7 -44
-34z"/>
<path d="M1884 4585 c-7 -18 3 -35 22 -35 8 0 14 10 14 25 0 27 -27 35 -36 10z"/>
<path d="M2260 4575 c0 -18 5 -25 20 -25 15 0 20 7 20 25 0 18 -5 25 -20 25
-15 0 -20 -7 -20 -25z"/>
<path d="M2340 4590 c0 -5 9 -10 21 -10 11 0 17 5 14 10 -3 6 -13 10 -21 10
-8 0 -14 -4 -14 -10z"/>
<path d="M1840 3780 c0 -5 5 -10 10 -10 6 0 10 5 10 10 0 6 -4 10 -10 10 -5 0
-10 -4 -10 -10z"/>
<path d="M2820 3775 c0 -8 5 -15 10 -15 6 0 10 7 10 15 0 8 -4 15 -10 15 -5 0
-10 -7 -10 -15z"/>
<path d="M2746 3745 c-3 -8 -1 -15 4 -15 6 0 10 7 10 15 0 8 -2 15 -4 15 -2 0
-6 -7 -10 -15z"/>
<path d="M2820 3730 c0 -13 5 -20 13 -17 6 2 12 10 12 17 0 7 -6 15 -12 18 -8
2 -13 -5 -13 -18z"/>
<path d="M2895 3780 c-7 -12 2 -30 16 -30 5 0 9 9 9 20 0 21 -15 27 -25 10z"/>
<path d="M3000 3739 c0 -11 5 -17 10 -14 6 3 10 13 10 21 0 8 -4 14 -10 14 -5
0 -10 -9 -10 -21z"/>
<path d="M1913 3744 c-8 -21 13 -42 28 -27 13 13 5 43 -11 43 -6 0 -13 -7 -17
-16z"/>
<path d="M2045 3750 c-3 -5 1 -10 9 -10 9 0 16 5 16 10 0 6 -4 10 -9 10 -6 0
-13 -4 -16 -10z"/>
<path d="M2210 3720 c0 -5 5 -10 10 -10 6 0 10 5 10 10 0 6 -4 10 -10 10 -5 0
-10 -4 -10 -10z"/>
<path d="M2483 3744 c-8 -21 13 -42 28 -27 13 13 5 43 -11 43 -6 0 -13 -7 -17
-16z"/>
<path d="M3104 3745 c-3 -8 -3 -19 1 -25 11 -18 25 -11 25 15 0 27 -17 34 -26
10z"/>
<path d="M3300 3720 c0 -5 4 -10 9 -10 6 0 13 5 16 10 3 6 -1 10 -9 10 -9 0
-16 -4 -16 -10z"/>
<path d="M3544 3745 c-3 -8 -3 -19 1 -25 11 -18 25 -11 25 15 0 27 -17 34 -26
10z"/>
<path d="M1710 3304 c0 -17 22 -14 28 4 2 7 -3 12 -12 12 -9 0 -16 -7 -16 -16z"/>
<path d="M2220 3275 c0 -8 5 -15 10 -15 6 0 10 7 10 15 0 8 -4 15 -10 15 -5 0
-10 -7 -10 -15z"/>
<path d="M1860 3293 c0 -5 14 -17 30 -26 17 -10 30 -14 30 -10 0 5 -13 17 -30
26 -16 10 -30 14 -30 10z"/>
<path d="M1830 3271 c0 -5 7 -11 15 -15 8 -3 15 -1 15 3 0 5 -7 11 -15 15 -8
3 -15 1 -15 -3z"/>
<path d="M2087 3284 c-9 -10 2 -24 19 -24 8 0 14 7 14 15 0 15 -21 21 -33 9z"/>
<path d="M3720 2385 c0 -8 5 -15 10 -15 6 0 10 7 10 15 0 8 -4 15 -10 15 -5 0
-10 -7 -10 -15z"/>
<path d="M4030 2385 c0 -8 5 -15 10 -15 6 0 10 7 10 15 0 8 -4 15 -10 15 -5 0
-10 -7 -10 -15z"/>
<path d="M3390 1995 c0 -8 7 -15 15 -15 8 0 15 7 15 15 0 8 -7 15 -15 15 -8 0
-15 -7 -15 -15z"/>
<path d="M3365 1590 c-4 -16 -4 -43 0 -60 6 -29 8 -30 65 -30 57 0 59 1 65 30
4 17 4 44 0 60 -6 29 -8 30 -65 30 -57 0 -59 -1 -65 -30z m115 10 c0 -5 -2
-10 -4 -10 -3 0 -8 5 -11 10 -3 6 -1 10 4 10 6 0 11 -4 11 -10z m-20 -15 c26
-32 -13 -81 -47 -59 -35 22 -23 74 17 74 10 0 23 -7 30 -15z"/>
<path d="M3410 1574 c-11 -12 -10 -18 3 -32 16 -15 18 -15 34 0 13 14 14 20 3
32 -7 9 -16 16 -20 16 -4 0 -13 -7 -20 -16z"/>
<path d="M5149 1595 c6 -11 24 -36 41 -55 17 -19 27 -26 21 -15 -5 11 -24 36
-41 55 -17 19 -26 26 -21 15z"/>
<path d="M3890 1549 c0 -10 2 -19 4 -19 7 0 61 30 56 31 -55 8 -60 7 -60 -12z"/>
<path d="M3930 1529 c0 -5 5 -7 10 -4 6 3 10 8 10 11 0 2 -4 4 -10 4 -5 0 -10
-5 -10 -11z"/>
<path d="M4007 1554 c-8 -8 1 -24 14 -24 5 0 9 7 9 15 0 15 -12 20 -23 9z"/>
<path d="M4140 1529 c0 -5 5 -7 10 -4 6 3 10 8 10 11 0 2 -4 4 -10 4 -5 0 -10
-5 -10 -11z"/>
</g>
</svg>
